<?xml version="1.0" encoding="UTF-8"?>
<svg width="17" height="17" version="1.1" viewBox="0 0 17 17" xmlns="http://www.w3.org/2000/svg">
 <rect width="17" height="17" fill="none"/>
 <rect x="1" y="1" width="15" height="15" rx="7.5" ry="7.5" fill="#bbb" stroke="#bbb" stroke-linejoin="round" stroke-width="2"/>
 <rect x="1" y="1" width="15" height="15" rx="7.5" ry="7.5" fill="#fff"/>
 <g transform="matrix(.10002 0 0 .10002 .99822 .9975)" fill="#725a50">
  <path d="m134.9 47.1-18.3 57c-0.3 0.8-1 1.4-1.9 1.4h-79.4c-0.9 0-1.6-0.6-1.9-1.4l-18.3-57c-0.3-1.1 0.2-2.2 1.3-2.5 1-0.3 2.2 0.2 2.5 1.3l6.3 19.5c0.1 0.1 0.3 0.2 0.4 0.3 3.4 3 8.5 3 11.8 0 4.9-4.4 12.3-4.4 17.2 0 3.4 3 8.5 3 11.8 0 4.9-4.4 12.3-4.4 17.2 0 3.4 3 8.5 3 11.8 0 4.9-4.4 12.3-4.4 17.2 0 3.4 3 8.5 3 11.8 0 0.1-0.1 0.3-0.2 0.4-0.3l6.3-19.5c0.3-1 1.5-1.6 2.5-1.3 1.1 0.3 1.6 1.4 1.3 2.5z" fill="#725a50"/>
 </g>
</svg>
