<svg width="21" height="21" version="1.1" viewBox="0 0 21 21" xmlns="http://www.w3.org/2000/svg"><rect width="21" height="21" fill="none"/><rect x="1" y="1" width="19" height="19" rx="9.5" ry="9.5" fill="#bbb" stroke="#bbb" stroke-linejoin="round" stroke-width="2"/><rect x="1" y="1" width="19" height="19" rx="9.5" ry="9.5" fill="#fff"/><path d="m6.5033 17.982c-0.3268-0.047623-0.66737-0.19304-0.93335-0.3986-0.41969-0.32435-0.68509-0.79753-0.74596-1.3299-0.01216-0.10627-0.01618-2.0311-0.012393-5.8679 0.00574-5.4377 0.00689-5.7162 0.037524-5.8416 0.1671-0.6927 0.65168-1.2256 1.3178-1.4492 0.30526-0.10247 0.11724-0.098572 4.4121-0.092262 4.3138 0.00689 3.9713-0.0023 4.2868 0.10626 0.66223 0.22748 1.1693 0.81739 1.294 1.5055 0.02834 0.15605 0.04292 11.429 0.01504 11.642-0.11942 0.91487-0.81522 1.6158-1.7132 1.7258-0.1931 0.02364-7.7958 0.02352-7.9583-1.03e-4zm5.219-2.0972c0.48464-0.09272 0.75002-0.47101 0.62323-0.88841-0.03385-0.11154-0.05313-0.14241-0.14791-0.23717-0.1112-0.1112-0.23888-0.18698-0.44728-0.26542-0.25218-0.09491-0.35446-0.16997-0.35446-0.26012 0-0.15178 0.17772-0.22685 0.44057-0.18608 0.07068 0.01143 0.17421 0.03845 0.23003 0.06093 0.09043 0.03649 0.10248 0.03787 0.11005 0.01248 0.05795-0.19301 0.11303-0.41338 0.10614-0.42454-0.01388-0.02238-0.21738-0.08423-0.34213-0.10397-0.66483-0.10489-1.1756 0.2459-1.106 0.75949 0.035 0.25821 0.2149 0.4312 0.61761 0.59404 0.24464 0.09891 0.31936 0.14956 0.34776 0.23564 0.02823 0.08538-0.01836 0.1809-0.11016 0.22572-0.13197 0.06449-0.43173 0.03569-0.68233-0.06552l-0.10075-0.04073-0.05657 0.2276c-0.06369 0.25614-0.06977 0.23541 0.08652 0.29466 0.2176 0.08251 0.54259 0.10786 0.78561 0.06139zm1.8096 0c0.28005-0.05359 0.4863-0.19683 0.59171-0.41095 0.05209-0.10592 0.05691-0.12981 0.05691-0.28294 0-0.14699-0.0058-0.17922-0.04843-0.26582-0.08802-0.17929-0.27295-0.31866-0.57222-0.43131-0.25217-0.09491-0.35445-0.16997-0.35445-0.26012 0-0.15178 0.17774-0.22686 0.44057-0.18608 0.07068 0.01143 0.17421 0.03845 0.23003 0.06093 0.09043 0.03649 0.10236 0.03787 0.11005 0.01248 0.05795-0.19301 0.11303-0.41338 0.10614-0.42455-0.01491-0.0241-0.22158-0.08527-0.3597-0.10638-0.07275-0.01143-0.20658-0.01584-0.29867-0.01033-0.48335 0.02778-0.79216 0.2917-0.7956 0.67994-0.0011 0.17359 0.05898 0.31426 0.18726 0.43549 0.11576 0.10936 0.20233 0.15901 0.44792 0.25693 0.10982 0.04383 0.22583 0.09949 0.25772 0.12385 0.12664 0.09663 0.11303 0.25425-0.02812 0.32628-0.13767 0.07023-0.4258 0.04499-0.68596-0.06013l-0.10076-0.04073-0.05657 0.2276c-0.06369 0.25614-0.06977 0.23541 0.08652 0.29466 0.2176 0.08251 0.54258 0.10786 0.78561 0.06139zm-6.1592-0.40667v-0.39758l0.06059 0.01033c0.10259 0.01664 0.39006-0.01951 0.52316-0.06575 0.33634-0.11696 0.50548-0.35149 0.50548-0.7009 0-0.34256-0.15899-0.56465-0.48313-0.67483-0.13843-0.04705-0.14695-0.04774-0.5622-0.04579-0.23192 0.0011-0.46118 0.0092-0.50949 0.01756l-0.087786 0.01549-0.00459 1.1198-0.00459 1.1198h0.56246zm0.057147-0.82784-0.057147-0.0069v-0.61268h0.1544c0.24297 0 0.36629 0.0809 0.38568 0.25296 0.017327 0.15361-0.072524 0.29946-0.21023 0.34127-0.072639 0.02203-0.19853 0.03363-0.27275 0.02502zm1.6413 1.0058c0.032246-0.11595 0.066786-0.24066 0.076884-0.27712l0.01836-0.06633 0.60239 0.0091 0.081245 0.27231 0.081245 0.27232 0.30403 0.0045c0.26641 0.0045 0.30275 0.0011 0.29375-0.02192-8e-3 -0.02134-0.65495-2.0933-0.68986-2.21-0.00803-0.02857-0.03741-0.03075-0.36343-0.0264l-0.35412 0.0045-0.33811 1.1068c-0.18596 0.60875-0.33831 1.1169-0.33854 1.1292-3.442e-4 0.01745 0.062425 0.02134 0.28365 0.01756l0.28409-0.0045zm0.21888-0.9004c0.019278-0.06517 0.064606-0.23506 0.10087-0.37738l0.065983-0.2588 0.1019 0.35541c0.056114 0.19548 0.10569 0.36531 0.11016 0.3774 0.00574 0.01676-0.041311 0.02192-0.20279 0.02192h-0.21106zm1.8424-1.9974c0.75148-0.10121 1.4576-0.41884 2.0359-0.91588 1.242-1.0674 1.6818-2.81 1.097-4.3469-0.3445-0.9053-1.0432-1.6743-1.9132-2.1056-0.3676-0.18224-0.71964-0.29507-1.1406-0.36555-0.29678-0.049688-0.94111-0.045557-1.2386 0.0080326-0.8544 0.1535-1.5787 0.5361-2.1659 1.1441-0.57329 0.59358-0.93037 1.3162-1.0601 2.145-0.043835 0.28019-0.043835 0.84476 1.263e-4 1.1244 0.20525 1.3074 0.98822 2.3764 2.1631 2.9529 0.45057 0.22113 0.90087 0.34146 1.467 0.39206 0.13475 0.01205 0.56184-0.0058 0.75545-0.03225zm-0.78607-0.32526c-0.4053-0.14588-0.77302-0.58972-1.0443-1.2606-0.056917-0.14063-0.10052-0.25861-0.096851-0.26222 0.00344-0.0034 0.12048-0.02571 0.25976-0.04912 0.24862-0.04177 0.48842-0.06759 0.82862-0.08916l0.17129-0.01033v0.85314c0 0.46924-0.0057 0.85285-0.0132 0.85251-0.0069-3.44e-4 -0.05462-0.0156-0.10523-0.03374zm0.43469-0.81909c0-0.84755 1.38e-4 -0.85066 0.03626-0.85066 0.21253 0 0.89881 0.07574 1.1196 0.12363 0.10833 0.02352 0.10879 5.62e-4 -0.0058 0.2833-0.17472 0.4301-0.35198 0.71288-0.60405 0.96358-0.16958 0.16867-0.32738 0.2716-0.47981 0.31296l-0.06587 0.0179zm-1.3352 0.6679c-0.37844-0.12723-0.81546-0.37272-1.1226-0.6306-0.14946-0.12547-0.34648-0.32102-0.33456-0.33205 0.00459-0.0034 0.10661-0.05072 0.22738-0.10397 0.21308-0.09387 0.59034-0.22358 0.65024-0.22358 0.021458 0 0.047738 0.04934 0.095818 0.18008 0.14692 0.39929 0.39327 0.83456 0.60655 1.0717 0.049918 0.05554 0.084343 0.10087 0.076311 0.10076-0.00803-1.6e-4 -0.09754-0.02823-0.19906-0.06231zm2.1897-0.01205c0.23161-0.24288 0.46616-0.65088 0.63124-1.0981 0.05095-0.13804 0.0739-0.18008 0.09846-0.18008 0.08905 0 0.77428 0.25785 0.85449 0.32153 0.01779 0.01405-0.0034 0.04544-0.09663 0.1396-0.26143 0.26541-0.58961 0.49532-0.95773 0.6709-0.20749 0.09904-0.52827 0.22076-0.58148 0.22076-0.01033 0 0.0125-0.03363 0.05164-0.0747zm-4.0058-1.388c-0.34377-0.51821-0.54499-1.0933-0.59937-1.7129l-0.011471-0.12738h1.5591l0.021344 0.31185c0.027082 0.39543 0.060245 0.64767 0.12894 0.97945 0.07654 0.36942 0.080442 0.34254-0.05577 0.38224-0.27442 0.07998-0.75292 0.27103-0.85097 0.33971-0.019393 0.01354-0.041081 0.02468-0.048082 0.02468-0.00689 0-0.071836-0.08893-0.14396-0.19764zm5.6811 0.12514c-0.16566-0.08607-0.4459-0.19676-0.68519-0.27074-0.21567-0.06668-0.20386-0.03615-0.13562-0.35073 0.06758-0.31154 0.11524-0.66227 0.13908-1.0234l0.02111-0.32063h1.5607l-0.01143 0.1186c-0.05635 0.58084-0.21094 1.0749-0.47864 1.5299-0.10626 0.18053-0.25182 0.39086-0.26819 0.38751-0.0058-0.0011-0.06931-0.03282-0.14175-0.07046zm-4.2156-0.46615c-0.09054-0.31925-0.19342-1.0608-0.19404-1.3983l-1.836e-4 -0.10098h1.5637v0.70276c0 0.65747-0.0023 0.70277-0.03075 0.70303-0.30962 0.0023-1.0236 0.08675-1.2763 0.15017-0.038327 0.0092-0.045328 0.0034-0.062311-0.05669zm2.8325 0.02834c-0.21349-0.042-0.5509-0.08423-0.76919-0.09628-0.09662-0.0058-0.22519-0.014-0.2857-0.01917l-0.11005-0.0092 0.0046-0.69694 0.0046-0.69693 1.56-0.0091-0.01229 0.24177c-0.0069 0.13297-0.028 0.3643-0.04705 0.51407-0.04004 0.31368-0.1395 0.79492-0.16536 0.80038-0.0092 0.0023-0.09043-0.01033-0.17952-0.02812zm-4.8978-1.9625c0.066556-0.68304 0.29769-1.3142 0.66465-1.8154l0.071836-0.098 0.19399 0.091687c0.21058 0.099605 0.51343 0.21433 0.69469 0.26328 0.062769 0.016983 0.12074 0.036606 0.12873 0.043607 0.00803 0.00689-0.00918 0.12248-0.038098 0.25652-0.083311 0.38601-0.1298 0.73694-0.15376 1.1617l-0.01216 0.21521h-1.5615zm1.8777-0.09662c0.022491-0.40864 0.10913-1.0021 0.18704-1.2809l0.017901-0.064262 0.10248 0.023868c0.19429 0.045328 0.59155 0.095819 0.92013 0.11707l0.32941 0.02123v1.3981h-1.5688zm1.8733-0.48543v-0.70064l0.20643-0.011594c0.29539-0.016521 0.66437-0.058749 0.91366-0.10454l0.21531-0.03959 0.01779 0.062541c0.08974 0.31572 0.19213 1.0517 0.19269 1.3847l1.83e-4 0.10982h-1.5461zm1.8557 0.47537c-0.02227-0.4223-0.07298-0.79536-0.1622-1.1951-0.02444-0.10959-0.042-0.20172-0.0389-0.20466 0.0034-0.00344 0.13972-0.050032 0.30359-0.10465 0.16388-0.054623 0.39391-0.14519 0.51119-0.20131l0.21324-0.10202 0.10373 0.14696c0.34376 0.4871 0.57415 1.1287 0.63153 1.7587l0.01168 0.12736h-1.562zm-2.6584-1.5232c-0.33627-0.030525-0.77839-0.10029-0.77839-0.1229 0-0.0023 0.034426-0.09077 0.076655-0.19556 0.21326-0.53034 0.47896-0.93278 0.75218-1.1393 0.1253-0.094671 0.33578-0.20207 0.39611-0.20207h0.04005v1.6866l-0.11859-0.0023c-0.06518-0.00114-0.2308-0.012282-0.36797-0.024671zm0.78522-0.81652v-0.8433h0.04005c0.05829 0 0.26833 0.10592 0.39247 0.19794 0.20048 0.14861 0.4589 0.49114 0.61391 0.81373 0.08802 0.18308 0.2218 0.51941 0.21099 0.53023-0.04028 0.040278-0.87958 0.1447-1.1633 0.1447h-0.0941zm-2.0731 0.57362c-0.29524-0.091573-0.70274-0.26101-0.70274-0.29209 0-0.02077 0.24819-0.2525 0.39531-0.36916 0.30643-0.24301 0.68878-0.45325 1.0522-0.57858 0.11429-0.039475 0.2114-0.07172 0.21578-0.07172 0.00459 0-0.035573 0.051295-0.088705 0.11395-0.25821 0.30436-0.45911 0.6656-0.60919 1.0954-0.030983 0.088589-0.061164 0.16068-0.067245 0.16023-0.00574-4.359e-4 -0.093983-0.026508-0.19545-0.058065zm3.578-0.1309c-0.14057-0.391-0.39463-0.84165-0.60861-1.0796-0.04992-0.05554-0.08824-0.10087-0.08503-0.10075 0.02295 0.00104 0.29504 0.093524 0.40988 0.13934 0.3971 0.15837 0.85307 0.46121 1.1508 0.7643 0.09284 0.094557 0.10924 0.11939 0.08779 0.13297-0.06874 0.043491-0.41626 0.18632-0.59734 0.24538-0.32014 0.10442-0.27918 0.11606-0.35746-0.10167z" fill="#725a50" stroke-width=".017568"/></svg>
