<?xml version="1.0" encoding="UTF-8"?>
<svg width="21" height="21" version="1.1" viewBox="0 0 21 21" xmlns="http://www.w3.org/2000/svg">
 <rect width="21" height="21" fill="none"/>
 <rect x="1" y="1" width="19" height="19" rx="9.5" ry="9.5" fill="#bbb" stroke="#bbb" stroke-linejoin="round" stroke-width="2"/>
 <rect x="1" y="1" width="19" height="19" rx="9.5" ry="9.5" fill="#fff"/>
 <path d="m10.468 7.1831s-1.9062-2.0677-6.9677-2.0677v8.6154c5.0615 0 6.9677 2.1538 6.9677 2.1538s1.9708-2.1538 7.0323-2.1538v-8.6154c-5.0615 0-7.0323 2.0677-7.0323 2.0677zm5.9554 5.4708c-2.1123 0.05299-4.1706 0.67835-5.9554 1.8092-1.7597-1.1337-3.7981-1.7598-5.8908-1.8092v-6.4615c3.6615 0.28 5.0938 1.7231 5.1154 1.7338l0.78615 0.79692 0.77538-0.80769s1.5077-1.4431 5.1692-1.7231zm-5.3846 0.25846-0.10769-0.18308c1.4012-0.63872 2.8891-1.0669 4.4154-1.2708v0.21538c-1.4904 0.21032-2.9417 0.63851-4.3077 1.2708zm0-1.0769-0.10769-0.18308c1.4017-0.63517 2.8896-1.0597 4.4154-1.26v0.21538c-1.4909 0.21409-2.9423 0.64583-4.3077 1.2815zm0-1.0769-0.10769-0.18308c1.4016-0.63539 2.8895-1.06 4.4154-1.26v0.21538c-1.491 0.21334-2.9425 0.64508-4.3077 1.2815zm0-1.0769-0.10769-0.18308c1.4014-0.63603 2.8894-1.0607 4.4154-1.26v0.21538c-1.4909 0.21388-2.9423 0.64572-4.3077 1.2815zm-1.1846 3.2308c-1.3312-0.6202-2.7463-1.0411-4.2-1.2492v-0.21538c1.4939 0.2184 2.9462 0.66134 4.3077 1.3138zm0-1.0769c-1.3323-0.61277-2.7474-1.0264-4.2-1.2277v-0.21538c1.4926 0.21829 2.9444 0.65746 4.3077 1.3031zm0-1.0769c-1.332-0.61331-2.7473-1.0271-4.2-1.2277v-0.21538c1.4935 0.21431 2.9458 0.65369 4.3077 1.3031zm0-1.0769c-1.3323-0.61277-2.7474-1.0264-4.2-1.2277v-0.21538c1.4926 0.21797 2.9445 0.65714 4.3077 1.3031z" fill="#725a50" stroke-width="1.0769"/>
</svg>
