<?xml version="1.0" encoding="UTF-8"?>
<svg width="17" height="17" version="1.1" viewBox="0 0 17 17" xmlns="http://www.w3.org/2000/svg">
 <rect width="17" height="17" fill="none"/>
 <rect x="1" y="1" width="15" height="15" rx="7.5" ry="7.5" fill="#bbb" stroke="#bbb" stroke-linejoin="round" stroke-width="2"/>
 <rect x="1" y="1" width="15" height="15" rx="7.5" ry="7.5" fill="#fff"/>
 <path d="m5.4132 5.9323c-0.12466-0.075881-0.16802-0.2439-0.092141-0.36856l0.63415-1.0569 0.55827-0.92683c0.21138-0.3523 0.72087-0.3523 0.93225 0l0.80217 1.3333-0.66667 1.1165-0.39025 0.65041c-0.086721 0.12466-0.25474 0.16802-0.38482 0.092141zm8.4119 3.0136-0.72629-1.2141c-0.07588-0.12466-0.23848-0.16802-0.36856-0.09756l-1.4092 0.81301c-0.13008 0.075884-0.17344 0.2439-0.09756 0.37398l1.0569 1.7669h0.59079c0.33062 0 0.65041-0.14092 0.86179-0.39566 0.1626-0.20054 0.2439-0.44445 0.2439-0.68835 0-0.19512-0.05419-0.38482-0.15176-0.55827zm-3.1003 4.3523h0.81301c0.41193 0 0.78591-0.23306 0.97019-0.60163l0.78591-1.5664h-2.5691v-0.42819c0-0.2439-0.29268-0.36314-0.4607-0.1897l-1.5122 1.5122c-0.1084 0.1084-0.1084 0.27642 0 0.38482l1.5122 1.5122c0.16802 0.16802 0.4607 0.04878 0.4607-0.1897zm-3.523-2.168h-2.0596l-0.45529 0.76423c-0.1626 0.271-0.17344 0.60705-0.032521 0.89431 0.15176 0.30894 0.47155 0.50949 0.82385 0.50949h1.7236c0.15176 0 0.271-0.11924 0.271-0.271v-1.626c0-0.15176-0.11924-0.271-0.271-0.271zm-1.832-1.4363 0.3794 0.22764c0.20596 0.12466 0.46071-0.065041 0.40108-0.2981l-0.52033-2.0813c-0.032521-0.14092-0.17886-0.23306-0.3252-0.19512l-2.0759 0.52033c-0.23306 0.05962-0.28184 0.36857-0.075882 0.49323l0.35773 0.2168-0.22222 0.37398c-0.1897 0.31978-0.20596 0.71003-0.03794 1.0407l0.88347 1.7669zm5.9079-4.9919-0.70461-1.1762c-0.20054-0.3252-0.55285-0.52575-0.93225-0.52575h-1.9133l1.6911 2.8184-0.37398 0.22222c-0.20596 0.12466-0.1626 0.43903 0.075884 0.49323l2.0759 0.52033c0.14634 0.037941 0.29268-0.0542 0.33063-0.19512l0.52032-2.0759c0.05962-0.23306-0.19512-0.42277-0.40108-0.2981z" fill="#725a50" stroke-width=".54201"/>
</svg>
