<?xml version="1.0" encoding="UTF-8" standalone="no"?>
<svg
   viewBox="0 0 21 21"
   height="21"
   width="21"
   version="1.1"
   xmlns="http://www.w3.org/2000/svg"
   xmlns:svg="http://www.w3.org/2000/svg">
  <rect
     fill="none"
     x="0"
     y="0"
     width="21"
     height="21"
     id="rect240" />
  <rect
     x="1"
     y="1"
     rx="9.5"
     ry="9.5"
     width="19"
     height="19"
     stroke="#bbb"
     style="stroke-linejoin:round;stroke-miterlimit:4;"
     fill="#bbb"
     stroke-width="2"
     id="rect242" />
  <rect
     x="1"
     y="1"
     width="19"
     height="19"
     rx="9.5"
     ry="9.5"
     fill="#fff"
     id="rect244" />
  <path
     fill="#725a50"
     d="m 10.484335,3.5 -1.0026114,1 c 0.06256,0.4367913 0.07838,0.7749534 0.125326,1.1562499 -1.2243947,0.3798344 -2.1305487,1.497556 -2.1305487,2.8437495 0,1.3565486 0.9229011,2.4727986 2.1618797,2.8437496 -0.05102,0.376104 -0.08535,0.72952 -0.156658,1.15625 l 0.5013072,0.5 V 13.40625 C 9.0614043,12.785538 8.0815131,12.095245 7.4765011,11.499999 5.4436861,9.4999994 5.980323,5.9999999 8.4791121,4.5 6.4800811,4.9999999 4.5,6.8084096 4.5,9.4999994 4.5,12.499999 7.4765011,13.5 7.4765011,14.5 l 1.002611,-1 1.2845965,0.71875 c -0.6141704,0.379568 -1.2845965,0.781249 -1.2845965,0.781249 l 0.5013061,0.5 1.0652748,-0.59375 v 0.71875 C 9.7202596,15.79025 9.4817236,16.110805 9.4817236,16.5 c 0,0.552285 0.4488851,1 1.0026114,1 0.553727,0 1.00261,-0.447715 1.00261,-1 0,-0.389195 -0.207204,-0.70975 -0.532636,-0.875001 v -0.71875 l 1.033943,0.59375 0.501304,-0.5 c 0,0 -0.706716,-0.442729 -1.253263,-0.781249 L 12.489556,13.5 l 1.002612,1 C 13.492168,13.5 16.5,12.499999 16.5,9.4999994 16.5,6.8084096 14.494779,4.9999999 12.489556,4.5 c 2.506528,1.4999999 3.041722,4.9999994 1.002612,6.999999 -0.614801,0.60301 -1.571219,1.310953 -2.506527,1.9375 v -0.4375 l 0.501304,-0.5 c -0.06922,-0.414223 -0.106553,-0.774891 -0.156657,-1.15625 1.238979,-0.370951 2.16188,-1.487201 2.16188,-2.8437496 0,-1.3565489 -0.922901,-2.472797 -2.16188,-2.8437495 C 11.380378,5.2748912 11.417728,4.9142232 11.486945,4.5 Z m 0.720626,3.1249998 c 0.753331,0.2877742 1.284595,1.0224103 1.284595,1.8749996 0,0.85259 -0.531264,1.5872256 -1.284595,1.8749996 -0.121265,-1.2890406 -0.121265,-2.460958 0,-3.7499992 z m -1.5039164,0.031251 c 0.009,-0.00381 0.02227,0.00367 0.03133,0 0.134926,1.3899024 0.151013,2.4826366 0.03133,3.7187492 C 9.0103732,10.087225 8.4791092,9.3525894 8.4791092,8.4999994 c 0,-0.8284264 0.502228,-1.5401327 1.2219324,-1.8437491 z M 7.9778071,15.499999 c -0.276864,0 -0.501306,0.223859 -0.501306,0.500001 0,0.276141 0.224442,0.5 0.501306,0.5 0.2768631,0 0.501305,-0.223859 0.501305,-0.5 0,-0.276142 -0.2244419,-0.500001 -0.501305,-0.500001 z m 5.0130549,0 c -0.276863,0 -0.501306,0.223859 -0.501306,0.500001 0,0.276141 0.224443,0.5 0.501306,0.5 0.276864,0 0.501306,-0.223859 0.501306,-0.5 0,-0.276142 -0.224442,-0.500001 -0.501306,-0.500001 z"
     id="sikhist"
     style="stroke-width:1" />
</svg>
