<?xml version="1.0" encoding="UTF-8" standalone="no"?>
<svg
   viewBox="0 0 21 21"
   height="21"
   width="21"
   version="1.1"
   xmlns="http://www.w3.org/2000/svg"
   xmlns:svg="http://www.w3.org/2000/svg">
  <rect
     fill="none"
     x="0"
     y="0"
     width="21"
     height="21"
     id="rect261" />
  <rect
     x="1"
     y="1"
     rx="9.5"
     ry="9.5"
     width="19"
     height="19"
     stroke="#bbb"
     style="stroke-linejoin:round;stroke-miterlimit:4;"
     fill="#bbb"
     stroke-width="2"
     id="rect263" />
  <rect
     x="1"
     y="1"
     width="19"
     height="19"
     rx="9.5"
     ry="9.5"
     fill="#fff"
     id="rect265" />
  <path
     fill="#725a50"
     d="m 9.5,4 c -3.390415,0 -6,2.6096 -6,6 0,3.3904 2.609585,6 6,6 1.89566,0 3.873911,-0.6497 5,-2 -0.7358,0.479 -2.056597,1 -3,1 -2.59267,0 -5,-2.4073 -5,-5 0,-2.5927 2.40733,-5 5,-5 0.943403,0 2.2642,0.5211 3,1 C 13.373911,4.6498 11.39566,4 9.5,4 Z M 14,7 13,9 h -2.5 l 2,1.5 -1,2.5 2.5,-1.5 2.5,1.5 -1,-2.5 2,-1.5 H 15 Z"
     id="muslim" />
</svg>
