<?xml version="1.0" encoding="UTF-8" standalone="no"?>
<svg
   viewBox="0 0 21 21"
   height="21"
   width="21"
   version="1.1"
   xmlns="http://www.w3.org/2000/svg"
   xmlns:svg="http://www.w3.org/2000/svg">
  <rect
     fill="none"
     x="0"
     y="0"
     width="21"
     height="21"
     id="rect240" />
  <rect
     x="1"
     y="1"
     rx="9.5"
     ry="9.5"
     width="19"
     height="19"
     stroke="#bbb"
     style="stroke-linejoin:round;stroke-miterlimit:4;"
     fill="#bbb"
     stroke-width="2"
     id="rect242" />
  <rect
     x="1"
     y="1"
     width="19"
     height="19"
     rx="9.5"
     ry="9.5"
     fill="#fff"
     id="rect244" />
  <path
     fill="#725a50"
     d="M 10.477944,3.0000111 C 10.213454,2.9977211 9.9572547,3.3492517 9.9406747,4.0409708 6.8277177,4.3144961 4.30613,6.8373318 4.0307095,9.9509356 c -1.3650891,0 -1.383439,1.0413794 0,1.0745394 0.2453377,3.133963 2.7774972,5.608296 5.9099652,5.876387 0,1.509351 1.0745393,1.457124 1.0745393,0 3.154197,-0.238865 5.637505,-2.720645 5.876385,-5.876387 1.498584,0 1.457007,-1.0745394 0,-1.0745394 -0.268209,-3.1352419 -2.741921,-5.666228 -5.876385,-5.9099648 0,-0.6825446 -0.272781,-1.0386661 -0.53727,-1.0409597 z M 9.9406747,5.4513034 V 9.2121902 L 7.2879057,6.5594218 c 0.739812,-0.6018901 1.651063,-0.9977534 2.652769,-1.1081184 z m 1.0745393,0 c 1.000793,0.1061268 1.906244,0.5108683 2.652768,1.1081184 l -2.652768,2.6527684 z m 3.425093,1.846864 c 0.600394,0.7389035 0.997394,1.6512023 1.108119,2.6527682 h -3.760887 z m -7.8911463,0.033579 2.619189,2.6191892 h -3.727308 c 0.11571,-0.9828595 0.51888,-1.8872242 1.108119,-2.6191892 z m 3.9287833,2.3505542 c 0.445088,0 0.805905,0.3608154 0.805905,0.8059044 0,0.445089 -0.360817,0.805905 -0.805905,0.805905 -0.445089,0 -0.8059043,-0.360816 -0.8059043,-0.805905 0,-0.445089 0.3608153,-0.8059044 0.8059043,-0.8059044 z M 5.4410417,11.025475 h 3.794466 l -2.686347,2.686348 C 5.9433037,12.96261 5.5452237,12.036752 5.4410417,11.025475 Z m 6.2793383,0 h 3.828046 c -0.107628,1.02294 -0.530466,1.935825 -1.141698,2.686348 z m -1.7797053,0.772326 v 3.760887 C 8.9391087,15.447964 8.0268097,15.050964 7.2879057,14.45057 Z m 1.0745393,0 2.652768,2.686348 c -0.738949,0.584919 -1.653537,0.972717 -2.652768,1.074539 z"
     id="buddhist"
     style="stroke-width:1.07454" />
</svg>
