<?xml version="1.0" encoding="UTF-8" standalone="no"?>
<svg
   viewBox="0 0 21 21"
   height="21"
   width="21"
   version="1.1"
   xmlns="http://www.w3.org/2000/svg"
   xmlns:svg="http://www.w3.org/2000/svg">
  <rect
     fill="none"
     x="0"
     y="0"
     width="21"
     height="21"
     id="rect240" />
  <rect
     x="1"
     y="1"
     rx="9.5"
     ry="9.5"
     width="19"
     height="19"
     stroke="#bbb"
     style="stroke-linejoin:round;stroke-miterlimit:4;"
     fill="#bbb"
     stroke-width="2"
     id="rect242" />
  <rect
     x="1"
     y="1"
     width="19"
     height="19"
     rx="9.5"
     ry="9.5"
     fill="#fff"
     id="rect244" />
  <path
     fill="#725a50"
     d="M 10.5,18.000001 C 14.633655,18.000001 18,14.604519 18,10.5 18,6.3954826 14.654223,3 10.5,3 6.3457779,3 3,6.3642108 3,10.5 c 0,4.135791 3.3663451,7.500001 7.5,7.500001 z m 0,-1.071429 c -3.5567474,0 -6.4285714,-2.871825 -6.4285714,-6.428572 0,-3.5567471 2.871824,-6.4285714 6.4285714,-6.4285714 3.214286,0 4.285714,5.8707803 0,6.4285714 -4.2857141,0.557793 -3.1234862,6.428572 0,6.428572 z m 0,-2.142858 c -0.5917344,0 -1.0714284,-0.479695 -1.0714284,-1.071428 0,-0.591733 0.479694,-1.071428 1.0714284,-1.071428 0.591735,0 1.07143,0.479695 1.07143,1.071428 0,0.591733 -0.479695,1.071428 -1.07143,1.071428 z m 0,-6.4285701 c 0.591735,0 1.07143,-0.479696 1.07143,-1.07143 0,-0.591733 -0.479695,-1.0714281 -1.07143,-1.0714281 -0.5917344,0 -1.0714284,0.4796951 -1.0714284,1.0714281 0,0.591734 0.479694,1.07143 1.0714284,1.07143 z"
     id="taoist"
     style="stroke-width:1.07143" />
</svg>
