<svg width="17" height="17" version="1.1" viewBox="0 0 17 17" xmlns="http://www.w3.org/2000/svg"><rect x="1" y="1" width="15" height="15" rx="7.5" ry="7.5" fill="#bbb" stroke="#bbb" stroke-linejoin="round" stroke-width="2"/><rect x="1" y="1" width="15" height="15" rx="7.5" ry="7.5" fill="#fff"/><path d="m8.5196 2.5003c-0.22894-0.0074-0.44338 0.11507-0.56143 0.32082l-1.295 2.324h-2.637c-0.49221 8.13e-5 -0.7975 0.56152-0.54383 1.0035l1.3107 2.3514-1.3107 2.3514c-0.25367 0.44209 0.051616 1.0054 0.54383 1.0055h2.6389l1.2931 2.322c0.11081 0.19314 0.30744 0.31366 0.52231 0.32082 0.22894 0.0074 0.44338-0.11507 0.56143-0.32082l1.295-2.322h2.637c0.49221-8.1e-5 0.7975-0.56348 0.54383-1.0055l-1.3107-2.3514 1.3107-2.3494c0.25367-0.44209-0.051616-1.0054-0.54383-1.0055h-2.637l-1.295-2.324c-0.11081-0.19314-0.30744-0.31366-0.52231-0.32082z" fill="#725a50" stroke-width=".81357"/></svg>
