<?xml version="1.0" encoding="UTF-8" standalone="no"?>
<svg
   width="17"
   height="17"
   version="1.1"
   viewBox="0 0 17 17"
   xmlns="http://www.w3.org/2000/svg"
   xmlns:svg="http://www.w3.org/2000/svg">
  <rect
     x="1"
     y="1"
     width="15"
     height="15"
     rx="7.5"
     ry="7.5"
     fill="#bbb"
     stroke="#bbb"
     stroke-linejoin="round"
     stroke-width="2"
     id="rect223" />
  <rect
     x="1"
     y="1"
     width="15"
     height="15"
     rx="7.5"
     ry="7.5"
     fill="#fff"
     id="rect225" />
  <path
     fill="#725a50"
     style="stroke-width:0.746064"
     id="jewish"
     d="M 8.4928568,2.5 6.778088,5.5 H 3.35 L 5.0647688,8.4999998 3.35,11.499999 H 6.778088 L 8.4928568,14.5 10.207626,11.499999 h 3.428087 L 11.920945,8.4999998 13.635714,5.5 h -3.428088 z m 0,1.5014648 L 9.3495164,5.5 H 7.6361972 Z M 4.6371637,6.2499999 H 6.3504829 L 5.4938233,7.748535 Z m 2.5714284,0 H 9.777122 L 11.062836,8.4999998 9.777122,10.75 H 7.2085921 L 5.9228779,8.4999998 Z m 3.4266389,0 h 1.713318 L 11.491891,7.748535 Z M 5.4938233,9.2514647 6.3504829,10.75 H 4.6371637 Z m 5.9980677,0 L 12.348549,10.75 H 10.635231 Z M 7.6361972,11.499999 h 1.7133192 l -0.8566596,1.498536 z" />
</svg>
