<?xml version="1.0" encoding="UTF-8" standalone="no"?>
<svg
   width="21"
   height="21"
   version="1.1"
   viewBox="0 0 21 21"
   xmlns="http://www.w3.org/2000/svg"
   xmlns:svg="http://www.w3.org/2000/svg">
  <rect
     x="1"
     y="1"
     width="19"
     height="19"
     rx="9.5"
     ry="9.5"
     fill="#bbb"
     stroke="#bbb"
     stroke-linejoin="round"
     stroke-width="2"
     id="rect235" />
  <rect
     x="1"
     y="1"
     width="19"
     height="19"
     rx="9.5"
     ry="9.5"
     fill="#fff"
     id="rect237" />
  <path
     d="M 10.524,3.0004 C 10.23783,2.99115 9.96977,3.14423 9.82221,3.40142 l -1.6188,2.905 h -3.2962 c -0.61526,1.017e-4 -0.99687,0.7019 -0.67978,1.2544 l 1.6383,2.9392 -1.6383,2.9392 c -0.31709,0.55262 0.06452,1.2568 0.67978,1.2569 h 3.2987 l 1.6163,2.9025 c 0.13851,0.24143 0.3843,0.39208 0.65288,0.40102 0.28617,0.0093 0.55423,-0.14384 0.70179,-0.40102 l 1.6188,-2.9025 h 3.2962 c 0.61526,-1.01e-4 0.99687,-0.70434 0.67978,-1.2569 l -1.6383,-2.9392 1.6383,-2.9368 C 17.08875,7.0106 16.70714,6.30642 16.09188,6.30632 h -3.2962 l -1.6188,-2.905 C 11.03837,3.15989 10.79258,3.00925 10.524,3.0003 Z"
     fill="#725a50"
     stroke-width="1.017"
     id="path239"
     style="display:none" />
  <path
     fill="#725a50"
     style="stroke-width:0.93258"
     id="jewish"
     d="M 10.428571,3 8.2851106,6.75 H 4 L 6.143461,10.5 4,14.25 H 8.2851106 L 10.428571,18 12.572033,14.25 h 4.285109 L 14.713681,10.5 16.857143,6.75 h -4.28511 z m 0,1.8768311 L 11.499396,6.75 H 9.3577467 Z M 5.6089542,7.6875 H 7.7506039 L 6.6797796,9.560669 Z m 3.2142857,0 H 12.033903 L 13.641046,10.5 12.033903,13.3125 H 8.8232399 L 7.2160971,10.5 Z m 4.2833001,0 h 2.141647 L 14.177364,9.560669 Z M 6.6797796,11.439331 7.7506039,13.3125 H 5.6089542 Z m 7.4975844,0 1.070823,1.873169 H 13.10654 Z M 9.3577467,14.25 h 2.1416493 l -1.070825,1.873169 z" />
</svg>
