<?xml version="1.0" encoding="UTF-8" standalone="no"?>
<svg
   viewBox="0 0 17 17"
   height="17"
   width="17"
   version="1.1"
   xmlns="http://www.w3.org/2000/svg"
   xmlns:svg="http://www.w3.org/2000/svg">
  <rect
     fill="none"
     x="0"
     y="0"
     width="17"
     height="17"
     id="rect16" />
  <rect
     x="1"
     y="1"
     rx="7.5"
     ry="7.5"
     width="15"
     height="15"
     stroke="#bbb"
     style="stroke-linejoin:round;stroke-miterlimit:4;"
     fill="#bbb"
     stroke-width="2"
     id="rect18" />
  <rect
     x="1"
     y="1"
     width="15"
     height="15"
     rx="7.5"
     ry="7.5"
     fill="#fff"
     id="rect20" />
  <path
     fill="#725a50"
     d="M 8.4838257,3.0000081 C 8.2898661,2.9983297 8.1019868,3.2561179 8.089828,3.7633786 5.806993,3.9639638 3.9578288,5.8140432 3.7558538,8.0973528 c -1.0010655,0 -1.0145221,0.7636778 0,0.7879953 0.1799143,2.2982399 2.0368315,4.1127509 4.3339742,4.3093509 0,1.106857 0.7879953,1.068557 0.7879953,0 2.3130787,-0.175168 4.1341697,-1.99514 4.3093497,-4.3093509 1.098961,0 1.068471,-0.7879953 0,-0.7879953 C 12.990486,5.7981753 11.17643,3.9421189 8.8778233,3.7633786 c 0,-0.5005328 -0.2000389,-0.7616885 -0.3939976,-0.7633705 z M 8.089828,4.7976224 V 7.555606 L 6.1444646,5.6102426 C 6.686993,5.1688565 7.3552438,4.8785568 8.089828,4.7976224 Z m 0.7879953,0 c 0.7339152,0.077826 1.3979127,0.3746368 1.9453637,0.8126202 L 8.8778233,7.555606 Z m 2.5117347,1.354367 c 0.44029,0.5418625 0.731422,1.2108816 0.812621,1.9453634 H 9.444195 Z M 5.6027178,6.1766144 7.5234564,8.097353 H 4.7900976 C 4.8749513,7.3765893 5.1706095,6.7133886 5.6027178,6.1766144 Z m 2.8811079,1.7237398 c 0.3263979,0 0.5909965,0.264598 0.5909965,0.5909965 0,0.3263987 -0.2645986,0.5909964 -0.5909965,0.5909964 -0.3263987,0 -0.5909965,-0.2645977 -0.5909965,-0.5909964 0,-0.3263985 0.2645978,-0.5909965 0.5909965,-0.5909965 z M 4.7900976,8.8853481 H 7.5727061 L 5.6027178,10.855337 C 5.1584232,10.305914 4.8664977,9.6269514 4.7900976,8.8853481 Z m 4.6048477,0 H 12.202179 C 12.123249,9.6355043 11.81317,10.304953 11.364934,10.855337 Z M 8.089828,9.4517201 v 2.7579849 c -0.7344818,-0.0812 -1.4035008,-0.372331 -1.9453634,-0.81262 z m 0.7879953,0 1.9453637,1.9699899 c -0.541896,0.42894 -1.2125942,0.713325 -1.9453637,0.787995 z"
     id="buddhist"
     style="stroke-width:0.787995" />
</svg>
