<?xml version="1.0" encoding="UTF-8"?>
<svg width="21" height="21" version="1.1" viewBox="0 0 21 21" xmlns="http://www.w3.org/2000/svg">
  <rect width="21" height="21" fill="none"/>
 <rect x="1" y="1" width="19" height="19" rx="9.5" ry="9.5" fill="#bbb" stroke="#bbb" stroke-linejoin="round" stroke-width="2"/>
 <rect x="1" y="1" width="19" height="19" rx="9.5" ry="9.5" fill="#fff"/>
 <path d="m15.499 4.0556c-2.1441 0-5.0211 1.471-6.9531 4h-1.6016c-1.1573 0-1.8206 0.8638-2.2773 1.7773l-0.6114 1.2227h2.8887l3 3v2.8887l1.2227-0.6113c0.9135-0.4568 1.7773-1.1201 1.7773-2.2774v-1.6016c2.529-1.932 4-4.809 4-6.9531v-1.4453zm-2.5547 3c0.5523 0 1 0.4477 1 1s-0.4477 1-1 1-1-0.4477-1-1 0.4477-1 1-1zm-6.5 6-0.5 0.5c-0.7222 0.7222-1 2.5-1 2.5s1.698-0.198 2.5-1l0.5-0.5z" fill="#725a50"/>
</svg>
