<?xml version="1.0" encoding="UTF-8"?>
<svg width="17" height="17" version="1.1" viewBox="0 0 17 17" xmlns="http://www.w3.org/2000/svg">
 <rect width="17" height="17" fill="none"/>
 <rect x="1" y="1" width="15" height="15" rx="7.5" ry="7.5" fill="#bbb" stroke="#bbb" stroke-linejoin="round" stroke-width="2"/>
 <rect x="1" y="1" width="15" height="15" rx="7.5" ry="7.5" fill="#fff"/>
 <g transform="matrix(2.0526 0 0 2.0526 5.0168 2)" fill="#1a1a1a">
  <path d="m2.9135 0.19368c-0.0066663-0.11333-0.11333-0.19999-0.22665-0.19332-0.11333 0.0066663-0.19999 0.11333-0.19332 0.22665l0.046664 0.6133h-1.6799l0.046664-0.6133c0.0066663-0.11333-0.079995-0.21999-0.19332-0.22665-0.11333-0.0066663-0.21999 0.079995-0.22665 0.19332l-0.48664 5.913c-0.0066663 0.11333 0.079995 0.21999 0.19332 0.22665h0.019999c0.10666 0 0.19999-0.079995 0.20665-0.19332l0.05333-0.64663h2.4465l0.05333 0.64663c0.00667 0.11333 0.099994 0.19332 0.20666 0.19332h0.019999c0.11333-0.0066663 0.19999-0.11333 0.19332-0.22665zm-0.13999 3.4665h-2.1465l0.079995-0.99328h1.9866zm-0.19332-2.3999 0.079995 0.99328h-1.9132l0.079995-0.99328zm-2.0665 3.8131 0.079995-0.99328h2.2199l0.079995 0.99328z" fill="#725a50" stroke-width=".066663"/>
 </g>
</svg>
