<?xml version="1.0" encoding="UTF-8"?>
<svg width="17" height="17" version="1.1" viewBox="0 0 17 17" xmlns="http://www.w3.org/2000/svg">
  <rect width="17" height="17" fill="none"/>
 <rect x="1" y="1" width="15" height="15" rx="7.5" ry="7.5" fill="#bbb" stroke="#bbb" stroke-linejoin="round" stroke-width="2"/>
 <rect x="1" y="1" width="15" height="15" rx="7.5" ry="7.5" fill="#fff"/>
 <path d="m6.1238 4.9c-0.66272 0-1.2-0.53728-1.2-1.2s0.53728-1.2 1.2-1.2 1.2 0.53728 1.2 1.2-0.53728 1.2-1.2 1.2zm7.6-1.2c0-0.66272-0.53728-1.2-1.2-1.2s-1.2 0.53728-1.2 1.2 0.53728 1.2 1.2 1.2 1.2-0.53728 1.2-1.2zm-4.112 4.112-1.984-1.992c-0.08016-0.08064-0.1904-0.12408-0.304-0.12h-2.4c-0.10424 2.399e-4 -0.2044 0.04024-0.28 0.112l-2.008 1.992c-0.18088 0.1416-0.21272 0.40312-0.07112 0.584 0.1416 0.18088 0.40312 0.21272 0.584 0.07112 0.02648-0.02072 0.0504-0.04464 0.07112-0.07112l1.704-1.728-1.6 4.64h1.6v2.664c-6e-3 0.03976-6e-3 0.08024 0 0.12 0.0444 0.22088 0.25952 0.364 0.4804 0.3196 0.1612-0.0324 0.2872-0.1584 0.3196-0.3196v-2.784h0.8v2.8c0.0444 0.22088 0.25952 0.364 0.4804 0.3196 0.1612-0.0324 0.2872-0.1584 0.3196-0.3196 6e-3 -0.03976 6e-3 -0.08024 0-0.12v-2.68h1.6l-1.6-4.64 1.712 1.728c0.077363 0.08648 0.18792 0.136 0.304 0.136 0.22032-0.01696 0.38888-0.20312 0.384-0.424 0.00185-0.10696-0.038317-0.2104-0.112-0.288zm4.512-2.112h-3.2c-0.22088 0-0.4 0.17912-0.4 0.4v4c0 0.22088 0.17912 0.4 0.4 0.4s0.4-0.17912 0.4-0.4v4c0 0.22088 0.17912 0.4 0.4 0.4s0.4-0.17912 0.4-0.4v-4h0.8v4c0 0.22088 0.17912 0.4 0.4 0.4s0.4-0.17912 0.4-0.4v-4c0 0.22088 0.17912 0.4 0.4 0.4s0.4-0.17912 0.4-0.4v-4c0-0.22088-0.17912-0.4-0.4-0.4z" fill="#725a50" stroke-width=".8"/>
</svg>
