<?xml version="1.0" encoding="UTF-8"?>
<svg width="17" height="17" version="1.1" viewBox="0 0 17 17" xmlns="http://www.w3.org/2000/svg">
 <rect width="17" height="17" fill="none"/>
 <rect x="1" y="1" width="15" height="15" rx="7.5" ry="7.5" fill="#bbb" stroke="#bbb" stroke-linejoin="round" stroke-width="2"/>
 <rect x="1" y="1" width="15" height="15" rx="7.5" ry="7.5" fill="#fff"/>
 <g transform="matrix(.10995 0 0 .10995 3 3.0024)" fill="#725a50">
  <path d="m46.9 7.2h-38c-1.8 0-3.3 1.5-3.3 3.3v66.1c0 1.8 1.5 3.3 3.3 3.3h38c1.8 0 3.3-1.5 3.3-3.3v-66.1c0-1.8-1.5-3.3-3.3-3.3zm-1.6 41.9c0 1.8-1.5 3.3-3.3 3.3h-28.1c-1.8 0-3.3-1.5-3.3-3.3v-34.7c0-0.9 0.7-1.7 1.7-1.7h29.7c1.8 0 3.3 1.5 3.3 3.3z"/>
  <path d="m70.7 92.8h-68.7c-1.1 0-2-0.9-2-2v-5.7c0-1.1 0.9-2 2-2h68.7c1.1 0 2 0.9 2 2v5.7c0 1.1-0.9 2-2 2z"/>
  <path d="m57.4 79.8v-27.2c0-2.3 1.9-4.1 4.1-4.1s4.1 1.9 4.1 4.1v27.2z"/>
  <path d="m61.6 56.7c-1.5 0-2.8-0.8-3.6-2.1-1.1-2-0.5-4.5 1.5-5.6l34.3-19.8c0.6-0.4 1.3-0.6 2.1-0.6 1.5 0 2.8 0.8 3.6 2.1 1.1 2 0.5 4.5-1.5 5.6l-34.4 19.9c-0.6 0.3-1.3 0.5-2 0.5z"/>
 </g>
</svg>
