<?xml version="1.0" encoding="UTF-8"?>
<svg width="21" height="21" version="1.1" viewBox="0 0 21 21" xmlns="http://www.w3.org/2000/svg">
 <title>butcher_15.svg</title>
 <rect width="21" height="21" fill="none"/>
 <rect x="1" y="1" width="19" height="19" rx="9.75" ry="9.75" fill="#bbb" stroke="#bbb" stroke-linejoin="round" stroke-width="2"/>
 <rect x="1" y="1" width="19" height="19" rx="9.75" ry="9.75" fill="#fff"/>
 <path d="m18 8.8875c0 1.376-1.363 0.694-1.363 0.694l-1.137 0.206h-1.5a5.309 5.309 0 0 1-1.5 2 3.272 3.272 0 0 1-0.523 1.125c-0.077 0.091-0.061 0.2-0.068 0.33l0.091 2.3a0.264 0.264 0 0 1-0.266 0.25 0.242 0.242 0 0 1-0.234-0.205l-0.5-3.3h-4v3.253a0.247 0.247 0 0 1-0.247 0.247 0.25 0.25 0 0 1-0.241-0.2l-0.512-2.8v-0.5a8.2 8.2 0 0 1-1.426-0.1 1.886 1.886 0 0 1-0.674 1.426c-0.128 0.083-0.148 0.211-0.133 0.386 0 0 0.19 1.532 0.19 1.538a0.25 0.25 0 0 1-0.25 0.25 0.238 0.238 0 0 1-0.23-0.174l-0.427-1.7a0.35 0.35 0 0 1 0.055-0.3c0.437-0.68-0.049-2.55-0.049-2.55a1.354 1.354 0 0 1-0.056-0.354v-2.422a2.027 2.027 0 0 1 2.736-1.914s0.1 0.03 0.142 0.049a15.15 15.15 0 0 0 3.814 0.038l0.179-0.062a1.842 1.842 0 0 1 1.26 0 0.972 0.972 0 0 1 0.227 0.089 1.994 1.994 0 0 1 0.287 0.171 1.8 1.8 0 0 0 0.855 0.129h1v-1l0.5 0.5c0.5-1.5 2.5-1 2.5-1a1.687 1.687 0 0 0-1.5 1l2.5 2a0.613 0.613 0 0 1 0.186-0.069 0.318 0.318 0 0 1 0.314 0.321z" fill="#d97200"/>
</svg>
