<svg width="19" height="19" version="1.1" viewBox="0 0 19 19" xmlns="http://www.w3.org/2000/svg"><g><rect width="19" height="19" fill="none"/><rect width="19" height="19" rx="0" ry="0" fill="#4898ff"/><path d="m10.85 9.3766c-0.9532 0.7086-2.1238 1.0623-3.31 1h-2.75v4.63h-2.79v-13h5.72c1.1304-0.0605 2.244 0.2952 3.13 1 0.8321 0.8147 1.2542 1.9601 1.15 3.12 0.1271 1.2014-0.2955 2.3959-1.15 3.25zm-2.1-4.67c-0.42459-0.3108-0.9448-0.463-1.47-0.43h-2.49v3.82h2.49c0.5315 0.0326 1.056-0.1351 1.47-0.47 0.37949-0.3947 0.5693-0.9346 0.52-1.48 0.054-0.534-0.1373-1.0637-0.52-1.44z" fill="#fff"/></g><path d="m14 8c-0.44184 0-0.8 0.35816-0.8 0.8s0.35816 0.8 0.8 0.8 0.8-0.35816 0.8-0.8-0.35816-0.8-0.8-0.8zm-1.4844 1.5953c-0.104 4e-4 -0.20376 0.04136-0.27816 0.11408l-2.1125 2c-0.18048 0.17024-0.16408 0.462 0.0344 0.61095l1.4406 1.0797v2.2c-8e-3 0.54095 0.8077 0.54095 0.8 0v-2.4c2.4e-4 -0.12592-0.0588-0.24456-0.15936-0.32032l-0.6141-0.46096 1.4544-1.377 0.5987 0.7988c0.07576 0.10064 0.1944 0.15968 0.32032 0.15944h1.2c0.5409 8e-3 0.5409-0.8077 0-0.8h-1l-0.6-0.8-0.47968-0.64065c-0.07208-0.09888-0.18552-0.15936-0.30784-0.16408zm-4.1156 3.2047c-1.3255 0-2.4 1.0746-2.4 2.4s1.0745 2.4 2.4 2.4 2.4-1.0746 2.4-2.4-1.0745-2.4-2.4-2.4zm7.2 0c-1.3255 0-2.4 1.0746-2.4 2.4s1.0745 2.4 2.4 2.4 2.4-1.0746 2.4-2.4-1.0745-2.4-2.4-2.4zm-7.2 0.8c0.8837 0 1.6 0.7163 1.6 1.6s-0.7163 1.6-1.6 1.6-1.6-0.7163-1.6-1.6 0.7163-1.6 1.6-1.6zm7.2 0c0.8837 0 1.6 0.7163 1.6 1.6s-0.7163 1.6-1.6 1.6-1.6-0.7163-1.6-1.6 0.7163-1.6 1.6-1.6z" fill="#fff" stroke-width=".8"/></svg>
