<svg width="17" height="17" version="1.1" viewBox="0 0 17 17" xmlns="http://www.w3.org/2000/svg"><rect x="-4e-5" y="-2e-5" width="17" height="17" rx="0" ry="0" fill="#4898ff" stroke-width=".89474"/><path d="m9.4183 8.1002c-0.85287 0.63401-1.9003 0.95048-2.9615 0.89474h-2.4605v4.1426h-2.4963v-11.632h5.1179c1.0115-0.054132 2.0078 0.26413 2.8005 0.89474 0.74451 0.72894 1.1222 1.7538 1.0289 2.7916 0.11372 1.0749-0.26439 2.1437-1.0289 2.9079zm-1.8789-4.1784c-0.3799-0.27809-0.84535-0.41426-1.3152-0.38474h-2.2279v3.4179h2.2279c0.47555 0.029168 0.94485-0.12088 1.3152-0.42053 0.33954-0.35315 0.50938-0.83622 0.46526-1.3242 0.048316-0.47779-0.12284-0.95174-0.46526-1.2884z" fill="#fff" stroke-width=".89474"/><path d="m12.526 7.1579c-0.39533 0-0.71579 0.32046-0.71579 0.71579s0.32046 0.71579 0.71579 0.71579 0.71579-0.32046 0.71579-0.71579-0.32046-0.71579-0.71579-0.71579zm-1.3282 1.4274c-0.09305 3.579e-4 -0.18231 0.037007-0.24888 0.10207l-1.8901 1.7895c-0.16148 0.15232-0.14681 0.41337 0.030779 0.54664l1.289 0.96605v1.9684c-0.0072 0.48401 0.72268 0.48401 0.71579 0v-2.1474c2.15e-4 -0.11267-0.05261-0.21882-0.14259-0.2866l-0.54946-0.41244 1.3013-1.232 0.53568 0.71472c0.06779 0.09005 0.17394 0.14287 0.2866 0.14266h1.0737c0.48396 0.0072 0.48396-0.72268 0-0.71579h-0.89474l-0.53684-0.71579-0.42919-0.57322c-0.064492-0.088472-0.16599-0.14259-0.27544-0.14681zm-3.6824 2.8674c-1.186 0-2.1474 0.96144-2.1474 2.1474s0.9614 2.1474 2.1474 2.1474 2.1474-0.96144 2.1474-2.1474-0.9614-2.1474-2.1474-2.1474zm6.4421 0c-1.186 0-2.1474 0.96144-2.1474 2.1474s0.9614 2.1474 2.1474 2.1474 2.1474-0.96144 2.1474-2.1474-0.9614-2.1474-2.1474-2.1474zm-6.4421 0.71579c0.79068 0 1.4316 0.6409 1.4316 1.4316s-0.6409 1.4316-1.4316 1.4316-1.4316-0.6409-1.4316-1.4316 0.6409-1.4316 1.4316-1.4316zm6.4421 0c0.79068 0 1.4316 0.6409 1.4316 1.4316s-0.6409 1.4316-1.4316 1.4316-1.4316-0.6409-1.4316-1.4316 0.6409-1.4316 1.4316-1.4316z" fill="#fff" stroke-width=".71579"/></svg>
