<?xml version="1.0" encoding="UTF-8"?>
<svg width="17" height="17" version="1.1" viewBox="0 0 17 17" xmlns="http://www.w3.org/2000/svg">
 <g transform="matrix(.5 0 0 .5 6 8)">
  <rect x="-12" y="-16" width="38" height="38" fill="none" stroke-width="2"/>
  <rect width="24" height="24" fill="none" fill-rule="evenodd"/>
  <g transform="matrix(.89474 0 0 .89474 -1.2632 -1.6842)">
   <rect x="-12" y="-16" width="38" height="38" rx="0" ry="0" fill="#4898ff" stroke-width="2"/>
   <path d="m8.6996 1.7532c-1.9064 1.4172-4.2477 2.1246-6.6199 2h-5.4999v9.26h-5.5799v-26h11.44c2.2609-0.121 4.4879 0.5904 6.2599 2 1.6642 1.6294 2.5085 3.9202 2.2999 6.24 0.25419 2.4028-0.59099 4.7918-2.2999 6.5zm-4.1999-9.34c-0.84918-0.6216-1.8896-0.926-2.9399-0.86h-4.9799v7.64h4.9799c1.063 0.0652 2.112-0.2702 2.9399-0.94 0.75898-0.7894 1.1386-1.8692 1.04-2.96 0.108-1.068-0.27459-2.1274-1.04-2.88z" fill="#fff" stroke-width="2"/>
   <path d="m16 0c-0.88368 0-1.6 0.71632-1.6 1.6 0 0.88368 0.71632 1.6 1.6 1.6s1.6-0.71632 1.6-1.6c0-0.88368-0.71632-1.6-1.6-1.6zm-2.9688 3.1906c-0.208 8e-4 -0.40752 0.08272-0.55632 0.22816l-4.225 4c-0.36096 0.34048-0.32816 0.924 0.0688 1.2219l2.8813 2.1594v4.4c-0.016 1.0819 1.6154 1.0819 1.6 0v-4.8c4.8e-4 -0.25184-0.1176-0.48912-0.31872-0.64064l-1.2282-0.92192 2.9088-2.7539 1.1974 1.5976c0.15152 0.20128 0.3888 0.31936 0.64064 0.31888h2.4c1.0818 0.016 1.0818-1.6154 0-1.6h-2l-1.2-1.6-0.95936-1.2813c-0.14416-0.19776-0.37104-0.31872-0.61568-0.32816zm-8.2312 6.4094c-2.651 0-4.8 2.1491-4.8 4.8s2.149 4.8 4.8 4.8 4.8-2.1491 4.8-4.8-2.149-4.8-4.8-4.8zm14.4 0c-2.651 0-4.8 2.1491-4.8 4.8s2.149 4.8 4.8 4.8 4.8-2.1491 4.8-4.8-2.149-4.8-4.8-4.8zm-14.4 1.6c1.7674 0 3.2 1.4326 3.2 3.2s-1.4326 3.2-3.2 3.2-3.2-1.4326-3.2-3.2 1.4326-3.2 3.2-3.2zm14.4 0c1.7674 0 3.2 1.4326 3.2 3.2s-1.4326 3.2-3.2 3.2-3.2-1.4326-3.2-3.2 1.4326-3.2 3.2-3.2z" fill="#fff" stroke-width="1.6"/>
  </g>
 </g>
</svg>
