<?xml version="1.0" encoding="UTF-8"?>
<svg width="15" height="15" version="1.1" viewBox="0 0 15 15" xmlns="http://www.w3.org/2000/svg">
 <title>bus_11.svg</title>
 <rect width="15" height="15" fill="none"/>
 <rect width="15" height="15" rx="0" ry="0" fill="#4898ff"/>
 <path transform="translate(2 2)" d="m3 0c-1 0-2 0.5312-2 2v7.5s0 0.5 0.5 0.5l0.5 0.0156v0.4844s0 0.5 0.5 0.5h0.5s0.5 0 0.5-0.5v-0.4844l4-0.0156v0.5s0 0.5 0.5 0.5h0.5c0.5 0 0.5-0.5 0.5-0.5v-0.4844l0.5-0.0156s0.5 0 0.5-0.5v-7.5c0-1.5-1-2-2-2h-5zm0.75 1h3.5c0.1385 0 0.25 0.1115 0.25 0.25s-0.1115 0.25-0.25 0.25h-3.5c-0.1385 0-0.25-0.1115-0.25-0.25s0.1115-0.25 0.25-0.25zm-0.75 1h5c1 0 1 1 1 1v2s0 1-1 1h-5c-1 0-1-1-1-1v-2s0-1 1-1zm-0.25 5.5c0.4142 0 0.75 0.3358 0.75 0.75s-0.3358 0.75-0.75 0.75-0.75-0.3358-0.75-0.75 0.3358-0.75 0.75-0.75zm5.5 0c0.4142 0 0.75 0.3358 0.75 0.75s-0.3358 0.75-0.75 0.75-0.75-0.3358-0.75-0.75 0.3358-0.75 0.75-0.75z" fill="#fff"/>
</svg>
