<?xml version="1.0" encoding="UTF-8"?>
<svg width="19" height="19" version="1.1" viewBox="0 0 19 19" xmlns="http://www.w3.org/2000/svg">
  <rect width="19" height="19" fill="none"/>
 <rect width="19" height="19" rx="0" ry="0" fill="#4898ff"/>
 <path transform="translate(2 2)" d="m4 0c-1.3636 0-3 0.7433-3 2.7461v9.2539s0 1 1 1v1s0 1 1 1 1-1 1-1v-1h7v1s0 1 1 1 1-1 1-1v-1s1 0 1-1v-9.2539c0-2.0455-1.236-2.7461-2.5996-2.7461h-7.4004zm0.25 1.5h6.5c0.1385 0 0.25 0.1115 0.25 0.25s-0.1115 0.25-0.25 0.25h-6.5c-0.1385 0-0.25-0.1115-0.25-0.25s0.1115-0.25 0.25-0.25zm-1.25 1.5h9c1 0 1 0.9668 1 0.9668v3.0332s0 1-1 1h-9c-1 0-1-1-1-1v-3s0-1 1-1zm0 7c0.5523 0 1 0.4477 1 1s-0.4477 1-1 1-1-0.4477-1-1 0.4477-1 1-1zm9 0c0.5523 0 1 0.4477 1 1s-0.4477 1-1 1-1-0.4477-1-1 0.4477-1 1-1z" fill="#fff"/>
</svg>
