<?xml version="1.0" encoding="UTF-8"?>
<svg width="17" height="17" version="1.1" viewBox="0 0 17 17" xmlns="http://www.w3.org/2000/svg">
 <rect x="-4e-5" y="-2e-5" width="17" height="17" fill="none" stroke-width=".89474"/>
 <rect x="-4e-5" y="-2e-5" width="17" height="17" rx="0" ry="0" fill="#4898ff" stroke-width=".89474"/>
 <path d="m9.4182 8.1002c-0.85285 0.63401-1.9003 0.95048-2.9615 0.89474h-2.4604v4.1426h-2.4962v-11.632h5.1178c1.0115-0.054132 2.0077 0.26413 2.8004 0.89474 0.7445 0.72894 1.1223 1.7538 1.029 2.7916 0.11372 1.0749-0.26439 2.1437-1.029 2.9079zm-1.879-4.1784c-0.3799-0.27809-0.84533-0.41426-1.3153-0.38474h-2.2278v3.4179h2.2278c0.47555 0.029168 0.94485-0.12088 1.3153-0.42053 0.33954-0.35315 0.50937-0.83622 0.46526-1.3242 0.048315-0.47779-0.12285-0.95174-0.46526-1.2884z" fill="#fff" stroke-width=".89473"/>
 <rect x="5.3684" y="7.1579" width="10.737" height="10.737" fill="none" fill-rule="evenodd" stroke-width=".44737"/>
 <path d="m7.2339 12.079h-0.076053 0.076053m4.1337-2.6842h-1.9729v0.89474h1.6061l0.89474 0.89474h-1.6061l-1.7895 0.89474-0.89474-0.89474h-2.2368v0.89474h1.7895c-0.98869 0-1.7895 0.80079-1.7895 1.7895s0.80079 1.7895 1.7895 1.7895 1.7895-0.80079 1.7895-1.7895l0.89474 0.89474h1.3421l1.5613-2.729 0.45184 0.45184c-0.40711 0.32658-0.67106 0.82316-0.67106 1.3824 0 0.98869 0.80079 1.7895 1.7895 1.7895s1.7895-0.80079 1.7895-1.7895-0.80079-1.7895-1.7895-1.7895c-0.08053 0-0.16105 0.01342-0.23711 0.02237l-0.92158-0.91711h1.1587v-1.3421l-1.6642 0.83211zm2.9482 5.3684c-0.49211 0-0.89474-0.40263-0.89474-0.89474s0.40263-0.89474 0.89474-0.89474 0.89474 0.40263 0.89474 0.89474-0.40263 0.89474-0.89474 0.89474zm-7.1579 0c-0.49211 0-0.89474-0.40263-0.89474-0.89474s0.40263-0.89474 0.89474-0.89474 0.89474 0.40263 0.89474 0.89474-0.40263 0.89474-0.89474 0.89474z" fill="#fff" stroke-width=".44737"/>
 <rect width="17" height="17" fill="none"/>
</svg>
