<?xml version="1.0" encoding="UTF-8"?>
<svg width="19" height="19" version="1.1" viewBox="0 0 19 19" xmlns="http://www.w3.org/2000/svg">
 <rect width="19" height="19" fill="none"/>
 <rect width="19" height="19" rx="0" ry="0" fill="#4898ff"/>
 <path d="m10.35 8.8766c-0.95318 0.7086-2.1239 1.0623-3.3099 1h-2.7499v4.63h-2.7899v-13h5.7199c1.1305-0.0605 2.2439 0.2952 3.1299 1 0.83208 0.8147 1.2543 1.9601 1.15 3.12 0.1271 1.2014-0.29549 2.3959-1.15 3.25zm-2.1-4.67c-0.42459-0.3108-0.94478-0.463-1.47-0.43h-2.4899v3.82h2.4899c0.53149 0.0326 1.056-0.1351 1.47-0.47 0.37949-0.3947 0.56929-0.9346 0.51999-1.48 0.053999-0.534-0.1373-1.0637-0.51999-1.44z" fill="#fff" stroke-width=".99999"/>
 <g transform="matrix(.5 0 0 .5 6 8)">
  <rect width="24" height="24" fill="none" fill-rule="evenodd"/>
  <path d="m4.17 11h-0.17 0.17m9.24-6h-4.41v2h3.59l2 2h-3.59l-4 2-2-2h-5v2h4c-2.21 0-4 1.79-4 4s1.79 4 4 4 4-1.79 4-4l2 2h3l3.49-6.1 1.01 1.01c-0.91 0.73-1.5 1.84-1.5 3.09 0 2.21 1.79 4 4 4s4-1.79 4-4-1.79-4-4-4c-0.18 0-0.36 0.03-0.53 0.05l-2.06-2.05h2.59v-3l-3.72 1.86zm6.59 12c-1.1 0-2-0.9-2-2s0.9-2 2-2 2 0.9 2 2-0.9 2-2 2zm-16 0c-1.1 0-2-0.9-2-2s0.9-2 2-2 2 0.9 2 2-0.9 2-2 2z" fill="#fff"/>
 </g>
</svg>
