<svg width="17" height="17" version="1.1" viewBox="0 0 17 17" xmlns="http://www.w3.org/2000/svg"><rect width="17" height="17" fill="none"/><rect x="1" y="1" width="15" height="15" rx="7.5" ry="7.5" fill="#81665a" stroke="#81665a" stroke-linejoin="round" stroke-width="2"/><rect x="1" y="1" width="15" height="15" rx="7.5" ry="7.5" fill="#725a50"/><path d="m5.3026 14.486c-0.26144-0.038098-0.5339-0.15443-0.74668-0.31888-0.33575-0.25948-0.54807-0.63802-0.59677-1.064-0.00973-0.08501-0.012944-1.6249-0.00991-4.6943 0.00459-4.3502 0.00551-4.5729 0.030019-4.6733 0.13368-0.55416 0.52135-0.9805 1.0542-1.1594 0.24421-0.08198 0.093795-0.078858 3.5296-0.07381 3.4511 0.00551 3.177-0.00184 3.4294 0.085009 0.52979 0.18199 0.93543 0.65392 1.0352 1.2044 0.02267 0.12484 0.03434 9.1431 0.01203 9.3136-0.09554 0.7319-0.65218 1.2926-1.3705 1.3807-0.15448 0.01891-6.2366 0.01882-6.3666-8.2e-5zm4.1752-1.6777c0.38771-0.074176 0.60001-0.37681 0.49859-0.71073-0.02708-0.089232-0.042504-0.11393-0.11833-0.18974-0.088957-0.088957-0.1911-0.14959-0.35782-0.21234-0.20175-0.075928-0.28357-0.13597-0.28357-0.2081 0-0.12142 0.14218-0.18148 0.35245-0.14887 0.056544 0.0091 0.13937 0.03076 0.18402 0.04874 0.072344 0.02919 0.081983 0.0303 0.088042 0.01 0.04636-0.1544 0.090422-0.3307 0.084914-0.33964-0.011104-0.0179-0.1739-0.06738-0.27371-0.08317-0.53186-0.08391-0.94052 0.19672-0.88477 0.60759 0.028 0.20656 0.17192 0.34496 0.49409 0.47524 0.19572 0.07913 0.25549 0.11964 0.27821 0.18852 0.022584 0.0683-0.014688 0.14472-0.08813 0.18058-0.10558 0.05159-0.34538 0.02855-0.54587-0.05242l-0.080603-0.03258-0.045256 0.18208c-0.050952 0.20491-0.055816 0.18833 0.069216 0.23573 0.17408 0.06601 0.43407 0.08629 0.62849 0.04911zm1.4477 0c0.22404-0.04287 0.38904-0.15746 0.47337-0.32876 0.04167-0.08474 0.04553-0.10385 0.04553-0.22636 0-0.11759-0.0046-0.14338-0.03874-0.21265-0.07042-0.14343-0.21836-0.25493-0.45778-0.34505-0.20174-0.07593-0.28356-0.13597-0.28356-0.2081 0-0.12142 0.14219-0.18148 0.35245-0.14887 0.05654 0.0091 0.13936 0.03076 0.18402 0.04874 0.07234 0.02919 0.08188 0.0303 0.08804 0.01 0.04636-0.15441 0.09042-0.33071 0.08491-0.33964-0.01193-0.01928-0.17726-0.06822-0.28776-0.0851-0.0582-0.0091-0.16526-0.01267-0.23894-0.0083-0.38668 0.02222-0.63373 0.23336-0.63648 0.54395-8.8e-4 0.13887 0.04718 0.25141 0.14981 0.34839 0.09261 0.08749 0.16186 0.12721 0.35833 0.20554 0.08785 0.03506 0.18067 0.07959 0.20617 0.09908 0.10131 0.0773 0.09042 0.2034-0.0225 0.26103-0.11013 0.05618-0.34064 0.03599-0.54877-0.0481l-0.08061-0.03258-0.04526 0.18208c-0.05095 0.20491-0.05582 0.18833 0.06922 0.23573 0.17408 0.06601 0.43406 0.08629 0.62849 0.04911zm-4.9273-0.32533v-0.31807l0.048472 0.0083c0.082072 0.01331 0.31205-0.01561 0.41853-0.0526 0.26907-0.09357 0.40439-0.28119 0.40439-0.56072 0-0.27405-0.12719-0.45172-0.3865-0.53987-0.11074-0.03764-0.11756-0.03819-0.44976-0.03663-0.18554 8.8e-4 -0.36895 0.0074-0.40759 0.01405l-0.070229 0.01239-0.00367 0.89584-0.00367 0.89583h0.44997zm0.045718-0.66228-0.045718-0.0055v-0.49015h0.12352c0.19438 0 0.29303 0.06472 0.30854 0.20237 0.013862 0.12289-0.058019 0.23956-0.16819 0.27302-0.058111 0.01762-0.15882 0.0269-0.2182 0.02002zm1.313 0.80467c0.025797-0.09276 0.053429-0.19253 0.061507-0.22169l0.014688-0.05306 0.48191 0.0073 0.064996 0.21785 0.064996 0.21786 0.24322 0.0036c0.21313 0.0036 0.2422 8.8e-4 0.235-0.01754-0.0064-0.01707-0.52396-1.6747-0.55189-1.768-0.00642-0.02286-0.029928-0.0246-0.29074-0.02112l-0.2833 0.0036-0.27049 0.88546c-0.14877 0.487-0.27065 0.89352-0.27083 0.90338-2.753e-4 0.01396 0.04994 0.01707 0.22692 0.01405l0.22727-0.0036zm0.1751-0.72032c0.015422-0.05214 0.051685-0.18804 0.080694-0.3019l0.052786-0.20704 0.081521 0.28433c0.044891 0.15638 0.08455 0.29225 0.08813 0.30192 0.00459 0.01341-0.033049 0.01754-0.16223 0.01754h-0.16884zm1.4739-1.598c0.60118-0.08097 1.1661-0.33507 1.6287-0.7327 0.99363-0.85396 1.3455-2.248 0.87759-3.4775-0.2756-0.72424-0.83458-1.3395-1.5306-1.6845-0.29408-0.14579-0.57571-0.23605-0.91251-0.29244-0.23742-0.03975-0.75288-0.036445-0.99088 0.006426-0.68352 0.1228-1.2629 0.42888-1.7327 0.91527-0.45863 0.47486-0.7443 1.0529-0.84808 1.716-0.035068 0.22415-0.035068 0.67581 1.01e-4 0.89952 0.1642 1.046 0.79058 1.9011 1.7304 2.3623 0.36046 0.1769 0.72069 0.27316 1.1736 0.31365 0.1078 0.0096 0.44948-0.0046 0.60436-0.0258zm-0.62885-0.26021c-0.32424-0.1167-0.61842-0.47177-0.83547-1.0085-0.045534-0.1125-0.080419-0.20689-0.077481-0.20977 0.00275-0.00272 0.096384-0.020568 0.2078-0.039296 0.19889-0.033416 0.39073-0.054072 0.6629-0.071328l0.13703-0.00826v0.68251c0 0.37539-0.00456 0.68228-0.01056 0.68201-0.00552-2.75e-4 -0.043696-0.01248-0.084183-0.02699zm0.34775-0.65527c0-0.67804 1.104e-4 -0.68053 0.029008-0.68053 0.17002 0 0.71905 0.060592 0.89566 0.098901 0.086665 0.018816 0.087029 4.496e-4 -0.00464 0.22664-0.13978 0.34408-0.28158 0.5703-0.48324 0.77087-0.13567 0.13494-0.2619 0.21728-0.38385 0.25036l-0.052696 0.01432zm-1.0682 0.53432c-0.30275-0.10178-0.65237-0.29818-0.8981-0.50448-0.11957-0.10038-0.27719-0.25682-0.26765-0.26564 0.003672-0.00272 0.085285-0.040576 0.18191-0.083173 0.17047-0.075096 0.47227-0.17887 0.5202-0.17887 0.017166 0 0.03819 0.039472 0.076654 0.14407 0.11754 0.31943 0.31461 0.66765 0.48524 0.85735 0.039934 0.044432 0.067474 0.080694 0.061049 0.080606-0.00642-1.28e-4 -0.078032-0.022584-0.15924-0.049848zm1.7518-0.00964c0.18529-0.1943 0.37293-0.52071 0.50499-0.87844 0.04076-0.11043 0.05912-0.14407 0.078768-0.14407 0.07124 0 0.61942 0.20628 0.68359 0.25722 0.01423 0.01124-0.0027 0.036352-0.0773 0.11168-0.20915 0.21233-0.47169 0.39625-0.76619 0.53672-0.16599 0.079232-0.42261 0.1766-0.46518 0.1766-0.00826 0 0.01-0.026904 0.041312-0.05976zm-3.2047-1.1104c-0.27501-0.41457-0.43599-0.87461-0.47949-1.3703l-0.00918-0.1019h1.2473l0.017075 0.24948c0.021666 0.31634 0.048196 0.51814 0.10315 0.78356 0.061232 0.29553 0.064354 0.27403-0.044616 0.30579-0.21954 0.063984-0.60233 0.21682-0.68077 0.27177-0.015514 0.010832-0.032865 0.019744-0.038466 0.019744-0.00551 0-0.057469-0.071144-0.11517-0.15811zm4.5449 0.10011c-0.13253-0.068856-0.35672-0.1574-0.54815-0.21659-0.17253-0.053344-0.16309-0.02892-0.1085-0.28058 0.05406-0.24923 0.09219-0.52982 0.11126-0.81871l0.01689-0.2565h1.2486l-0.0091 0.094878c-0.04508 0.46467-0.16876 0.85994-0.38292 1.2239-0.08501 0.14442-0.20146 0.31269-0.21455 0.31001-0.0046-8.8e-4 -0.05545-0.026256-0.1134-0.056368zm-3.3725-0.37292c-0.072432-0.2554-0.15474-0.84862-0.15523-1.1186l-1.469e-4 -0.080783h1.2509v0.5622c0 0.52598-0.00184 0.56222-0.0246 0.56242-0.2477 0.00184-0.81887 0.0694-1.0211 0.12014-0.030662 0.00736-0.036262 0.00272-0.049849-0.045352zm2.266 0.022672c-0.17079-0.0336-0.44072-0.067384-0.61535-0.077024-0.077296-0.00464-0.18016-0.0112-0.22856-0.015336l-0.088039-0.00736 0.00368-0.55755 0.00368-0.55754 1.248-0.00728-0.00983 0.19341c-0.00552 0.10638-0.0224 0.29144-0.03764 0.41125-0.032032 0.25094-0.1116 0.63594-0.13228 0.6403-0.00736 0.00184-0.072344-0.00826-0.14362-0.022496zm-3.9183-1.57c0.053245-0.54643 0.23815-1.0514 0.53172-1.4523l0.057469-0.0784 0.15519 0.07335c0.16846 0.079684 0.41074 0.17146 0.55575 0.21063 0.050215 0.013586 0.096594 0.029285 0.10298 0.034886 0.00642 0.00551-0.00734 0.097981-0.030478 0.20522-0.066649 0.30881-0.10384 0.58955-0.12301 0.92935l-0.00973 0.17217h-1.2492zm1.5022-0.077296c0.017993-0.32691 0.087304-0.80171 0.14963-1.0247l0.014321-0.05141 0.08198 0.019094c0.15543 0.036262 0.47324 0.076655 0.73611 0.093657l0.26353 0.016984v1.1185h-1.2551zm1.4986-0.38834v-0.56052l0.16515-0.00928c0.23631-0.013212 0.5315-0.046994 0.73093-0.083624l0.17225-0.031672 0.014232 0.050033c0.071792 0.25258 0.15371 0.84133 0.15415 1.1077l1.464e-4 0.087854h-1.2369zm1.4845 0.3803c-0.01782-0.33784-0.05838-0.63629-0.12976-0.95607-0.01955-0.087671-0.0336-0.16138-0.03112-0.16373 0.0027-0.00275 0.11178-0.040026 0.24287-0.083724 0.1311-0.043698 0.31512-0.11615 0.40895-0.16104l0.1706-0.081612 0.08299 0.11757c0.275 0.38968 0.45932 0.90292 0.50522 1.4069l0.0093 0.10189h-1.2495zm-2.1267-1.2186c-0.26901-0.02442-0.62272-0.080235-0.62272-0.098321 0-0.00184 0.027541-0.072616 0.061324-0.15645 0.17061-0.42427 0.38317-0.74623 0.60175-0.91143 0.10024-0.075737 0.26862-0.16165 0.31689-0.16165h0.03204v1.3493l-0.094869-0.00184c-0.052144-9.12e-4 -0.18464-0.0098256-0.29437-0.019737zm0.62817-0.65322v-0.67464h0.03204c0.046632 0 0.21466 0.084734 0.31397 0.15835 0.16039 0.11889 0.36712 0.39291 0.49113 0.65098 0.070416 0.14647 0.17744 0.41553 0.1688 0.42419-0.032224 0.032222-0.70367 0.11576-0.93066 0.11576h-0.07528zm-1.6584 0.4589c-0.23619-0.073258-0.5622-0.20881-0.5622-0.23367 0-0.016616 0.19855-0.202 0.31625-0.29533 0.24514-0.19441 0.55102-0.3626 0.84178-0.46286 0.091435-0.03158 0.16912-0.057376 0.17262-0.057376 0.00367 0-0.028458 0.041036-0.070964 0.09116-0.20657 0.24349-0.36729 0.53248-0.48735 0.87634-0.024786 0.070871-0.048931 0.12855-0.053796 0.12818-0.004592-3.487e-4 -0.075186-0.021206-0.15636-0.046452zm2.8624-0.10472c-0.11246-0.3128-0.31571-0.67332-0.48689-0.86365-0.039936-0.044432-0.070592-0.080694-0.068024-0.080603 0.01836 8.32e-4 0.23603 0.074819 0.3279 0.11147 0.31768 0.1267 0.68246 0.36897 0.92061 0.61144 0.07427 0.075646 0.08739 0.095511 0.07023 0.10638-0.05499 0.034793-0.33301 0.14905-0.47787 0.19631-0.25611 0.08354-0.22335 0.092849-0.28597-0.081337z" fill="#fff" stroke-width=".014055"/></svg>
