<?xml version="1.0" encoding="UTF-8"?>
<svg width="21" height="21" version="1.1" viewBox="0 0 21 21" xmlns="http://www.w3.org/2000/svg">
 <rect width="21" height="21" fill="none"/>
 <rect x="1" y="1" width="19" height="19" rx="9.5" ry="9.5" fill="#81665a" stroke="#81665a" stroke-linejoin="round" stroke-width="2"/>
 <rect x="1" y="1" width="19" height="19" rx="9.5" ry="9.5" fill="#725a50"/>
 <path d="m10.5 4-7.5 3.5 2 0.9v1.7c-0.6 0.2-1 0.8-1 1.4s0.4 1.2 1 1.4v0.1l-0.9 2.1c-0.3 0.9-0.1 1.9 1.4 1.9s1.7-1 1.4-1.9l-0.9-2.1c0.6-0.3 1-0.8 1-1.5s-0.4-1.2-1-1.4v-1.2l4.5 2.1 7.5-3.5zm4.4 6.5-4.5 2-2.4-1.1v0.1c0 0.7-0.3 1.3-0.8 1.8l0.6 1.4v0.1c0.1 0.4 0.2 0.8 0.1 1.2 0.7 0.3 1.5 0.5 2.5 0.5 3.3 0 4.5-2 4.5-3z" fill="#fff"/>
</svg>
