<?xml version="1.0" encoding="UTF-8"?>
<svg width="21" height="21" version="1.1" viewBox="0 0 21 21" xmlns="http://www.w3.org/2000/svg">
 <defs>
  <filter id="filter1804" x="-.0016251" y="-.0012025" width="1.0033" height="1.0024" color-interpolation-filters="sRGB">
   <feGaussianBlur stdDeviation="0.0025053051"/>
  </filter>
  <filter id="filter1808" x="-.0015032" y="-.0015032" width="1.003" height="1.003" color-interpolation-filters="sRGB">
   <feGaussianBlur stdDeviation="0.00025893044"/>
  </filter>
  <filter id="filter1800" x="-.0018981" y="-.0018981" width="1.0038" height="1.0038" color-interpolation-filters="sRGB">
   <feGaussianBlur stdDeviation="0.00025893044"/>
  </filter>
  <filter id="filter1796" x="-.00015638" y="-.00029246" width="1.0003" height="1.0006" color-interpolation-filters="sRGB">
   <feGaussianBlur stdDeviation="0.00025893044"/>
  </filter>
 </defs>
 <rect width="21" height="21" fill="none"/>
 <rect x="1" y="1" width="19" height="19" rx="9.5" ry="9.5" fill="#81665a" stroke="#81665a" stroke-linejoin="round" stroke-width="2"/>
 <rect x="1" y="1" width="19" height="19" rx="9.5" ry="9.5" fill="#725a50"/>
 <g transform="matrix(3.5219 0 0 3.5219 -186.52 319.34)" fill="#fff">
  <polygon transform="matrix(.10335 0 0 .10335 53.643 -89.963)" points="31.85 34 31.13 29 28.87 29 28.15 34" filter="url(#filter1804)"/>
  <g stroke-width=".10335">
   <circle cx="54.574" cy="-86.656" r=".20671" filter="url(#filter1808)"/>
   <path d="m54.871-87.969-0.12092-0.12092a0.39894 0.39894 0 0 0-0.23254-0.11059l1.0893 1.0893 0.57774-0.57774-0.37104-0.37104-0.09095 0.09095a0.60151 0.60151 0 0 1-0.85163 0z"/>
   <path d="m54.44-88.693a0.10335 0.10335 0 0 1 0.02997 0.07338v0.20671a0.60461 0.60461 0 0 1 0.42581 0.17673l0.12092 0.12092a0.39687 0.39687 0 0 0 0.56017 0l0.09095-0.09095-0.62012-0.62012h-0.37103a0.10335 0.10335 0 0 1-0.07338-0.02997l-0.13332-0.13436-0.16433 0.16433z"/>
   <rect transform="rotate(-45)" x="101.21" y="-24.847" width=".23151" height=".23151" filter="url(#filter1800)"/>
   <path d="m57.927-86.084c0.0037-2.8899-1.1923-1.6748-1.4025-1.8856l-0.12092-0.12092c-0.07463-0.07374-0.17518-0.11529-0.28009-0.11576-0.04701 1.86e-4 -0.09359 0.0089-0.13746 0.02584l0.41341 0.41341c0.04076 0.04043 0.04076 0.10633 0 0.14676l-0.72347 0.72347c-0.04043 0.04076-0.10633 0.04076-0.14676 0l-1.2402-1.2402c-0.0054-0.0068-0.01025-0.01408-0.01447-0.0217-0.03234 0.01732-0.06223 0.03887-0.08888 0.06408l-0.23254 0.24081v1.765s1.3375 0.01263 3.9739 0.0049zm-3.3538-0.98544c0.36834 0 0.55273 0.4453 0.29231 0.70572-0.26042 0.26042-0.70572 0.07602-0.70572-0.29231 0-0.22832 0.18509-0.41341 0.41341-0.41341zm2.8379-0.12561c-0.11416 0-0.20671-0.09255-0.20671-0.20671h-0.10335v-0.2067h0.10335c0.11416 0 0.20671 0.09255 0.20671 0.2067 0.11416 0 0.20671 0.09255 0.20671 0.20671h0.10335v0.20671h-0.10335c-0.11416 0-0.20671-0.09255-0.20671-0.20671zm-1.0809 0.83461 0.10335-0.72347c0.0073-0.05137 0.05148-0.08939 0.10335-0.08888h0.41341c0.05188-5.06e-4 0.09609 0.03752 0.10335 0.08888l0.10335 0.72347c0.0045 0.02971-0.0042 0.05989-0.02377 0.08268-0.02007 0.02285-0.04918 0.03571-0.07958 0.03514h-0.62012c-0.03005 2.58e-4 -0.05872-0.01257-0.07855-0.03514-0.01993-0.02262-0.02899-0.05282-0.02481-0.08268z" filter="url(#filter1796)"/>
  </g>
 </g>
</svg>
