<?xml version="1.0" encoding="UTF-8"?>
<svg width="17" height="17" version="1.1" viewBox="0 0 17 17" xmlns="http://www.w3.org/2000/svg">
 <rect width="17" height="17" fill="none"/>
 <rect x="1" y="1" width="15" height="15" rx="7.5" ry="7.5" fill="#54423b" stroke="#54423b" stroke-linejoin="round" stroke-width="2"/>
 <rect x="1" y="1" width="15" height="15" rx="7.5" ry="7.5" fill="#725a50"/>
 <path d="m8.4769 6.1308s-1.3615-1.4769-4.9769-1.4769v6.1538c3.6154 0 4.9769 1.5385 4.9769 1.5385s1.4077-1.5385 5.0231-1.5385v-6.1538c-3.6154 0-5.0231 1.4769-5.0231 1.4769zm4.2538 3.9077c-1.5088 0.037846-2.979 0.48454-4.2538 1.2923-1.2569-0.80977-2.7129-1.257-4.2077-1.2923v-4.6154c2.6154 0.2 3.6385 1.2308 3.6538 1.2385l0.56154 0.56923 0.55385-0.57692s1.0769-1.0308 3.6923-1.2308zm-3.8462 0.18462-0.076923-0.13077c1.0008-0.45623 2.0636-0.76208 3.1538-0.90769v0.15385c-1.0645 0.15023-2.1012 0.45608-3.0769 0.90769zm0-0.76923-0.076923-0.13077c1.0012-0.45369 2.064-0.75692 3.1538-0.9v0.15385c-1.0649 0.15292-2.1016 0.46131-3.0769 0.91538zm0-0.76923-0.076923-0.13077c1.0012-0.45385 2.0639-0.75715 3.1538-0.9v0.15385c-1.065 0.15238-2.1018 0.46077-3.0769 0.91538zm0-0.76923-0.076923-0.13077c1.001-0.45431 2.0638-0.75762 3.1538-0.9v0.15385c-1.0649 0.15277-2.1016 0.46123-3.0769 0.91538zm-0.84615 2.3077c-0.95085-0.443-1.9616-0.74362-3-0.89231v-0.15385c1.0671 0.156 2.1045 0.47238 3.0769 0.93846zm0-0.76923c-0.95162-0.43769-1.9625-0.73315-3-0.87692v-0.15385c1.0662 0.15592 2.1032 0.46962 3.0769 0.93077zm0-0.76923c-0.95146-0.43808-1.9624-0.73362-3-0.87692v-0.15385c1.0668 0.15308 2.1042 0.46692 3.0769 0.93077zm0-0.76923c-0.95162-0.43769-1.9625-0.73315-3-0.87692v-0.15385c1.0662 0.15569 2.1032 0.46938 3.0769 0.93077z" fill="#fff" stroke-width=".76923"/>
</svg>
