<?xml version="1.0" encoding="UTF-8"?>
<svg width="17" height="17" version="1.1" viewBox="0 0 17 17" xmlns="http://www.w3.org/2000/svg">
 <rect width="17" height="17" fill="none"/>
 <rect x="1" y="1" width="15" height="15" rx="7.5" ry="7.5" fill="#54423b" stroke="#54423b" stroke-linejoin="round" stroke-width="2"/>
 <rect x="1" y="1" width="15" height="15" rx="7.5" ry="7.5" fill="#725a50"/>
 <path d="m8.5 3.5-5 2.6502v0.42669h10v-0.42669zm-4.2308 3.8462v3.8462l-0.76923 1.1959v1.1118h10v-1.1118l-0.76923-1.1959v-3.8462zm2.0117 0.76923c0.13-0.00177 0.25523 0.049154 0.34708 0.14123l1.872 1.872 1.872-1.872c0.18808-0.18746 0.49246-0.18708 0.68 1e-3 0.08962 0.089846 0.14008 0.21162 0.14031 0.33854v3.2632c0.0038 0.26554-0.20846 0.48385-0.474 0.48754-0.26554 0.0038-0.48385-0.20846-0.48754-0.474-7.7e-5 -0.0045-7.7e-5 -0.0091 0-0.01361v-2.1033l-1.3912 1.3912c-0.18769 0.18715-0.49138 0.18715-0.67908 0l-1.3912-1.3912v2.1034c0.00377 0.26554-0.20846 0.48385-0.474 0.48754-0.26546 0.0038-0.48377-0.20838-0.48754-0.47392-7.69e-5 -0.0045-7.69e-5 -0.0091 0-0.01361v-3.2632c0-0.26262 0.21069-0.47662 0.47323-0.48077z" fill="#fff" stroke-width=".76923"/>
</svg>
