<?xml version="1.0" encoding="UTF-8"?>
<svg width="21" height="21" version="1.1" viewBox="0 0 21 21" xmlns="http://www.w3.org/2000/svg">
 <rect width="21" height="21" fill="none"/>
 <rect x="1" y="1" width="19" height="19" rx="9.5" ry="9.5" fill="#54423b" stroke="#54423b" stroke-linejoin="round" stroke-width="2"/>
 <rect x="1" y="1" width="19" height="19" rx="9.5" ry="9.5" fill="#725a50"/>
 <path d="m10.5 4-6.5 3.4453v0.5547h13v-0.5547zm-5.5 5v5l-1 1.5547v1.4453h13v-1.4453l-1-1.5547v-5zm2.6152 1c0.169-0.0023 0.3318 0.0639 0.4512 0.1836l2.4336 2.4336 2.4336-2.4336c0.2445-0.2437 0.6402-0.2432 0.884 0.0013 0.1165 0.1168 0.1821 0.2751 0.1824 0.4401v4.2422c0.0049 0.3452-0.271 0.629-0.6162 0.6338-0.3452 0.0049-0.629-0.271-0.6338-0.6162-1e-4 -0.0059-1e-4 -0.0118 0-0.0177v-2.7343l-1.8086 1.8086c-0.244 0.2433-0.6388 0.2433-0.8828 0l-1.8086-1.8086v2.7344c0.0049 0.3452-0.271 0.629-0.6162 0.6338-0.3451 0.0049-0.6289-0.2709-0.6338-0.6161-1e-4 -0.0059-1e-4 -0.0118 0-0.0177v-4.2422c0-0.3414 0.2739-0.6196 0.6152-0.625z" fill="#fff"/>
</svg>
