<?xml version="1.0" encoding="UTF-8"?>
<svg width="21" height="21" version="1.1" viewBox="0 0 21 21" xmlns="http://www.w3.org/2000/svg">
 <rect width="21" height="21" fill="none"/>
 <rect x="1" y="1" width="19" height="19" rx="9.5" ry="9.5" fill="#81665a" stroke="#81665a" stroke-linejoin="round" stroke-width="2"/>
 <rect x="1" y="1" width="19" height="19" rx="9.5" ry="9.5" fill="#725a50"/>
 <rect x="3.5" y="3.5" width="14" height="14" fill="none" stroke-width=".58333"/>
 <path d="m6.5714 7.232c-0.15866-0.096576-0.21385-0.31042-0.11727-0.46908l0.8071-1.3452 0.71052-1.1796c0.26903-0.44839 0.91747-0.44839 1.1865 0l1.0209 1.697-0.84849 1.421-0.49668 0.82779c-0.11037 0.15866-0.32422 0.21385-0.48978 0.11727zm10.706 3.8354-0.92437-1.5452c-0.09658-0.15866-0.30352-0.21385-0.46908-0.12417l-1.7935 1.0347c-0.16556 0.09658-0.22074 0.31042-0.12417 0.47598l1.3452 2.2488h0.75191c0.4208 0 0.82779-0.17936 1.0968-0.50357 0.20695-0.25524 0.31042-0.56566 0.31042-0.87608 0-0.24834-0.06898-0.48978-0.19315-0.71052zm-3.9458 5.5393h1.0347c0.52427 0 1.0002-0.29662 1.2348-0.76571l1.0002-1.9936h-3.2698v-0.54496c0-0.31042-0.37251-0.46218-0.58635-0.24144l-1.9246 1.9246c-0.13797 0.13796-0.13797 0.35181 0 0.48978l1.9246 1.9246c0.21384 0.21385 0.58635 0.06208 0.58635-0.24144zm-4.4839-2.7593h-2.6213l-0.57945 0.97266c-0.20695 0.34491-0.22074 0.7726-0.04139 1.1382 0.19315 0.3932 0.60015 0.64844 1.0485 0.64844h2.1936c0.19315 0 0.34491-0.15176 0.34491-0.34491v-2.0695c0-0.19315-0.15176-0.34491-0.34491-0.34491zm-2.3316-1.828 0.48288 0.28973c0.26213 0.15866 0.58635-0.08278 0.51047-0.3794l-0.66223-2.6489c-0.04139-0.17936-0.22764-0.29662-0.4139-0.24834l-2.642 0.66223c-0.29663 0.07588-0.35871 0.46908-0.096576 0.62774l0.45529 0.27593-0.28283 0.47598c-0.24144 0.407-0.26213 0.90367-0.048287 1.3245l1.1244 2.2488zm7.5191-6.3533-0.89677-1.4969c-0.25524-0.4139-0.70362-0.66913-1.1865-0.66913h-2.4351l2.1523 3.5871-0.47598 0.28283c-0.26214 0.15866-0.20695 0.55876 0.09658 0.62774l2.642 0.66223c0.18625 0.048288 0.37251-0.068982 0.4208-0.24834l0.66223-2.642c0.07588-0.29663-0.24834-0.53806-0.51047-0.3794z" fill="#fff" stroke-width=".68983"/>
</svg>
