<?xml version="1.0" encoding="UTF-8" standalone="no"?>
<svg
   viewBox="0 0 17 17"
   height="17"
   width="17"
   version="1.1"
   xmlns="http://www.w3.org/2000/svg"
   xmlns:svg="http://www.w3.org/2000/svg">
  <rect fill="none" x="0" y="0" width="17" height="17"></rect>
  <rect x="1" y="1" rx="7.5" ry="7.5" width="15" height="15" stroke="#81665a"
        style="stroke-linejoin:round;stroke-miterlimit:4;" fill="#81665a" stroke-width="2"></rect>
  <rect x="1" y="1" width="15" height="15" rx="7.5" ry="7.5" fill="#725a50"></rect>
  <path
     fill="#fff"
     d="m 7.7089691,4.5714283 c 0,0 1.2544282,2.215892 3.1393139,0.3928572 0.259767,0.3928571 0.784828,1.1785714 0.784828,1.1785714 0,0 -2.702456,1.8510693 -3.9241419,-1.5714286 z M 3.7848283,6.1428569 C 4.0113462,6.6211886 4.3032309,7.2093195 4.5696565,7.7142855 4.9655655,6.9285712 6.139313,6.9285712 6.139313,6.9285712 c 0.7848279,0 1.360782,0.3078514 1.360782,0.8070284 0,0.4991771 -0.5759541,0.7644002 -1.360782,0.7644002 0,0 0,0.7857143 0,1.1785712 1.0287957,-0.1954213 1.5717249,0.620368 1.3201977,1.184062 C 6.9829653,11.930695 4.1803236,12.056648 3,10.071428 c 0,3.133289 2.7009802,3.142857 3.139313,3.142857 1.5696561,0 2.3544844,-1.571429 2.3544844,-3.142857 0.4087419,0.426672 1.0633295,0.428704 1.5696566,0 0.710116,-0.6012874 0.987862,-1.57938 1.962071,-1.5714282 1.188004,0.0097 1.177242,2.3571432 0.392414,3.1428562 -0.784828,0.785715 -2.6637394,0.506551 -3.1393131,-0.785713 0,0.785713 0,2.358205 2.3544851,2.357142 2.354485,-0.0011 2.831761,-2.65882 1.96207,-4.7142852 C 13.057673,7.2296298 12.051339,6.8892101 10.966026,7.2258101 10.127739,7.4858031 10.166101,7.8577994 9.67104,8.4999998 9.412487,8.8109132 9.2786259,9.2857141 8.4937974,9.2857141 c -0.272428,0 -0.6056339,-0.2156645 -0.7848283,-0.3928572 0.9717281,-0.6952293 0.8286225,-2.0326809 0,-2.75 -1.089225,-0.9429179 -3.0138437,-0.7501507 -3.9241408,0 z M 8.4937974,4.5714283 9.2786259,3.7857141 10.063454,4.5714283 9.2786259,5.3571426 Z"
     id="hinduist"
     style="stroke-width:0.785271" />
</svg>
