<?xml version="1.0" encoding="UTF-8" standalone="no"?>
<svg
   viewBox="0 0 17 17"
   height="17"
   width="17"
   version="1.1"
   xmlns="http://www.w3.org/2000/svg"
   xmlns:svg="http://www.w3.org/2000/svg">
  <rect fill="none" x="0" y="0" width="17" height="17"></rect>
  <rect x="1" y="1" rx="7.5" ry="7.5" width="15" height="15" stroke="#81665a"
        style="stroke-linejoin:round;stroke-miterlimit:4;" fill="#81665a" stroke-width="2"></rect>
  <rect x="1" y="1" width="15" height="15" rx="7.5" ry="7.5" fill="#725a50"></rect>
  <path
     fill="#fff"
     d="M 7.7142859,4 C 5.0503883,4 3,6.0504001 3,8.7142859 c 0,2.6638861 2.0503883,4.7142861 4.7142859,4.7142861 1.4894476,0 3.0437881,-0.510479 3.9285721,-1.571429 -0.578128,0.376357 -1.615897,0.785714 -2.3571431,0.785714 -2.0370983,0 -3.928572,-1.89145 -3.928572,-3.9285711 0,-2.0371215 1.8914737,-3.9285716 3.928572,-3.9285716 0.7412461,0 1.7790151,0.4094357 2.3571431,0.7857143 C 10.758074,4.5105572 9.2037335,4 7.7142859,4 Z M 11.250001,6.3571429 10.464287,7.9285716 H 8.5000006 L 10.07143,9.107143 9.2857149,11.071429 11.250001,9.8928574 13.214286,11.071429 12.428573,9.107143 14,7.9285716 h -1.964284 z"
     id="muslim"
     style="stroke-width:0.785714" />
</svg>
