<?xml version="1.0" encoding="UTF-8" standalone="no"?>
<svg
   viewBox="0 0 17 17"
   height="17"
   width="17"
   version="1.1"
   xmlns="http://www.w3.org/2000/svg"
   xmlns:svg="http://www.w3.org/2000/svg">
  <rect fill="none" x="0" y="0" width="17" height="17"></rect>
  <rect x="1" y="1" rx="7.5" ry="7.5" width="15" height="15" stroke="#81665a"
        style="stroke-linejoin:round;stroke-miterlimit:4;" fill="#81665a" stroke-width="2"></rect>
  <rect x="1" y="1" width="15" height="15" rx="7.5" ry="7.5" fill="#725a50"></rect>
  <path
     fill="#fff"
     d="M 8.492191,3 7.7043887,3.7857143 c 0.049152,0.3431932 0.061583,0.608892 0.098475,0.9084821 -0.9620678,0.2984413 -1.6740786,1.1766512 -1.6740786,2.2343747 0,1.065861 0.7251694,1.942913 1.6986977,2.234375 -0.040092,0.295511 -0.067063,0.573195 -0.1230946,0.9084829 L 8.09829,10.464286 v 0.319196 C 7.3741237,10.29578 6.6041736,9.7534081 6.1287858,9.2857141 4.5315013,7.7142861 4.9531638,4.9642857 6.9165879,3.7857143 5.3458487,4.1785714 3.79,5.5994648 3.79,7.7142861 c 0,2.3571429 2.3387858,3.1428569 2.3387858,3.9285709 l 0.7878021,-0.785714 1.0093709,0.564732 c -0.482584,0.298233 -1.0093709,0.613839 -1.0093709,0.613839 l 0.3939009,0.392857 0.8370392,-0.466517 v 0.564732 C 7.8918192,12.656626 7.7043887,12.90849 7.7043887,13.214286 7.7043887,13.648224 8.057101,14 8.492191,14 c 0.43509,0 0.787801,-0.351776 0.787801,-0.785714 0,-0.305796 -0.16281,-0.55766 -0.41852,-0.6875 v -0.564732 l 0.812421,0.466517 0.393901,-0.392857 c 0,0 -0.555302,-0.347859 -0.984753,-0.613839 l 0.984753,-0.564732 0.787802,0.785714 c 0,-0.785714 2.363404,-1.571428 2.363404,-3.9285709 0,-2.1148213 -1.575603,-3.5357147 -3.151206,-3.9285718 1.969505,1.1785714 2.390032,3.9285718 0.787802,5.4999998 -0.48308,0.473793 -1.234585,1.0300349 -1.969505,1.5223219 v -0.34375 L 9.279992,10.071429 C 9.2256,9.7459681 9.196269,9.4625861 9.156899,9.1629461 c 0.973528,-0.291462 1.698697,-1.168514 1.698697,-2.234375 0,-1.0658599 -0.725169,-1.942912 -1.698697,-2.2343747 0.03936,-0.299639 0.0687,-0.583021 0.123093,-0.9084821 z m 0.566232,2.4553571 c 0.59193,0.2261083 1.009371,0.8033224 1.009371,1.473214 0,0.669892 -0.417441,1.247106 -1.009371,1.473215 -0.09528,-1.012818 -0.09528,-1.933611 0,-2.946429 z m -1.1817025,0.024554 c 0.0071,-0.00299 0.017501,0.00288 0.024621,0 0.1060178,1.092066 0.1186584,1.950643 0.024621,2.921875 -0.59193,-0.226109 -1.0093709,-0.803323 -1.0093709,-1.473215 0,-0.6509068 0.3946259,-1.2101046 0.9601336,-1.4486604 z M 6.5226869,12.428572 c -0.2175459,0 -0.3939011,0.175888 -0.3939011,0.392857 0,0.216968 0.1763552,0.392857 0.3939011,0.392857 0.2175449,0 0.393901,-0.175889 0.393901,-0.392857 0,-0.216969 -0.1763561,-0.392857 -0.393901,-0.392857 z m 3.9390081,0 c -0.217545,0 -0.393901,0.175888 -0.393901,0.392857 0,0.216968 0.176356,0.392857 0.393901,0.392857 0.217545,0 0.393901,-0.175889 0.393901,-0.392857 0,-0.216969 -0.176356,-0.392857 -0.393901,-0.392857 z"
     id="sikhist"
     style="stroke-width:0.785732" />
</svg>
