<?xml version="1.0" encoding="UTF-8" standalone="no"?>
<svg
   viewBox="0 0 17 17"
   height="17"
   width="17"
   version="1.1"
   xmlns="http://www.w3.org/2000/svg"
   xmlns:svg="http://www.w3.org/2000/svg">
  <rect fill="none" x="0" y="0" width="17" height="17"></rect>
  <rect x="1" y="1" rx="7.5" ry="7.5" width="15" height="15" stroke="#81665a"
        style="stroke-linejoin:round;stroke-miterlimit:4;" fill="#81665a" stroke-width="2"></rect>
  <rect x="1" y="1" width="15" height="15" rx="7.5" ry="7.5" fill="#725a50"></rect>
  <path
     fill="#fff"
     d="M 8.5,14 C 11.531347,14 14,11.50998 14,8.4999999 14,5.4900205 11.54643,3 8.5,3 5.4535704,3 3,5.4670878 3,8.4999999 3,11.532913 5.468653,14 8.5,14 Z m 0,-0.785714 c -2.6082815,0 -4.7142857,-2.106005 -4.7142857,-4.7142861 0,-2.6082814 2.1060042,-4.7142856 4.7142857,-4.7142856 2.357143,0 3.142857,4.3052384 0,4.7142856 -3.1428571,0.4090476 -2.2905567,4.7142861 0,4.7142861 z m 0,-1.571429 c -0.4339382,0 -0.7857143,-0.351777 -0.7857143,-0.785714 0,-0.433938 0.3517761,-0.785714 0.7857143,-0.785714 0.4339382,0 0.7857143,0.351776 0.7857143,0.785714 0,0.433937 -0.3517761,0.785714 -0.7857143,0.785714 z m 0,-4.7142856 c 0.4339382,0 0.7857143,-0.3517761 0.7857143,-0.7857143 0,-0.4339382 -0.3517761,-0.7857143 -0.7857143,-0.7857143 -0.4339382,0 -0.7857143,0.3517761 -0.7857143,0.7857143 0,0.4339382 0.3517761,0.7857143 0.7857143,0.7857143 z"
     id="taoist"
     style="stroke-width:0.785714" />
</svg>
