<?xml version="1.0" encoding="UTF-8" standalone="no"?>
<svg
   viewBox="0 0 21 21"
   height="21"
   width="21"
   version="1.1"
   xmlns="http://www.w3.org/2000/svg"
   xmlns:svg="http://www.w3.org/2000/svg">
  <rect fill="none" x="0" y="0" width="21" height="21"></rect>
  <rect x="1" y="1" rx="9.5" ry="9.5" width="19" height="19" stroke="#81665a"
        style="stroke-linejoin:round;stroke-miterlimit:4;" fill="#81665a" stroke-width="2"></rect>
  <rect x="1" y="1" width="19" height="19" rx="9.5" ry="9.5" fill="#725a50"></rect>
  <path
     fill="#fff"
     d="m 4,4.5 c 0,0.9285714 0.6077918,1.5221533 0.9285714,1.8426451 0.3207797,0.3204918 0.7824867,0.1970242 0.7824867,0.4387338 0,0 0.1460848,0.4898375 0.6103705,0.4898375 h 1.1607143 c 0,0.2670911 0.2321428,0.4642857 0.2321428,0.4642857 0,0 -0.2321428,0.1304219 -0.2321428,0.4642859 H 6.3214286 c -0.4642857,0 -0.4642857,0.2321428 -0.4642857,0.4642857 0,0.4896672 0,0.9285714 0,0.9285714 0,0.222576 0.2145928,0.4642859 0.4642857,0.4642859 0.2496928,0 1.1607143,0 1.1607143,0 v 0.928571 H 6.7857143 c 0,0.377024 0.251277,0.67933 0.6964286,0.928572 0,0.293756 0,5.107143 0,5.107143 0,0.611602 1.3928571,0.664603 1.3928571,0 v -6.964286 h 3.25 v 6.964286 c 0,0.642346 1.392857,0.59783 1.392857,0 0,0 -10e-7,-4.813387 0,-5.107143 0.445152,-0.289349 0.696429,-0.550193 0.696429,-0.928572 h -0.696429 v -0.928571 c 0,0 0.911021,0 1.160714,0 0.205179,0 0.464286,-0.2417099 0.464286,-0.4642859 0,0 0,-0.4642857 0,-0.9285714 0,-0.4642857 -0.254743,-0.4642857 -0.464286,-0.4642857 h -1.160714 c 0.02226,-0.2448334 -0.232143,-0.4642857 -0.232143,-0.4642857 0,0 0.232143,-0.1971946 0.232143,-0.4642859 h 1.160714 c 0.464286,0 0.464286,-0.4642857 0.464286,-0.4642857 0,-0.2194521 0.541212,-0.1287118 0.928572,-0.4642856 C 16.458788,6.0070712 17,5.4285714 17,4.5 11.428571,5.4285714 8.6428571,5.4285714 4,4.5 Z m 4.875,2.7712164 c -1.356e-4,0 0.9285714,0 0.9285714,0 V 8.199788 H 8.875 c 0,-0.2670911 -0.2321429,-0.4642859 -0.2321429,-0.4642859 0,0 0.2321429,-0.1749369 0.2321429,-0.4642857 z m 2.321429,0 H 12.125 c 0,0.2458433 0.232143,0.4642857 0.232143,0.4642857 0,0 -0.232143,0.2194525 -0.232143,0.4642859 h -0.928571 z"
     id="shintoist"
     style="stroke-width:0.928571" />
</svg>
