<svg width="21" height="21" version="1.1" viewBox="0 0 21 21" xmlns="http://www.w3.org/2000/svg"><rect x="1" y="1" width="19" height="19" rx="9.5" ry="9.5" fill="#81665a" stroke="#81665a" stroke-linejoin="round" stroke-width="2"/><rect x="1" y="1" width="19" height="19" rx="9.5" ry="9.5" fill="#725a50"/><path d="m10.524 3.0004c-0.28617-0.0092544-0.55423 0.14383-0.70179 0.40102l-1.6188 2.905h-3.2962c-0.61526 1.017e-4 -0.99687 0.7019-0.67978 1.2544l1.6383 2.9392-1.6383 2.9392c-0.31709 0.55262 0.06452 1.2568 0.67978 1.2569h3.2987l1.6163 2.9025c0.13851 0.24143 0.3843 0.39207 0.65288 0.40102 0.28617 0.0092 0.55423-0.14383 0.70179-0.40102l1.6188-2.9025h3.2962c0.61526-1.01e-4 0.99687-0.70434 0.67978-1.2569l-1.6383-2.9392 1.6383-2.9368c0.31709-0.55262-0.064519-1.2568-0.67978-1.2569h-3.2962l-1.6188-2.905c-0.13851-0.24143-0.3843-0.39207-0.65288-0.40102z" fill="#fff" stroke-width="1.017"/></svg>
