<?xml version="1.0" encoding="UTF-8" standalone="no"?>
<svg
   width="21"
   height="21"
   version="1.1"
   viewBox="0 0 21 21"
   xmlns="http://www.w3.org/2000/svg"
   xmlns:svg="http://www.w3.org/2000/svg">
  <rect fill="none" x="0" y="0" width="21" height="21"></rect>
  <rect x="1" y="1" rx="9.5" ry="9.5" width="19" height="19" stroke="#81665a"
        style="stroke-linejoin:round;stroke-miterlimit:4;" fill="#81665a" stroke-width="2"></rect>
  <rect x="1" y="1" width="19" height="19" rx="9.5" ry="9.5" fill="#725a50"></rect>
  <path
     fill="#fff"
     style="stroke-width:0.93258"
     id="jewish"
     d="M 10.428571,3 8.2851106,6.75 H 4 L 6.143461,10.5 4,14.25 H 8.2851106 L 10.428571,18 12.572033,14.25 h 4.285109 L 14.713681,10.5 16.857143,6.75 h -4.28511 z m 0,1.8768311 L 11.499396,6.75 H 9.3577467 Z M 5.6089542,7.6875 H 7.7506039 L 6.6797796,9.560669 Z m 3.2142857,0 H 12.033903 L 13.641046,10.5 12.033903,13.3125 H 8.8232399 L 7.2160971,10.5 Z m 4.2833001,0 h 2.141647 L 14.177364,9.560669 Z M 6.6797796,11.439331 7.7506039,13.3125 H 5.6089542 Z m 7.4975844,0 1.070823,1.873169 H 13.10654 Z M 9.3577467,14.25 h 2.1416493 l -1.070825,1.873169 z" />
</svg>
