<?xml version="1.0" encoding="UTF-8" standalone="no"?>
<svg
   viewBox="0 0 17 17"
   height="17"
   width="17"
   version="1.1"
   xmlns="http://www.w3.org/2000/svg"
   xmlns:svg="http://www.w3.org/2000/svg">
  <rect fill="none" x="0" y="0" width="17" height="17"></rect>
  <rect x="1" y="1" rx="7.5" ry="7.5" width="15" height="15" stroke="#81665a"
        style="stroke-linejoin:round;stroke-miterlimit:4;" fill="#81665a" stroke-width="2"></rect>
  <rect x="1" y="1" width="15" height="15" rx="7.5" ry="7.5" fill="#725a50"></rect>
  <path
     fill="#fff"
     d="m 3.5,3.5 c 0,0.7142857 0.4675322,1.1708872 0.7142857,1.4174193 0.2467536,0.2465322 0.6019128,0.1515571 0.6019128,0.3374875 0,0 0.112373,0.3767981 0.4695158,0.3767981 h 0.8928572 c 0,0.2054548 0.1785713,0.357143 0.1785713,0.357143 0,0 -0.1785713,0.1003244 -0.1785713,0.357143 H 5.2857143 c -0.3571428,0 -0.3571428,0.1785713 -0.3571428,0.3571428 0,0.3766671 0,0.7142856 0,0.7142856 0,0.1712124 0.1650713,0.3571429 0.3571428,0.3571429 0.1920714,0 0.8928572,0 0.8928572,0 V 8.4888479 H 5.6428572 c 0,0.2900186 0.19329,0.5225615 0.5357143,0.7142857 0,0.2259665 0,3.9285724 0,3.9285724 0,0.470462 1.0714285,0.511232 1.0714285,0 V 7.7745622 h 2.5 v 5.3571438 c 0,0.494112 1.071428,0.459869 1.071428,0 0,0 0,-3.7026059 0,-3.9285724 0.342425,-0.2225757 0.535715,-0.423225 0.535715,-0.7142857 H 10.821428 V 7.7745622 c 0,0 0.700786,0 0.892857,0 0.15783,0 0.357143,-0.1859305 0.357143,-0.3571429 0,0 0,-0.3571427 0,-0.7142856 0,-0.3571428 -0.195956,-0.3571428 -0.357143,-0.3571428 h -0.892857 c 0.01712,-0.1883335 -0.178571,-0.357143 -0.178571,-0.357143 0,0 0.178571,-0.151688 0.178571,-0.357143 h 0.892857 c 0.357143,0 0.357143,-0.3571428 0.357143,-0.3571428 0,-0.1688093 0.416317,-0.099009 0.714287,-0.3571428 C 13.083683,4.6592856 13.5,4.2142857 13.5,3.5 9.2142857,4.2142857 7.0714285,4.2142857 3.5,3.5 Z m 3.75,2.1317049 c -1.043e-4,0 0.7142857,0 0.7142857,0 v 0.714286 H 7.25 c 0,-0.2054548 -0.1785715,-0.357143 -0.1785715,-0.357143 0,0 0.1785715,-0.134567 0.1785715,-0.357143 z m 1.7857143,0 H 9.75 c 0,0.1891103 0.1785718,0.357143 0.1785718,0.357143 0,0 -0.1785718,0.1688095 -0.1785718,0.357143 H 9.0357143 Z"
     id="shintoist"
     style="stroke-width:0.714286" />
</svg>
