<?xml version="1.0" encoding="UTF-8" standalone="no"?>
<svg
   viewBox="0 0 21 21"
   height="21"
   width="21"
   version="1.1"
   xmlns="http://www.w3.org/2000/svg"
   xmlns:svg="http://www.w3.org/2000/svg">
  <rect fill="none" x="0" y="0" width="21" height="21"></rect>
  <rect x="1" y="1" rx="9.5" ry="9.5" width="19" height="19" stroke="#81665a"
        style="stroke-linejoin:round;stroke-miterlimit:4;" fill="#81665a" stroke-width="2"></rect>
  <rect x="1" y="1" width="19" height="19" rx="9.5" ry="9.5" fill="#725a50"></rect>
  <path
     fill="#fff"
     d="m 9.4932339,5.5 c 0,0 1.5965441,2.8202261 3.9954891,0.5 0.330612,0.5 0.998872,1.5 0.998872,1.5 0,0 -3.439488,2.3559065 -4.9943611,-2 z m -4.9943616,2 c 0.2882955,0.6087858 0.6597851,1.3573165 0.9988723,2.0000005 0.5038842,-1 1.9977446,-1 1.9977446,-1 0.9988724,0 1.7319048,0.39181 1.7319048,1.027127 0,0.6353165 -0.7330324,0.9728735 -1.7319048,0.9728735 0,0 0,1 0,1.499999 1.3093758,-0.248718 2.0003767,0.789559 1.6802511,1.506988 C 8.569228,14.866339 5.00223,15.026643 3.5,12.5 c 0,3.987823 3.4376111,4 3.9954892,4 1.9977447,0 2.9966178,-2 2.9966178,-4 0.520215,0.543036 1.353327,0.545623 1.997744,0 0.903783,-0.765275 1.257277,-2.01012 2.497181,-1.999999 1.512005,0.01234 1.498308,2.999999 0.499436,3.999999 -0.998873,1 -3.390214,0.644701 -3.995489,-1 0,1 0,3.001353 2.996616,3 2.996617,-0.0014 3.604061,-3.383953 2.497181,-6 -0.684101,-1.6168345 -1.964891,-2.0500955 -3.346198,-1.6216955 -1.066911,0.3309 -1.018085,0.80435 -1.648163,1.6216955 -0.329067,0.395709 -0.499436,1.000001 -1.498308,1.000001 -0.346728,0 -0.7708074,-0.274482 -0.9988731,-0.500001 1.2367441,-0.884837 1.0546101,-2.5870485 0,-3.5 -1.386287,-1.2000773 -3.8358016,-0.9547373 -4.9943616,0 z m 5.9932347,-2 0.998872,-1 0.998872,1 -0.998872,1 z"
     id="hinduist"
     style="stroke-width:0.999436" />
</svg>
