<?xml version="1.0" encoding="UTF-8"?>
<svg width="17" height="17" version="1.1" viewBox="0 0 17 17" xmlns="http://www.w3.org/2000/svg">
 <rect width="17" height="17" fill="none"/>
 <rect x="1" y="1" width="15" height="15" rx="7.5" ry="7.5" fill="#81665a" stroke="#81665a" stroke-linejoin="round" stroke-width="2"/>
 <rect x="1" y="1" width="15" height="15" rx="7.5" ry="7.5" fill="#725a50"/>
 <g transform="matrix(.12443 0 0 .12443 2.2783 2.2783)" fill="#fff">
  <g transform="translate(0 -952.36)" fill="#fff" fill-rule="evenodd">
   <path d="m71.94 1004.6c-0.4651 0.034-0.916 0.237-1.25 0.5625-2.854 2.5743-5.2159 3.5132-7.2187 3.4687-1.9193-0.043-3.8104-0.9673-5.8125-3.0625-1.1088-1.104-2.3015-1.1036-3.375-0.094-2.0147 2.1561-3.9274 3.1131-5.875 3.1563-1.9657 0.044-4.2685-0.8791-7.0312-3.3438-1.035-0.9094-2.0168-0.7865-3.0313 0.031-2.7476 2.4417-5.0737 3.356-7.0313 3.3125-2.0027-0.044-3.9523-1.0564-6.0312-3.3437-0.3982-0.4407-1.0007-0.6888-1.5938-0.6563-0.7462 0.05-1.4431 0.556-1.722 1.2499-0.2788 0.6939-0.1257 1.5414 0.3783 2.0939 2.5485 2.8041 5.5697 4.5823 8.9063 4.6562 2.8889 0.064 5.759-1.1428 8.625-3.4062 2.8661 2.2634 5.736 3.4703 8.625 3.4062 2.7176-0.06 5.2244-1.2652 7.4374-3.2187 2.2214 1.9506 4.7199 3.1585 7.4376 3.2187 3.3365 0.074 6.6842-1.5092 10-4.5 0.6473-0.5388 0.8905-1.5114 0.5729-2.2914-0.3176-0.7801-1.1709-1.3063-2.0105-1.2398z" color="#725a50000" overflow="visible" style="text-indent:0;text-transform:none"/>
   <path d="m32.378 990.33c-0.7581 0.04-1.4711 0.5522-1.752 1.2575-0.2808 0.7053-0.1147 1.5671 0.4082 2.1175 2.5656 2.7991 5.5948 4.5761 8.9375 4.6563 2.8831 0.069 5.7677-1.114 8.625-3.375 2.8635 2.2713 5.7696 3.4443 8.6563 3.375 3.339-0.08 6.3594-1.8541 8.9062-4.6563 0.5286-0.5581 0.6897-1.435 0.394-2.1446-0.2956-0.7096-1.0317-1.2126-1.8002-1.2304-0.5877-0.015-1.177 0.2438-1.5626 0.6875-2.0805 2.2893-4.031 3.2957-6.0312 3.3438-1.9676 0.047-4.2926-0.8502-7.0625-3.3438-0.9626-0.9113-1.9232-0.8963-3 0.031-2.7546 2.4703-5.0657 3.3597-7.0313 3.3125-2.0064-0.048-3.9612-1.0513-6.0624-3.3437-0.3511-0.4052-0.8709-0.6593-1.4063-0.6875h-0.2187z" color="#725a50000" overflow="visible" style="text-indent:0;text-transform:none"/>
   <path d="m49.999 972.16c-12.009 0-22.919 3.234-30.947 8.6014s-13.252 13.015-13.252 21.619c0 8.5858 5.2246 16.223 13.253 21.585 8.0285 5.362 18.937 8.5959 30.946 8.5959 12.009 0 22.919-3.2339 30.947-8.5959 8.0285-5.3619 13.253-13 13.253-21.585 0-8.6034-5.2242-16.251-13.253-21.619-8.0288-5.3674-18.938-8.6014-30.947-8.6014zm0 4.0006c11.286 0 21.478 3.0809 28.725 7.9259s11.476 11.307 11.476 18.293c0 6.9648-4.2281 13.418-11.476 18.259-7.2478 4.8405-17.439 7.9215-28.725 7.9215-11.286 0-21.477-3.081-28.725-7.9215-7.2478-4.8406-11.475-11.294-11.475-18.259 0-6.9866 4.2284-13.448 11.476-18.293 7.2475-4.845 17.438-7.9259 28.724-7.9259z" color="#725a50000" overflow="visible" style="text-indent:0;text-transform:none"/>
  </g>
 </g>
</svg>
