<svg width="17" height="17" version="1.1" viewBox="0 0 17 17" xmlns="http://www.w3.org/2000/svg"><rect width="17" height="17" fill="none"/><rect x="1" y="1" width="15" height="15" rx="7.5" ry="7.5" fill="#81665a" stroke="#81665a" stroke-linejoin="round" stroke-width="2"/><rect x="1" y="1" width="15" height="15" rx="7.5" ry="7.5" fill="#725a50"/><g transform="matrix(.10504 0 0 .10504 3.2379 3.2463)" fill="#fff"><g fill="#fff"><path d="m90.3 8.7h-19.5v-2.5c0-1.4-1.1-2.5-2.5-2.5s-2.5 1.1-2.5 2.5v2.5h-19.5c-3.9 0-7.2 3.2-7.2 7.2v14.7c0.5 0.6 1 1.3 1.4 1.8 0.3 0.4 0.9 1.2 1.3 1.7 0.6 0.2 1.4 0.3 2.3 0.5v-18.8c0-1.2 0.9-2.1 2.1-2.1h44c1.2 0 2.1 0.9 2.1 2.1v36.2c0 1.2-0.9 2.1-2.1 2.1h-44c-1.2 0-2.1-1-2.1-2.1v-1.3c-1.5-0.2-3.3-0.5-5-0.9v2.2c0 3.9 3.2 7.2 7.2 7.2h19.5v24.2l-9.6 7.8c-1.1 0.9-1.2 2.5-0.4 3.5 0.5 0.6 1.2 0.9 2 0.9 0.6 0 1.1-0.2 1.6-0.6l9-7.3 9 7.3c0.5 0.4 1 0.6 1.6 0.6 0.7 0 1.5-0.3 2-0.9 0.9-1.1 0.7-2.7-0.4-3.5l-9.6-7.8v-24.3h19.5c3.9 0 7.2-3.2 7.2-7.2v-36.1c-0.2-3.9-3.4-7.1-7.4-7.1z"/><path d="m31.2 39.4c1.7 2.2 3.2 4.2 5.2 5 4 1.8 11.1 2.3 11.9 2.4 2.1 0.1 3.9-1.4 4.1-3.5s-1.4-3.9-3.5-4.1c-2.5-0.2-7.3-0.9-9.3-1.7-0.5-0.3-1.6-1.8-2.4-2.8-2.6-3.5-5.9-7.8-10.7-7.8h-10.2c-7.4 0-11.6 9.4-12.5 12.7-0.7 2.6-1.2 11-1.3 13.5-0.1 2.1 1.5 3.9 3.6 4h0.2c2 0 3.7-1.6 3.8-3.6 0.2-4.8 0.7-10.6 1.1-11.9 0.3-1 0.9-2.3 1.6-3.5l0.2 18.4-4.8 34.8c-0.3 2.4 1.3 4.6 3.8 5 2.4 0.3 4.6-1.3 5-3.8l4.5-32 4.5 32c0.3 2.2 2.2 3.8 4.4 3.8h0.6c2.4-0.3 4.1-2.6 3.8-5l-4.9-34.8 0.2-18.5c0.4 0.5 0.8 1.1 1.1 1.4z"/><circle cx="21.4" cy="15.4" r="8.8"/><path d="m65.6 36.7-7.7-2.3v5.2c0 1 0.6 1.8 1.5 2.1l3.4 1c3.7 1.1 7.6 1.1 11.3 0l3.4-1c0.9-0.3 1.5-1.1 1.5-2.1v-5.3l-7.9 2.4c-0.9 0.3-1.8 0.4-2.7 0.4-1 0-1.9-0.1-2.8-0.4z"/><path d="m83.9 30.5c0.9-0.3 0.9-1.6 0-1.9l-13.5-4c-1.4-0.4-2.8-0.4-4.1 0l-13.5 4c-0.9 0.3-0.9 1.6 0 1.9l13.5 4c1.4 0.4 2.8 0.4 4.1 0l11.6-3.5v3.1c-0.2 0.1-0.4 0.4-0.4 0.7v0.8c0 0.3 0.2 0.6 0.4 0.7l-0.7 1.7c-0.1 0.2 0.1 0.5 0.3 0.5l0.7 0.1h0.5l0.7-0.1c0.2 0 0.4-0.3 0.3-0.5l-0.7-1.7c0.3-0.1 0.4-0.4 0.4-0.7v-0.8c0-0.3-0.2-0.5-0.4-0.7v-3.4z"/></g></g></svg>
