<?xml version="1.0" encoding="UTF-8"?>
<svg width="17" height="17" version="1.1" viewBox="0 0 17 17" xmlns="http://www.w3.org/2000/svg">
  <rect width="17" height="17" fill="none"/>
 <rect x="1" y="1" width="15" height="15" rx="7.5" ry="7.5" fill="#81665a" stroke="#81665a" stroke-linejoin="round" stroke-width="2"/>
 <rect x="1" y="1" width="15" height="15" rx="7.5" ry="7.5" fill="#725a50"/>
 <path d="m12.118 10.137-1.2726-0.14529c-0.30562-0.035064-0.60622 0.070137-0.82166 0.28558l-0.92186 0.92186c-1.4179-0.72146-2.5802-1.8788-3.3017-3.3017l0.92687-0.92687c0.21543-0.21543 0.32065-0.51604 0.28558-0.82166l-0.14529-1.2625c-0.060121-0.50602-0.48598-0.88679-0.99701-0.88679h-0.86675c-0.56614 0-1.0371 0.47095-1.002 1.0371 0.26554 4.2786 3.6874 7.6955 7.9611 7.9611 0.56614 0.03507 1.0371-0.43588 1.0371-1.002v-0.86675c5e-3 -0.50602-0.37576-0.93188-0.88178-0.992z" fill="#fff" stroke-width=".50101"/>
</svg>
