<?xml version="1.0" encoding="UTF-8"?>
<svg width="21" height="21" version="1.1" viewBox="0 0 21 21" xmlns="http://www.w3.org/2000/svg">
  <rect width="21" height="21" fill="none"/>
 <rect x="1" y="1" width="19" height="19" rx="9.5" ry="9.5" fill="#81665a" stroke="#81665a" stroke-linejoin="round" stroke-width="2"/>
 <rect x="1" y="1" width="19" height="19" rx="9.5" ry="9.5" fill="#725a50"/>
 <path d="m7.5297 6c-0.8284 0-1.5-0.6716-1.5-1.5s0.6716-1.5 1.5-1.5 1.5 0.6716 1.5 1.5-0.6716 1.5-1.5 1.5zm9.5-1.5c0-0.8284-0.6716-1.5-1.5-1.5s-1.5 0.6716-1.5 1.5 0.6716 1.5 1.5 1.5 1.5-0.6716 1.5-1.5zm-5.14 5.14-2.48-2.49c-0.1002-0.1008-0.238-0.1551-0.38-0.15h-3c-0.1303 3e-4 -0.2555 0.0503-0.35 0.14l-2.51 2.49c-0.2261 0.177-0.2659 0.5039-0.0889 0.73s0.5039 0.2659 0.73 0.0889c0.0331-0.0259 0.063-0.0558 0.0889-0.0889l2.13-2.16-2 5.8h2v3.33c-0.0075 0.0497-0.0075 0.1003 0 0.15 0.0555 0.2761 0.3244 0.455 0.6005 0.3995 0.2015-0.0405 0.359-0.198 0.3995-0.3995v-3.48h1v3.5c0.0555 0.2761 0.3244 0.455 0.6005 0.3995 0.2015-0.0405 0.359-0.198 0.3995-0.3995 0.0075-0.0497 0.0075-0.1003 0-0.15v-3.35h2l-2-5.8 2.14 2.16c0.0967 0.1081 0.2349 0.17 0.38 0.17 0.2754-0.0212 0.4861-0.2539 0.48-0.53 0.0023-0.1337-0.0479-0.263-0.14-0.36zm5.64-2.64h-4c-0.2761 0-0.5 0.2239-0.5 0.5v5c0 0.2761 0.2239 0.5 0.5 0.5s0.5-0.2239 0.5-0.5v5c0 0.2761 0.2239 0.5 0.5 0.5s0.5-0.2239 0.5-0.5v-5h1v5c0 0.2761 0.2239 0.5 0.5 0.5s0.5-0.2239 0.5-0.5v-5c0 0.2761 0.2239 0.5 0.5 0.5s0.5-0.2239 0.5-0.5v-5c0-0.2761-0.2239-0.5-0.5-0.5z" fill="#fff"/>
</svg>
