<?xml version="1.0" encoding="UTF-8"?>
<svg width="21" height="21" version="1.1" viewBox="0 0 21 21" xmlns="http://www.w3.org/2000/svg">
 <rect width="21" height="21" fill="none"/>
 <rect x="1" y="1" width="19" height="19" rx="9.5" ry="9.5" fill="#bbb" stroke="#bbb" stroke-linejoin="round" stroke-width="2"/>
 <rect x="1" y="1" width="19" height="19" rx="9.5" ry="9.5" fill="#fff"/>
 <g transform="matrix(.1662 0 0 .1662 2.0449 2.1518)" fill="#76a723">
  <path d="m87.034 8.631-2.8246-2.8249c-0.93623-0.93654-2.4543-0.93654-3.3906 0-10.655 10.655-10.629 11.523-18.998 21.948l3.3269 3.3275-0.01981-0.02011c2.3415-1.8194 13.387-10.506 21.906-19.041 1.0994-1.1006 0.93623-2.4541 0-3.3903z"/>
  <circle cx="19.877" cy="36.359" r="5.9311"/>
  <path d="m36.356 21.072h5.5876c0.5352 3.4876 3.2857 6.2421 6.7715 6.7855 0.41047 0.0637 0.8283 0.10643 1.2568 0.10643 2.3549 0 4.4693-1.0085 5.9529-2.6102 1.3437-1.4507 2.1717-3.3864 2.1717-5.5186 0-4.4873-3.637-8.1243-8.1246-8.1243-3.2653 0-6.0753 1.9298-7.3677 4.7068h-6.2481c-1.2851 0-2.3269 1.0423-2.3269 2.3275 0 1.2845 1.0418 2.3268 2.3269 2.3268z"/>
  <path d="m60.261 30.24-0.40984-0.47118h-9.1844c-0.64962 0-1.2815 0.0677-1.8969 0.18081-4.8441 0.8972-8.4872 5.1597-8.4872 10.358l0.28786 3.5675v18.939l-11.789 30.76c5.5266 2 10.307-0.30766 12.726-6.7989l8.7263-23.865 13.9 32.445c5.0176-2.103 7.0538-6.4665 4.8569-11.862l-8.73-20.533v-19.113l4.8392 5.5614c1.619 1.8603 4.4399 2.0551 6.3006 0.43732 1.8603-1.6203 2.0563-4.4403 0.43701-6.3018z"/>
 </g>
 </svg>
