<?xml version="1.0" encoding="UTF-8"?>
<svg width="21" height="21" version="1.1" viewBox="0 0 21 21" xmlns="http://www.w3.org/2000/svg">
 <defs>
  <style type="text/css">.fil1 {fill:#76a723}
    .fil0 {fill:#76a723;fill-rule:nonzero}</style>
 </defs>
 
 <rect width="21" height="21" fill="none"/>
 <rect x="1" y="1" width="19" height="19" rx="9.5" ry="9.5" fill="#bbb" stroke="#bbb" stroke-linejoin="round" stroke-width="2"/>
 <rect x="1" y="1" width="19" height="19" rx="9.5" ry="9.5" fill="#fff"/>
 <g transform="matrix(.03761 0 0 .03761 4.0757 3.5)" clip-rule="evenodd" fill="#76a723" fill-rule="evenodd" image-rendering="optimizeQuality" shape-rendering="geometricPrecision">
  <path class="fil0" d="m172 191 3 57 30 54c5 9 2 21-7 27l-50 36c-22 15-46-18-24-34l36-25-16-29-18 42c-2 5-6 8-10 10l-67 40c-23 14-44-21-21-35l63-37 18-43-4-73-42-1c-5 0-9-2-12-6l-46-53c-14-16 11-38 25-21l41 47 66 2c1 0 3 0 4 1l112 26c21 5 13 37-8 32z"/>
  <circle class="fil1" cx="126" cy="106" r="38"/>
  <path class="fil1" d="m35 34c19 0 35 16 35 35 0 20-16 35-35 35s-35-15-35-35c0-19 16-35 35-35zm0 8c15 0 28 12 28 27 0 16-13 28-28 28s-28-12-28-28c0-15 13-27 28-27z"/>
  <path class="fil1" d="m276 114-4 6-7-12 8-12 5 9zm60-70h-143l18 101h61l23-88h41zm-136 13h6l1 3-6 7zm14 0h12l3 5-8 11-9-13zm23 0h9l5 8-8 11-9-14zm13 0h6l-3 4zm11 0h7l3 4-9 13-7-9zm17 0h13l-2 8-5 7-8-11zm2 43-5-7 10-15v1zm-78-28 8-9 9 14-8 11-8-11zm3 14 3 5-2 3zm2 14 4-5 9 14-7 11-3-5zm5 28 1-1 7 10-2 4h-4zm15 13-2-4 7-11 8 12-2 3zm19 0-1-3 7-11 8 12-2 2zm20 0-2-2 8-13v1l-3 14zm16-66-9 15-9-12 10-14zm-12 18-8 12-8-12 8-12zm-10-15-8 11-7-10 8-11zm10 45-8 12-8-11 8-12zm-10-15-8 12-8-12 8-12zm-10-15-8 12-7-10 8-12zm-9-14-8 12-10-14 8-12zm-20 1 9 15-7 11-10-15zm12 18 6 10-7 12-7-11zm9 14 8 12-8 11-8-12zm-19 1 7 10-8 11-7-11z"/>
  <rect class="fil1" x="317" width="24.629" height="162.69"/>
 </g>
 </svg>
