<svg width="21" height="21" version="1.1" viewBox="0 0 21 21" xmlns="http://www.w3.org/2000/svg"><rect width="21" height="21" fill="none"/><rect x="1" y="1" width="19" height="19" rx="9.5" ry="9.5" fill="#bbb" stroke="#bbb" stroke-linejoin="round" stroke-width="2"/><rect x="1" y="1" width="19" height="19" rx="9.5" ry="9.5" fill="#fff"/><path d="m7.3896 7.0461c-0.15771 0.055895-0.32277 0.094035-0.47402 0.16647-0.095219 0.044026-0.14006 0.16305-0.096494 0.25871 0.10465 0.29569 0.13196 0.61205 0.14851 0.92326 0.015747 0.39957-0.00199 0.80642-0.12174 1.1907-0.09518 0.32433-0.23833 0.63429-0.42094 0.91863-0.032361 0.05066-0.077099 0.11675-0.11732 0.17145-0.23886 0.33487-0.54343 0.61894-0.88226 0.85073-0.19116 0.13412-0.39551 0.24954-0.6119 0.3377-0.099189 0.05154-0.22261 0.10357-0.2568 0.22042-0.00832 0.13476 0.051636 0.26244 0.10462 0.38304 0.046687 0.09108 0.10263 0.20681 0.21776 0.21688 0.16438-0.03055 0.32034-0.09511 0.47797-0.14936 0.90197-0.3389 1.6644-1.0233 2.1101-1.8762 0.33344-0.62936 0.48947-1.3495 0.45218-2.0604-0.021086-0.49737-0.14209-0.98836-0.34397-1.4429-0.020765-0.049754-0.041531-0.099504-0.062305-0.14926-0.041141 0.013393-0.082281 0.026785-0.12342 0.040178zm4.3229 2.0227c-0.18724 0.023054-0.3563 0.11534-0.52662 0.19056-0.28316 0.13374-0.56107 0.28382-0.8041 0.4832-0.89131 0.70195-1.4685 1.7929-1.5276 2.9278-0.032769 0.55248 0.074975 1.1049 0.25379 1.6259 0.062088 0.18496 0.15795 0.35536 0.24492 0.5292 0.21443-0.08595 0.42999-0.16994 0.64618-0.25071 0.090542-0.04498 0.11095-0.16185 0.072349-0.24862-0.092218-0.22888-0.19174-0.45902-0.22125-0.70642-0.042299-0.33856-0.028578-0.68093-0.025203-1.0213 0.00303-0.15189 0.018685-0.3168 0.068822-0.46767 0.17235-0.58113 0.48732-1.1264 0.94095-1.5328 0.2923-0.26783 0.63895-0.46984 1.0037-0.62199 0.0901-0.045468 0.19203-0.078295 0.26794-0.14488 0.06038-0.093262 0.01013-0.20383-0.02087-0.29821-0.05035-0.12715-0.09614-0.25855-0.17129-0.37361-0.04621-0.063034-0.12353-0.09902-0.20172-0.090401zm2.5238 4.6483c-0.3937 0.01189-0.77204 0.23522-0.97239 0.57435-0.18802 0.29544-0.21921 0.67689-0.09862 1.0037 0.13033 0.36896 0.44429 0.68142 0.83108 0.76788 0.24989 0.0456 0.51498 0.02663 0.75192-0.06706 0.40391-0.1788 0.69536-0.59084 0.716-1.0338 0.03345-0.49896-0.2913-0.99503-0.75948-1.1686-0.14894-0.05675-0.30927-0.08258-0.46852-0.0765zm-0.76696-8.7038c-0.10583 7.574e-4 -0.16108 0.10374-0.19656 0.18917-0.10775 0.26484-0.19188 0.54126-0.23319 0.82462-0.06142 0.48178-0.0385 0.9735 0.05351 1.4499 0.19561 0.93515 0.76304 1.7762 1.5243 2.3469 0.36678 0.27614 0.78252 0.48472 1.2208 0.6205 0.10869 0.03131 0.21532 0.07789 0.32801 0.09052 0.11864-0.0045 0.17772-0.12455 0.21822-0.22005 0.08117-0.20575 0.1476-0.41839 0.1913-0.63531 0.05172-0.3326 0.03891-0.67076 0.04036-1.0062-0.0015-0.26382-0.01092-0.53161-0.09158-0.78512-0.22763-0.80895-0.69694-1.5533-1.352-2.0834-0.38002-0.31123-0.8201-0.54583-1.2865-0.69842-0.13539-0.041591-0.27329-0.093914-0.4166-0.093107zm0.80798 8.3469c-0.85046 0-1.5424 0.69174-1.5424 1.5422 0 0.85046 0.69174 1.5424 1.5424 1.5424s1.5424-0.69174 1.5424-1.5424c0-0.85046-0.69174-1.5422-1.5424-1.5422zm0 2.6197c-0.59431 0-1.0777-0.48335-1.0777-1.0777 0-0.5941 0.48335-1.0774 1.0777-1.0774 0.59431 0 1.0777 0.48335 1.0777 1.0774 0 0.59431-0.48335 1.0777-1.0777 1.0777zm0.24411-3.1503c2.1644-1.0303 3.0872-3.6295 2.057-5.7943-0.49836-1.047-1.3763-1.8379-2.4719-2.2268-1.0956-0.38867-2.2758-0.32822-3.3226 0.17013-0.76233 0.36288-1.3905 0.93204-1.8296 1.6481-0.1974-0.027475-0.39712-0.042904-0.59917-0.042904-1.6635 0-3.2034 0.96586-3.9232 2.4609-0.50322 1.0449-0.56895 2.2246-0.18493 3.3218 0.38381 1.0973 1.1707 1.9786 2.2153 2.4819 0.59304 0.28553 1.2256 0.4303 1.8801 0.4303 1.5143 0 2.9242-0.80228 3.7085-2.0737 0.20332 0.02875 0.40706 0.04735 0.60995 0.04735 0.64038-2.11e-4 1.2725-0.14266 1.8605-0.4227zm1.6373-5.5944c0.49751 1.0457 0.48124 2.2033 0.05875 3.193-1.1886-0.24537-2.205-1.0381-2.7262-2.1338-0.47934-1.0064-0.49963-2.1644-0.06383-3.1892 0.17605 0.036351 0.35105 0.080524 0.52372 0.1416 0.97833 0.34724 1.7624 1.0534 2.2075 1.9884zm-8.7291 3.2556c-0.50935 1.0586-1.4534 1.8153-2.5943 2.0887-0.055584-0.11878-0.10567-0.24115-0.14963-0.36648-0.017754-0.050509-0.0298-0.10208-0.04544-0.15323 0.92317-0.3185 1.6787-0.98657 2.1088-1.8797 0.43326-0.90034 0.48082-1.9161 0.14562-2.842 0.1788-0.072704 0.3631-0.13251 0.55204-0.17838 0.4973 1.062 0.49265 2.2722-0.017117 3.3311zm-0.74542-3.0601c0.069108-0.032971 0.13928-0.063616 0.21029-0.09257-0.071015 0.028955-0.14118 0.059811-0.21029 0.09257zm-1.8334 1.8157c0.38656-0.80291 1.0392-1.4329 1.8205-1.8093-0.06721 0.032125-0.13378 0.06594-0.19867 0.10208 0.2756 0.7972 0.2291 1.6667-0.14266 2.4394-0.3688 0.76614-1.013 1.3412-1.8003 1.6251 0.027473 0.15302 0.064463 0.30476 0.11011 0.45524-0.28553-0.93564-0.21536-1.9279 0.21092-2.8124zm1.8134 5.1829c-0.66574-0.32061-1.2112-0.81559-1.5957-1.4279 1.2214-0.33012 2.2282-1.1624 2.7801-2.309 0.55267-1.148 0.57508-2.455 0.070382-3.6166 0.14414-0.016485 0.28933-0.027264 0.43601-0.027264 0.58416 0 1.1489 0.12913 1.6781 0.38423 0.63383 0.30519 1.144 0.76275 1.5149 1.3059-1.1466 0.35908-2.0938 1.1738-2.6178 2.2612-0.57212 1.1878-0.56853 2.5816-0.0013 3.7673-0.19275 0.0298-0.38867 0.04629-0.5867 0.04629-0.58395 2.11e-4 -1.1487-0.12913-1.6781-0.38423zm3.3321 0.01078c-0.19275 0.09088-0.39247 0.16676-0.59875 0.2253-0.555-1.0802-0.57465-2.3696-0.047976-3.4636 0.48378-1.0043 1.3729-1.7464 2.444-2.049 0.10293 0.20015 0.18873 0.40811 0.25573 0.62242-0.90097 0.27222-1.6477 0.90393-2.057 1.7544-0.44193 0.91809-0.43474 1.9939 0.00399 2.9105zm0.40875-0.22128c-0.36817-0.78558-0.37134-1.7032 0.0061-2.4871 0.34936-0.72619 0.98382-1.2664 1.7502-1.5046 0.14562 0.78347 0.05728 1.6172-0.31427 2.3889-0.32252 0.66955-0.82933 1.2203-1.442 1.6029zm1.8818-1.4501c1.0033-2.1507 0.092148-4.7224-2.0516-5.7548-0.25742-0.12385-0.52266-0.21959-0.79361-0.29018 0.38613-0.57106 0.91366-1.0261 1.5422-1.3254 0.62221-0.2961 1.2968-0.41488 1.9672-0.36162-0.43918 1.1187-0.39839 2.3679 0.12047 3.4574 0.56641 1.1903 1.6542 2.0615 2.9344 2.3633-0.37958 0.65349-0.95191 1.2036-1.6842 1.5523-0.63954 0.30455-1.3368 0.4265-2.0349 0.35887z" fill="#76a723" stroke-width=".039758"/></svg>
