<svg width="17" height="17" version="1.1" viewBox="0 0 17 17" xmlns="http://www.w3.org/2000/svg"><rect width="17" height="17" fill="none"/><rect x="1" y="1" width="15" height="15" rx="7.5" ry="7.5" fill="#bbb" stroke="#bbb" stroke-linejoin="round" stroke-width="2"/><rect x="1" y="1" width="15" height="15" rx="7.5" ry="7.5" fill="#fff"/><path d="m6.1074 5.8431c-0.12131 0.042996-0.24829 0.072335-0.36463 0.12805-0.073245 0.033866-0.10774 0.12542-0.074226 0.199 0.080497 0.22746 0.10151 0.47081 0.11424 0.7102 0.012113 0.30736-0.00153 0.62032-0.093645 0.91594-0.073215 0.24949-0.18333 0.48791-0.3238 0.70664-0.024893 0.038969-0.059307 0.089805-0.090245 0.13188-0.18374 0.25759-0.41802 0.47611-0.67866 0.65441-0.14705 0.10317-0.30424 0.19196-0.47069 0.25977-0.076299 0.039646-0.17124 0.079669-0.19754 0.16955-0.0064 0.10366 0.03972 0.20188 0.080479 0.29465 0.035913 0.07006 0.078945 0.15909 0.16751 0.16683 0.12645-0.0235 0.24642-0.07316 0.36767-0.1149 0.69382-0.2607 1.2803-0.78715 1.6232-1.4433 0.25649-0.48412 0.37652-1.038 0.34783-1.5849-0.01622-0.38259-0.1093-0.76028-0.2646-1.1099-0.015973-0.038272-0.031947-0.076541-0.047927-0.11481-0.031647 0.010302-0.063293 0.020604-0.094941 0.030906zm3.3253 1.5559c-0.14403 0.017734-0.27408 0.088721-0.40509 0.14658-0.21782 0.10288-0.43159 0.21832-0.61854 0.37169-0.68563 0.53996-1.1296 1.3791-1.1751 2.2522-0.025207 0.42498 0.057673 0.84995 0.19522 1.2507 0.04776 0.14227 0.1215 0.27336 0.1884 0.40707 0.16495-0.06611 0.33077-0.13072 0.49706-0.19286 0.069648-0.0346 0.085349-0.1245 0.055653-0.19125-0.070937-0.17606-0.14749-0.3531-0.17019-0.5434-0.032538-0.26043-0.021983-0.52379-0.019387-0.78558 0.0023307-0.11684 0.014373-0.24369 0.05294-0.35974 0.13258-0.44702 0.37486-0.86646 0.72381-1.1791 0.22485-0.20602 0.4915-0.36142 0.7721-0.47845 0.069308-0.034975 0.14771-0.060227 0.20611-0.11144 0.046446-0.07174 0.0077923-0.1568-0.016054-0.22939-0.038731-0.097811-0.073954-0.19889-0.13176-0.28739-0.035546-0.048488-0.095023-0.076169-0.15517-0.069539zm1.9414 3.5756c-0.30284 0.0091-0.59388 0.18094-0.74799 0.4418-0.14463 0.22726-0.16862 0.52068-0.07586 0.77208 0.10025 0.28382 0.34176 0.52417 0.63929 0.59068 0.19222 0.03508 0.39614 0.02048 0.5784-0.05159 0.3107-0.13754 0.53489-0.45449 0.55077-0.79523 0.02573-0.38382-0.22408-0.76541-0.58422-0.89889-0.11457-0.04365-0.2379-0.06352-0.3604-0.05885zm-0.58997-6.6952c-0.08141 5.827e-4 -0.12391 0.0798-0.1512 0.14551-0.08288 0.20372-0.1476 0.41635-0.17938 0.63432-0.04725 0.3706-0.02961 0.74884 0.04116 1.1153 0.15047 0.71935 0.58695 1.3663 1.1725 1.8053 0.28214 0.21241 0.60194 0.37286 0.9391 0.47731 0.08361 0.024085 0.16563 0.059915 0.25232 0.069631 0.09126-0.00346 0.13671-0.095809 0.16786-0.16927 0.06244-0.15827 0.11354-0.32184 0.14716-0.4887 0.03978-0.25584 0.02993-0.51597 0.03105-0.77401-0.0012-0.20294-0.0084-0.40893-0.07045-0.60394-0.1751-0.62227-0.53611-1.1949-1.04-1.6026-0.29232-0.23941-0.63084-0.41987-0.98962-0.53724-0.10415-0.031993-0.21022-0.072242-0.32046-0.071621zm0.62153 6.4207c-0.6542 0-1.1865 0.53211-1.1865 1.1863 0 0.6542 0.53211 1.1865 1.1865 1.1865 0.65436 0 1.1865-0.53211 1.1865-1.1865 0-0.6542-0.53211-1.1863-1.1865-1.1863zm0 2.0151c-0.45716 0-0.82897-0.37181-0.82897-0.82897 0-0.457 0.37181-0.82881 0.82897-0.82881 0.45716 0 0.82897 0.37181 0.82897 0.82881 0 0.45716-0.37181 0.82897-0.82897 0.82897zm0.18777-2.4233c1.6649-0.79255 2.3747-2.7919 1.5823-4.4572-0.38335-0.8054-1.0587-1.4138-1.9015-1.7129-0.84279-0.29898-1.7506-0.25248-2.5558 0.13087-0.58641 0.27914-1.0696 0.71696-1.4074 1.2678-0.15185-0.021135-0.30548-0.033003-0.4609-0.033003-1.2796 0-2.4642 0.74297-3.0179 1.893-0.38709 0.80377-0.43765 1.7113-0.14225 2.5552 0.29524 0.84409 0.9005 1.522 1.7041 1.9091 0.45619 0.21964 0.94277 0.331 1.4463 0.331 1.1648 0 2.2494-0.61713 2.8527-1.5952 0.1564 0.02212 0.31312 0.03642 0.46919 0.03642 0.4926-1.62e-4 0.97886-0.10974 1.4311-0.32515zm1.2595-4.3034c0.3827 0.80442 0.37018 1.6948 0.04519 2.4562-0.91432-0.18875-1.6961-0.79857-2.0971-1.6414-0.36872-0.77418-0.38433-1.6649-0.0491-2.4533 0.13542 0.027962 0.27004 0.061942 0.40286 0.10893 0.75256 0.26711 1.3557 0.81027 1.6981 1.5295zm-6.7147 2.5043c-0.39181 0.81434-1.118 1.3964-1.9956 1.6067-0.042757-0.091367-0.081287-0.1855-0.1151-0.28191-0.013657-0.038853-0.022923-0.078524-0.034954-0.11787 0.71013-0.245 1.2913-0.7589 1.6222-1.4459 0.33328-0.69257 0.36986-1.4739 0.11201-2.1861 0.13754-0.055926 0.2793-0.10193 0.42465-0.13721 0.38254 0.81694 0.37896 1.7478-0.013167 2.5623zm-0.5734-2.3539c0.05316-0.025362 0.10714-0.048935 0.16176-0.071208-0.054627 0.022273-0.1086 0.046009-0.16176 0.071208zm-1.4103 1.3967c0.29735-0.61762 0.79938-1.1023 1.4004-1.3918-0.0517 0.024712-0.10291 0.050723-0.15282 0.078524 0.212 0.61323 0.17623 1.2821-0.10974 1.8764-0.28369 0.58934-0.77922 1.0317-1.3848 1.25 0.021133 0.1177 0.049587 0.23443 0.084701 0.35019-0.21964-0.71972-0.16566-1.483 0.16225-2.1634zm1.3949 3.9868c-0.51211-0.24663-0.93172-0.62738-1.2274-1.0984 0.93952-0.25394 1.714-0.89416 2.1385-1.7761 0.42513-0.88311 0.44237-1.8885 0.05414-2.782 0.11088-0.012681 0.22257-0.020972 0.33539-0.020972 0.44936 0 0.88376 0.099333 1.2908 0.29556 0.48756 0.23476 0.88002 0.58673 1.1653 1.0046-0.88197 0.27622-1.6106 0.90294-2.0137 1.7394-0.44009 0.91367-0.43733 1.9859-1e-3 2.8979-0.14827 0.02292-0.29898 0.03561-0.45131 0.03561-0.44919 1.62e-4 -0.8836-0.09933-1.2908-0.29556zm2.5632 0.0083c-0.14827 0.0699-0.3019 0.12827-0.46058 0.1733-0.42692-0.83092-0.44204-1.8228-0.036905-2.6643 0.37213-0.77256 1.0561-1.3434 1.88-1.5762 0.079175 0.15396 0.14518 0.31393 0.19672 0.47878-0.69306 0.2094-1.2674 0.69533-1.5823 1.3495-0.33994 0.70623-0.33442 1.5337 0.00307 2.2388zm0.31442-0.17021c-0.28321-0.60429-0.28564-1.3102 0.00469-1.9132 0.26874-0.55861 0.75679-0.97415 1.3463-1.1574 0.11201 0.60267 0.044062 1.244-0.24175 1.8376-0.24809 0.51504-0.63794 0.93871-1.1092 1.233zm1.4476-1.1154c0.77174-1.6544 0.070883-3.6326-1.5781-4.4268-0.19802-0.095269-0.40205-0.16892-0.61047-0.22322 0.29702-0.43928 0.70281-0.7893 1.1863-1.0195 0.47862-0.22777 0.99756-0.31913 1.5132-0.27817-0.33783 0.86051-0.30645 1.8215 0.09267 2.6596 0.4357 0.91562 1.2725 1.5858 2.2572 1.8179-0.29199 0.50268-0.73224 0.92587-1.2956 1.1941-0.49195 0.23427-1.0283 0.32808-1.5653 0.27605z" fill="#76a723" stroke-width=".030583"/></svg>
