<?xml version="1.0" encoding="UTF-8"?>
<svg width="21" height="21" version="1.1" viewBox="0 0 21 21" xmlns="http://www.w3.org/2000/svg">
 
 <rect width="21" height="21" fill="none"/>
 <rect x="1" y="1" width="19" height="19" rx="9.5" ry="9.5" fill="#bbb" stroke="#bbb" stroke-linejoin="round" stroke-width="2"/>
 <rect x="1" y="1" width="19" height="19" rx="9.5" ry="9.5" fill="#fff"/>
 <g transform="matrix(1.0833 0 0 1.0833 -.33875 -.33333)" fill="#76a723" opacity=".999">
  <path d="m6 15.5c0 0.28 0.22 0.5 0.5 0.5h7c0.28 0 0.5-0.22 0.5-0.5v-1.5h-8z"/>
  <path d="m14 7c-0.55 0-1 0.45-1 1l-0.01-3c0-0.55-0.45-1-1-1h-5.99c-0.55 0-1 0.45-1 1v4.57c0.01 0.07 0.01 0.13 0.02 0.2l0.57 2.83c0.04 0.23 0.25 0.4 0.49 0.4h7.85c0.23 0 0.45-0.18 0.49-0.4l0.57-2.83c0.01-0.07 0.01-0.13 0.02-0.2v-1.57c-0.01-0.55-0.46-1-1.01-1zm-3 2h-4v-2h4z"/>
 </g>
</svg>
