<?xml version="1.0" encoding="UTF-8"?>
<svg width="21" height="21" version="1.1" viewBox="0 0 21 21" xmlns="http://www.w3.org/2000/svg">
 <rect width="21" height="21" fill="none"/>
 <rect x="1" y="1" width="19" height="19" rx="9.5" ry="9.5" fill="#bbb" stroke="#bbb" stroke-linejoin="round" stroke-width="2"/>
 <rect x="1" y="1" width="19" height="19" rx="9.5" ry="9.5" fill="#fff"/>
 <g transform="matrix(1.2885 0 0 1.2885 2.3182 2.3182)" fill="#76a723">
  <g transform="translate(0 -284.3)" fill="#76a723">
   <path d="m11.069 288.13a0.9821 0.9821 0 1 0-1.9641 0 0.9821 0.9821 0 1 0 1.9641 0z"/>
   <path d="m4.1234 287.41-0.90959 1.2486a0.27281 0.27281 0 0 0-0.049271 0.11606l-0.70293 4.2439a0.27281 0.27281 0 0 1-0.093067 0.16383l-0.73797 0.62386v-8.1604a0.81844 0.81844 0 0 1 0.81776-0.81845h6.8907l-0.17847 0.4586a0.27281 0.27281 0 0 1-0.21364 0.17074l-0.2766 0.0415-0.013686-0.11031a0.29905 0.29905 0 0 0-0.5959-0.02l-0.023267 0.22411-0.99773 0.15002a0.27281 0.27281 0 0 0-0.14987 0.0745l-1.1518 1.1233a0.27281 0.27281 0 0 1-0.13139 0.0712l-1.3304 0.29323a0.27281 0.27281 0 0 0-0.16177 0.10566z"/>
   <path d="m10.245 293.07a0.21966 0.21966 0 0 1-0.42003-0.12564l0.39348-1.7589a0.054563 0.054563 0 0 0-0.02053-0.0556l-0.71908-0.5412a0.054563 0.054563 0 0 0-0.076643 0.0109l-2.2708 3.1163 0.12181 2.5189a0.22992 0.22992 0 0 1-0.45151 0.0698l-0.6267-2.3713a0.81844 0.81844 0 0 1 0.064326-0.58558l0.64203-1.2388a0.10913 0.10913 0 0 0-0.097173-0.15933h-1.5356a0.054563 0.054563 0 0 0-0.054745 0.0493l-0.18203 1.8905a0.22992 0.22992 0 0 1-0.45726 4e-3l-0.25484-2.2272a0.54563 0.54563 0 0 1 0.44741-0.5994l1.6518-0.29132a0.81844 0.81844 0 0 0 0.58331-0.42701l0.80873-1.5479 0.35776-3.4202a0.21966 0.21966 0 0 1 0.43755 0.0146l0.11907 3.1873a0.054563 0.054563 0 0 0 0.015055 0.0364l2.0754 2.0873a0.54563 0.54563 0 0 1 0.12318 0.57751z"/>
  </g>
 </g>
</svg>
