<?xml version="1.0" encoding="UTF-8"?>
<svg width="17" height="17" version="1.1" viewBox="0 0 17 17" xmlns="http://www.w3.org/2000/svg">
 
 <rect width="17" height="17" fill="none"/>
 <rect x="1" y="1" width="15" height="15" rx="7.5" ry="7.5" fill="#bbb" stroke="#bbb" stroke-linejoin="round" stroke-width="2"/>
 <rect x="1" y="1" width="15" height="15" rx="7.5" ry="7.5" fill="#fff"/>
 <g transform="matrix(.15625 0 0 .15625 3.1095 3.1095)" fill="#76a723">
  <path d="m64.574 59.61-4.9594 4.9594c-2.5488 2.5695-6.7451 2.5698-9.294 0l-33.92-33.92c-0.2923-0.29236-0.2923-0.76611 0-1.0685l13.185-13.185c0.30239-0.2923 0.7762-0.2923 1.0786 0l33.91 33.92c2.5695 2.5488 2.5696 6.7451 0 9.2939z"/>
  <path d="m24.475 19.38-5.0905 5.0905-15.826-15.826c-1.4244-1.4244-1.3998-3.7113 0-5.0905 1.4012-1.4012 3.6793-1.4012 5.0906 0z"/>
  <path d="m9.5771 53.522c0.12124-4.7284 3.9084-8.5761 8.6888-8.6899-0.11569 4.748-3.9512 8.5616-8.6888 8.6899zm0.07888 1.5c5.5663-0.17073 9.952-4.6176 10.111-10.107 3.9277 0.56167 7.0104 3.6383 7.5715 7.5702-5.4708 0.15121-9.937 4.5367-10.109 10.113-3.9309-0.55932-7.0126-3.6412-7.5738-7.5752zm9.0747 7.6558c0.12719-4.7462 3.9512-8.5744 8.6886-8.6906-0.11259 4.7357-3.9488 8.5776-8.6886 8.6906z"/>
 </g>
 </svg>
