<?xml version="1.0" encoding="UTF-8"?>
<svg width="21" height="21" version="1.1" viewBox="0 0 21 21" xmlns="http://www.w3.org/2000/svg">
 <rect width="21" height="21" fill="none"/>
 <rect x="1" y="1" width="19" height="19" rx="9.5" ry="9.5" fill="#bbb" stroke="#bbb" stroke-linejoin="round" stroke-width="2"/>
 <rect x="1" y="1" width="19" height="19" rx="9.5" ry="9.5" fill="#fff"/>
 <g transform="matrix(.1616 0 0 .1616 5.8136 2.4195)" fill="#76a723">
  <path d="m14.312 41.33c-0.301-0.708-0.563-1.47-0.78-2.266l-2.937 0.798c0.253 0.929 0.561 1.825 0.916 2.661z"/>
  <path d="m45.477 31.744 3.043-0.065c-0.019-0.886-0.071-1.798-0.155-2.71l-3.029 0.276c0.075 0.843 0.123 1.683 0.141 2.499z"/>
  <path d="m43.9 41.33 2.799 1.193c0.355-0.836 0.665-1.732 0.917-2.662l-2.937-0.797c-0.216 0.796-0.478 1.558-0.779 2.266z"/>
  <path d="m12.876 29.245-3.03-0.276c-0.082 0.911-0.134 1.823-0.154 2.71l3.044 0.065c0.017-0.817 0.064-1.657 0.14-2.499z"/>
  <path d="m9.74 34.408c0.055 0.938 0.15 1.857 0.284 2.734l3.009-0.461c-0.12-0.782-0.205-1.606-0.254-2.45z"/>
  <path d="m48.471 34.408-3.038-0.177c-0.048 0.842-0.135 1.667-0.255 2.45l3.009 0.461c0.134-0.878 0.23-1.797 0.284-2.734z"/>
  <path d="m36.882 41.33 2.8 1.193c0.355-0.836 0.664-1.731 0.917-2.661l-2.937-0.798c-0.217 0.796-0.478 1.558-0.78 2.266z"/>
  <path d="m41.348 28.969-3.029 0.276c0.076 0.843 0.123 1.683 0.141 2.499l3.043-0.065c-0.02-0.886-0.072-1.798-0.155-2.71z"/>
  <path d="m41.454 34.408-3.038-0.177c-0.05 0.842-0.136 1.667-0.256 2.45l3.01 0.461c0.134-0.878 0.228-1.797 0.284-2.734z"/>
  <path d="m49.618 46.625c-0.31-0.36-0.762-0.569-1.238-0.569h-3.709c0.245-0.327 0.484-0.658 0.704-1.006l-2.566-1.631c-0.423 0.663-0.899 1.281-1.419 1.838l0.855 0.799h-4.592c0.244-0.327 0.484-0.658 0.705-1.006l-2.568-1.631c-0.423 0.663-0.898 1.281-1.418 1.838l0.854 0.799h-0.902v-21.264h3.312c0.092 0.413 0.231 1.088 0.369 1.963l3.006-0.475c-0.092-0.58-0.184-1.078-0.266-1.488h3.908c0.092 0.413 0.232 1.088 0.37 1.963l3.005-0.475c-0.098-0.624-0.198-1.158-0.284-1.585 0.287-0.141 0.49-0.43 0.49-0.773v-10.65c0-0.479-0.39-0.869-0.87-0.869h-12.393l0.13-0.357c0.25-0.689 0.378-1.413 0.378-2.15 0-3.477-2.827-6.304-6.304-6.304-3.475 0-6.302 2.827-6.302 6.304 0 0.737 0.127 1.461 0.378 2.15l0.13 0.357h-12.422c-0.479 0-0.868 0.39-0.868 0.869v10.758c0 0.291 0.152 0.536 0.37 0.693-0.085 0.422-0.182 0.946-0.278 1.557l3.005 0.475c0.127-0.804 0.255-1.436 0.347-1.854h3.91c-0.077 0.39-0.161 0.849-0.245 1.38l3.006 0.475c0.127-0.804 0.254-1.436 0.346-1.854h3.56v21.155h-1.125l0.854-0.799c-0.519-0.557-0.996-1.175-1.419-1.838l-2.568 1.631c0.222 0.348 0.461 0.679 0.706 1.006h-4.591l0.854-0.799c-0.521-0.557-0.997-1.175-1.418-1.838l-2.568 1.631c0.221 0.348 0.461 0.679 0.705 1.006h-3.923c-0.471 0-0.916 0.203-1.227 0.557-0.31 0.354-0.451 0.824-0.389 1.29l1.811 13.549c0.107 0.809 0.8 1.414 1.616 1.414h12.68v32.674c0 0.48 0.388 0.87 0.868 0.87h8.477c0.48 0 0.869-0.39 0.869-0.87v-32.676h11.955c0.805 0 1.487-0.587 1.609-1.381l2.103-13.548c0.072-0.471-0.064-0.95-0.373-1.311zm-36.761 12.979-1.376-10.288h4.556l-0.135 0.02 1.479 10.269h-4.524zm7.599 0-1.482-10.288h3.449l-0.134 0.02 1.479 10.269h-3.312zm8.719-52.536c1.559 0 2.826 1.268 2.826 2.826 0 0.559-0.164 1.1-0.476 1.565l-0.63 0.942h-3.44l-0.629-0.942c-0.312-0.466-0.476-1.007-0.476-1.565 1e-3 -1.558 1.267-2.826 2.825-2.826zm1.237 85.429h-2.391v-29.632h2.391zm0-32.893h-3.648l-1.48-10.288h7.193l-1.483 10.288zm0.87-38.725c-0.48 0-0.87 0.39-0.87 0.87v24.307h-2.391v-24.199c0-0.479-0.389-0.869-0.869-0.869h-13.15v-4.674h30.321v4.564h-13.041zm6.09 38.725h-3.224l1.479-10.269-0.134-0.02h3.36zm7.511 0h-4.437l1.479-10.269-0.134-0.02h4.687z"/>
  <path d="m16.758 34.408c0.056 0.938 0.15 1.857 0.285 2.734l3.008-0.461c-0.12-0.782-0.205-1.606-0.255-2.45z"/>
  <path d="m21.33 41.33c-0.301-0.707-0.564-1.47-0.78-2.266l-2.937 0.798c0.253 0.931 0.561 1.825 0.917 2.661z"/>
  <path d="m16.71 31.679 3.043 0.065c0.018-0.816 0.064-1.656 0.142-2.499l-3.031-0.276c-0.083 0.912-0.135 1.824-0.154 2.71z"/>
 </g>
</svg>
