<?xml version="1.0" encoding="UTF-8"?>
<svg width="21" height="21" version="1.1" viewBox="0 0 21 21" xmlns="http://www.w3.org/2000/svg">
 
 <rect width="21" height="21" fill="none"/>
 <rect x="1" y="1" width="19" height="19" rx="9.5" ry="9.5" fill="#bbb" stroke="#bbb" stroke-linejoin="round" stroke-width="2"/>
 <rect x="1" y="1" width="19" height="19" rx="9.5" ry="9.5" fill="#fff"/>
 <path transform="translate(3 3)" d="m10.301 1.2207c-0.3863 0-0.70078-0.020703-0.80078 0.7793l-0.40039 2.5215 2.4004 1.9785h2c1.4 0 1.5-0.95898 1.5-0.95898l-1.9004-2.2188c-0.7-0.7-1.3996-0.82227-2.0996-0.82227v-0.5s0.067481-0.7794-0.69922-0.7793zm-5.5508 0.2793s-0.95078 0.020603-1.5508 0.2207c-0.6 0.2-1.1992 0.90039-1.1992 1.9004v3.9004c0 1.7-0.7 1.9785-1 1.9785 0 0-1 0.021484-1 1.0215v2.1992s7.8125e-4 0.80078 0.80078 0.80078h0.19922 0.5 0.5v-0.5-0.19922c0-0.4-0.2-0.60117-0.5-0.70117v-1.0996c1 0 1.1-0.20078 1.5-0.30078l0.55078 2.1973c0.1 0.3 0.2 0.49961 0.5 0.59961h1l0.94922-0.017578v-0.80078c0-0.6764-1-0.69922-1-0.69922v-2.5h3.5l0.69922 2.6211c0.4 1.4 1.3008 1.3789 1.3008 1.3789h0.5 1v-0.80078c0-0.7118-1-0.69922-1-0.69922l0.099609-4.0781-3.0996-2.4219h-4.5v-2c0-0.4 0.2765-0.4947 0.5-0.5 0.4941-0.0118 0.75 0 0.75 0 0.4142 0 0.75-0.3358 0.75-0.75s-0.3358-0.75-0.75-0.75zm7 2.5c0.1381 0 0.25 0.1119 0.25 0.25s-0.1119 0.25-0.25 0.25-0.25-0.1119-0.25-0.25 0.1119-0.25 0.25-0.25z" fill="#76a723"/>
</svg>
