<?xml version="1.0" encoding="UTF-8"?>
<svg width="17" height="17" version="1.1" viewBox="0 0 17 17" xmlns="http://www.w3.org/2000/svg">
 <rect width="17" height="17" fill="none"/>
 <rect x="1" y="1" width="15" height="15" rx="7.5" ry="7.5" fill="#bbb" stroke="#bbb" stroke-linejoin="round" stroke-width="2"/>
 <rect x="1" y="1" width="15" height="15" rx="7.5" ry="7.5" fill="#fff"/>
 <g transform="matrix(.19471 0 0 .19471 1.1984 1.1983)" fill="#76a723" fill-rule="evenodd" stroke-linejoin="bevel" stroke-width=".501">
  <g transform="matrix(1,0,0,-1,0,75)" fill="#76a723" stroke-linecap="round" stroke-linejoin="round" stroke-miterlimit="79.84" stroke-width="1.252">
   <path d="m18.24 18.029c-2.396 2.656-3.903 5.622-4.78 9.084-1.022 3.979 1.378 8.04 5.356 9.062s8.039-1.378 9.062-5.356c0.711-3.335 3.745-5.251 6.871-3.479 0.867 0.491 1.517 1.179 2.038 1.969l1.251 2.562 2.689 8.229c0.063 0.202 0.128 0.406 0.191 0.609l16.707 5.702c-1.119-4.203-2.291-8.385-3.519-12.565-0.521-1.772-1.088-3.527-1.641-5.288-0.355-1.135-0.764-2.464-1.262-3.537-0.494-1.065-0.953-2.045-1.556-3.059-2.161-3.627-5.266-6.496-9.075-8.314-7.492-3.576-16.762-1.793-22.332 4.381zm-2.994 33.657c0 4.754 3.861 8.615 8.617 8.615 4.754 0 8.615-3.861 8.615-8.615 0-4.756-3.861-8.616-8.615-8.616-4.756 0-8.617 3.86-8.617 8.616zm28.523-1.611 16.203 5.532c-0.324-1.327-0.655-2.654-0.991-3.977l-16.426-5.608c0.409 1.35 0.814 2.702 1.214 4.053zm3.826 13.104h14.18c-0.185-0.799-0.371-1.596-0.557-2.393l-15.894-5.424c0.761 2.605 1.514 5.212 2.271 7.817z"/>
   <path d="m18.24 18.029c-2.396 2.656-3.903 5.622-4.78 9.084-1.022 3.979 1.378 8.04 5.356 9.062s8.039-1.378 9.062-5.356c0.711-3.335 3.745-5.251 6.871-3.479 0.867 0.491 1.517 1.179 2.038 1.969l1.251 2.562 2.689 8.229c0.063 0.202 0.128 0.406 0.191 0.609l16.707 5.702c-1.119-4.203-2.291-8.385-3.519-12.565-0.521-1.772-1.088-3.527-1.641-5.288-0.355-1.135-0.764-2.464-1.262-3.537-0.494-1.065-0.953-2.045-1.556-3.059-2.161-3.627-5.266-6.496-9.075-8.314-7.492-3.576-16.762-1.793-22.332 4.381zm-2.994 33.657c0 4.754 3.861 8.615 8.617 8.615 4.754 0 8.615-3.861 8.615-8.615 0-4.756-3.861-8.616-8.615-8.616-4.756 0-8.617 3.86-8.617 8.616zm28.523-1.611 16.203 5.532c-0.324-1.327-0.655-2.654-0.991-3.977l-16.426-5.608c0.409 1.35 0.814 2.702 1.214 4.053zm3.826 13.104h14.18c-0.185-0.799-0.371-1.596-0.557-2.393l-15.894-5.424c0.761 2.605 1.514 5.212 2.271 7.817z"/>
  </g>
 </g>
</svg>
