<?xml version="1.0" encoding="UTF-8"?>
<svg width="17" height="17" version="1.1" viewBox="0 0 17 17" xmlns="http://www.w3.org/2000/svg">
 <rect width="17" height="17" fill="none"/>
 <rect x="1" y="1" width="15" height="15" rx="7.5" ry="7.5" fill="#bbb" stroke="#bbb" stroke-linejoin="round" stroke-width="2"/>
 <rect x="1" y="1" width="15" height="15" rx="7.5" ry="7.5" fill="#fff"/>
 <path d="m5.2917 12.382c-1.702-0.68453-2.2917-1.6884-2.2917-3.9013 0-2.0211 0.13796-2.3115 1.4896-3.1356 2.7137-1.6546 8.4193-0.93015 9.2257 1.1714 0.15659 0.40807 0.28471 1.5181 0.28471 2.4667 0 2.5598-1.1964 3.4184-4.9607 3.5601-1.683 0.06336-3.3695-0.0092-3.7476-0.16131zm6.616-4.2705c2.347-0.89231 1.1302-2.4712-2.319-3.0092-3.5925-0.56031-7.4182 1.871-4.6748 2.971 1.4255 0.57154 5.532 0.59398 6.9938 0.038216z" fill="#76a723" stroke-width=".45833"/>
</svg>
