<?xml version="1.0" encoding="UTF-8"?>
<svg width="21" height="21" version="1.1" viewBox="0 0 21 21" xmlns="http://www.w3.org/2000/svg">
 <rect width="21" height="21" fill="none"/>
 <rect x="1" y="1" width="19" height="19" rx="9.5" ry="9.5" fill="#bbb" stroke="#bbb" stroke-linejoin="round" stroke-width="2"/>
 <rect x="1" y="1" width="19" height="19" rx="9.5" ry="9.5" fill="#fff"/>
 <path d="m6.125 15.793c-2.3209-0.93346-3.125-2.3023-3.125-5.32 0-2.756 0.18813-3.152 2.0312-4.2758 3.7005-2.2563 11.481-1.2684 12.581 1.5974 0.21353 0.55645 0.38824 2.0701 0.38824 3.3637 0 3.4906-1.6314 4.6614-6.7647 4.8547-2.2951 0.0864-4.5947-0.01259-5.1103-0.21997zm9.0218-5.8235c3.2004-1.2168 1.5412-3.3698-3.1623-4.1034-4.8989-0.76407-10.116 2.5514-6.3747 4.0513 1.9439 0.77937 7.5436 0.80997 9.537 0.052112z" fill="#76a723" stroke-width=".625"/>
</svg>
