<?xml version="1.0" encoding="UTF-8"?>
<svg width="21" height="21" version="1.1" viewBox="0 0 21 21" xmlns="http://www.w3.org/2000/svg">
 <rect width="21" height="21" fill="none"/>
 <rect x="1" y="1" width="19" height="19" rx="9.5" ry="9.5" fill="#bbb" stroke="#bbb" stroke-linejoin="round" stroke-width="2"/>
 <rect x="1" y="1" width="19" height="19" rx="9.5" ry="9.5" fill="#fff"/>
 <g transform="matrix(.75 0 0 .75 1.5 1.5)" fill="#76a723">
  <path d="m12 4c-5.7 0-10 2.15-10 5v6c0 2.85 4.3 5 10 5s10-2.15 10-5v-6c0-2.85-4.3-5-10-5zm5.58 7.07a15.75 15.75 0 0 1-5.58 0.93 15.75 15.75 0 0 1-5.58-0.93c-1.49-0.58-2.42-1.37-2.42-2.07 0-1.22 3.12-3 8-3s8 1.78 8 3c0 0.7-0.93 1.49-2.42 2.07z"/>
 </g>
</svg>
