<?xml version="1.0" encoding="UTF-8"?>
<svg width="17" height="17" version="1.1" viewBox="0 0 17 17" xmlns="http://www.w3.org/2000/svg">
  
 <rect width="17" height="17" fill="none"/>
 <rect x="1" y="1" width="15" height="15" rx="7.5" ry="7.5" fill="#bbb" stroke="#bbb" stroke-linejoin="round" stroke-width="2"/>
 <rect x="1" y="1" width="15" height="15" rx="7.5" ry="7.5" fill="#fff"/>
 <g transform="matrix(.78571 0 0 .78571 .25 .25)" fill="#76a723">
  <path d="m14.716 17.443-0.07205-0.05665v-4.6875c0-4.2097-0.0047-4.6875-0.04228-4.6875-0.02324 0-0.07243-0.03024-0.10937-0.067107-0.06412-0.06412-0.06711-0.082413-0.06711-0.41015v-0.34304h-0.41016v0.34304c0 0.32776-0.0028 0.34603-0.06711 0.41015l-0.06711 0.067107h-8.8097l-0.13421-0.13421v-4.2433l0.13421-0.13421h8.8097l0.06711 0.067107c0.06403 0.064027 0.06711 0.0826 0.06711 0.407v0.33988l0.45802 0.013067c0.49296 0.014093 0.63118 0.044893 0.89459 0.19923 0.25952 0.15209 0.50526 0.45458 0.62124 0.76472 0.05955 0.15921 0.0616 0.1995 0.07075 1.3627 0.01027 1.3076 0.01017 1.308-0.14454 1.3468l-0.06804 0.01708-3.83e-4 4.6797c-2.33e-4 2.5738-0.0094 4.6932-0.02053 4.7097-0.05133 0.07681-0.15342 0.09296-0.58883 0.09296-0.41312 0-0.45508-0.0047-0.52132-0.05665zm0.74827-4.8925v-4.5391h-0.4375v9.0781h0.4375zm-1.8594-6.7949v-1.8457h-8.2578v0.41016h7.7134l0.06711 0.067107c0.08549 0.085587 0.08549 0.19038 0 0.27592l-0.06711 0.067107h-7.7134v2.0508h7.7134l0.06711 0.067107c0.08549 0.085493 0.08549 0.19038 0 0.27592l-0.06711 0.067107h-7.7134v0.41015h8.2578zm2.0452 0.79981-0.0084-1.0459-0.08465-0.17773c-0.10755-0.22589-0.27739-0.39573-0.50328-0.50327-0.17159-0.081667-0.1926-0.084933-0.60839-0.093856l-0.43067-0.00933v2.0556h0.34304c0.32776 0 0.34603 0.0028 0.41016 0.067107 0.06412 0.06412 0.06711 0.082413 0.06711 0.41015v0.34304h0.82274zm-6.6489 9.2727c-1.3041-0.16748-2.4618-1.0559-2.9563-2.2687-0.73704-1.8078 0.018853-3.8465 1.7537-4.7298 0.29497-0.15017 0.73002-0.29799 1.0485-0.35624 0.30233-0.055347 1.0222-0.048533 1.3125 0.01232 1.5338 0.32152 2.6549 1.4382 2.969 2.9574 0.07 0.33863 0.07131 1.0542 0.0028 1.3774-0.16609 0.77994-0.50352 1.4156-1.0317 1.9434-0.26367 0.2635-0.46847 0.42021-0.79785 0.61049-0.66376 0.38346-1.5248 0.55328-2.3004 0.45368zm0.96594-0.41837c0.15303-0.02296 0.27029-0.05479 0.2871-0.07775 0.01568-0.02137 0.11325-0.30428 0.21693-0.62858l0.18849-0.58966-0.17742-0.24156-0.17743-0.24156-1.6468-0.015-0.17787 0.23965c-0.097832 0.13182-0.17722 0.25811-0.17642 0.28067 8.027e-4 0.02259 0.0896 0.30521 0.19724 0.6281 0.19534 0.58574 0.19599 0.58714 0.28615 0.60957 0.31507 0.0784 0.79797 0.09296 1.18 0.03556zm-1.7763-0.25157c0-0.0095-0.062067-0.21258-0.13789-0.45117l-0.1379-0.4338h-0.46367c-0.25501 0-0.46366 0.0075-0.46366 0.01624 0 0.06207 0.37818 0.41372 0.6289 0.58482 0.1482 0.10114 0.51374 0.29969 0.55372 0.30078 0.011293 3.08e-4 0.020533-0.0075 0.020533-0.0168zm2.8893-0.12661c0.10778-0.06076 0.26774-0.16409 0.35547-0.22971 0.18957-0.14178 0.52865-0.46362 0.52865-0.50176 0-0.01661-0.17787-0.02688-0.46367-0.02688h-0.46367l-0.13789 0.4338c-0.07588 0.2386-0.1379 0.44245-0.1379 0.45301 0 0.03285 0.11494-0.01344 0.31901-0.12844zm-2.9416-1.3982 0.18128-0.24336-0.091933-0.28985c-0.050587-0.15941-0.16391-0.51133-0.25189-0.78203l-0.15995-0.49218-0.58565-0.20354-0.51103 0.37142c-0.28106 0.20428-0.51927 0.37928-0.52934 0.38888-0.01008 0.0096-0.00187 0.12819 0.018947 0.26354 0.05768 0.38097 0.18026 0.74213 0.36895 1.0874l0.086147 0.15772 1.2931-0.015zm4.2796 0.01092c0.1404-0.27199 0.26871-0.65075 0.31102-0.91809 0.01652-0.10413 0.03519-0.22214 0.04153-0.26224 0.01064-0.06711-0.03052-0.10331-0.5196-0.45699l-0.53113-0.38407-0.58416 0.20303-0.15996 0.49218c-0.08801 0.2707-0.20119 0.6222-0.25159 0.78109l-0.09165 0.2889 0.1486 0.20329c0.08176 0.11181 0.1681 0.22505 0.19195 0.25163 0.03948 0.04405 0.10049 0.04769 0.68421 0.04097l0.64084-0.0075zm-1.9185-1.1769c0.13248-0.40668 0.23626-0.74289 0.23063-0.74712-0.56946-0.42772-1.2426-0.89223-1.275-0.87981-0.051427 0.01969-1.2027 0.85597-1.2224 0.88793-0.00747 0.01269 0.092493 0.3506 0.22298 0.75079l0.23729 0.72764h1.5656zm-3.9216-0.87428 0.37776-0.27387-0.15132-0.45309-0.15132-0.4531-0.08036 0.14068c-0.10564 0.18499-0.22472 0.48514-0.29326 0.73928-0.05488 0.20358-0.1137 0.57396-0.091093 0.57396 0.00653 0 0.18181-0.12324 0.38958-0.27387zm6.1733 0.08932c-0.04601-0.35652-0.19407-0.8048-0.37114-1.1239l-0.0812-0.14639-0.15113 0.45252-0.15113 0.45251 0.3734 0.27397c0.20536 0.15068 0.38051 0.2744 0.38922 0.27493 0.0084 5.41e-4 0.0047-0.08204-0.0084-0.1836zm-4.1504-0.73948 0.66992-0.48652 0.0074667-0.30204 0.0074667-0.30205-1.0708-0.77561-0.22116 0.11151c-0.35882 0.18093-0.75387 0.48017-0.96373 0.73001l-0.0742 0.088387 0.19854 0.61647 0.19853 0.61648 0.28884 0.09315c0.15885 0.05124 0.28883 0.09397 0.28883 0.09495 0 9.33e-4 0.30147-0.21714 0.66993-0.48473zm2.7366 0.37863 0.26196-0.08493 0.19806-0.61502 0.19807-0.61502-0.07345-0.088387c-0.20837-0.25062-0.66721-0.5944-1.0147-0.76023l-0.17161-0.081947-0.53507 0.38936-0.53508 0.38935 0.00747 0.30042 0.00747 0.30042 0.66747 0.48437c0.36711 0.2664 0.68088 0.48033 0.69727 0.47539 0.01643-0.0047 0.14767-0.04713 0.29175-0.09386zm-1.4774-2.1128c0.30733-0.22374 0.37341-0.28304 0.33231-0.29824-0.22921-0.084747-1.0091-0.094808-1.3415-0.017267l-0.14646 0.03416 0.37888 0.27793c0.20839 0.15285 0.38209 0.27898 0.38602 0.28027 0.00373 9.333e-4 0.17975-0.12332 0.39073-0.27692z" stroke-width=".027344"/>
  <path d="m15.031 12.547v-4.5312h0.42188v9.0625h-0.42188z" stroke-width=".015625"/>
  <path d="m14.843 7.3008c-4.28e-4 -0.33674-0.01042-0.39689-0.07695-0.46347l-0.04822-0.04825-0.70259-0.00948v-2.0497l0.37891 0.011309c0.43631 0.013022 0.49539 0.021521 0.64453 0.092708 0.23649 0.11288 0.39817 0.27786 0.52275 0.53344l0.07625 0.15643 0.0052 1.035 0.0052 1.035-0.80469-8.9e-6z" stroke-width=".015625"/>
  <g stroke-width=".03125">
   <path d="m8.4718 12.466c-0.12534-0.39707-0.21597-0.73327-0.2014-0.74712 0.055858-0.05307 1.1223-0.82086 1.1606-0.8356 0.051573-0.01983 0.25237 0.10555 0.82448 0.51484 0.25224 0.18045 0.45366 0.34409 0.44761 0.36365-0.0061 0.01956-0.11088 0.34845-0.23296 0.73087l-0.22196 0.69531h-1.5485z"/>
   <path d="m10.799 15.086c0.01206-0.03856 0.07323-0.23184 0.13595-0.42949l0.11403-0.35938 0.37651-0.0087c0.20708-0.0048 0.40923 0.0034 0.44921 0.01816 0.06823 0.02524 0.05511 0.04223-0.21283 0.27579-0.25227 0.2199-0.66598 0.49656-0.82806 0.55374-0.04728 0.01668-0.05308 0.0083-0.03481-0.0501z"/>
   <path d="m12.368 11.569c-0.18428-0.13271-0.33546-0.25577-0.33594-0.27346-4.83e-4 -0.01769 0.06072-0.21457 0.136-0.4375l0.13687-0.40533 0.12769 0.26562c0.17828 0.37087 0.37444 1.0956 0.29579 1.0929-0.01394-4.89e-4 -0.17613-0.10947-0.36041-0.24219z"/>
   <path d="m9.0996 9.1975c-0.17725-0.13051-0.31035-0.24922-0.29578-0.2638 0.09824-0.09824 1.3524-0.094314 1.3524 0.00423 0 0.03988-0.63399 0.49898-0.6875 0.49785-0.025781-5.413e-4 -0.1919-0.10777-0.36915-0.23828z"/>
   <path d="m6.2005 11.777c0.00867-0.04038 0.031285-0.1578 0.050247-0.26092 0.047736-0.25961 0.17041-0.61831 0.29312-0.85708l0.10321-0.20083 0.28531 0.85352-0.27089 0.19743c-0.14899 0.10859-0.31721 0.2298-0.37383 0.26936l-0.10294 0.07193z"/>
   <path d="m7.8942 15.017c-0.1347-0.076759-0.29607-0.17806-0.35862-0.2251-0.19116-0.1438-0.50382-0.45465-0.48611-0.4833 0.00919-0.01487 0.20441-0.02703 0.43384-0.02703h0.41713l0.11021 0.35156c0.1228 0.39173 0.15813 0.52344 0.1404 0.52344-0.00658 0-0.12216-0.0628-0.25686-0.13956z"/>
  </g>
 </g>
</svg>
