<?xml version="1.0" encoding="UTF-8"?>
<svg width="17" height="17" version="1.1" viewBox="0 0 17 17" xmlns="http://www.w3.org/2000/svg">
  
 <rect width="17" height="17" fill="none"/>
 <rect x="1" y="1" width="15" height="15" rx="7.5" ry="7.5" fill="#bbb" stroke="#bbb" stroke-linejoin="round" stroke-width="2"/>
 <rect x="1" y="1" width="15" height="15" rx="7.5" ry="7.5" fill="#fff"/>
 <g transform="matrix(1.0308 0 0 1.0308 1.9543 1.9552)" fill="#76a723">
  <g transform="translate(0,-284.3)" fill="#76a723">
   <path d="m8.1984 287.91a0.83515 0.83515 0 1 0-1.6703 0 0.83515 0.83515 0 1 0 1.6703 0z"/>
   <path d="m12.171 293.64h-0.414a0.49609 0.49609 0 0 0-0.6868 0h-0.3348a0.49609 0.49609 0 0 0-0.6868 0h-0.3349a0.49609 0.49609 0 0 0-0.6868 0h-0.3347a0.49609 0.49609 0 0 0-0.6869 0h-0.3348a0.49609 0.49609 0 0 0-0.6869 0h-0.3347a0.49609 0.49609 0 0 0-0.6868 0h-0.3349a0.49609 0.49609 0 0 0-0.6868 0h-0.3348a0.49609 0.49609 0 0 0-0.6868 0h-0.3349a0.49609 0.49609 0 0 0-0.6868 0h-0.3347a0.49609 0.49609 0 0 0-0.6869 0h-0.548v-0.17365h-0.7981v0.75786h11.642z"/>
   <path d="m4.5163 288.97a0.32215 0.32215 0 0 1 0.2621-0.0125l0.1853 0.0723a0.096645 0.096645 0 0 1 0.029 0.16218l-1.7768 1.5837a0.80537 0.80537 0 0 0 0.5359 1.4066l3.0164-0.17934 2.3391 0.88186a0.48322 0.48322 0 0 0 0.3409-0.90431l-2.339-0.88186a0.96645 0.96645 0 0 0-0.4199-0.0589l-1.239 0.1016a0.096645 0.096645 0 0 1-0.072-0.16847l1.219-1.0866a0.80537 0.80537 0 0 0-0.2432-1.3515l-1.4922-0.58202a0.6443 0.6443 0 0 0-0.5243 0.025l-2.0511 1.0345a0.48322 0.48322 0 0 0 0.4351 0.86291z"/>
  </g>
 </g>
</svg>
