<?xml version="1.0" encoding="UTF-8"?>
<svg width="17" height="17" version="1.1" viewBox="0 0 17 17" xmlns="http://www.w3.org/2000/svg">
  
 <rect width="17" height="17" fill="none"/>
 <rect x="1" y="1" width="15" height="15" rx="7.5" ry="7.5" fill="#bbb" stroke="#bbb" stroke-linejoin="round" stroke-width="2"/>
 <rect x="1" y="1" width="15" height="15" rx="7.5" ry="7.5" fill="#fff"/>
 <path d="m7.6701 2.9813c-0.28597-0.002712-0.58579 0.01797-0.89848 0.067714-1.5953 0.25379-2.8694 1.0453-3.5872 2.2296-0.80685 1.3311-0.90141 3.09-0.27764 5.0995-0.09565-0.02578-0.19599 0.02712-0.22696 0.12222-0.032352 0.09839 0.021408 0.20453 0.12008 0.2366l10.005 3.2726c0.01944 0.0063 0.03917 0.0094 0.05862 0.0094 0.07893 0 0.1524-0.05042 0.17816-0.12963 0.03235-0.09839-0.02131-0.20471-0.12-0.23677l-0.02328-0.0074c0.34121-0.38507 1.0855-1.4945 0.627-3.4859 0.01728-0.04603 0.03322-0.09291 0.04666-0.14087 0.0277-0.10004-0.03101-0.20339-0.13106-0.23107-0.10031-0.0277-0.20338 0.03101-0.23134 0.13105-0.08934 0.32364-0.31074 0.59413-0.60728 0.74268-0.40891 0.20473-0.95675 0.18276-1.5841-0.06281-1.3396-0.52429-1.2851-2.312-1.2849-2.3296l5.36e-4 -0.0082c0-0.59363 0.2557-0.90248 0.35793-1.0022l4.3004-0.42841 0.10741-0.53663-2.1994-0.64377-0.08877-0.59774-0.3582 0.037008 0.02712-0.019728c-0.019195-0.026288-0.48263-0.643-1.3443-1.204-0.64733-0.42153-1.6272-0.87184-2.8664-0.88358zm-0.022848 0.26863c2.1439 0.012576 3.5322 1.4157 3.911 1.8502l-0.21464-0.21483c-0.30497-0.30524-0.56298-0.51828-0.90241-0.74521-0.61454-0.41086-1.3224-0.69909-1.9973-0.8131-0.26403-0.044603-0.52443-0.068097-0.78661-0.070301-0.43696-0.0036734-0.87887 0.051894-1.3505 0.16781-1.1702 0.28761-2.1337 0.91053-2.735 1.7682-0.78733 1.1231-0.99411 2.5984-0.60755 4.3345 0.072062 0.32365 0.23506 0.90469 0.26006 0.92712 0.00433 0.0039 1.5565 0.51442 3.4493 1.1345 1.8928 0.62003 4.0049 1.3119 4.6935 1.5377 1.1778 0.38614 1.2533 0.40934 1.2737 0.3913 0.01195-0.01056 0.05498-0.059 0.09564-0.10768 0.23956-0.28688 0.43761-0.68946 0.54671-1.1111 0.02914-0.11263 0.08923-0.43838 0.08217-0.44545-0.0019-0.0019-0.1695 0.13065-0.37247 0.29458-0.171 0.13812-0.29704 0.23573-0.34276 0.26756l0.72576-0.58587c-0.11648 1.0083-0.58949 1.5555-0.75119 1.7156l-9.4102-3.0843c-0.65639-2.0023-0.58808-3.7449 0.19904-5.0431 0.6764-1.1155 1.8836-1.8628 3.3998-2.1037 0.2893-0.046013 0.56747-0.065977 0.83398-0.064413zm3.9221 1.8626c0.0013 0.00147 0.0032 0.00364 0.0045 0.00509l-1.9084 0.19734c0.03715-0.00701 0.42483-0.049637 0.93604-0.10242zm-1.1201 0.36747c0.168 0 0.30396 0.13614 0.30396 0.30386 2.73e-4 0.168-0.13568 0.30396-0.30396 0.30396-0.16773 0-0.30396-0.13595-0.30396-0.30396 0-0.16773 0.13622-0.30386 0.30396-0.30386zm-0.0077 0.00854c-0.07958 0.00137-0.15564 0.03648-0.21376 0.10251-0.05157 0.058584-0.07199 0.11664-0.07199 0.20412 0 0.11548 0.0833 0.22762 0.19993 0.26898 0.17366 0.061598 0.36364-0.059981 0.3896-0.24936 0.01526-0.11132-0.05397-0.2378-0.15978-0.29173-0.04714-0.024048-0.09624-0.035328-0.14399-0.034512zm-0.78509 0.062362 0.20242 1.4112c-0.12718 0.11644-0.45184 0.47666-0.49523 1.147 0.0043-0.09233 0.01061-0.17603 0.02059-0.23008 0.06116-0.33063 0.19215-0.61259 0.39013-0.8396l0.07672-0.087965-0.11625-0.81266c-0.04584-0.32065-0.06182-0.45365-0.07842-0.58792zm-0.29592 2.8899c0.01958 0.52258 0.19455 1.9878 1.5209 2.5073 0.38291 0.14961 0.71248 0.21386 0.99269 0.22518-0.07362-0.0014-0.14338-0.0042-0.19306-0.01027-0.31822-0.0391-0.702-0.1527-0.98589-0.29179-0.71949-0.35252-1.1809-1.0933-1.3157-2.1127-0.01104-0.08331-0.01627-0.19842-0.01891-0.31769zm3.9651 2.0864c0.01973 0.11484 0.03557 0.22578 0.04738 0.33349l-0.92496 0.74737 0.15978 0.19788c-0.01464-0.01152-0.04666-0.04598-0.08529-0.09421l-0.08333-0.10411 0.05495-0.04541c0.03024-0.02501 0.23579-0.19121 0.45678-0.36926s0.40535-0.32696 0.40968-0.3309c0.0071-0.0066-0.03115-0.30207-0.04032-0.31127-0.0022-0.0022-0.02381 0.02208-0.04809 0.05389-0.06609 0.08666-0.21706 0.22398-0.32599 0.29646-0.19519 0.12987-0.43336 0.22025-0.675 0.25613-0.04243 0.0063-0.10158 0.01037-0.16523 0.0133 0.28063-0.01872 0.50094-0.09149 0.66465-0.17334 0.22145-0.11072 0.41085-0.27293 0.555-0.46998zm0.07209 0.65858c0.0046 0.11182 0.0052 0.21944 0.0016 0.32331l-0.02107-0.02621-0.93024 0.75092 0.16737 0.20734c-6.3e-5 1e-6 -0.0018 0.0014-0.0018 0.0014-0.0056-2e-3 -0.04709-0.05005-0.09234-0.1067l-0.08226-0.10298 0.06085-0.04942c0.42507-0.34525 0.87294-0.70431 0.88242-0.70747 0.0075-0.0025 0.01075-0.05386 0.0086-0.13855l-0.0033-0.13453-0.37854 0.30618c-0.20528 0.16606-0.37406 0.29827-0.38541 0.30217z" fill="#76a723" stroke-width=".27407"/>
</svg>
