<svg width="17" height="17" version="1.1" viewBox="0 0 17 17" xmlns="http://www.w3.org/2000/svg"><rect width="17" height="17" fill="none"/><rect x="1" y="1" width="15" height="15" rx="7.5" ry="7.5" fill="#bbb" stroke="#bbb" stroke-linejoin="round" stroke-width="2"/><rect x="1" y="1" width="15" height="15" rx="7.5" ry="7.5" fill="#fff"/><path d="m10.432 5.4001c-0.15261 0.00416-0.29164 0.11208-0.34124 0.25524-0.04464 0.10613-0.02602 0.22896 0.03125 0.32646 0.05721 0.10913 0.17921 0.17109 0.29796 0.18538 0.18198 0.014784 0.36674-0.11588 0.40387-0.29665 0.04171-0.17229-0.05564-0.36183-0.21574-0.43484-0.05462-0.026016-0.11567-0.038112-0.17609-0.035568zm-2.788-2.2268c-0.31024 0.003736-0.62211 0.015456-0.92747 0.074674-0.76474 0.13618-1.514 0.40568-2.1553 0.84983-0.56088 0.38451-1.0284 0.90535-1.3433 1.5086-0.22118 0.41832-0.36713 0.87376-0.45004 1.339-0.049973 0.25169-0.070128 0.50826-0.07151 0.76461-0.0071 0.44418 0.00802 0.8903 0.081778 1.3291 0.073805 0.45655 0.19288 0.90438 0.3257 1.3469 0.014544 0.04272 0.025536 0.09132 0.051274 0.12709 0.22555 0.08299 0.45503 0.15494 0.68261 0.23217 2.1094 0.69986 4.2215 1.3917 6.3339 2.0824 0.74116 0.24061 1.4812 0.48482 2.225 0.71698 0.07968 0.02208 0.1581 0.05341 0.2401 0.06428 0.0277 0.0043 0.05041-0.0042 0.06773-0.0263 0.09463-0.098 0.17224-0.21119 0.25146-0.32171 0.18221-0.26498 0.30557-0.56657 0.39319-0.87482 0.04075-0.15317 0.07442-0.30852 0.09854-0.46516 0.0071-0.04709 3.56e-4 -0.108-0.04776-0.1301-0.02136-0.02141-0.05463-0.01397-0.08071-0.0078-0.05702 0.0289-0.10274 0.07632-0.1544 0.11372-0.17886 0.14278-0.35737 0.28577-0.536 0.42886-0.02208-0.0251-0.04214-0.0519-0.06281-0.07815 0.25349-0.21072 0.5102-0.41612 0.76942-0.61786 0.03533-0.0289 0.07338-0.0549 0.10996-0.08059 0.04808-0.04402 0.04152-0.1171 0.04464-0.17704-0.0021-0.06842 2e-3 -0.14544-0.04445-0.20123-0.03192-0.0192-0.0694-0.02966-0.10536-0.01507-0.08089 0.03379-0.14558 0.09631-0.21548 0.14778-0.16512 0.13076-0.32849 0.2657-0.49333 0.39553-0.02275-0.02462-0.04536-0.04945-0.06629-0.07566 0.25919-0.21933 0.52962-0.42516 0.78557-0.64825 0.04911-0.04589 0.11484-0.10108 0.10041-0.17609-0.01968-0.09821-0.01997-0.20013-0.05174-0.29583-0.02717-0.0074-0.05435-0.02371-0.08145-0.02606-0.0771 0.02184-0.12588 0.09101-0.18248 0.14287-0.13879 0.14809-0.30788 0.26777-0.49648 0.34353-0.36408 0.15154-0.77351 0.15314-1.1555 0.0767-0.16182-0.03226-0.32074-0.07819-0.47604-0.13379-0.01978-7e-3 -0.04483-0.01656-0.06808-0.02578-0.08468-0.03327-0.15943-0.06758-0.23971-0.10992-0.35244-0.18427-0.64684-0.47308-0.84531-0.8171-0.21273-0.36556-0.32909-0.78024-0.38451-1.1975-0.023568-0.24693-0.027408-0.49597-0.012528-0.74355 0.014496-0.18737 0.072038-0.36958 0.14832-0.54051 0.06899-0.15544 0.1671-0.29569 0.27686-0.42489 0.018816-0.026928 0.047088-0.051245 0.060064-0.079786-0.074232-0.52286-0.14737-1.0459-0.22398-1.5684 0.3304-0.043584 0.66279-0.071203 0.9939-0.10763 0.27568-0.02976 0.55199-0.055354 0.82651-0.09444 0.02261-0.010464 0.06318-0.00344 0.06742-0.03384 0.0092-0.028704 0.02486-0.056942 0.01162-0.086976-0.024816-0.066312-0.08161-0.11443-0.12707-0.16695-0.3821-0.40327-0.82285-0.75078-1.3025-1.031-0.6371-0.37248-1.3532-0.60908-2.0872-0.68669-0.15174-0.017184-0.30475-0.018432-0.45729-0.018096zm2.0906 5.0872c0-0.59363 0.25571-0.9025 0.35793-1.0023l4.3004-0.42837 0.10743-0.53662-2.1994-0.64378-0.0888-0.59774-0.3582 0.037008 0.02712-0.019728c-0.019169-0.026323-0.48261-0.64297-1.3443-1.204-0.79671-0.51881-2.0972-1.0812-3.7648-0.81589-1.5953 0.25378-2.8695 1.0453-3.5872 2.2295-0.80685 1.3311-0.9014 3.0901-0.27763 5.0995-0.09565-0.02578-0.19596 0.02712-0.22692 0.12223-0.032352 0.09839 0.02136 0.20445 0.12004 0.23652l10.005 3.2726c0.01944 0.0063 0.03917 0.0093 0.05865 0.0093 0.07893 0 0.15238-0.05043 0.17814-0.12963 0.03235-0.09839-0.02136-0.20472-0.12004-0.23679l-0.02328-0.0074c0.34121-0.38506 1.0856-1.4945 0.62706-3.4858 0.01728-0.04603 0.03317-0.09291 0.04661-0.14087 0.0277-0.10003-0.03096-0.20336-0.131-0.23104-0.10031-0.027696-0.20336 0.03096-0.23131 0.131-0.08935 0.32367-0.31079 0.59417-0.60733 0.74272-0.40894 0.20473-0.9568 0.1828-1.5841-0.06276-1.3396-0.52426-1.2851-2.312-1.2848-2.3295zm0.71504-2.1725c-0.16773 0-0.30394-0.13594-0.30394-0.30394 0-0.16773 0.13621-0.30394 0.30394-0.30394 0.168 0 0.30394 0.13621 0.30394 0.30394 2.75e-4 0.168-0.13566 0.30394-0.30394 0.30394zm0.4322 4.8603c0.42508 0.16608 0.78465 0.2272 1.0837 0.2272 0.34889 0 0.61528-0.08304 0.80548-0.17814 0.22144-0.11072 0.41083-0.27297 0.55498-0.47002 0.01973 0.11484 0.03562 0.22583 0.04742 0.33354l-0.92498 0.74738 0.16855 0.20884 0.78109-0.63117c0.0046 0.11182 0.0052 0.21953 0.0017 0.3234l-0.02112-0.0263-0.93018 0.75094 0.16855 0.20884 0.75916-0.61281c-0.11646 1.0083-0.5895 1.5556-0.7512 1.7156l-9.4101-3.0843c-0.65639-2.0023-0.58814-3.7448 0.19897-5.0431 0.67639-1.1154 1.8837-1.8628 3.3998-2.1037 2.645-0.42069 4.3582 1.3369 4.7605 1.8034l-1.9505 0.20171 0.2357 1.6428c-0.13621 0.1247-0.49907 0.52895-0.50017 1.2944-0.004944 0.131-0.047424 2.0766 1.5227 2.6916z" fill="#76a723" stroke-width=".01647"/></svg>
