<?xml version="1.0" encoding="UTF-8"?>
<svg width="21" height="21" version="1.1" viewBox="0 0 21 21" xmlns="http://www.w3.org/2000/svg">
  
 <rect width="21" height="21" fill="none"/>
 <rect x="1" y="1" width="19" height="19" rx="9.5" ry="9.5" fill="#bbb" stroke="#bbb" stroke-linejoin="round" stroke-width="2"/>
 <rect x="1" y="1" width="19" height="19" rx="9.5" ry="9.5" fill="#fff"/>
 <path d="m9.4626 3.6017c-0.35746-0.00339-0.73223 0.022463-1.1231 0.084643-1.9942 0.31723-3.5868 1.3066-4.484 2.787-1.0086 1.6639-1.1268 3.8626-0.34704 6.3744-0.11956-0.03222-0.24499 0.0339-0.2837 0.15278-0.04044 0.12299 0.02676 0.25567 0.1501 0.29575l12.507 4.0907c0.0243 0.0079 0.04896 0.0117 0.07327 0.0117 0.09866 0 0.1905-0.06303 0.2227-0.16204 0.04044-0.12299-0.02664-0.25589-0.14999-0.29597l-0.0291-0.0092c0.42652-0.48133 1.3569-1.8681 0.78375-4.3574 0.0216-0.05754 0.04152-0.11614 0.05832-0.17609 0.03462-0.12505-0.03876-0.25423-0.16382-0.28883-0.12539-0.03462-0.25423 0.03876-0.28917 0.16382-0.11168 0.40455-0.38842 0.74267-0.7591 0.92835-0.51114 0.25591-1.1959 0.22845-1.9801-0.07851-1.6746-0.65536-1.6064-2.89-1.6061-2.912l6.7e-4 -0.01026c0-0.74204 0.31963-1.1281 0.44741-1.2528l5.3755-0.53551 0.13427-0.67078-2.7493-0.80472-0.11096-0.74717-0.44774 0.04626 0.0339-0.02466c-0.023986-0.032853-0.60328-0.80374-1.6804-1.505-0.80916-0.52692-2.034-1.0898-3.583-1.1045zm-0.02856 0.33578c2.6799 0.01572 4.4153 1.7697 4.8887 2.3128l-0.2683-0.26854c-0.38121-0.38154-0.70372-0.64785-1.128-0.93151-0.76817-0.51358-1.6531-0.87387-2.4967-1.0164-0.33004-0.055753-0.65554-0.085121-0.98326-0.087876-0.5462-0.0045918-1.0986 0.064867-1.6882 0.20977-1.4628 0.35951-2.6671 1.1382-3.4187 2.2103-0.98416 1.4039-1.2426 3.248-0.75944 5.4181 0.090078 0.40457 0.29383 1.1309 0.32507 1.1589 0.00541 0.0049 1.9456 0.64303 4.3116 1.4181 2.366 0.77504 5.0061 1.6399 5.8669 1.9221 1.4722 0.48267 1.5666 0.51167 1.5921 0.48912 0.01494-0.0132 0.06873-0.07375 0.11955-0.1346 0.29945-0.3586 0.54701-0.86183 0.68338-1.3888 0.03642-0.14079 0.11154-0.54798 0.10271-0.55681-0.0024-0.0024-0.21188 0.16331-0.46559 0.36823-0.21374 0.17264-0.3713 0.29467-0.42845 0.33445l0.9072-0.73234c-0.1456 1.2604-0.73686 1.9444-0.93898 2.1445l-11.763-3.8554c-0.82049-2.5029-0.7351-4.6811 0.2488-6.3039 0.8455-1.3943 2.3546-2.3285 4.2497-2.6296 0.36162-0.057517 0.70934-0.082471 1.0425-0.080516zm4.9027 2.3283c0.0016 0.00184 4e-3 0.00455 0.0056 0.00636l-2.3855 0.24668c0.04644-0.00876 0.53104-0.062046 1.17-0.12802zm-1.4001 0.45934c0.21001 0 0.37994 0.17017 0.37994 0.37983 3.42e-4 0.21001-0.1696 0.37994-0.37994 0.37994-0.20966 0-0.37994-0.16994-0.37994-0.37994 0-0.20966 0.17028-0.37983 0.37994-0.37983zm-0.0096 0.01068c-0.09948 0.00171-0.19456 0.0456-0.2672 0.12814-0.06446 0.07323-0.08999 0.1458-0.08999 0.25516 0 0.14435 0.10412 0.28452 0.24991 0.33623 0.21708 0.076998 0.45455-0.074976 0.487-0.31169 0.01908-0.13915-0.06746-0.29725-0.19973-0.36466-0.05892-0.03006-0.12031-0.04416-0.17999-0.04314zm-0.98136 0.077952 0.25303 1.764c-0.15898 0.14555-0.5648 0.59583-0.61904 1.4338 0.0054-0.11542 0.01326-0.22004 0.02574-0.2876 0.07645-0.41329 0.24019-0.76574 0.48767-1.0495l0.0959-0.10996-0.14531-1.0158c-0.0573-0.40082-0.07728-0.56706-0.09802-0.73491zm-0.36991 3.6124c0.02448 0.65322 0.24319 2.4847 1.9012 3.1341 0.47863 0.18701 0.8906 0.26733 1.2409 0.28147-0.09202-0.0017-0.17922-0.0052-0.24133-0.01284-0.39778-0.04887-0.8775-0.19087-1.2324-0.36474-0.89936-0.44064-1.4761-1.3666-1.6447-2.6409-0.0138-0.10414-0.02034-0.24802-0.02364-0.39712zm4.9563 2.608c0.02466 0.14354 0.04446 0.28222 0.05922 0.41686l-1.1562 0.93421 0.19973 0.24735c-0.0183-0.0144-0.05832-0.05748-0.10661-0.11776l-0.10416-0.13014 0.06869-0.05676c0.0378-0.03126 0.29474-0.23901 0.57097-0.46157s0.50669-0.4087 0.51209-0.41362c0.0089-0.0082-0.03894-0.37759-0.0504-0.38909-0.0027-0.0027-0.02976 0.0276-0.06011 0.06736-0.08261 0.10832-0.27133 0.27998-0.40749 0.37058-0.24398 0.16234-0.5417 0.27532-0.84375 0.32017-0.05304 0.0079-0.12697 0.01296-0.20653 0.01662 0.35078-0.0234 0.62617-0.11436 0.83081-0.21668 0.27681-0.1384 0.51356-0.34116 0.69376-0.58748zm0.09011 0.82323c0.0058 0.13978 0.0065 0.2743 2e-3 0.40414l-0.02634-0.03276-1.1628 0.93865 0.20921 0.25917c-7.9e-5 1e-6 -0.0022 0.0017-0.0022 0.0017-7e-3 -0.0025-0.05886-0.06256-0.11542-0.13337l-0.10282-0.12872 0.07606-0.06178c0.53134-0.43157 1.0912-0.88039 1.103-0.88434 0.0094-0.0031 0.01344-0.06732 0.0108-0.17319l-0.0041-0.16817-0.47317 0.38273c-0.2566 0.20758-0.46757 0.37283-0.48176 0.37771z" fill="#76a723" stroke-width=".34258"/>
</svg>
