<?xml version="1.0" encoding="UTF-8"?>
<svg width="21" height="21" version="1.1" viewBox="0 0 21 21" xmlns="http://www.w3.org/2000/svg">
 <rect width="21" height="21" fill="none"/>
 <rect x="1" y="1" width="19" height="19" rx="9.5" ry="9.5" fill="#bbb" stroke="#bbb" stroke-linejoin="round" stroke-width="2"/>
 <rect x="1" y="1" width="19" height="19" rx="9.5" ry="9.5" fill="#fff"/>
 <path d="m6.3315 16.633c-0.55252-0.13965-1.0172-0.50244-1.2622-0.98538l-0.11284-0.2225-0.19664-0.0183c-0.82043-0.0762-1.5639-0.78472-1.7321-1.6505-0.0561-0.28883-0.0223-1.2659 0.0574-1.6609 0.30833-1.5275 1.2214-2.8074 2.5365-3.5555 0.17725-0.10083 0.33876-0.18339 0.3589-0.18346 0.0201-9e-5 0.0366-0.0217 0.0366-0.048 0-0.0428-0.46448-1.8642-0.4779-1.874-3e-3 -2e-3 -0.0562-0.0277-0.11826-0.0566-0.16691-0.0779-0.37705-0.29792-0.47488-0.49731-0.078-0.15896-0.0862-0.20382-0.0862-0.46877 0-0.25603 0.01-0.31396 0.0779-0.45926 0.10913-0.23279 0.28916-0.41668 0.51846-0.52956 0.17925-0.0882 0.21492-0.0952 0.48701-0.0952 0.27229 7e-5 0.30636 7e-3 0.46939 0.0921 0.19681 0.10308 0.40305 0.29527 0.48271 0.44983 0.0755 0.14642 0.14721 0.40303 0.14721 0.52653 0 0.16524-0.0815 0.4415-0.17501 0.59329l-0.0852 0.13833 0.18479 0.71133c0.10163 0.39122 0.20856 0.80425 0.23763 0.91784l0.0528 0.20652 0.14884-0.0213c0.29507-0.0422 2.2053-0.0284 2.6089 0.0188 1.4183 0.16591 2.6999 0.65995 3.9151 1.5092 0.55684 0.38916 0.61291 0.41112 1.5794 0.61832 0.56607 0.12136 0.7354 0.16974 0.95219 0.27208 0.67161 0.31705 1.1819 0.93905 1.3788 1.6807 0.0454 0.1712 0.15874 1.6473 0.15915 2.0736 5.4e-4 0.56528-0.35398 1.0617-0.88665 1.2416-0.15008 0.0507-0.25186 0.0605-0.62563 0.0605h-0.44639l-0.10881 0.22706c-0.15583 0.32519-0.49609 0.6631-0.83062 0.82487-0.33017 0.15967-0.6127 0.21936-0.95091 0.2009-0.67212-0.0367-1.2907-0.43822-1.5814-1.0265l-0.11185-0.22636h-3.911l-0.1124 0.22144c-0.21821 0.42993-0.6266 0.78196-1.0906 0.94014-0.28286 0.0964-0.74686 0.12125-1.0123 0.0542zm0.70715-1.3111c0.33117-0.15443 0.42095-0.63632 0.17148-0.92045-0.25169-0.28667-0.67038-0.28537-0.92346 3e-3 -0.29706 0.33834-0.10025 0.90266 0.34335 0.98448 0.13678 0.0252 0.25121 7e-3 0.40863-0.0669zm7.4336 0.0334c0.18527-0.056 0.3912-0.33885 0.39229-0.53873 2e-3 -0.3438-0.27722-0.62992-0.61446-0.62992-0.33779 0-0.61447 0.28405-0.6151 0.63149-2.7e-4 0.14316 0.13837 0.38786 0.26856 0.47401 0.17834 0.11803 0.33119 0.135 0.56871 0.0632zm-9.3935-1.4271c0.22975-0.44161 0.62578-0.77902 1.0934-0.9315 0.33229-0.10836 0.78268-0.11475 1.105-0.0157 0.52825 0.16238 0.93626 0.50927 1.1724 0.99681l0.087 0.1795h3.9235l0.12419-0.24171c0.091-0.17717 0.18334-0.30038 0.34574-0.46145 0.38162-0.37851 0.79216-0.54421 1.3349-0.5388 0.26305 3e-3 0.36606 0.0175 0.56049 0.0807 0.50856 0.16551 0.96591 0.57926 1.1638 1.0528l0.0453 0.10837h0.33669c0.18519 0 0.3439-0.0116 0.3527-0.0259 0.0305-0.0494-0.0998-1.7429-0.14434-1.8753-0.0994-0.29589-0.35627-0.59003-0.63652-0.72899-0.0738-0.0366-0.4341-0.13176-0.80064-0.21147-0.36654-0.0797-0.75347-0.17338-0.85984-0.20816-0.28017-0.0916-0.65991-0.29363-1.0052-0.5348-1.0653-0.7441-2.0337-1.1401-3.246-1.3274-0.43276-0.0669-2.2906-0.078-2.62-0.0157-1.338 0.25307-2.4504 1.2206-2.9138 2.5344-0.15965 0.45254-0.21718 0.79809-0.22041 1.3239-3e-3 0.45986-1e-3 0.47204 0.0814 0.64048 0.0584 0.11893 0.12428 0.19998 0.21435 0.26369 0.12403 0.0877 0.2761 0.1582 0.35175 0.16299 0.0193 1e-3 0.0888-0.10088 0.15435-0.2269z" fill="#76a723" stroke-width=".029298"/>
</svg>
