<?xml version="1.0" encoding="UTF-8"?>
<svg width="17" height="17" version="1.1" viewBox="0 0 17 17" xmlns="http://www.w3.org/2000/svg">
 <rect width="17" height="17" fill="none"/>
 <rect x="1" y="1" width="15" height="15" rx="7.5" ry="7.5" fill="#bbb" stroke="#bbb" stroke-linejoin="round" stroke-width="2"/>
 <rect x="1" y="1" width="15" height="15" rx="7.5" ry="7.5" fill="#fff"/>
 <path d="m12.745 4.255c-0.28-0.28-1.075-0.485-2.08-0.485-1.54 0-3.575 0.48-4.99 1.895-2.345 2.35-2.125 6.37-1.42 7.08 0.28 0.28 1.075 0.485 2.08 0.485 1.54 0 3.575-0.48 4.99-1.895 2.345-2.35 2.125-6.37 1.42-7.08zm-6.365 2.125c1.32-1.32 3.175-1.56 4.015-1.595-1.025 0.47-2.23 1.225-3.305 2.305-1.08 1.08-1.835 2.29-2.305 3.315 0.045-1.24 0.435-2.87 1.595-4.025zm4.24 4.24c-1.32 1.32-3.175 1.56-4.015 1.595 1.025-0.47 2.23-1.225 3.305-2.305 1.08-1.08 1.835-2.29 2.31-3.315-0.05 1.24-0.44 2.87-1.6 4.025z" fill="#76a723" stroke-width=".5"/>
</svg>
