<?xml version="1.0" encoding="UTF-8"?>
<svg width="21" height="21" version="1.1" viewBox="0 0 21 21" xmlns="http://www.w3.org/2000/svg">
 <rect width="21" height="21" fill="none"/>
 <rect x="1" y="1" width="19" height="19" rx="9.5" ry="9.5" fill="#bbb" stroke="#bbb" stroke-linejoin="round" stroke-width="2"/>
 <rect x="1" y="1" width="19" height="19" rx="9.5" ry="9.5" fill="#fff"/>
 <path d="m15.806 5.1938c-0.35-0.35-1.3438-0.60625-2.6-0.60625-1.925 0-4.4688 0.6-6.2375 2.3688-2.9312 2.9375-2.6562 7.9625-1.775 8.85 0.35 0.35 1.3438 0.60625 2.6 0.60625 1.925 0 4.4688-0.6 6.2375-2.3688 2.9312-2.9375 2.6562-7.9625 1.775-8.85zm-7.9562 2.6562c1.65-1.65 3.9688-1.95 5.0188-1.9938-1.2812 0.5875-2.7875 1.5312-4.1312 2.8812-1.35 1.35-2.2938 2.8625-2.8812 4.1438 0.05625-1.55 0.54375-3.5875 1.9938-5.0312zm5.3 5.3c-1.65 1.65-3.9688 1.95-5.0188 1.9938 1.2812-0.5875 2.7875-1.5312 4.1312-2.8812 1.35-1.35 2.2938-2.8625 2.8875-4.1438-0.0625 1.55-0.55 3.5875-2 5.0312z" fill="#76a723" stroke-width=".625"/>
</svg>
