<?xml version="1.0" encoding="UTF-8"?>
<svg width="21" height="21" version="1.1" viewBox="0 0 21 21" xmlns="http://www.w3.org/2000/svg">
 <rect width="21" height="21" fill="none"/>
 <rect x="1" y="1" width="19" height="19" rx="9.5" ry="9.5" fill="#bbb" stroke="#bbb" stroke-linejoin="round" stroke-width="2"/>
 <rect x="1" y="1" width="19" height="19" rx="9.5" ry="9.5" fill="#fff"/>
 <g transform="matrix(.70833 0 0 .70833 2 .75297)">
  <rect width="24" height="24" fill="none"/>
  <path d="m11.029 13.194v-9.1365c0-0.47576-0.61169-0.66994-0.88355-0.28157l-6.3499 9.1365c-0.22331 0.32041 0.00971 0.76704 0.39808 0.76704h6.3499c0.27186 0 0.48547-0.2136 0.48547-0.48547zm9.6996-0.01942c-0.26215-5.7382-4.9421-10.35-7.3694-11.408-0.35925-0.15535-0.74762 0.19419-0.65053 0.57285 0.29128 1.0972 0.73791 3.1847 0.73791 5.5149 0 2.3691-0.47576 4.2624-0.75733 5.1945-0.09709 0.3107 0.13593 0.63111 0.46605 0.63111h7.0684c0.28157 0 0.5146-0.23302 0.50489-0.50489zm-0.35925 1.9613h-16.739c-0.70878 0-1.1845 0.73791-0.89326 1.3787 0.4175 0.89326 1.0389 1.6603 1.8059 2.2429 0.36896-0.15535 0.71849-0.36896 1.0292-0.61169 0.33983-0.28157 0.84471-0.28157 1.1942 0 0.65053 0.5146 1.4467 0.87384 2.3205 0.87384s1.67-0.35924 2.3205-0.88355c0.33983-0.27186 0.84471-0.27186 1.1845 0 0.65053 0.5243 1.4467 0.88355 2.3205 0.88355s1.67-0.35924 2.3205-0.88355c0.33983-0.28157 0.84471-0.27186 1.1942 0 0.3107 0.25244 0.65053 0.46605 1.0292 0.61169 0.76704-0.58256 1.3884-1.3496 1.8059-2.2429 0.29128-0.63111-0.18448-1.369-0.89326-1.369zm1.3399 6.7965c0-0.53401-0.43692-0.97093-0.97093-0.97093-0.84471 0-1.6797-0.23302-2.4565-0.67965-0.28157-0.15535-0.63111-0.16506-0.91268 0-1.5438 0.87384-3.3691 0.87384-4.9129 0-0.28157-0.15535-0.63111-0.15535-0.91268 0-1.5438 0.87384-3.3691 0.87384-4.9129 0-0.28157-0.15535-0.63111-0.15535-0.91268 0-0.77675 0.44663-1.6118 0.67965-2.4565 0.67965-0.53401 1e-6 -0.97093 0.43692-0.97093 0.97094s0.43692 0.97093 0.97093 0.97093c1.1166 0 2.2331-0.30099 3.2332-0.91268 1.6118 1.0777 3.6701 0.98064 5.4178 0.13593 1.8545 1.0195 4.0488 1.0389 5.913 0.04855 0.92239 0.48547 1.9127 0.7282 2.9128 0.7282 0.53401 0 0.97093-0.43692 0.97093-0.97093z" fill="#76a723" stroke-width=".97093"/>
 </g>
</svg>
