<?xml version="1.0" encoding="UTF-8"?>
<svg width="17" height="17" version="1.1" viewBox="0 0 17 17" xmlns="http://www.w3.org/2000/svg">
 <rect width="17" height="17" fill="none"/>
 <rect x="1" y="1" width="15" height="15" rx="7.5" ry="7.5" fill="#bbb" stroke="#bbb" stroke-linejoin="round" stroke-width="2"/>
 <rect x="1" y="1" width="15" height="15" rx="7.5" ry="7.5" fill="#fff"/>
 <g transform="matrix(.12222 0 0 .12222 2.3892 2.3893)" fill="#76a723">
  <path d="m62.03 80.619c-0.884-0.034-1.84-0.124-2.842-0.259-6.614-0.893-15.034-3.644-15.034-3.644-1.98-0.671-5.455-1.271-9.344-1.783-0.123 0.071-0.229 0.154-0.303 0.256l-4.17 5.66s-1.192 1.043 1.191 2.532c0 0 8.044 5.958 32.621 2.681 0 0 2.979-0.745 0.745-3.277 0 0-0.95-1.12-2.864-2.166z" fill="none"/>
  <path d="m88.308 76.9c1.384-0.482 2.208-0.817 2.208-0.817 1.171-0.53 1.308-2.093 1.022-3.842 0.76-2.882-2.14-8.886-2.14-8.886-1.937-3.501-5.884-3.322-5.884-3.322-2.099-0.054-3.811-0.269-4.947-0.756-1.034-0.443-1.702-0.766-1.926-0.876-0.839-0.434-1.779-0.963-2.737-1.527-0.635-0.377-1.337-0.801-1.998-1.206-2.388-1.473-4.404-2.815-4.404-2.815-0.974-0.598-1.896-1.237-2.779-1.899-0.665-0.512-1.468-1.162-2.131-1.721-0.134-0.116-0.269-0.232-0.401-0.349l-0.276-0.249c-2.793-2.538-5.037-5.296-6.797-7.871-0.526-0.777-0.83-1.352-1.363-2.106-0.691-1.128-1.282-2.192-1.78-3.153-0.63-1.281-1.585-3.492-2.125-4.774 0.034-0.284 0.056-0.56 0.084-0.84l7e-3 -2e-3c0.119-0.737 0.169-1.756 0.169-2.495l-4e-3 1e-3c0.537-14.648-7.333-22.36-7.333-22.36-4.469-0.446-9.681 3.128-9.681 3.128-2.625 2.051-2.359 8.025-1.59 12.979-1.465-4.073-2.952-11.187-2.952-11.187-1.117-4.022-5.213-3.203-5.213-3.203-7.895-0.223-7.82 2.011-7.82 2.011s-3.277 39.473-6.107 49.304c0 0-0.658 2.725-0.439 5.63-0.145 2.152 0 4.974 1.347 6.961 0.455 0.671 1.054 1.241 1.818 1.663l-4.442 12.55c-2.091 10.376 19.063 10.129 19.063 10.129h48.729c16.424-0.297 16.965-11.321 16.965-11.321zm-24.159 9.162c-24.577 3.277-32.621-2.681-32.621-2.681-2.383-1.489-1.191-2.532-1.191-2.532l4.17-5.66c0.075-0.101 0.18-0.184 0.303-0.256 3.889 0.512 7.364 1.112 9.344 1.783 0 0 8.421 2.751 15.034 3.644 1.002 0.135 1.958 0.225 2.842 0.259 1.914 1.045 2.864 2.165 2.864 2.165 2.234 2.533-0.745 3.278-0.745 3.278z"/>
 </g>
</svg>
