<?xml version="1.0" encoding="UTF-8"?>
<svg width="21" height="21" version="1.1" viewBox="0 0 21 21" xmlns="http://www.w3.org/2000/svg">
 <rect width="21" height="21" fill="none"/>
 <rect x="1" y="1" width="19" height="19" rx="9.5" ry="9.5" fill="#bbb" stroke="#bbb" stroke-linejoin="round" stroke-width="2"/>
 <rect x="1" y="1" width="19" height="19" rx="9.5" ry="9.5" fill="#fff"/>
 <g transform="matrix(.16284 0 0 .16284 2.3578 2.358)" fill="#76a723">
  <path d="m31.98 60.209 7.987 5.051-6.232 11.57c-0.804 1.494-2.296 2.363-3.872 2.461-0.243 0.062-0.492 0.123-0.753 0.148l-16.944 1.438c-2.592 0.242-4.89-1.66-5.131-4.254-0.243-2.59 1.662-4.889 4.251-5.129l15.316-1.303zm22.394-34.757c4.661 0.896 9.162-2.158 10.06-6.816 0.896-4.664-2.154-9.165-6.816-10.062-4.66-0.897-9.166 2.156-10.061 6.817-0.897 4.66 2.155 9.164 6.817 10.061zm14.668 9.129-9.446 3.434-4-5.04c0.049-2.83-1.511-5.57-4.232-6.879-2.015-0.967-4.245-0.945-6.155-0.137l-11.199-2.001c-0.362-0.063-0.718-0.062-1.066-0.032-0.965-0.084-1.962 0.154-2.801 0.777l-10.383 7.67c-1.816 1.348-2.192 3.918-0.844 5.735 1.351 1.816 3.916 2.192 5.736 0.844l9.09-6.716 5.824 1.044-7.073 14.343c-0.292 0.605-0.76 2.024-0.826 2.123-1.471 2.15-0.916 5.083 1.234 6.55l0.867 0.59 7.825 5.354 11.913 8.148 6.551 18.147c0.92 2.438 3.642 3.662 6.076 2.735 2.434-0.926 3.658-3.645 2.73-6.082l-6.866-19.038c-0.296-0.774-0.784-1.411-1.376-1.909-0.322-0.476-0.73-0.906-1.232-1.252l-13.311-9.101 6.001-12.161 2.458 3.096c0.201 0.253 0.432 0.466 0.676 0.659 1.08 1.27 2.866 1.808 4.525 1.204l12.129-4.415c2.123-0.781 3.214-3.134 2.436-5.259-0.782-2.122-3.136-3.212-5.261-2.431zm14.729 38.569c-5.09 0-9.217 4.125-9.217 9.215 0 5.092 4.127 9.217 9.217 9.217s9.217-4.125 9.217-9.217c-2e-3 -5.09-4.127-9.215-9.217-9.215z"/>
 </g>
 </svg>
