<?xml version="1.0" encoding="UTF-8"?>
<svg width="17" height="17" version="1.1" viewBox="0 0 17 17" xmlns="http://www.w3.org/2000/svg">
 <rect width="17" height="17" fill="none"/>
 <rect x="1" y="1" width="15" height="15" rx="7.5" ry="7.5" fill="#bbb" stroke="#bbb" stroke-linejoin="round" stroke-width="2"/>
 <rect x="1" y="1" width="15" height="15" rx="7.5" ry="7.5" fill="#fff"/>
 <path id="icon_concepts:_sports_leisure" d="m11.972 10.612a2.9576 2.9576 0 0 1-1.4838 0.76284l-4.8789-4.8705a3.1258 3.1258 0 0 1 0.7796-1.4754c1.7517-1.752 4.0408-2.1796 5.9016-0.31853 1.8608 1.861 1.4335 4.1499-0.31853 5.9016zm-5.4216 1.2487a2.9814 2.9814 0 0 1 0.90662-0.4336 3.5172 3.5172 0 0 1 1.4363 0.12974l-3.4564-3.4493a3.424 3.424 0 0 1 0.12198 1.4916 2.843 2.843 0 0 1-0.40412 0.86588c-0.83182 0.98003-1.6543 1.3401-1.6543 1.6977a1.426 1.426 0 0 0 1.3377 1.3377c0.35764 0 0.71217-0.78619 1.7123-1.6397z" fill="#76a723" stroke-width=".77595"/>
</svg>
