<?xml version="1.0" encoding="UTF-8"?>
<svg width="21" height="21" version="1.1" viewBox="0 0 21 21" xmlns="http://www.w3.org/2000/svg">
 <rect width="21" height="21" fill="none"/>
 <rect x="1" y="1" width="19" height="19" rx="9.5" ry="9.5" fill="#bbb" stroke="#bbb" stroke-linejoin="round" stroke-width="2"/>
 <rect x="1" y="1" width="19" height="19" rx="9.5" ry="9.5" fill="#fff"/>
 <path id="icon_concepts:_sports_leisure" d="m15.013 13.245a3.8449 3.8449 0 0 1-1.9289 0.99169l-6.3425-6.3316a4.0635 4.0635 0 0 1 1.0135-1.918c2.2772-2.2776 5.253-2.8334 7.672-0.41409 2.4191 2.4194 1.8635 5.3948-0.41409 7.672zm-7.048 1.6234a3.8758 3.8758 0 0 1 1.1786-0.56368 4.5724 4.5724 0 0 1 1.8672 0.16866l-4.4933-4.484a4.4512 4.4512 0 0 1 0.15857 1.9391 3.6959 3.6959 0 0 1-0.52535 1.1256c-1.0814 1.274-2.1506 1.7421-2.1506 2.207a1.8539 1.8539 0 0 0 1.739 1.739c0.46493 0 0.92582-1.0221 2.226-2.1317z" fill="#76a723" stroke-width="1.0087"/>
</svg>
