<?xml version="1.0" encoding="UTF-8"?>
<svg width="17" height="17" version="1.1" viewBox="0 0 17 17" xmlns="http://www.w3.org/2000/svg">
 <rect width="17" height="17" fill="none"/>
 <rect x="1" y="1" width="15" height="15" rx="7.5" ry="7.5" fill="#bbb" stroke="#bbb" stroke-linejoin="round" stroke-width="2"/>
 <rect x="1" y="1" width="15" height="15" rx="7.5" ry="7.5" fill="#fff"/>
 <g transform="matrix(.4 0 0 .4 2.1 2.1)" fill="#76a723">
  <path d="m30.405 15.158c-3.301-3.2335-8.7014-6.4784-16.471-5.1198 0.26947 1.5269 0.99921 3.1212 2.4364 4.7043 2.9641-0.66241 5.3779-0.29187 7.3204 0.60632 0.07861 0.0224 0.146 0.05609 0.20209 0.07861 2.7956 1.3473 4.6033 3.7499 5.6475 5.58 0.12354 0.22461 0.23578 0.44916 0.33679 0.65125 0.72981-1.7515 1.1228-3.6602 1.1228-5.6699 0-0.08984 0-0.16846-0.01117-0.2583-0.04492-0.03363-0.42664-0.42658-0.5838-0.57251z"/>
  <path d="m23.994 18.066c-2.0322 5.5577-5.872 9.7119-11.082 12.025-0.28076 0.13477-0.57263 0.24695-0.86456 0.37054 1.2575 0.34808 2.5824 0.52765 3.9521 0.52765 5.2434 0 9.8691-2.7058 12.541-6.8039-0.0224-0.05615-0.08984-0.29193-0.23578-0.64001-0.50526-1.2126-1.8189-3.851-4.3114-5.4791z"/>
  <path d="m16.898 16.943c-1.089 3.4469-3.0539 5.5016-5.2096 6.6804-0.07855 0.04492-0.15717 0.08984-0.22455 0.11224-2.2342 1.179-4.6257 1.4597-6.4334 1.4597 0 0-0.65118-0.01123-0.87573-0.02246 1.2574 1.6392 2.8406 2.9865 4.6706 3.9858 0 0 0.55017-0.16846 0.76349-0.23578 4.3787-1.3024 9.7679-4.4237 12.373-11.834-1.4147-0.46027-3.0876-0.59497-5.0637-0.14594z"/>
  <path d="m29.776 11.666c0.24695 0.19086 0.50525 0.38171 0.75226 0.58386-1.6055-6.2201-7.0734-10.88-13.686-11.239h-0.01117v0.01123c-0.04492 0.04486-0.21338 0.23578-0.4491 0.53888-0.77466 1.0218-2.3241 3.3571-2.5599 6.2089 5.8608-0.92059 11.374 0.4267 15.954 3.896z"/>
  <path d="m11.554 9.1175c-0.1347-2.9753 0.99927-5.6138 2.0322-7.3653 0.12347-0.22455 0.25818-0.43787 0.38171-0.62872-2.4139 0.33685-4.6482 1.235-6.5569 2.5823 0 0.05609-0.1123 0.59503-0.15717 0.80835-0.89819 4.4124-0.77478 10.644 4.0756 16.684 1.4147-1.0105 2.661-2.5599 3.4019-4.9065-2.1444-2.324-3.009-4.7044-3.1549-6.9049-0.02246-0.08984-0.03369-0.17968-0.02246-0.26947z"/>
  <path d="m2.6168 22.748h0.01123c0.05615 0.01129 0.29193 0.05627 0.67365 0.11237 1.1565 0.15717 3.6041 0.31433 5.9955-0.58386-4.1318-5.3219-4.9963-10.745-4.6595-15.18 0.02246-0.32556 0.05615-0.65112 0.08984-0.97681-2.3241 2.6385-3.7275 6.0966-3.7275 9.8691 0 2.4363 0.58386 4.7268 1.6168 6.7589z"/>
 </g>
</svg>
