<?xml version="1.0" encoding="UTF-8"?>
<svg width="17" height="17" version="1.1" viewBox="0 0 17 17" xmlns="http://www.w3.org/2000/svg">
 <rect width="17" height="17" fill="none"/>
 <rect x="1" y="1" width="15" height="15" rx="7.5" ry="7.5" fill="#bbb" stroke="#bbb" stroke-linejoin="round" stroke-width="2"/>
 <rect x="1" y="1" width="15" height="15" rx="7.5" ry="7.5" fill="#fff"/>
 <g transform="matrix(.13599 0 0 .13599 1.7043 1.6638)" fill="#76a723">
  <path d="m93.227 54.643a3.1515 3.1515 0 0 1-1.1583 4.3011l-10.402 5.9885 5.3592 3.0953a3.1492 3.1492 0 1 1-3.1498 5.4542l-5.4138-3.1252-0.01759 12.109a3.1495 3.1495 0 0 1-3.1498 3.1463h-0.0035a3.1506 3.1506 0 0 1-3.1463-3.1551l0.02108-15.735-19.045-10.995v22.015l13.591 7.8464a3.1499 3.1499 0 0 1-3.1498 5.4559l-10.441-6.0272v6.2205a3.1498 3.1498 0 1 1-6.2996 0v-6.2205l-10.441 6.0272a3.1499 3.1499 0 1 1-3.1498-5.4559l13.589-7.8464v-22.015l-19.043 10.994 0.01933 15.735a3.148 3.148 0 0 1-3.1445 3.1551h-0.0053a3.1518 3.1518 0 0 1-3.1498-3.1463l-0.01582-12.109-5.4138 3.1252a3.1492 3.1492 0 1 1-3.1498-5.4542l5.361-3.0953-10.402-5.9885a3.1497 3.1497 0 1 1 3.1428-5.4594l13.563 7.8078 19.089-11.021-19.089-11.021-13.562 7.8078a3.1505 3.1505 0 1 1-3.1428-5.4612l10.402-5.9868-5.361-3.0953a3.1492 3.1492 0 1 1 3.1498-5.4542l5.4137 3.1252 0.01582-12.111a3.1514 3.1514 0 0 1 3.1498-3.1445h0.0053a3.1465 3.1465 0 0 1 3.1445 3.1533l-0.01936 15.735 19.043 10.996v-22.015l-13.589-7.8464a3.1499 3.1499 0 0 1 3.1498-5.4559l10.441 6.0272v-6.2205a3.1498 3.1498 0 1 1 6.2996 0v6.2205l10.441-6.0272a3.15 3.15 0 1 1 3.1499 5.4559l-13.591 7.8464v22.015l19.045-10.996-0.02109-15.735a3.1491 3.1491 0 0 1 3.1463-3.1533h0.0035a3.148 3.148 0 0 1 3.1498 3.1445l0.01758 12.111 5.4138-3.1252a3.1492 3.1492 0 1 1 3.1498 5.4542l-5.3593 3.0953 10.402 5.9868a3.1505 3.1505 0 1 1-3.1428 5.4612l-13.566-7.8078-19.087 11.021 19.087 11.021 13.566-7.8078a3.1492 3.1492 0 0 1 4.3011 1.1583z"/>
 </g>
</svg>
