<?xml version="1.0" encoding="UTF-8"?>
<svg width="17" height="17" version="1.1" viewBox="0 0 17 17" xmlns="http://www.w3.org/2000/svg">
  <rect width="17" height="17" fill="none"/>
 <rect x="1" y="1" width="15" height="15" rx="7.75" ry="7.75" fill="#f58100" stroke="#f58100" stroke-linejoin="round" stroke-width="2"/>
 <rect x="1" y="1" width="15" height="15" rx="7.75" ry="7.75" fill="#d97200"/>
 <path d="m14 7.0219v0.241c0 1.009-1 0.509-1 0.509h-2a3.081 3.081 0 0 1-1 1.5 2.848 2.848 0 0 1-0.416 0.9 0.26 0.26 0 0 0-0.05 0.242l0.458 1.55a0.227 0.227 0 0 1 8e-3 0.058 0.25 0.25 0 0 1-0.25 0.25 0.259 0.259 0 0 1-0.244-0.173l-0.506-1.827v-0.5h-3.25l-0.21 0.42a0.25 0.25 0 0 0-0.02 0.168l0.48 1.662a0.25 0.25 0 0 1-0.25 0.25 0.26 0.26 0 0 1-0.237-0.172l-0.513-1.828v-0.5a4.013 4.013 0 0 1-0.843-0.139 1.383 1.383 0 0 1-0.5 1.045 0.242 0.242 0 0 0-0.094 0.282l0.414 0.99a0.213 0.213 0 0 1 0.011 0.072 0.25 0.25 0 0 1-0.25 0.25 0.253 0.253 0 0 1-0.228-0.148l-0.51-1.352a6.031 6.031 0 0 0 0-2v-2a1.486 1.486 0 0 1 2-1.4s0.768 0.132 1.1 0.154a2.457 2.457 0 0 0 0.9-0.167 1.666 1.666 0 0 1 0.5-0.087 1.648 1.648 0 0 1 0.844 0.257 3.166 3.166 0 0 0 0.9 0.23l0.756 0.013s0.966-0.484 1-0.5v-0.5l0.5 0.5a1.474 1.474 0 0 1 1.5-0.5 0.914 0.914 0 0 0-1 0.5l1 1 0.68 0.529a0.425 0.425 0 0 1 0.07-0.029 0.238 0.238 0 0 1 0.25 0.25z" fill="#fff"/>
</svg>
