<?xml version="1.0" encoding="UTF-8"?>
<svg width="17" height="17" version="1.1" viewBox="0 0 17 17" xmlns="http://www.w3.org/2000/svg">
 <rect width="17" height="17" fill="none"/>
 <rect x="1" y="1" width="15" height="15" rx="7.5" ry="7.5" fill="#8083cb" stroke="#8083cb" stroke-linejoin="round" stroke-width="2"/>
 <rect x="1" y="1" width="15" height="15" rx="7.5" ry="7.5" fill="#5d60be"/>
 <path transform="matrix(2.9692 0 0 2.9692 -671.6 -307.98)" d="m227.99 104.7c-0.0496 4.6e-4 -0.10015 6e-3 -0.15141 0.0155-0.30956 0.0609-0.56081 0.31469-0.62167 0.62425-0.0926 0.50271 0.29084 0.94723 0.78032 0.94723 0.34395 0 0.63766-0.22225 0.74879-0.52916h1.3679v0.26458c0 0.14552 0.11907 0.26458 0.26459 0.26458s0.26458-0.11906 0.26458-0.26458v-0.26458c0.14552 0 0.26458-0.11907 0.26458-0.26459s-0.11906-0.26458-0.26458-0.26458h-1.897c-0.11113-0.31254-0.40865-0.53187-0.75603-0.52865zm7e-3 0.52865c0.14552 0 0.26458 0.11906 0.26458 0.26458s-0.11906 0.26459-0.26458 0.26459-0.26459-0.11907-0.26459-0.26459 0.11907-0.26458 0.26459-0.26458zm1.5875 0.70383c-0.11691 0-0.21188 0.0945-0.21188 0.21136 0 0.1169 0.095 0.21187 0.21188 0.21187 0.1169 0 0.21187-0.095 0.21187-0.21187 0-0.1169-0.095-0.21136-0.21187-0.21136zm-0.39274 0.42168c-0.0275 1.1e-4 -0.0537 0.0113-0.0734 0.0305l-0.55914 0.52917c-0.0478 0.045-0.0432 0.12233 9e-3 0.16175l0.38085 0.28525v0.58239c-2e-3 0.14313 0.21391 0.14313 0.21188 0v-0.6351c6e-5 -0.0333-0.0158-0.0647-0.0424-0.0847l-0.16226-0.12196 0.38447-0.36431 0.15865 0.21135c0.02 0.0266 0.0514 0.0424 0.0848 0.0424h0.31729c0.14311 2e-3 0.14311-0.21391 0-0.21188h-0.26458l-0.15865-0.21187-0.12661-0.1695c-0.0191-0.0262-0.0493-0.0422-0.0817-0.0434zm-1.0888 0.84801c-0.3507 0-0.6351 0.28443-0.6351 0.63511s0.2844 0.6351 0.6351 0.6351c0.35071 0 0.63511-0.28442 0.63511-0.6351s-0.2844-0.63511-0.63511-0.63511zm1.9048 0c-0.35071 0-0.63511 0.28443-0.63511 0.63511s0.2844 0.6351 0.63511 0.6351c0.3507 0 0.6351-0.28442 0.6351-0.6351s-0.2844-0.63511-0.6351-0.63511zm-1.9048 0.21188c0.23381 0 0.42323 0.18942 0.42323 0.42323 0 0.2338-0.18942 0.42323-0.42323 0.42323-0.2338 0-0.42323-0.18943-0.42323-0.42323 0-0.23381 0.18943-0.42323 0.42323-0.42323zm1.9048 0c0.2338 0 0.42323 0.18942 0.42323 0.42323 0 0.2338-0.18943 0.42323-0.42323 0.42323-0.23381 0-0.42323-0.18943-0.42323-0.42323 0-0.23381 0.18942-0.42323 0.42323-0.42323z" fill="#fff" stroke-width=".26458"/>
</svg>
