<?xml version="1.0" encoding="UTF-8"?>
<svg width="17" height="17" version="1.1" viewBox="0 0 17 17" xmlns="http://www.w3.org/2000/svg">
 <rect width="17" height="17" fill="none"/>
 <rect x="1" y="1" width="15" height="15" rx="7.5" ry="7.5" fill="#3b3e95" stroke="#3b3e95" stroke-linejoin="round" stroke-width="2"/>
 <rect x="1" y="1" width="15" height="15" rx="7.5" ry="7.5" fill="#5d60be"/>
 <path d="m11.758 3.0491c-1.2357 1e-7 -2.242 1.0049-2.242 2.2405 0 0.20595 0.037479 0.40006 0.085937 0.59389l-0.94531 0.54478c-0.58149-0.69053-1.4664-1.1387-2.4477-1.1387-1.7687 0-3.2088 1.4417-3.2088 3.2104s1.4418 3.2104 3.2227 3.2104c0.98127 0 1.8526-0.44817 2.4461-1.1387l0.93304 0.54478c-0.060571 0.18172-0.085937 0.38795-0.085937 0.59389 0 1.2357 1.0064 2.2405 2.242 2.2405s2.242-1.0049 2.242-2.2405c0-1.2357-1.0064-2.2405-2.242-2.2405-0.62995 0-1.1871 0.25413-1.5991 0.66602l-0.93304-0.54632c0.12115-0.33921 0.19489-0.70192 0.19489-1.0896 0-0.38766-0.073755-0.7504-0.19489-1.0896l0.93304-0.54632c0.41189 0.41189 0.96912 0.66602 1.5991 0.66602 1.2357 0 2.242-1.0049 2.242-2.2405s-1.0064-2.2405-2.242-2.2405zm0.01381 1.0052c0.35132 0 0.64146 0.27803 0.64146 0.64146s-0.29014 0.65358-0.64146 0.64146c-0.35132 0-0.64453-0.29015-0.64453-0.64146 0-0.35132 0.2811-0.64146 0.64453-0.64146zm-0.01381 1.4164c0.67841 0 1.2246 0.30444 1.2246 0.6921v0.37444h-2.4477v-0.37444c0-0.37555 0.54464-0.6921 1.2231-0.6921zm-5.0412 1.2538c0.14465 0 0.26242 0.11777 0.26242 0.26242s-0.11777 0.26242-0.26242 0.26242-0.26088-0.11777-0.26088-0.26242 0.11623-0.26242 0.26088-0.26242zm-0.38825 0.52176c0.040043 0.00155 0.077685 0.022875 0.10128 0.055245l0.15653 0.20871 0.19643 0.26242h0.32687c0.17707-0.00251 0.17707 0.26503 0 0.26242h-0.39286c-0.041222 7.87e-5 -0.079549-0.020764-0.10435-0.053711l-0.19643-0.26088-0.47573 0.45117 0.20103 0.15039c0.032921 0.024797 0.052255 0.064649 0.052176 0.10589v0.78571c0.00251 0.1771-0.26502 0.1771-0.26242 0v-0.72126l-0.47112-0.35296c-0.064978-0.048765-0.069828-0.14377-0.010742-0.1995l0.69057-0.65527c0.024357-0.023805 0.058029-0.036699 0.092076-0.03683zm-1.4441 1.0497c0.43394 0 0.78571 0.3518 0.78571 0.78571s-0.35177 0.78571-0.78571 0.78571-0.78571-0.3518-0.78571-0.78571 0.35177-0.78571 0.78571-0.78571zm2.3571 0c0.43394 0 0.78571 0.3518 0.78571 0.78571s-0.35177 0.78571-0.78571 0.78571-0.78571-0.3518-0.78571-0.78571 0.35177-0.78571 0.78571-0.78571zm-2.3571 0.26242c-0.2893 0-0.52483 0.234-0.52483 0.5233s0.23553 0.52483 0.52483 0.52483 0.5233-0.23553 0.5233-0.52483-0.234-0.5233-0.5233-0.5233zm2.3571 0c-0.2893 0-0.52483 0.234-0.52483 0.5233s0.23553 0.52483 0.52483 0.52483 0.5233-0.23553 0.5233-0.52483-0.234-0.5233-0.5233-0.5233zm4.5301 1.9167c0.35132 0 0.64146 0.29014 0.64146 0.64146s-0.29014 0.64146-0.64146 0.64146-0.64453-0.27802-0.64453-0.64146c0-0.35132 0.2811-0.64146 0.64453-0.64146zm-0.01381 1.4057c0.67841 0 1.2246 0.30137 1.2246 0.68904v0.37598h-2.4477v-0.37598c0-0.37555 0.54464-0.68904 1.2231-0.68904z" fill="#fff" stroke-width=".78571"/>
</svg>
