<?xml version="1.0" encoding="UTF-8"?>
<svg width="21" height="21" version="1.1" viewBox="0 0 21 21" xmlns="http://www.w3.org/2000/svg">
 <rect width="21" height="21" fill="none"/>
 <rect x="1" y="1" width="19" height="19" rx="9.5" ry="9.5" fill="#8083cb" stroke="#8083cb" stroke-linejoin="round" stroke-width="2"/>
 <rect x="1" y="1" width="19" height="19" rx="9.5" ry="9.5" fill="#5d60be"/>
 <path d="m14.646 3.5625c-1.5727 1e-7 -2.8535 1.2789-2.8535 2.8516 0 0.26212 0.047698 0.50917 0.10938 0.75586l-1.2031 0.69336c-0.74008-0.87885-1.8663-1.4492-3.1152-1.4492-2.2511 0-4.084 1.8348-4.084 4.0859 0 2.2511 1.8351 4.0859 4.1016 4.0859 1.2489 0 2.3578-0.5704 3.1133-1.4492l1.1875 0.69336c-0.07709 0.23128-0.10938 0.49375-0.10938 0.75586 0 1.5727 1.2809 2.8516 2.8535 2.8516 1.5727 0 2.8535-1.2789 2.8535-2.8516 0-1.5727-1.2809-2.8516-2.8535-2.8516-0.80176 0-1.5109 0.32343-2.0352 0.84766l-1.1875-0.69531c0.15419-0.43172 0.24805-0.89335 0.24805-1.3867 0-0.49339-0.093866-0.95505-0.24805-1.3867l1.1875-0.69531c0.52422 0.52422 1.2334 0.84766 2.0352 0.84766 1.5727 0 2.8535-1.2789 2.8535-2.8516 0-1.5727-1.2809-2.8516-2.8535-2.8516zm0.017578 1.2793c0.44713 0 0.81641 0.35386 0.81641 0.81641s-0.36928 0.83182-0.81641 0.81641c-0.44713 0-0.82031-0.36928-0.82031-0.81641s0.35776-0.81641 0.82031-0.81641zm-0.017578 1.8027c0.86343 0 1.5586 0.38746 1.5586 0.88086v0.47656h-3.1152v-0.47656c0-0.47797 0.69318-0.88086 1.5566-0.88086zm-6.416 1.5957c0.1841 0 0.33398 0.14988 0.33398 0.33398 0 0.1841-0.14988 0.33398-0.33398 0.33398-0.1841 0-0.33203-0.14988-0.33203-0.33398 0-0.1841 0.14793-0.33398 0.33203-0.33398zm-0.49414 0.66406c0.050964 0.001967 0.098872 0.029112 0.12891 0.070312l0.19922 0.26562 0.25 0.33398h0.41602c0.22536-0.0032001 0.22536 0.33731 0 0.33398h-0.5c-0.052464 1e-4 -0.10124-0.026427-0.13281-0.068359l-0.25-0.33203-0.60547 0.57422 0.25586 0.19141c0.0419 0.031563 0.066506 0.082285 0.066406 0.13476v1c0.0031999 0.2254-0.3373 0.2254-0.33398 0v-0.91797l-0.59961-0.44922c-0.082699-0.062065-0.088872-0.18297-0.013672-0.25391l0.87891-0.83398c0.031-0.030297 0.073855-0.046708 0.11719-0.046875l0.12305-0.0019531zm-1.8379 1.3359c0.55229 0 1 0.44775 1 1s-0.44771 1-1 1-1-0.44775-1-1 0.44771-1 1-1zm3 0c0.55229 0 1 0.44775 1 1s-0.44771 1-1 1c-0.55229 0-1-0.44775-1-1s0.44771-1 1-1zm-3 0.33398c-0.3682 0-0.66797 0.29782-0.66797 0.66602s0.29977 0.66797 0.66797 0.66797c0.3682 0 0.66602-0.29977 0.66602-0.66797s-0.29782-0.66602-0.66602-0.66602zm3 0c-0.3682 0-0.66797 0.29782-0.66797 0.66602s0.29977 0.66797 0.66797 0.66797 0.66602-0.29977 0.66602-0.66797-0.29782-0.66602-0.66602-0.66602zm5.7656 2.4395c0.44713 0 0.81641 0.36927 0.81641 0.81641 0 0.44714-0.36928 0.81641-0.81641 0.81641-0.44713 0-0.82031-0.35385-0.82031-0.81641 0-0.44714 0.35776-0.81641 0.82031-0.81641zm-0.017578 1.7891c0.86343 0 1.5586 0.38356 1.5586 0.87695v0.47852h-3.1152v-0.47852c0-0.47798 0.69318-0.87695 1.5566-0.87695z" fill="#fff"/>
</svg>
