<?xml version="1.0" encoding="UTF-8"?>
<svg width="17" height="17" version="1.1" viewBox="0 0 17 17" xmlns="http://www.w3.org/2000/svg">
 <rect width="17" height="17" fill="none"/>
 <rect x="1" y="1" width="15" height="15" rx="7.5" ry="7.5" fill="#8083cb" stroke="#8083cb" stroke-linejoin="round" stroke-width="2"/>
 <rect x="1" y="1" width="15" height="15" rx="7.5" ry="7.5" fill="#5d60be"/>
 <g transform="matrix(.11111 0 0 .11111 2.9444 2.9444)" fill="#fff">
  <path d="m47.5 77.5c1.4 0 2.5-1.1 2.5-2.5v-2.5c1.4 0 2.5-1.1 2.5-2.5s-1.1-2.5-2.5-2.5h-12.9c-1-2.9-3.8-5-7.1-5-4.1 0-7.5 3.4-7.5 7.5s3.4 7.5 7.5 7.5c3.3 0 6-2.1 7.1-5h7.9v2.5c0 1.4 1.1 2.5 2.5 2.5zm-17.5-5c-1.4 0-2.5-1.1-2.5-2.5s1.1-2.5 2.5-2.5 2.5 1.1 2.5 2.5-1.1 2.5-2.5 2.5z"/>
  <path d="m58.2 68.2c-1 1-1 2.6 0 3.5l5 5c0.5 0.5 1.1 0.7 1.8 0.7s1.3-0.2 1.8-0.7l10-10c1-1 1-2.6 0-3.5-1-1-2.6-1-3.5 0l-8.3 8.3-3.2-3.2c-1-1-2.6-1-3.6-0.1z"/>
  <path d="m50 47.5h-12.9c-1-2.9-3.8-5-7.1-5-4.1 0-7.5 3.4-7.5 7.5s3.4 7.5 7.5 7.5c3.3 0 6-2.1 7.1-5h7.9v2.5c0 1.4 1.1 2.5 2.5 2.5s2.5-1.1 2.5-2.5v-2.5c1.4 0 2.5-1.1 2.5-2.5s-1.1-2.5-2.5-2.5zm-20 5c-1.4 0-2.5-1.1-2.5-2.5s1.1-2.5 2.5-2.5 2.5 1.1 2.5 2.5-1.1 2.5-2.5 2.5z"/>
  <path d="m60.7 56.8c0.5 0.5 1.1 0.7 1.8 0.7s1.3-0.2 1.8-0.7l3.2-3.2 3.2 3.2c0.5 0.5 1.1 0.7 1.8 0.7s1.3-0.2 1.8-0.7c1-1 1-2.6 0-3.5l-3.3-3.3 3.2-3.2c1-1 1-2.6 0-3.5-1-1-2.6-1-3.5 0l-3.2 3.2-3.2-3.2c-1-1-2.6-1-3.5 0-1 1-1 2.6 0 3.5l3.2 3.2-3.2 3.2c-1 1-1 2.6-0.1 3.6z"/>
  <path d="m50 27.5h-12.9c-1-2.9-3.8-5-7.1-5-4.1 0-7.5 3.4-7.5 7.5s3.4 7.5 7.5 7.5c3.3 0 6-2.1 7.1-5h7.9v2.5c0 1.4 1.1 2.5 2.5 2.5s2.5-1.1 2.5-2.5v-2.5c1.4 0 2.5-1.1 2.5-2.5s-1.1-2.5-2.5-2.5zm-20 5c-1.4 0-2.5-1.1-2.5-2.5s1.1-2.5 2.5-2.5 2.5 1.1 2.5 2.5-1.1 2.5-2.5 2.5z"/>
  <path d="m60.7 36.8c0.5 0.5 1.1 0.7 1.8 0.7s1.3-0.2 1.8-0.7l3.2-3.2 3.2 3.2c0.5 0.5 1.1 0.7 1.8 0.7s1.3-0.2 1.8-0.7c1-1 1-2.6 0-3.5l-3.3-3.3 3.2-3.2c1-1 1-2.6 0-3.5-1-1-2.6-1-3.5 0l-3.2 3.2-3.2-3.2c-1-1-2.6-1-3.5 0-1 1-1 2.6 0 3.5l3.2 3.2-3.2 3.2c-1 1-1 2.6-0.1 3.6z"/>
  <path d="m92.5 5h-85c-1.4 0-2.5 1.1-2.5 2.5v85c0 1.4 1.1 2.5 2.5 2.5h85c1.4 0 2.5-1.1 2.5-2.5v-15-0.1-0.3c0-0.1 0-0.2-0.1-0.2 0-0.1 0-0.2-0.1-0.2 0-0.1-0.1-0.2-0.1-0.2s0-0.1-0.1-0.1l-7.5-13c-0.7-1.2-2.2-1.6-3.4-0.9s-1.6 2.2-0.9 3.4l7.2 12.3v11.8h-80v-80h80v47.5c0 1.4 1.1 2.5 2.5 2.5s2.5-1.1 2.5-2.5v-50c0-1.4-1.1-2.5-2.5-2.5z"/>
 </g>
</svg>
