<?xml version="1.0" encoding="UTF-8"?>
<svg width="21" height="21" version="1.1" viewBox="0 0 21 21" xmlns="http://www.w3.org/2000/svg">
 <rect width="21" height="21" fill="none"/>
 <rect x="1" y="1" width="19" height="19" rx="9.5" ry="9.5" fill="#8083cb" stroke="#8083cb" stroke-linejoin="round" stroke-width="2"/>
 <rect x="1" y="1" width="19" height="19" rx="9.5" ry="9.5" fill="#5d60be"/>
 <g transform="matrix(.66667 0 0 .66667 2.5 2.5)" fill="#fff">
  <g fill="none">
   <rect width="24" height="24"/>
   <rect width="24" height="24"/>
  </g>
  <path d="m12 11.39c0-0.65-0.39-1.23-0.98-1.48l-5.58-2.36c-1.48 1.68-2.32 3.7-2.8 5.45h7.75c0.89 0 1.61-0.72 1.61-1.61z"/>
  <path d="m21.96 11.22c-0.41-4.41-4.56-7.49-8.98-7.2-2.51 0.16-4.44 0.94-5.93 2.04l4.74 2.01c1.33 0.57 2.2 1.87 2.2 3.32 0 1.99-1.62 3.61-3.61 3.61h-8.17c-0.21 1.31-0.21 2.2-0.21 2.2v0.8c0 1.1 0.9 2 2 2h10c4.67 0 8.41-4.01 7.96-8.78z"/>
 </g>
</svg>
