<?xml version="1.0" encoding="UTF-8"?>
<svg width="17" height="17" version="1.1" viewBox="0 0 17 17" xmlns="http://www.w3.org/2000/svg">
 <rect width="17" height="17" fill="none"/>
 <rect x="1" y="1" width="15" height="15" rx="7.5" ry="7.5" fill="#8083cb" stroke="#8083cb" stroke-linejoin="round" stroke-width="2"/>
 <rect x="1" y="1" width="15" height="15" rx="7.5" ry="7.5" fill="#5d60be"/>
 <g transform="matrix(.15042 0 0 .15042 .97897 .97899)" clip-rule="evenodd" fill="#fff" fill-rule="evenodd">
  <path d="m39.428 10.113c4.849 0.077 9.343 3.342 10.581 7.688 1.788 6.271-2.613 12.45-9.186 12.833-4.701 0.273-8.325-1.706-10.541-5.79-2.226-4.102-1.255-9.295 2.543-12.357 2.081-1.678 4.48-2.41 6.603-2.374z"/>
  <path d="m88.817 24.152c-6.508-0.108-12.604 0.365-19.016 0.068v-1.766c0.431 0.023 0.861 0.048 1.293 0.071 1.452 0.078 2.664-0.518 3.647-1.549 0.904-0.949 1.285-2.243 0.085-3.351-0.41-0.378-8.021-4.75-11.527-6.224-2.098 0.528-3.958 2.514-4.216 4.548-0.137 1.074-0.199 2.163-0.212 3.246-0.017 1.525 0.936 2.625 2.479 2.741 2.247 0.169 4.499 0.301 6.751 0.425-0.109 0.63-0.212 1.215-0.336 1.935-4.313-0.092-8.926 0.094-13.326 0-0.119 1.746 0.115 3.437 0 5.148 0.771 0.097 1.346-0.1 2.143 0-0.203 1.383-0.11 2.811-0.64 3.95-1.424 3.062-5.225 9.862-5.566 10.433-2.324-3.808-4.563-7.476-6.812-11.16-4.645-1.116-9.223-2.215-13.732-3.298-0.826 0.998-3.999 6.309-7.274 11.998-1.694-0.971-3.324-1.904-5.065-2.902-2.49 4.131-4.751 8.205-6.354 12.572 0.943 1.379 3.083 3.092 4.174 3.347-0.643 1.232-1.054 2.085-1.122 2.363 0.13 0.151 15.003 13.325 15.003 13.325l-15.548 13.91s1.108 3.719 2.273 5.906c6.018-4.97 16.017-14.2 22.482-18.855-0.913-1.492-1.773-2.897-2.633-4.305 0.447 0.021 6.526 3.626 6.724 4.072 0.528 1.188 7.619 18.869 7.771 19.088 1.71-0.925 3.383-1.828 5.121-2.767-3.038-8.02-6.021-15.892-9.028-23.829-5.778-2.437-11.527-4.86-17.445-7.356 3.255-4.673 6.382-9.162 9.566-13.732 4.458 3.464 8.796 6.836 13.233 10.286 1.423-2.527 2.727-4.84 4.086-7.252 2.207 1.445 4.391 2.875 6.629 4.341 0.388-0.562 8.351-14.344 8.447-15.055 0.28-2.055 0.786-6.835 0.863-7.242h17.082c0.085-1.131 0.025-1.898 0-3.13zm-23.674 11.635c-1.818 1.8-3.367 3.874-5.137 5.949-0.7-0.311-1.409-0.625-2.261-1.003 0.99-2.391 1.931-4.666 2.857-6.909 0.479-0.121 0.832-0.209 1.303-0.328 0.228-1.36 0.462-2.755 0.698-4.158h5.335c-0.737 2.387-0.997 4.668-2.795 6.449z"/>
 </g>
</svg>
