<?xml version="1.0" encoding="UTF-8"?>
<svg width="21" height="21" version="1.1" viewBox="0 0 21 21" xmlns="http://www.w3.org/2000/svg">
 <rect width="21" height="21" fill="none"/>
 <rect x="1" y="1" width="19" height="19" rx="9.5" ry="9.5" fill="#3b3e95" stroke="#3b3e95" stroke-linejoin="round" stroke-width="2"/>
 <rect x="1" y="1" width="19" height="19" rx="9.5" ry="9.5" fill="#5d60be"/>
 <path d="m6.9511 2.9999c-0.10558 0.00159-0.21111 0.0057-0.31641 0.013672-0.077737 0.0054-0.15432 0.01436-0.23047 0.023437-0.057816 0.00676-0.11627 0.012804-0.17383 0.021484-0.047247 0.00738-0.096022 0.014779-0.14258 0.023437-0.00445 8.219e-4 -0.00728 0.00111-0.011719 0.00195-0.10875 0.020089-0.21695 0.04533-0.32422 0.072266-0.00192 4.871e-4 -0.00395 0.00147-0.00586 0.00195-0.34189 0.085372-0.6743 0.20528-0.99219 0.35743l0.00195 0.00195c-1.0724 0.49815-1.7559 1.1758-1.7559 1.1758 0 0.31065 0.016446 0.60286 0.039063 0.88672-0.00113-3.66e-4 -0.00278-0.00159-0.00391-0.00195 0.00124 0.015454 0.00457 0.029546 0.00586 0.044922 0.01472 0.17588 0.039896 0.33803 0.0625 0.50391 0.017373 0.12723 0.031055 0.25741 0.052734 0.37891 0.029147 0.1636 0.06717 0.3153 0.10352 0.46875 0.025771 0.10871 0.049044 0.22047 0.078125 0.32422 0.040379 0.14415 0.084652 0.27925 0.13086 0.41406 0.034802 0.10151 0.069654 0.20442 0.10742 0.30078 0.05125 0.13079 0.10601 0.25345 0.16211 0.375 0.037997 0.082332 0.075289 0.16592 0.11523 0.24414 0.062601 0.12256 0.12666 0.23687 0.19336 0.34961 0.040289 0.068171 0.081513 0.13647 0.12305 0.20117 0.065185 0.10144 0.12961 0.19788 0.19727 0.29102 0.049551 0.068281 0.099848 0.13525 0.15039 0.19922 0.068985 0.087243 0.13878 0.16856 0.20898 0.24805 0.044494 0.050454 0.088063 0.099043 0.13281 0.14648 0.07733 0.08186 0.15314 0.16118 0.23047 0.23438 0.039543 0.03751 0.077827 0.0721 0.11719 0.10742 0.081225 0.07273 0.1626 0.14327 0.24219 0.20703 0.035372 0.02841 0.068622 0.05337 0.10352 0.08008 0.078812 0.06018 0.15688 0.11806 0.23242 0.16992 0.022323 0.01536 0.040526 0.02634 0.0625 0.04101 0.1911 0.12726 0.36547 0.22968 0.51953 0.30859 0.12901 0.06638 0.22345 0.10673 0.31445 0.14453 0.038657 0.01603 0.082853 0.03925 0.11328 0.05078 0.00108 4.17e-4 0.00283 0.0016 0.00391 2e-3 0.087894 0.03302 0.15234 0.05274 0.15234 0.05274s0.063297-0.01946 0.15625-0.05469c0.033148-0.01255 0.08212-0.03871 0.125-0.05664 0.088255-0.03698 0.17633-0.0738 0.29883-0.13672 0.15552-0.07942 0.32981-0.18156 0.52344-0.31055 0.021662-0.01447 0.0405-0.02588 0.0625-0.04101 0.075544-0.05185 0.1536-0.10974 0.23242-0.16992 0.034895-0.0267 0.068141-0.05167 0.10352-0.08008 0.079597-0.06377 0.15901-0.1343 0.24023-0.20703 0.039359-0.03531 0.079596-0.06991 0.11914-0.10742 0.077336-0.07319 0.15314-0.15251 0.23047-0.23438 0.043919-0.04656 0.087186-0.093111 0.13086-0.14258 0.073683-0.083391 0.14446-0.17186 0.2168-0.26372 0.044583-0.056697 0.088997-0.11377 0.13281-0.17383 0.071502-0.097865 0.14023-0.19954 0.20898-0.30664 0.040142-0.062584 0.080165-0.12948 0.11914-0.19531 0.069636-0.11747 0.13795-0.23707 0.20313-0.36523 0.03333-0.065579 0.06374-0.13467 0.0957-0.20312 0.06282-0.13443 0.12286-0.27212 0.17969-0.41797 0.03277-0.084148 0.06321-0.17366 0.09375-0.26172 0.04961-0.14303 0.09761-0.28584 0.14062-0.43945 0.02897-0.10341 0.05245-0.21588 0.07813-0.32422 0.03635-0.15345 0.07437-0.30515 0.10352-0.46875 0.02168-0.12149 0.03536-0.25167 0.05273-0.37891 0.02261-0.16588 0.04777-0.32803 0.0625-0.50391 0.0013-0.015376 0.0046-0.029469 0.0059-0.044922-0.0011 3.688e-4 -0.0027 0.00159-0.0039 0.00195 0.02262-0.28386 0.03906-0.57607 0.03906-0.88672 0 0-0.68342-0.67769-1.7559-1.1758l0.00195-0.00195c-0.31778-0.15214-0.65035-0.27206-0.99223-0.35742l-0.00586-0.00195c-0.10726-0.026945-0.21546-0.050227-0.32422-0.070316-0.00441-7.395e-4 -0.00926-0.00318-0.013672-0.00391-0.046553-0.00866-0.093373-0.014101-0.14062-0.021484h-0.00195c-0.057151-0.0089194-0.11375-0.016504-0.17188-0.023434-0.076146-0.0090778-0.15273-0.018032-0.23047-0.023438-0.10529-0.007967-0.21083-0.012086-0.31641-0.013672zm0 0.8457c0.15275 0 0.3023 0.015554 0.44922 0.033203 0.00141 1.726e-4 0.00249-1.741e-4 0.00391 0 0.05305 0.00677 0.10544 0.014771 0.1582 0.023438 0.11653 0.018932 0.23198 0.040544 0.34375 0.068359 0.00772 0.00182 0.015721 4e-3 0.023437 0.00586 0.025783 0.00638 0.050509 0.012688 0.076172 0.019531 0.2864 0.078397 0.55516 0.18185 0.80078 0.29688 0.00213 0.00102 0.0056 9.231e-4 0.00781 0.00195 0.03774 0.018212 0.07411 0.037375 0.11133 0.056641 0.49474 0.24629 0.88959 0.52942 1.1289 0.7207-0.0069 0.19772-0.01987 0.38586-0.03711 0.57031-0.0022-3.622e-4 -0.0037-0.00158-0.0059-0.00195-0.027734 0.29752-0.07193 0.59376-0.13082 0.88672-0.69987 0.30161-1.214 0.52007-1.6602 0.67969l-0.38281-1.1445 1.0215-1.0234h-1.3633zm0 0-0.47656 1.1934h-1.3652l1.0234 1.0234-0.39453 1.1836c-0.45316-0.15995-0.99533-0.39891-1.7188-0.71875-0.058532-0.29298-0.10149-0.58922-0.12891-0.88672-0.0022 3.728e-4 -0.00365 0.00159-0.00586 0.00195-0.017232-0.18444-0.032204-0.3726-0.039062-0.57031 0.23931-0.19132 0.63403-0.4744 1.1289-0.7207 0.037218-0.019267 0.075538-0.03843 0.11328-0.056641l0.00586-0.00195c0.24619-0.1153 0.51751-0.21841 0.80469-0.29688 0.024564-0.00683 0.049541-0.013127 0.074219-0.019531 0.00553-0.00112 0.01011-0.00281 0.015625-0.00391 0.11421-0.028639 0.23236-0.050946 0.35156-0.070312 0.052774-0.00866 0.10516-0.016672 0.1582-0.023438h0.00391c0.14691-0.017646 0.29646-0.033202 0.44921-0.033202zm0 2.8652 0.94727 0.59961c-0.68961 0.21083-1.2058 0.21599-1.875 0.017578zm-2.707 0.66406c2.6556 0.44664 2.6586 0.45131 0.74023 1.4961-0.28121-0.40898-0.54083-0.89548-0.74023-1.4961zm5.4141 0c-0.19931 0.60033-0.46114 1.0873-0.74219 1.4961-1.9749-1.0467-1.9755-1.0391 0.74219-1.4961zm-2.7305 0.87891c0.35678-4.691e-4 0.72281 0.42643 1.4473 1.2832-0.42052 0.43622-0.83847 0.72242-1.1504 0.89062-0.00661 0.0037-0.012905 8e-3 -0.019531 0.01172-0.014292 0.0074-0.028599 0.01421-0.042969 0.02149-0.070428 0.03632-0.13743 0.06892-0.19336 0.09375-0.00624 3e-3 -0.011325 0.0069-0.017578 0.0098-0.00625-3e-3 -0.013295-0.0068-0.019531-0.0098-0.055917-0.02483-0.12097-0.05743-0.19141-0.09375-0.014371-0.0073-0.028679-0.01407-0.042969-0.02149-0.00589-3e-3 -0.011708-0.0068-0.017578-0.0098-0.31205-0.16797-0.73086-0.45542-1.1523-0.89254 0.69477-0.8549 1.0436-1.2827 1.4004-1.2832z" fill="#fff"/>
 <path d="m17.498 8.6194c-0.29265-0.29266-1.1236-0.50692-2.174-0.50692-1.6096 0-3.7365 0.50169-5.2155 1.9806-2.451 2.4562-2.221 6.6579-1.4842 7.4 0.29265 0.29266 1.1236 0.50692 2.174 0.50692 1.6096 0 3.7365-0.5017 5.2155-1.9806 2.451-2.4562 2.221-6.6579 1.4842-7.4zm-6.6526 2.221c1.3796-1.3797 3.3185-1.6305 4.1964-1.6671-1.0713 0.49124-2.3308 1.2804-3.4543 2.4092-1.1288 1.1288-1.9179 2.3935-2.4091 3.4648 0.047033-1.296 0.45466-2.9997 1.6671-4.2069zm4.4316 4.4316c-1.3796 1.3797-3.3185 1.6305-4.1964 1.6671 1.0713-0.49124 2.3308-1.2804 3.4543-2.4092 1.1288-1.1288 1.9179-2.3935 2.4144-3.4648-0.05226 1.296-0.45988 2.9997-1.6723 4.2069z" fill="#fff" stroke-width=".5226"/>
</svg>
