<?xml version="1.0" encoding="UTF-8"?>
<svg width="17" height="17" version="1.1" viewBox="0 0 17 17" xmlns="http://www.w3.org/2000/svg">
 <rect width="17" height="17" fill="none"/>
 <rect x="1" y="1" width="15" height="15" rx="7.5" ry="7.5" fill="#8083cb" stroke="#8083cb" stroke-linejoin="round" stroke-width="2"/>
 <rect x="1" y="1" width="15" height="15" rx="7.5" ry="7.5" fill="#5d60be"/>
 <g transform="matrix(.80264 0 0 .80264 -.15193 .052391)" fill="#fff">
  <g transform="matrix(.52259 0 0 .52259 6.7903 6.7852)">
   <path d="m20.49 3.51c-0.56-0.56-2.15-0.97-4.16-0.97-3.08 0-7.15 0.96-9.98 3.79-4.69 4.7-4.25 12.74-2.84 14.16 0.56 0.56 2.15 0.97 4.16 0.97 3.08 0 7.15-0.96 9.98-3.79 4.69-4.7 4.25-12.74 2.84-14.16zm-12.73 4.25c2.64-2.64 6.35-3.12 8.03-3.19-2.05 0.94-4.46 2.45-6.61 4.61-2.16 2.16-3.67 4.58-4.61 6.63 0.09-2.48 0.87-5.74 3.19-8.05zm8.48 8.48c-2.64 2.64-6.35 3.12-8.03 3.19 2.05-0.94 4.46-2.45 6.61-4.61 2.16-2.16 3.67-4.58 4.62-6.63-0.1 2.48-0.88 5.74-3.2 8.05z"/>
  </g>
  <g stroke-width=".18182">
   <path d="m5.029 8.8894 0.42384 0.53862-0.36364 0.62984 0.7451-0.19965 0.5722 0.64528-0.054848-0.85045 0.78212-0.40922-0.84493-0.1729-0.19965-0.7451-0.36364 0.62984z"/>
   <path d="m5.6576 6.1115-0.58249-0.36118 0.12629-0.71622-0.63189 0.44245-0.75839-0.41066 0.34241 0.78041-0.59499 0.65204 0.85311-0.12651 0.44245 0.63188 0.12629-0.71622z"/>
   <path d="m4.996 6.7289-0.45684 0.51093-0.68341-0.24874 0.326 0.69912-0.53611 0.67556 0.82801-0.2017 0.53882 0.69918 0.023556-0.86212 0.69912-0.326-0.68341-0.24874z"/>
   <path d="m11.292 6.3082-0.67838 0.09774-0.36364-0.62984-0.19965 0.7451-0.84493 0.1729 0.76394 0.37773-0.03667 0.88195 0.5722-0.64528 0.7451 0.19965-0.36364-0.62984z"/>
   <path d="m7.0903 10.621 0.60404-0.32386 0.55712 0.46748-0.06723-0.76845 0.73484-0.45146-0.84706-0.093665-0.26719-0.8413-0.317 0.80207-0.76845 0.067231 0.55712 0.46748z"/>
   <path d="m10.316 9.4725-0.21405-0.6511 0.55712-0.46748-0.76845-0.067232-0.317-0.80207-0.23933 0.81793-0.87492 0.11704 0.73484 0.45146-0.067231 0.76845 0.55712-0.46748z"/>
   <path d="m5.9754 5.5304 0.25455-0.63636 0.72727-5e-7 -0.54546-0.54545 0.27273-0.81818-0.70909 0.47273-0.74546-0.47273 0.27273 0.81818-0.54545 0.54545 0.72727 3e-7z"/>
   <path d="m9.1197 3.989-0.02155 0.68505-0.68341 0.24874 0.69912 0.326 0.02356 0.86212 0.50465-0.68674 0.86218 0.18926-0.53612-0.67556 0.326-0.69912-0.68341 0.24874z"/>
   <path d="m6.7516 4.1627 0.6709 0.14017 0.12629 0.71622 0.44245-0.63188 0.85311 0.1265-0.58868-0.61623 0.3361-0.81622-0.7584 0.41066-0.63188-0.44245 0.12629 0.71622z"/>
  </g>
 </g>
</svg>
