<?xml version="1.0" encoding="UTF-8"?>
<svg width="17" height="17" version="1.1" viewBox="0 0 17 17" xmlns="http://www.w3.org/2000/svg">
 <rect width="17" height="17" fill="none"/>
 <rect x="1" y="1" width="15" height="15" rx="7.5" ry="7.5" fill="#8083cb" stroke="#8083cb" stroke-linejoin="round" stroke-width="2"/>
 <rect x="1" y="1" width="15" height="15" rx="7.5" ry="7.5" fill="#5d60be"/>
 <g transform="matrix(.12618 0 0 .12618 2.1909 2.1845)" fill="#fff">
  <path d="m80.7 55.6c-1.5 1.2-2.4 2-4.4 2-2.1 0-3-0.7-4.4-2-0.5-0.4-1.1-0.9-1.7-1.3v-40.6c0-2.5 2-4.5 4.5-4.5s4.5 2 4.5 4.5h6.7c0-6.2-5-11.2-11.2-11.2s-11.2 5-11.2 11.2v8.2h-27v-8.2c0-2.5 2-4.5 4.5-4.5s4.5 2 4.5 4.5h6.7c0-6.2-5-11.2-11.2-11.2s-11.2 5-11.2 11.2v40.6c-0.6 0.5-1.2 0.9-1.7 1.3-1.5 1.2-2.3 2-4.4 2s-2.9-0.7-4.4-2c-1.8-1.5-4.2-3.6-8.7-3.6v6.7c2.1 0 2.9 0.7 4.4 2 1.8 1.5 4.2 3.6 8.7 3.6s6.9-2.1 8.7-3.6c1.5-1.2 2.3-2 4.4-2s2.9 0.7 4.4 2c1.8 1.5 4.2 3.6 8.7 3.6s6.9-2.1 8.7-3.6c1.5-1.2 2.3-2 4.4-2s3 0.7 4.4 2c1.8 1.5 4.2 3.5 8.7 3.5s7-2.1 8.7-3.5c1.5-1.2 2.4-2 4.4-2v-6.7c-4.3 0-6.7 2.1-8.5 3.6zm-17.2-27v9.6h-27v-9.6zm-9.1 27c-1.5 1.2-2.3 2-4.4 2s-2.9-0.7-4.4-2c-1.8-1.5-4.2-3.6-8.7-3.6h-0.3v-7.2h26.9v7.2h-0.3c-4.6 0-7 2.1-8.8 3.6z"/>
  <path d="m76.3 74.2c-2.1 0-3-0.7-4.4-2-1.8-1.5-4.2-3.5-8.7-3.5s-6.9 2.1-8.7 3.6c-1.5 1.2-2.3 2-4.4 2s-2.9-0.7-4.4-2c-1.8-1.5-4.2-3.6-8.7-3.6s-6.9 2.1-8.7 3.6c-1.5 1.2-2.3 2-4.4 2s-2.9-0.7-4.4-2c-1.8-1.5-4.2-3.6-8.7-3.6v6.7c2.1 0 2.9 0.7 4.4 2 1.8 1.5 4.2 3.6 8.7 3.6s6.9-2.1 8.7-3.6c1.5-1.2 2.3-2 4.4-2s2.9 0.7 4.4 2c1.8 1.5 4.2 3.6 8.7 3.6s6.9-2.1 8.7-3.6c1.5-1.2 2.3-2 4.4-2s3 0.7 4.4 2c1.8 1.5 4.2 3.5 8.7 3.5s7-2.1 8.7-3.5c1.5-1.2 2.4-2 4.4-2v-6.7c-4.5 0-7 2.1-8.7 3.5-1.5 1.2-2.4 2-4.4 2z"/>
  <path d="m76.3 90.8c-2.1 0-3-0.7-4.4-2-1.8-1.5-4.2-3.6-8.7-3.6s-6.9 2.1-8.7 3.6c-1.5 1.2-2.3 2-4.4 2s-2.9-0.7-4.4-2c-1.8-1.5-4.2-3.6-8.7-3.6s-6.9 2.1-8.7 3.6c-1.5 1.2-2.3 2-4.4 2s-2.9-0.7-4.4-2c-1.8-1.5-4.2-3.6-8.7-3.6v6.8c2.1 0 2.9 0.7 4.4 2 1.8 1.5 4.2 3.6 8.7 3.6s6.9-2.1 8.7-3.6c1.5-1.2 2.3-2 4.4-2s2.9 0.7 4.4 2c1.8 1.5 4.2 3.6 8.7 3.6s6.9-2.1 8.7-3.6c1.5-1.2 2.3-2 4.4-2s3 0.7 4.4 2c1.8 1.5 4.2 3.6 8.7 3.6s7-2.1 8.7-3.6c1.5-1.2 2.4-2 4.4-2v-6.7c-4.5 0-7 2.1-8.7 3.6-1.5 1.1-2.4 1.9-4.4 1.9z"/>
 </g>
</svg>
