<svg width="17" height="17" version="1.1" viewBox="0 0 17 17" xmlns="http://www.w3.org/2000/svg"><rect width="17" height="17" fill="none"/><rect x="1" y="1" width="15" height="15" rx="7.5" ry="7.5" fill="#8083cb" stroke="#8083cb" stroke-linejoin="round" stroke-width="2"/><rect x="1" y="1" width="15" height="15" rx="7.5" ry="7.5" fill="#5d60be"/><g transform="matrix(.98124 0 0 .98124 .16229 .27105)" fill="#fff"><path d="m11.796 11.957c-0.2867-0.2047-0.58933-0.4409-0.89196-0.70859-0.2867-0.25195-0.58932-0.53538-0.89195-0.8503-0.2867-0.29918-0.60526-0.62986-0.90788-0.97627-0.30263-0.34642-0.60525-0.70859-0.90788-1.0865-0.30263-0.37791-0.60525-0.78733-0.90788-1.1967-0.30263-0.42516-0.60526-0.8503-0.90788-1.2912-0.55747-0.83456-1.1946-1.9998-1.2105-1.9998-0.063711-0.12597-0.22299-0.17321-0.35041-0.11022-0.095568 0.047239-0.14335 0.2047-0.079639 0.33068 0.015928 0.015747 0.11149 0.2047 0.27077 0.48814v5.4641c0 0.14172 0.11149 0.25195 0.25485 0.25195 0.14336 0 0.25485-0.11022 0.25485-0.25195v-4.5665c0.14335 0.2362 0.28669 0.45665 0.43005 0.67709 0.28669 0.42516 0.5734 0.83456 0.87603 1.244v4.5665c0 0.14172 0.11149 0.25195 0.25485 0.25195 0.14335 0 0.25485-0.11022 0.25485-0.25195v-3.8736c0.14335 0.18896 0.30263 0.39366 0.44597 0.56687 0.28669 0.36217 0.5734 0.70859 0.86009 1.0393v3.4013c0 0.14172 0.11149 0.25195 0.25485 0.25195s0.25485-0.11022 0.25485-0.25195v-2.8186c0.15928 0.17321 0.31855 0.33068 0.46191 0.48814 0.28669 0.28343 0.55747 0.55112 0.84417 0.80307v2.5195c0 0.14172 0.11149 0.25195 0.25485 0.25195 0.14336 0 0.25485-0.11022 0.25485-0.25195v-2.0785c0.1752 0.14172 0.33448 0.26769 0.49376 0.37791 0.82274 0.60518 1.2012 0.19162 0.33443-0.40959z" stroke="#5d60be" stroke-width=".3648"/><g transform="matrix(.91725 0 0 .90681 2.3303 -.75013)" stroke-width=".17365"><path d="m4.9417 6.2938c0.017365 0.034729 0.052094 0.052094 0.086824 0.086823l0.017365 0.017365c0.034729 0.017365 0.069459 0.034729 0.10419 0.034729h0.15628c0.034729-0.017365 0.069459-0.017365 0.10419-0.052094l0.81614-0.55567c0.034729-0.017365 0.069459-0.052094 0.086824-0.086823 0.069459-0.10419 0.069459-0.26047 0-0.36466l-0.13892-0.19101c0-0.017365 0.017365-0.017365 0.017365-0.034729l0.26047-0.5904c0.069459-0.13892 0-0.31256-0.15628-0.38202-0.13892-0.069459-0.31256 0-0.38202 0.15628l-0.12155 0.2952-0.22574-0.31256 0.24311-0.57304c0.069459-0.13892 0-0.31256-0.15628-0.38202-0.13892-0.069459-0.31256 0-0.38202 0.15628l-0.12155 0.27784c-0.034729-0.017365-0.069459-0.034729-0.10419-0.034729h-0.15628c-0.034729 0.017365-0.069459 0.017365-0.10419 0.052094l-0.78141 0.53831c-0.15628 0.10419-0.19101 0.31256-0.086824 0.46885z"/><path d="m5.619 6.7974c-0.069459 0.052094-0.12155 0.13892-0.13892 0.22574-0.017365 0.086824 0 0.17365 0.069459 0.24311l1.0766 1.4586c0.017365 0.034729 0.052094 0.052094 0.086824 0.086823 0 0 0.017365 0 0.017365 0.017365 0.034729 0.017365 0.069459 0.034729 0.10419 0.034729h0.13892c0.034729-0.017365 0.069459-0.034729 0.10419-0.052094l0.79878-0.5904c0.10419-0.086824 0.15628-0.22574 0.12155-0.34729-0.017365-0.034729-0.034729-0.086824-0.052094-0.12155l-0.10419-0.13892c0-0.017365 0.017365-0.017365 0.017365-0.034729l0.26047-0.5904c0.069459-0.13892 0-0.31256-0.15628-0.38202-0.13892-0.069459-0.31256 0-0.38202 0.15628l-0.13892 0.32993-0.22574-0.31256v-0.017365l0.26047-0.5904c0.069459-0.13892 0-0.31256-0.15628-0.38202-0.13892-0.069459-0.31256 0-0.38202 0.15628l-0.13892 0.31256c-0.017365-0.017365-0.034729-0.017365-0.052094-0.034729 0 0-0.017365 0-0.017365-0.017365-0.034729-0.017365-0.069459-0.034729-0.10419-0.034729h-0.13892c-0.034729 0.017365-0.069459 0.034729-0.10419 0.052094z"/><path d="m7.3554 9.159c-0.13892 0.12155-0.15628 0.34729-0.034729 0.48621l1.6323 1.9101c0.017365 0.03473 0.052094 0.05209 0.086824 0.05209h0.034729c0.017365 0 0.034729 0.01736 0.052094 0.01736s0.034729 0 0.069459-0.01736h0.034729c0.034729-0.01736 0.052094-0.03473 0.086823-0.05209 0.46885-0.55567 0.52094-1.3718 0.10419-1.9796l0.20838-0.48621c0.069459-0.13892 0-0.31256-0.15628-0.38202-0.13892-0.069459-0.31256 0-0.38202 0.15628l-0.10419 0.19101-0.24311-0.27784 0.22574-0.52094c0.069459-0.13892 0-0.31256-0.15628-0.38202-0.13892-0.069459-0.31256 0-0.38202 0.15628l-0.17365 0.41675h-0.069458c-0.034729 0.017365-0.086824 0.034729-0.12155 0.069459z"/></g></g></svg>
