<?xml version="1.0" encoding="UTF-8"?>
<svg width="21" height="21" version="1.1" viewBox="0 0 21 21" xmlns="http://www.w3.org/2000/svg">
 <rect width="21" height="21" fill="none"/>
 <rect x="1" y="1" width="19" height="19" rx="9.5" ry="9.5" fill="#8083cb" stroke="#8083cb" stroke-linejoin="round" stroke-width="2"/>
 <rect x="1" y="1" width="19" height="19" rx="9.5" ry="9.5" fill="#5d60be"/>
 <g transform="matrix(.93333 0 0 .93333 .7 .7)" fill="#fff">
  <ellipse transform="rotate(-47.878)" cx="6.0105" cy="12.968" rx="1.2468" ry="1.2311" stroke-width=".15783"/>
  <path d="m9.6156 8.8616c0.015783 0.063132 0.047349 0.12626 0.078916 0.1894l-1.1364-0.67867c-0.17361-0.11048-0.41036-0.047349-0.50506 0.12626-0.11048 0.17361-0.047349 0.41036 0.12626 0.50506l0.89964 0.53663-0.55241 0.91542-0.89964-0.53663c-0.17361-0.11048-0.41036-0.047349-0.50506 0.12627-0.11048 0.17361-0.047349 0.41036 0.12626 0.50506l6.8814 4.1667c0.56819 0.34723 1.2626 0.36301 1.8466 0.04735 0.58398-0.31566 0.94699-0.89964 0.97855-1.5625l0.03157-0.8365c0.01578-0.20518-0.15783-0.37879-0.36301-0.39458-0.20518-0.01578-0.37879 0.15783-0.39458 0.36301l-0.03157 0.66289-0.96277-0.59976c0.26831-0.17361 0.36301-0.53662 0.22096-0.82072l-1.1837-2.3517c-0.094699-0.1894-0.2841-0.33145-0.48928-0.34723-0.58398-0.078916-1.1995-0.17361-1.7204-0.23675l0.72602-1.3258c0.12626 0.17361 0.25253 0.36301 0.34723 0.50506 0.06313 0.078915 0.14205 0.15783 0.22096 0.20518l1.2784 0.64711c0.2841 0.14205 0.64711 0.031566 0.78916-0.25253 0.14205-0.2841 0.03157-0.64711-0.25253-0.78916l-1.1364-0.56819c-0.23675-0.34723-0.77337-1.1206-1.1995-1.4363l-0.22096-0.17361c-0.22096-0.17361-0.48928-0.23675-0.77337-0.17361-0.26831 0.047349-0.50506 0.22096-0.64711 0.45771l-1.4836 2.4464c-0.12626 0.20518-0.15783 0.44193-0.094699 0.67867zm3.2829 4.2457-3.7564-2.2728 0.55241-0.91542 3.7564 2.2728zm3.1093 0.63132c-0.0947 0.15783-0.23675 0.2841-0.41036 0.36301-0.34723 0.1894-0.77337 0.17361-1.1048-0.03157l-0.96277-0.58398 0.55241-0.91542zm-2.7463-3.6301 0.78916 1.5783-3.204-1.9255c0.3788 0.063133 1.0733 0.15783 2.4148 0.34723z" stroke-width=".15783"/>
  <path d="m16.797 17.306-12.216-7.3707c-0.25253-0.15783-0.56819 0.031566-0.56819 0.31566v7.3707c0 0.20518 0.17361 0.37879 0.37879 0.37879h12.216c0.3788 0 0.50506-0.50506 0.1894-0.69446z" stroke-width=".15783"/>
 </g>
</svg>
