<?xml version="1.0" encoding="UTF-8"?>
<svg width="17" height="17" version="1.1" viewBox="0 0 17 17" xmlns="http://www.w3.org/2000/svg">
 <defs>
  <filter id="filter852" x="-1.427e-6" y="-1.0353e-6" width="1" height="1" color-interpolation-filters="sRGB">
   <feGaussianBlur stdDeviation="3.8945312e-05"/>
  </filter>
 </defs>
 <rect width="17" height="17" fill="none"/>
 <rect x="1" y="1" width="15" height="15" rx="7.5" ry="7.5" fill="#bbb" stroke="#bbb" stroke-linejoin="round" stroke-width="2"/>
 <rect x="1" y="1" width="15" height="15" rx="7.5" ry="7.5" fill="#fff"/>
 <g transform="matrix(.13292 0 0 .13292 1.8541 1.8354)" fill="#755e55" filter="url(#filter852)">
  <path d="m32.692 11.037c0-3.3344 7.7489-6.0375 17.308-6.0375 9.5588 0 17.308 2.7031 17.308 6.0375v10.157c0 3.3344-7.7489 6.0375-17.308 6.0375-9.5588 0-17.308-2.7031-17.308-6.0375z"/>
  <path d="m67.283 75.7c0 3.414-7.5885 6.5038-17.134 6.5038-9.545 0-17.283-3.0898-17.432-6.5038 0 0-0.02085-30.412-0.02503-45.618 0 3.3344 7.7489 6.0375 17.308 6.0375 9.5588 0 17.308-2.7031 17.308-6.0375z"/>
  <path d="m32.719 55.188c-1.951 0.78831-3.7824 1.7119-5.4375 2.75-2.9586 1.8556-5.3905 4.0691-7.1562 6.6875-1.7658 2.6184-2.875 5.7246-2.875 9.0312 0 3.3067 1.1092 6.3816 2.875 9 1.7658 2.6185 4.1976 4.863 7.1562 6.7188 5.9173 3.7113 13.906 5.9062 22.719 5.9062s16.801-2.195 22.719-5.9062c2.9586-1.8557 5.3905-4.1002 7.1562-6.7188 1.7658-2.6184 2.875-5.6933 2.875-9 0-3.3066-1.1092-6.4128-2.875-9.0312-1.7658-2.6184-4.1976-4.8319-7.1562-6.6875-1.6551-1.0381-3.4852-1.9617-5.4375-2.75v4.3125c1.5055 0.65026 2.9145 1.3578 4.1875 2.1562 2.6932 1.6892 4.7925 3.6814 6.1875 5.75 1.395 2.0687 2.0625 4.1474 2.0625 6.25s-0.66746 4.15-2.0625 6.2188-3.4943 4.0608-6.1875 5.75c-5.3863 3.3783-13.033 5.5625-21.469 5.5625-8.436 0-16.082-2.1842-21.469-5.5625-2.6932-1.6892-4.7925-3.6813-6.1875-5.75-1.395-2.0687-2.0625-4.1162-2.0625-6.2188s0.66746-4.1813 2.0625-6.25c1.395-2.0686 3.4943-4.0608 6.1875-5.75 1.273-0.79844 2.683-1.506 4.1875-2.1562-9.53e-4 -1.4987 0.0011-2.5981 0-4.3125z" color="#000000" overflow="visible" style="text-indent:0;text-transform:none"/>
 </g>
</svg>
