<?xml version="1.0" encoding="UTF-8"?>
<svg width="17" height="17" version="1.1" viewBox="0 0 17 17" xmlns="http://www.w3.org/2000/svg">
 <rect width="17" height="17" fill="none"/>
 <rect x="1" y="1" width="15" height="15" rx="7.5" ry="7.5" fill="#bbb" stroke="#bbb" stroke-linejoin="round" stroke-width="2"/>
 <rect x="1" y="1" width="15" height="15" rx="7.5" ry="7.5" fill="#fff"/>
 <path d="m4.8913 13.989c-0.20884-0.030434-0.42649-0.12336-0.59646-0.25473-0.2682-0.20728-0.43781-0.50966-0.47671-0.84988-0.00777-0.06791-0.01034-1.298-0.00792-3.7499 0.00367-3.475 0.0044-3.6529 0.02398-3.7331 0.10679-0.44267 0.41646-0.78324 0.84211-0.92613 0.19507-0.065487 0.074925-0.062993 2.8195-0.05896 2.7568 0.0044 2.5379-0.00147 2.7395 0.067907 0.4232 0.14538 0.74724 0.52235 0.82697 0.96207 0.01811 0.099719 0.02743 7.3037 0.0096 7.4399-0.07632 0.58465-0.52097 1.0326-1.0948 1.1029-0.1234 0.01511-4.9819 0.01503-5.0858-6.6e-5zm3.3352-1.3402c0.30972-0.05926 0.4793-0.301 0.39828-0.56774-0.02163-0.07128-0.03395-0.091-0.094519-0.15157-0.07106-0.07106-0.15266-0.11949-0.28583-0.16962-0.16116-0.06065-0.22652-0.10862-0.22652-0.16623 0-0.097 0.11358-0.14497 0.28154-0.11892 0.04517 0.0073 0.11133 0.02457 0.147 0.03894 0.05779 0.02332 0.06549 0.0242 0.07033 8e-3 0.03703-0.12334 0.07223-0.26417 0.06783-0.2713-0.00887-0.0143-0.13892-0.05383-0.21864-0.06644-0.42486-0.06703-0.7513 0.15715-0.70677 0.48535 0.022367 0.16501 0.13733 0.27556 0.39469 0.37963 0.15634 0.06321 0.20409 0.09558 0.22224 0.15059 0.01804 0.05456-0.01173 0.1156-0.0704 0.14425-0.08434 0.04121-0.27589 0.02281-0.43605-0.04187l-0.06439-0.02604-0.036153 0.14545c-0.0407 0.16369-0.044587 0.15044 0.055293 0.1883 0.13905 0.05273 0.34674 0.06893 0.50205 0.03923zm1.1564 0c0.17897-0.03425 0.31077-0.12578 0.37814-0.26262 0.03329-0.06769 0.03637-0.08296 0.03637-0.18082 0-0.09393-0.0037-0.11453-0.03095-0.16987-0.05624-0.11457-0.17442-0.20364-0.36567-0.27562-0.16115-0.06065-0.22651-0.10862-0.22651-0.16623 0-0.097 0.11358-0.14497 0.28154-0.11892 0.045166 0.0073 0.11133 0.02457 0.147 0.03894 0.05779 0.02332 0.06541 0.0242 0.07033 8e-3 0.03703-0.12334 0.07223-0.26417 0.06783-0.2713-0.0096-0.0154-0.1416-0.05449-0.22987-0.06798-0.046486-0.0073-0.13201-0.01012-0.19086-0.0066-0.30889 0.01775-0.50624 0.18641-0.50843 0.43452-7.331e-4 0.11093 0.03769 0.20083 0.11967 0.2783 0.073975 0.06989 0.12929 0.10162 0.28624 0.16419 0.07018 0.02801 0.14432 0.06358 0.16469 0.07915 0.080927 0.06175 0.072237 0.16248-0.017963 0.20851-0.087978 0.04488-0.27211 0.02875-0.43837-0.03843l-0.064395-0.02603-0.03615 0.14545c-0.0407 0.16369-0.04459 0.15044 0.05529 0.1883 0.13905 0.05273 0.34674 0.06893 0.50205 0.03923zm-3.9361-0.25989v-0.25408l0.03872 0.0066c0.06556 0.01067 0.24927-0.01247 0.33433-0.04202 0.21494-0.07475 0.32303-0.22462 0.32303-0.44791 0-0.21892-0.1016-0.36084-0.30875-0.43125-0.088462-0.03007-0.09391-0.03051-0.35928-0.02926-0.14821 7.19e-4 -0.29472 0.0059-0.32559 0.01122l-0.0561 0.0099-0.00293 0.71561-0.00293 0.7156h0.35944zm0.03652-0.52904-0.03652-0.0044v-0.39154h0.09867c0.15527 0 0.23408 0.0517 0.24647 0.16165 0.011073 0.09816-0.046347 0.19137-0.13435 0.21809-0.04642 0.01408-0.12687 0.02149-0.17431 0.01599zm1.0489 0.64278c0.020606-0.0741 0.04268-0.15379 0.049133-0.17709l0.011733-0.04239 0.38496 0.0058 0.05192 0.17402 0.05192 0.17403 0.19429 0.0029c0.17025 0.0029 0.19348 7.34e-4 0.18773-0.01401-0.00513-0.01364-0.41855-1.3378-0.44086-1.4123-0.00513-0.01826-0.023907-0.01965-0.23225-0.01687l-0.2263 3e-3 -0.21607 0.70732c-0.11884 0.38903-0.21619 0.71376-0.21635 0.72163-2.2e-4 0.01115 0.039893 0.01364 0.18127 0.01122l0.18154-0.0029zm0.13987-0.5754c0.01232-0.04165 0.041286-0.15021 0.06446-0.24116l0.042167-0.16538 0.06512 0.22713c0.03586 0.12492 0.06754 0.23345 0.0704 0.24117 0.00367 0.01067-0.0264 0.01401-0.12959 0.01401h-0.13487zm1.1774-1.2765c0.48024-0.06468 0.93146-0.26766 1.301-0.58529 0.79375-0.68216 1.0748-1.7958 0.70103-2.7779-0.22015-0.57854-0.66668-1.07-1.2226-1.3456-0.23491-0.11646-0.45989-0.18856-0.72893-0.23361-0.18965-0.031753-0.60142-0.029113-0.79153 0.0051333-0.546 0.098098-1.0089 0.34259-1.3841 0.73113-0.36636 0.37932-0.59456 0.84107-0.67746 1.3708-0.028013 0.17906-0.028013 0.53985 8.08e-5 0.71855 0.13116 0.83555 0.63153 1.5186 1.3823 1.8871 0.28794 0.14131 0.5757 0.21821 0.93748 0.25054 0.086116 0.0077 0.35905-0.0037 0.48278-0.02061zm-0.50234-0.20786c-0.25901-0.09322-0.494-0.37686-0.66739-0.80557-0.036373-0.08987-0.06424-0.16527-0.061893-0.16757 0.0022-0.0022 0.076993-0.01643 0.166-0.03139 0.15888-0.02669 0.31212-0.04319 0.52953-0.05698l0.10947-0.0066v0.5452c0 0.29987-0.00367 0.54502-0.00844 0.5448-0.0044-2.2e-4 -0.034907-0.01001-0.067247-0.02156zm0.27779-0.52345c0-0.54163 8.8e-5 -0.54362 0.023173-0.54362 0.13582 0 0.57439 0.0484 0.71547 0.079002 0.06923 0.01503 0.06952 3.59e-4 -0.0037 0.18105-0.11165 0.27486-0.22493 0.45556-0.38602 0.61578-0.10837 0.10779-0.20921 0.17356-0.30662 0.2l-0.042093 0.01144zm-0.85328 0.42682c-0.24185-0.081309-0.52112-0.23819-0.71742-0.40298-0.095509-0.08018-0.22142-0.20515-0.2138-0.2122 0.00293-0.0022 0.068127-0.03241 0.14531-0.06644 0.13617-0.05999 0.37726-0.14288 0.41554-0.14288 0.013713 0 0.030507 0.03153 0.061233 0.11508 0.093896 0.25517 0.25132 0.53332 0.38762 0.68487 0.0319 0.03549 0.0539 0.06446 0.048767 0.06439-0.00513-1.01e-4 -0.062333-0.01804-0.1272-0.03982zm1.3993-0.0077c0.14801-0.15521 0.2979-0.41595 0.40339-0.70171 0.03256-0.08821 0.04723-0.11508 0.06292-0.11508 0.05691 0 0.4948 0.16478 0.54606 0.20547 0.01137 9e-3 -0.0022 0.02904-0.06175 0.08921-0.16707 0.16961-0.37679 0.31653-0.61204 0.42874-0.1326 0.06329-0.33759 0.14108-0.3716 0.14108-0.0066 0 0.00799-0.02149 0.033-0.04774zm-2.5599-0.88696c-0.21969-0.33116-0.34828-0.69865-0.38303-1.0947l-0.00733-0.0814h0.99636l0.01364 0.19929c0.017307 0.2527 0.0385 0.4139 0.082398 0.62592 0.048913 0.23607 0.051407 0.2189-0.03564 0.24427-0.17537 0.05111-0.48116 0.17321-0.54382 0.2171-0.012393 0.0086-0.026253 0.01577-0.030726 0.01577-0.0044 0-0.045907-0.05683-0.091997-0.1263zm3.6306 0.07997c-0.10587-0.055-0.28495-0.12574-0.43787-0.17302-0.13782-0.04261-0.13028-0.0231-0.086673-0.22413 0.04319-0.19909 0.073645-0.42322 0.08888-0.654l0.01349-0.2049h0.99735l-0.0073 0.07579c-0.03601 0.37119-0.1348 0.68694-0.30588 0.97764-0.067914 0.11537-0.16093 0.24978-0.17139 0.24764-0.00374-7.18e-4 -0.044286-0.02097-0.090585-0.04503zm-2.694-0.2979c-0.05786-0.20402-0.12361-0.67789-0.124-0.89358l-1.173e-4 -0.06453h0.99924v0.44909c0 0.42016-0.00147 0.44911-0.019653 0.44927-0.19787 0.0015-0.65412 0.05544-0.81564 0.095972-0.024493 0.0059-0.028967 0.0022-0.03982-0.03623zm1.8102 0.01811c-0.13643-0.02684-0.35205-0.05383-0.49155-0.06153-0.06175-0.0037-0.14391-0.00895-0.18258-0.01225l-0.070326-0.0059 0.00293-0.44538 0.00293-0.44538 0.9969-0.0058-0.00785 0.1545c-0.0044 0.084972-0.01789 0.23281-0.03007 0.32851-0.02559 0.20046-0.089144 0.508-0.10567 0.51149-0.0059 0.0015-0.05779-0.0066-0.11472-0.01797zm-3.13-1.2541c0.042533-0.4365 0.19023-0.83982 0.42475-1.1601l0.045907-0.062626 0.12397 0.058593c0.13457 0.063653 0.32811 0.13696 0.44395 0.16825 0.040113 0.010857 0.077161 0.023393 0.082266 0.027867 0.00513 0.0044-0.00587 0.078268-0.024347 0.16393-0.05324 0.24669-0.082947 0.47094-0.09826 0.74238l-0.00777 0.13753h-0.99785zm1.1999-0.061746c0.014374-0.26114 0.06974-0.64042 0.11953-0.81855l0.01144-0.041067 0.065486 0.015253c0.12416 0.028967 0.37803 0.061234 0.58801 0.074815l0.21051 0.013567v0.89345h-1.0026zm1.1971-0.31022v-0.44775l0.13192-0.00741c0.18877-0.01056 0.42456-0.037544 0.58388-0.066804l0.1376-0.0253 0.01137 0.039967c0.05735 0.20176 0.12278 0.67207 0.12313 0.88483l1.167e-4 0.070176h-0.98801zm1.1859 0.30379c-0.01423-0.26987-0.04664-0.50827-0.10365-0.76372-0.01562-0.070033-0.02684-0.12891-0.02486-0.13079 0.0022-0.0022 0.089291-0.031973 0.19401-0.06688 0.10473-0.034907 0.25173-0.092789 0.32668-0.12864l0.13628-0.065193 0.066297 0.093918c0.21968 0.31129 0.36691 0.72127 0.40358 1.1239l0.0075 0.081392h-0.99824zm-1.6989-0.97344c-0.21489-0.019507-0.49744-0.064093-0.49744-0.07854 0-0.00147 0.022-0.058006 0.048987-0.12498 0.13628-0.33892 0.30608-0.5961 0.48069-0.72806 0.080072-0.0605 0.21458-0.12913 0.25313-0.12913h0.025593v1.0778l-0.075782-0.00146c-0.041654-7.29e-4 -0.1475-0.00785-0.23515-0.015769zm0.5018-0.5218v-0.53891h0.025593c0.037253 0 0.17148 0.067687 0.25081 0.12649 0.12812 0.094967 0.29326 0.31386 0.39232 0.52002 0.05625 0.117 0.14175 0.33193 0.13484 0.33884-0.02574 0.02574-0.5621 0.092474-0.74343 0.092474h-0.060133zm-1.3248 0.36657c-0.18867-0.05852-0.44909-0.1668-0.44909-0.18666 0-0.013273 0.15861-0.16136 0.25262-0.23591 0.19582-0.1553 0.44016-0.28965 0.67243-0.36974 0.07304-0.025227 0.1351-0.045833 0.13789-0.045833 0.00293 0-0.022733 0.03278-0.056687 0.07282-0.16501 0.1945-0.29339 0.42536-0.38931 0.70003-0.0198 0.056614-0.039087 0.10268-0.042973 0.1024-0.00367-2.786e-4 -0.06006-0.01694-0.1249-0.037107zm2.2865-0.083659c-0.089833-0.24987-0.25219-0.53786-0.38894-0.6899-0.0319-0.035493-0.05639-0.06446-0.05434-0.064387 0.01467 6.673e-4 0.18855 0.059767 0.26193 0.089042 0.25377 0.10121 0.54516 0.29473 0.7354 0.48843 0.05933 0.060426 0.06981 0.076296 0.0561 0.084978-0.04393 0.027793-0.26601 0.11906-0.38173 0.15681-0.20459 0.066733-0.17841 0.07417-0.22844-0.064973zm2.7882 6.1298c0.04275-0.10045 0.07374-0.22208 0.0894-0.35086 0.0095-0.07801 0.01188-1.0581 0.0091-3.7378-0.0037-3.4619-0.0044-3.636-0.02406-3.7163-0.067224-0.27818-0.18099-0.48025-0.37296-0.66256-0.20063-0.19054-0.43647-0.30147-0.71529-0.33642-0.0594-0.00748-0.83646-0.01144-2.2155-0.01144h-2.124l0.00587-0.0253c0.058076-0.25829 0.17846-0.47535 0.36079-0.65069 0.20439-0.19656 0.43807-0.3095 0.71732-0.34673 0.16309-0.021707 0.28502-0.0077 0.9238 0.10627 0.9429 0.16824 3.0163 0.53709 3.6096 0.64214 0.29641 0.052507 0.57859 0.10551 0.62707 0.11785 0.57018 0.1451 0.96901 0.68892 0.93382 1.2733-0.0059 0.10299-0.13095 0.70379-0.75949 3.6578-0.41363 1.944-0.76507 3.5735-0.78097 3.6211-0.05097 0.15257-0.11839 0.27323-0.23142 0.41428-0.07655 0.09552-0.09193 0.09707-0.05287 0.0051z" fill="#755e55" stroke-width=".011227"/>
</svg>
