<?xml version="1.0" encoding="UTF-8"?>
<svg width="21" height="21" version="1.1" viewBox="0 0 21 21" xmlns="http://www.w3.org/2000/svg">
 <rect width="21" height="21" fill="none"/>
 <rect x="1" y="1" width="19" height="19" rx="9.5" ry="9.5" fill="#bbb" stroke="#bbb" stroke-linejoin="round" stroke-width="2"/>
 <rect x="1" y="1" width="19" height="19" rx="9.5" ry="9.5" fill="#fff"/>
 <path d="m5.9071 17.486c-0.2658-0.038734-0.5428-0.15701-0.75913-0.3242-0.34135-0.26381-0.55721-0.64866-0.60672-1.0817-0.00989-0.08643-0.01316-1.652-0.01008-4.7726 0.00467-4.4227 0.0056-4.6492 0.03052-4.7512 0.13591-0.5634 0.53004-0.99685 1.0718-1.1787 0.24828-0.083347 0.095359-0.080173 3.5885-0.07504 3.5086 0.0056 3.23-0.00187 3.4866 0.086427 0.53862 0.18502 0.95103 0.66482 1.0525 1.2245 0.02305 0.12692 0.03491 9.2956 0.01223 9.4689-0.09713 0.7441-0.66305 1.3142-1.3934 1.4037-0.15706 0.01923-6.3406 0.01913-6.4728-8.4e-5zm4.2448-1.7057c0.39418-0.07541 0.61002-0.38309 0.5069-0.72258-0.02753-0.09072-0.04321-0.11583-0.1203-0.1929-0.09044-0.09044-0.19429-0.15208-0.36379-0.21588-0.20511-0.07719-0.2883-0.13824-0.2883-0.21157 0-0.12345 0.14455-0.18451 0.35833-0.15135 0.05749 0.0093 0.14169 0.03127 0.18709 0.04956 0.07355 0.02968 0.08335 0.0308 0.08951 0.01015 0.04713-0.15698 0.09193-0.33622 0.08633-0.3453-0.01129-0.0182-0.1768-0.06851-0.27827-0.08456-0.54073-0.08531-0.9562 0.2-0.89952 0.61772 0.028467 0.21001 0.17479 0.35071 0.50233 0.48316 0.19898 0.08045 0.25975 0.12164 0.28285 0.19166 0.02296 0.06944-0.01493 0.14713-0.0896 0.18359-0.10734 0.05245-0.35114 0.02903-0.55497-0.05329l-0.081947-0.03313-0.046013 0.18512c-0.0518 0.20833-0.056747 0.19147 0.070373 0.23966 0.17698 0.06711 0.44131 0.08773 0.63897 0.04993zm1.4718 0c0.22778-0.04359 0.39553-0.16009 0.48126-0.33424 0.04237-0.08615 0.04629-0.10558 0.04629-0.23013 0-0.11955-0.0047-0.14577-0.03939-0.2162-0.07159-0.14582-0.222-0.25918-0.46541-0.3508-0.2051-0.07719-0.28829-0.13824-0.28829-0.21157 0-0.12345 0.14456-0.18451 0.35833-0.15135 0.05749 0.0093 0.14169 0.03127 0.18709 0.04956 0.07355 0.02968 0.08325 0.0308 0.08951 0.01015 0.04713-0.15698 0.09193-0.33622 0.08633-0.3453-0.01213-0.0196-0.18022-0.06935-0.29256-0.08652-0.05917-0.0093-0.16802-0.01288-0.24292-0.0084-0.39313 0.02259-0.6443 0.23725-0.64709 0.55302-9.33e-4 0.14119 0.04797 0.2556 0.15231 0.3542 0.09415 0.08895 0.16456 0.12933 0.36431 0.20897 0.08932 0.03565 0.18368 0.08092 0.20961 0.10073 0.103 0.07859 0.09193 0.20679-0.02287 0.26538-0.11197 0.05712-0.34632 0.03659-0.55792-0.04891l-0.08195-0.03313-0.04601 0.18512c-0.0518 0.20833-0.05675 0.19147 0.07037 0.23966 0.17698 0.06711 0.4413 0.08773 0.63897 0.04993zm-5.0095-0.33076v-0.32337l0.04928 0.0084c0.08344 0.01353 0.31725-0.01587 0.42551-0.05348 0.27356-0.09513 0.41113-0.28588 0.41113-0.57007 0-0.27862-0.12931-0.45925-0.39295-0.54887-0.11259-0.03827-0.11952-0.03883-0.45726-0.03724-0.18863 9.15e-4 -0.3751 0.0075-0.41439 0.01428l-0.0714 0.0126-0.00373 0.91078-0.00373 0.91077h0.45747zm0.04648-0.67332-0.04648-0.0056v-0.49832h0.12558c0.19762 0 0.29792 0.0658 0.31369 0.20574 0.014093 0.12494-0.058987 0.24356-0.17099 0.27757-0.05908 0.01792-0.16147 0.02735-0.22184 0.02035zm1.3349 0.81809c0.026227-0.09431 0.05432-0.19574 0.062533-0.22539l0.014933-0.05395 0.48995 0.0074 0.06608 0.22148 0.06608 0.22149 0.24728 0.0037c0.21668 0.0037 0.24624 9.34e-4 0.23892-0.01783-0.00653-0.01736-0.5327-1.7026-0.56109-1.7975-0.00653-0.02324-0.030427-0.02501-0.29559-0.02147l-0.28802 0.0037-0.275 0.90023c-0.15125 0.49512-0.27516 0.90842-0.27535 0.91844-2.8e-4 0.01419 0.050773 0.01736 0.2307 0.01428l0.23106-0.0037zm0.17802-0.73233c0.01568-0.05301 0.052547-0.19118 0.08204-0.30694l0.053667-0.21049 0.08288 0.28907c0.04564 0.15899 0.08596 0.29712 0.0896 0.30695 0.00467 0.01363-0.0336 0.01783-0.16494 0.01783h-0.17166zm1.4985-1.6246c0.61121-0.08232 1.1855-0.34066 1.6559-0.74492 1.0102-0.8682 1.3679-2.2855 0.89222-3.5355-0.2802-0.73632-0.8485-1.3618-1.5561-1.7126-0.29898-0.14822-0.58531-0.23999-0.92773-0.29732-0.24138-0.040413-0.76544-0.037053-1.0074 0.0065333-0.69492 0.12485-1.284 0.43603-1.7616 0.93053-0.46628 0.48278-0.75671 1.0705-0.86222 1.7446-0.035653 0.22789-0.035653 0.68708 1.027e-4 0.91452 0.16694 1.0634 0.80376 1.9328 1.7593 2.4017 0.36647 0.17985 0.73271 0.27772 1.1932 0.31888 0.1096 0.0098 0.45697-0.0047 0.61444-0.02623zm-0.63934-0.26455c-0.32965-0.11865-0.62873-0.47964-0.8494-1.0253-0.046293-0.11438-0.08176-0.21034-0.078773-0.21327 0.0028-0.0028 0.097991-0.02091 0.21127-0.03995 0.20221-0.03397 0.39725-0.05497 0.67395-0.07252l0.13932-0.0084v0.69389c0 0.38165-0.00467 0.69366-0.010733 0.69338-0.0056-2.8e-4 -0.044427-0.01269-0.085587-0.02744zm0.35355-0.6662c0-0.68935 1.12e-4 -0.69188 0.029493-0.69188 0.17286 0 0.73104 0.0616 0.9106 0.10055 0.08811 0.01913 0.08848 4.57e-4 -0.0047 0.23042-0.14211 0.34982-0.28628 0.57981-0.4913 0.78372-0.13793 0.13719-0.26627 0.2209-0.39025 0.25454l-0.053573 0.01456zm-1.086 0.54323c-0.3078-0.10348-0.66325-0.30315-0.91308-0.51289-0.12156-0.10205-0.28181-0.2611-0.27211-0.27007 0.00373-0.0028 0.086707-0.04125 0.18494-0.08456 0.17331-0.07635 0.48015-0.18185 0.52887-0.18185 0.017453 0 0.038827 0.04013 0.077933 0.14647 0.1195 0.32476 0.31986 0.67878 0.49333 0.87165 0.0406 0.04517 0.0686 0.08204 0.062067 0.08195-0.00653-1.3e-4 -0.079333-0.02296-0.1619-0.05068zm1.781-0.0098c0.18838-0.19754 0.37915-0.52939 0.51341-0.89309 0.04144-0.11227 0.06011-0.14647 0.08008-0.14647 0.07243 0 0.62975 0.20972 0.69499 0.26151 0.01447 0.01143-0.0028 0.03696-0.07859 0.11354-0.21263 0.21587-0.47955 0.40286-0.77896 0.54567-0.16876 0.08055-0.42966 0.17955-0.47294 0.17955-0.0084 0 0.01017-0.02735 0.042-0.06076zm-3.2581-1.1289c-0.2796-0.42148-0.44326-0.88919-0.48749-1.3932l-0.00933-0.1036h1.2681l0.01736 0.25364c0.022027 0.32162 0.049 0.52678 0.10487 0.79663 0.062253 0.30046 0.065427 0.2786-0.04536 0.31089-0.2232 0.06505-0.61238 0.22044-0.69213 0.2763-0.015773 0.01101-0.033413 0.02007-0.039107 0.02007-0.0056 0-0.058427-0.07233-0.11709-0.16075zm4.6207 0.10178c-0.13474-0.07-0.36267-0.16003-0.55729-0.2202-0.17541-0.05423-0.16581-0.0294-0.11031-0.28526 0.05497-0.25339 0.09373-0.53865 0.11312-0.83236l0.01717-0.26078h1.2694l-0.0093 0.09646c-0.04583 0.47242-0.17157 0.87428-0.3893 1.2443-0.08643 0.14683-0.20482 0.3179-0.21813 0.31518-0.0047-9.14e-4 -0.05637-0.02669-0.11529-0.05731zm-3.4287-0.37914c-0.07364-0.25966-0.15732-0.86277-0.15782-1.1373l-1.493e-4 -0.08213h1.2718v0.57158c0 0.53475-0.00187 0.57159-0.025013 0.5718-0.25183 0.0019-0.83252 0.07056-1.0381 0.12214-0.031173 0.0075-0.036867 0.0028-0.05068-0.04611zm2.3038 0.02305c-0.17364-0.03416-0.44807-0.06851-0.62561-0.07831-0.078587-0.0047-0.18316-0.01139-0.23237-0.01559l-0.089507-0.0075 0.00373-0.56685 0.00373-0.56684 1.2688-0.0074-0.01 0.19664c-0.0056 0.10815-0.02277 0.2963-0.03827 0.41811-0.03257 0.25513-0.11346 0.64654-0.13449 0.65098-0.0075 0.0019-0.07355-0.0084-0.14601-0.02287zm-3.9836-1.5962c0.054133-0.55554 0.24212-1.0689 0.54059-1.4765l0.058427-0.079707 0.15778 0.074573c0.17127 0.081013 0.41759 0.17432 0.56502 0.21414 0.051053 0.013813 0.098205 0.029773 0.1047 0.035467 0.00653 0.0056-0.00747 0.099615-0.030987 0.20864-0.06776 0.31396-0.10557 0.59938-0.12506 0.94485l-0.00989 0.17504h-1.27zm1.5272-0.078587c0.018293-0.33236 0.08876-0.81508 0.15213-1.0418l0.01456-0.052267 0.083347 0.019413c0.15802 0.036867 0.48113 0.077933 0.74838 0.095219l0.26792 0.017267v1.1371h-1.276zm1.5236-0.39482v-0.56986l0.1679-0.00943c0.24025-0.013437 0.54036-0.047783 0.74312-0.085023l0.17512-0.0322 0.01447 0.050867c0.07299 0.25679 0.15627 0.85536 0.15672 1.1262l1.49e-4 0.08932h-1.2575zm1.5093 0.38664c-0.01811-0.34347-0.05936-0.6469-0.13192-0.97201-0.01988-0.089133-0.03416-0.16407-0.03164-0.16646 0.0028-0.0028 0.11364-0.040693 0.24692-0.08512 0.13329-0.044427 0.32038-0.11809 0.41577-0.16373l0.17344-0.082973 0.08437 0.11953c0.27959 0.39618 0.46698 0.91798 0.51365 1.4304l0.0095 0.10359h-1.2704zm-2.1622-1.2389c-0.2735-0.024827-0.6331-0.081573-0.6331-0.09996 0-0.00187 0.028-0.073827 0.062347-0.15906 0.17345-0.43135 0.38956-0.75867 0.61178-0.92663 0.10191-0.077 0.2731-0.16435 0.32217-0.16435h0.032573v1.3718l-0.096451-0.0018666c-0.053013-9.24e-4 -0.18772-0.0099867-0.29928-0.020067zm0.63865-0.66411v-0.68589h0.032573c0.047413 0 0.21824 0.086147 0.31921 0.16099 0.16306 0.12087 0.37324 0.39946 0.49932 0.66184 0.07159 0.14891 0.1804 0.42246 0.17161 0.43126-0.03276 0.03276-0.7154 0.11769-0.94618 0.11769h-0.076533zm-1.6861 0.46655c-0.24013-0.07448-0.57157-0.21229-0.57157-0.23757 0-0.016893 0.20186-0.20537 0.32152-0.30025 0.24923-0.19765 0.56021-0.36865 0.85582-0.47058 0.09296-0.032107 0.17194-0.058333 0.1755-0.058333 0.00373 0-0.028933 0.04172-0.072147 0.09268-0.21001 0.24755-0.37341 0.54136-0.49548 0.89095-0.0252 0.072053-0.049747 0.13069-0.054693 0.13032-0.00467-3.546e-4 -0.07644-0.02156-0.15897-0.047227zm2.9101-0.10647c-0.11433-0.31802-0.32097-0.68455-0.49501-0.87805-0.0406-0.045173-0.07177-0.08204-0.06916-0.081947 0.01867 8.493e-4 0.23997 0.076067 0.33337 0.11333 0.32298 0.12881 0.69384 0.37512 0.93596 0.62164 0.07551 0.076907 0.08885 0.097104 0.0714 0.10815-0.05591 0.035373-0.33856 0.15154-0.48584 0.19958-0.26038 0.084933-0.22707 0.094397-0.29074-0.082693zm3.5487 7.8016c0.05441-0.12785 0.09385-0.28265 0.11377-0.44654 0.01204-0.09929 0.01512-1.3467 0.01167-4.7572-0.0047-4.4061-0.0056-4.6276-0.03061-4.7298-0.08559-0.35405-0.23038-0.61122-0.47471-0.84326-0.25535-0.24251-0.5555-0.38368-0.91037-0.42818-0.0756-0.00952-1.0646-0.01456-2.8197-0.01456h-2.7033l0.00747-0.0322c0.073911-0.32873 0.22713-0.60499 0.45918-0.82815 0.26013-0.25016 0.55754-0.39391 0.91295-0.44129 0.20757-0.027627 0.36275-0.0098 1.1757 0.13525 1.2001 0.21413 3.8389 0.68358 4.594 0.81728 0.37724 0.066827 0.73638 0.13428 0.79809 0.14999 0.72569 0.18468 1.2333 0.87681 1.1885 1.6205-0.0075 0.13108-0.16667 0.89573-0.96662 4.6554-0.52644 2.4742-0.97373 4.5481-0.99396 4.6087-0.06487 0.19418-0.15068 0.34774-0.29453 0.52726-0.09743 0.12158-0.117 0.12356-0.06729 0.0065z" fill="#755e55" stroke-width=".014289"/>
</svg>
