<?xml version="1.0" encoding="UTF-8"?>
<svg width="17" height="17" version="1.1" viewBox="0 0 17 17" xmlns="http://www.w3.org/2000/svg">
 <rect width="17" height="17" fill="none"/>
 <rect x="1" y="1" width="15" height="15" rx="7.5" ry="7.5" fill="#bbb" stroke="#bbb" stroke-linejoin="round" stroke-width="2"/>
 <rect x="1" y="1" width="15" height="15" rx="7.5" ry="7.5" fill="#fff"/>
 <g transform="matrix(.17241 0 0 .17241 2.9828 2.9474)" fill="#755e55">
  <polygon points="7.87 55 10.13 55 10.85 50 7.15 50"/>
  <circle cx="20" cy="55" r="2"/>
  <circle cx="22" cy="40" r="1"/>
  <circle cx="30" cy="50" r="1"/>
  <polygon points="31.13 29 28.87 29 28.15 34 31.85 34"/>
  <circle cx="9" cy="32" r="2"/>
  <path d="m48 21a5.85 5.85 0 0 1-4.12-1.71l-1.17-1.17a3.84 3.84 0 0 0-5.42 0l-0.38 0.38 8.09 8.09 9-9a3.88 3.88 0 0 0-0.73 0.55l-1.17 1.17a5.85 5.85 0 0 1-4.1 1.69z"/>
  <path d="m35.88 16.71a5.82 5.82 0 0 1 8.24 0l1.17 1.17a3.84 3.84 0 0 0 5.42 0l1.17-1.17a5.85 5.85 0 0 1 4.12-1.71 5.25 5.25 0 0 1 0.56 0l2-2-1.56-1.59-4.29 4.3a1 1 0 0 1-1.42 0l-5-5a1 1 0 0 1 0-1.42l4.3-4.29-1.59-1.59-13.59 13.59 0.09 0.09z"/>
  <path d="m11.88 19.29-1.17-1.17a3.86 3.86 0 0 0-2.25-1.07l10.54 10.54 5.59-5.59-3.59-3.59-0.88 0.88a5.82 5.82 0 0 1-8.24 0z"/>
  <path d="m7.71 12.29a1 1 0 0 1 0.29 0.71v2a5.85 5.85 0 0 1 4.12 1.71l1.17 1.17a3.84 3.84 0 0 0 5.42 0l0.88-0.88-6-6h-3.59a1 1 0 0 1-0.71-0.29l-1.29-1.3-1.59 1.59z"/>
  <rect transform="rotate(-45 5.0028 7.9978)" x="3.88" y="6.88" width="2.24" height="2.24"/>
  <path d="m41.41 34 4.3 4.29a1 1 0 0 1 0 1.42l-5 5a1 1 0 0 1-1.42 0l-4.29-4.3-1.59 1.59 13.59 13.59 9.59-9.59-13.59-13.59z"/>
  <circle cx="56" cy="56" r="1"/>
  <circle cx="56" cy="26" r="1"/>
  <path d="m58.71 18.12a3.9 3.9 0 0 0-1.51-0.91l-11.49 11.5a1 1 0 0 1-1.42 0l-8.84-8.85a5.81 5.81 0 0 1-7.57-0.57l-1.17-1.17a3.88 3.88 0 0 0-2.71-1.12 3.74 3.74 0 0 0-1.33 0.25l4 4a1 1 0 0 1 0 1.42l-7 7a1 1 0 0 1-1.42 0l-12-12a1.53 1.53 0 0 1-0.14-0.21 4 4 0 0 0-0.86 0.62l-2.25 2.33v40.59h58v-40.59zm-49.71 9.88a4 4 0 1 1-4 4 4 4 0 0 1 4-4zm3 28.14a1 1 0 0 1-1 0.86h-4a1 1 0 0 1-1-0.86l-1-7a1 1 0 0 1 0.23-0.8 1 1 0 0 1 0.77-0.34h6a1 1 0 0 1 0.76 0.34 1 1 0 0 1 0.23 0.8zm2-13.14a2 2 0 0 1-2-2h-1v-2h1a2 2 0 0 1 2 2 2 2 0 0 1 2 2h1v2h-1a2 2 0 0 1-2-2zm6 16a4 4 0 1 1 4-4 4 4 0 0 1-4 4zm2-16a3 3 0 1 1 3-3 3 3 0 0 1-3 3zm4-8.14 1-7a1 1 0 0 1 1-0.86h4a1 1 0 0 1 1 0.86l1 7a1 1 0 0 1-0.23 0.8 1 1 0 0 1-0.77 0.34h-6a1 1 0 0 1-0.76-0.34 1 1 0 0 1-0.24-0.8zm1 15.14a3 3 0 1 1 3 3 3 3 0 0 1-3-3zm11 4h-1a2 2 0 0 1-2 2 2 2 0 0 1-2 2h-1v-2h1a2 2 0 0 1 2-2 2 2 0 0 1 2-2h1zm18 5a3 3 0 1 1 3-3 3 3 0 0 1-3 3zm2.71-12.29-11 11a1 1 0 0 1-1.42 0l-15-15a1 1 0 0 1 0-1.42l3-3a1 1 0 0 1 1.42 0l4.29 4.3 3.59-3.59-4.3-4.29a1 1 0 0 1 0-1.42l3-3a1 1 0 0 1 1.42 0l15 15a1 1 0 0 1 0 1.42zm0.29-13.71h-1a2 2 0 0 1-2 2 2 2 0 0 1-2 2h-1v-2h1a2 2 0 0 1 2-2 2 2 0 0 1 2-2h1zm-3-4a3 3 0 1 1 3-3 3 3 0 0 1-3 3z"/>
 </g>
</svg>
