<svg width="17" height="17" version="1.1" viewBox="0 0 17 17" xmlns="http://www.w3.org/2000/svg"><rect width="17" height="17" fill="none"/><g transform="matrix(.30802 0 0 .30802 2.9556 2.9884)" fill="#755e55" stroke="#755e55"><path d="m34.43 19.93a1 1 0 1 0 0-1.93h-1v-4.83h1a1 1 0 1 0 0-1.94h-1v-1a6.78 6.78 0 0 0-6.73-6.73h-17.4a6.78 6.78 0 0 0-6.77 6.77v1h-1a1 1 0 1 0 0 1.94h1v4.79h-1a1 1 0 1 0 0 1.93h1v4.84h-1a1 1 0 1 0 0 1.93h1v4.83a1 1 0 0 0 1.94 0v-4.83h27.06v4.83a1 1 0 0 0 1.94 0v-4.83h1a1 1 0 1 0 0-1.93h-1v-4.84zm-30-9.66a4.84 4.84 0 0 1 4.87-4.84h17.4a4.84 4.84 0 0 1 4.83 4.84v1h-27.06zm0 2.9h27.1v4.83h-27.06zm27.06 11.6h-27.02v-4.84h27.06z" fill="#755e55" stroke="#755e55"/></g></svg>
