<?xml version="1.0" encoding="UTF-8"?>
<svg width="17" height="17" version="1.1" viewBox="0 0 17 17" xmlns="http://www.w3.org/2000/svg">
 <rect width="17" height="17" fill="none"/>
 <rect x="1" y="1" width="15" height="15" rx="7.5" ry="7.5" fill="#bbb" stroke="#bbb" stroke-linejoin="round" stroke-width="2"/>
 <rect x="1" y="1" width="15" height="15" rx="7.5" ry="7.5" fill="#fff"/>
 <path d="m12.731 4.2692h-8.4615a0.76923 0.76923 0 0 0-0.76923 0.76923v4.6154a0.76923 0.76923 0 0 0 0.76923 0.76923h0.76923v1.9231a0.38462 0.38462 0 0 0 0.76923 0v-0.38462h5.3846v0.38462a0.38462 0.38462 0 0 0 0.76923 0v-1.9231h0.76923a0.76923 0.76923 0 0 0 0.76923-0.76923v-4.6154a0.76923 0.76923 0 0 0-0.76923-0.76923zm0 0.76923v1.5385l-1.5385-1.5385zm-2.6923 0 2.6923 2.6923v1.9231l-4.6154-4.6154zm-3.0769 4.6154-2.6923-2.6923v-1.9231l4.6154 4.6154zm-2.6923 0v-1.5385l1.5385 1.5385zm6.9231 1.5385h-5.3846v-0.76923h5.3846zm-0.15923-1.5385h-0.99462l-4.6154-4.6154h1.5385l4.6154 4.6154z" fill="#725a50" stroke-width=".76923"/>
</svg>
