<?xml version="1.0" encoding="UTF-8"?>
<svg width="17" height="17" version="1.1" viewBox="0 0 17 17" xmlns="http://www.w3.org/2000/svg">
 <rect width="17" height="17" fill="none"/>
 <rect x="1" y="1" width="15" height="15" rx="7.5" ry="7.5" fill="#bbb" stroke="#bbb" stroke-linejoin="round" stroke-width="2"/>
 <rect x="1" y="1" width="15" height="15" rx="7.5" ry="7.5" fill="#fff"/>
 <g transform="matrix(.52398 0 0 .52398 2.4965 2.2123)" fill="#755e55">
  <g fill="#755e55">
   <path d="m9 5v0.38c-0.83-0.33-1.72-0.5-2.61-0.5-1.42 0-2.84 0.43-4.05 1.29-0.51 0.36-0.57 1.09-0.13 1.53l2.57 2.57h1.11v1.11c0.86 0.86 1.98 1.31 3.11 1.36v2.26h-2c-0.55 0-1 0.45-1 1v2c0 1.1 0.9 2 2 2h10c1.66 0 3-1.34 3-3v-12c0-0.55-0.45-1-1-1h-10c-0.55 0-1 0.45-1 1zm-1.11 5.41v-2.15h-2.28l-1.04-1.04c0.57-0.22 1.19-0.34 1.82-0.34 1.34 0 2.59 0.52 3.54 1.46l1.41 1.41-0.2 0.2c-0.51 0.51-1.19 0.8-1.92 0.8-0.47 0-0.93-0.12-1.33-0.34zm11.11 6.59c0 0.55-0.45 1-1 1s-1-0.45-1-1v-1c0-0.55-0.45-1-1-1h-5v-2.59c0.57-0.23 1.1-0.57 1.56-1.03l0.2-0.2 2.83 2.82h1.41v-1.41l-6-5.97v-0.62h8z" fill="#755e55"/>
  </g>
 </g>
</svg>
