<?xml version="1.0" encoding="UTF-8"?>
<svg width="16" height="16" version="1.1" viewBox="0 0 16 16" xmlns="http://www.w3.org/2000/svg">
 <title>school_11.svg</title>
 <rect x=".5" y=".5" width="16" height="16" fill="none"/>
 <rect x=".5" y=".5" width="15" height="15" rx="7.5" ry="7.5" fill="#bbb" stroke="#bbb" stroke-linejoin="round"/>
 <rect x=".5" y=".5" width="15" height="15" rx="7.5" ry="7.5" fill="#fff"/>
 <g transform="matrix(.8 0 0 .8 8.5102e-6 8.4971e-6)" fill="#755e55" stroke="#755e55">
  <g transform="translate(-1.5001 -.50001)" stroke-width=".1931">
   <path d="m13.383 15.397a0.40551 0.40551 0 0 0 0.11779 0.28386l1.0736 1.5274a0.40358 0.40358 0 0 0 0.03283 0.05407l0.04248 0.05986a0.40165 0.40165 0 0 0 0.32827 0.17186 0.4113 0.4113 0 0 0 0.33213-0.16993l1.1895-1.6819a0.24138 0.24138 0 0 0 0.03476-0.05793 0.14869 0.14869 0 0 0 0.01352-0.0309l0.01159-0.03669c0-0.01545 0-0.0309 0.01159-0.05021a0.35917 0.35917 0 0 0 0-0.06372v-0.069511l0.01738-8.676a0.40937 0.40937 0 0 0-0.02703-0.14482 0.3862 0.3862 0 0 0 0.02703-0.14096v-0.27806a1.7514 1.7514 0 0 0-0.43835-1.1876 1.5197 1.5197 0 0 0-1.1354-0.43834 1.5641 1.5641 0 0 0-1.1586 0.43254 1.6761 1.6761 0 0 0-0.45378 1.12v0.35144a0.3862 0.3862 0 0 0 0.02703 0.14289 0.3862 0.3862 0 0 0-0.02703 0.14289zm1.9001 1.1161h-0.59282l-0.65847-0.93654h1.9117zm-1.3903-10.495a1.203 1.203 0 0 1 0.31089-0.7724 1.0833 1.0833 0 0 1 0.80909-0.28965 1.0563 1.0563 0 0 1 0.78592 0.28965c0.02317 0.025103 0.04634 0.052137 0.06758 0.079171a1.008 1.008 0 0 1 0.1062 0.17186v0.011586a1.4077 1.4077 0 0 1 0.09848 0.29737c0 0.028965 0 0.055999 0.01352 0.081102a0.45185 0.45185 0 0 1 0 0.050206v0.33213h-2.1917zm0 0.75502h2.2149l-0.01738 8.313h-2.2129z"/>
   <path d="m9.743 3.1081-2.5798-0.011586a0.69902 0.69902 0 0 0-0.69516 0.6913l-0.055999 13.407a0.68164 0.68164 0 0 0 0.1931 0.4924 0.68937 0.68937 0 0 0 0.49047 0.20469l2.5798 0.01159a0.69516 0.69516 0 0 0 0.69709-0.6913l0.05793-13.407a0.69709 0.69709 0 0 0-0.68744-0.69709zm-0.9404 2.8965a0.1931 0.1931 0 0 0 0.168 0.094619h1.0022v0.58896h-1.0022a0.1931 0.1931 0 0 0-0.16993 0.094619 0.2182 0.2182 0 0 0 0 0.21241 0.1931 0.1931 0 0 0 0.168 0.094619h1.0022v0.5793h-1.0041a0.1931 0.1931 0 0 0-0.1931 0.1931 0.20276 0.20276 0 0 0 0.048275 0.13517 0.1931 0.1931 0 0 0 0.14676 0.065654h1.0041v0.58896h-1.7553a0.1931 0.1931 0 0 0-0.1931 0.1931 0.1931 0.1931 0 0 0 0.1931 0.20276h1.7553v0.59089h-1.0022a0.1931 0.1931 0 0 0-0.16607 0.094619 0.21434 0.21434 0 0 0 0 0.21241 0.1931 0.1931 0 0 0 0.168 0.094619h1.0041v0.58896h-1.0022a0.1931 0.1931 0 0 0-0.168 0.09462 0.2182 0.2182 0 0 0 0 0.21241 0.1931 0.1931 0 0 0 0.168 0.09462h1.0022v0.5793h-1.0022a0.20082 0.20082 0 0 0 0 0.40165h1.0022v0.5793h-1.7533a0.1931 0.1931 0 0 0-0.168 0.09462 0.21434 0.21434 0 0 0 0 0.21048 0.1931 0.1931 0 0 0 0.168 0.09655h1.7533v0.5793h-1.0041a0.1931 0.1931 0 0 0-0.1931 0.1931 0.1931 0.1931 0 0 0 0.1931 0.1931h1.0041v0.59089h-1.0041a0.20082 0.20082 0 0 0 0 0.40165h1.0041l-0.009655 2.1994a0.24331 0.24331 0 0 1-0.28386 0.30703l-2.5798-0.011586a0.24138 0.24138 0 0 1-0.24138-0.24331l0.055999-13.407a0.24524 0.24524 0 0 1 0.24331-0.24138h2.5798a0.23944 0.23944 0 0 1 0.17186 0.071447 0.23365 0.23365 0 0 1 0.069516 0.17186v1.8943h-1.0022a0.1931 0.1931 0 0 0-0.16993 0.094619 0.2182 0.2182 0 0 0-0.007724 0.21434z"/>
   <path d="m8.9977 4.4154a0.55613 0.55613 0 0 0-0.55613-0.55806 0.5542 0.5542 0 0 0-0.3862 0.1622 0.55227 0.55227 0 0 0 0 0.78399 0.55227 0.55227 0 0 0 0.3862 0.16414 0.55806 0.55806 0 0 0 0.5542-0.55227zm-0.44799 0.10427a0.15062 0.15062 0 0 1-0.1062 0.044413 0.15641 0.15641 0 0 1-0.1062-0.044413 0.15255 0.15255 0 0 1-0.044413-0.10814 0.15448 0.15448 0 0 1 0.15255-0.15062 0.15448 0.15448 0 0 1 0.15062 0.15255 0.14676 0.14676 0 0 1-0.046344 0.1062z"/>
  </g>
  <g fill-rule="evenodd" stroke-width=".024624">
   <path d="m5.5135 16.78c-0.048928-0.04893-0.053362-0.15065-0.037256-0.85474 0.010055-0.43956 0.026642-3.4722 0.036861-6.7392 0.017146-5.4817 0.023005-5.9434 0.075925-5.9832 0.080992-0.06097 2.6701-0.062607 2.731-0.00173 0.030171 0.030171 0.041442 0.29316 0.041442 0.96698v0.92554h-0.51201c-0.50473 0-0.51319 0.00126-0.59509 0.088439-0.11856 0.1262-0.11044 0.34407 0.016918 0.45362 0.087351 0.075136 0.12035 0.079576 0.59135 0.079576h0.49883v0.34536h-0.4438c-0.50265 0-0.64138 0.033935-0.71417 0.1747-0.06379 0.12336-0.06379 0.1834 0 0.30676 0.072795 0.14077 0.21152 0.1747 0.71417 0.1747h0.4438v0.34535h-1.0299l-0.092835 0.11033c-0.075129 0.089285-0.089099 0.13335-0.073245 0.23105 0.0386 0.23786 0.097399 0.26161 0.67883 0.27411l0.51716 0.011122v0.34037h-0.84783c-1.0446 0-1.0861 0.013226-1.0861 0.34567 0 0.10234 0.020875 0.14923 0.090995 0.20439 0.086625 0.06814 0.13306 0.071577 0.96698 0.071577h0.87599v0.37989h-0.49883c-0.4764 0-0.50316 0.00372-0.59495 0.082673-0.13698 0.11782-0.13698 0.33846 0 0.45629 0.091791 0.078955 0.11854 0.082673 0.59495 0.082673h0.49883v0.37989h-0.51201c-0.48722 0-0.51539 0.0038-0.58195 0.0777-0.10193 0.11324-0.12148 0.19447-0.078299 0.32532 0.061341 0.18587 0.16683 0.21861 0.70432 0.21861h0.46794v0.34535h-0.49883c-0.4764 0-0.50316 0.0037-0.59495 0.08267-0.13698 0.11782-0.13698 0.33846 0 0.45629 0.091791 0.07895 0.11854 0.08267 0.59495 0.08267h0.49883v0.34203l-0.87793 0.0103c-0.87512 0.01026-0.87821 0.01056-0.96698 0.09402-0.11939 0.11224-0.12192 0.30588-0.00576 0.44101l0.083295 0.0969 1.7674 0.02158v0.34104h-0.4961c-0.44249 0-0.50552 0.0074-0.58322 0.06852-0.10674 0.08396-0.14129 0.20656-0.093575 0.33205 0.064767 0.17035 0.11447 0.18424 0.6635 0.18542l0.50939 0.0011v0.37989h-0.49884c-0.46779 0-0.5044 0.0048-0.58826 0.0777-0.051909 0.0451-0.097623 0.12922-0.10896 0.20049-0.015874 0.0998-0.00215 0.14344 0.073306 0.23311l0.092835 0.11033h1.0299v1.085c0 0.59677-0.00943 1.1096-0.020962 1.1397-0.018629 0.04855-0.17402 0.05463-1.3962 0.05463-1.2175 0-1.3816-0.0064-1.4308-0.05554zm1.7859-12.307c0.37965-0.26014 0.40599-0.81469 0.051543-1.085-0.33134-0.25273-0.83098-0.13413-1.0082 0.23931-0.029368 0.061888-0.053396 0.19649-0.053396 0.29912 0 0.24529 0.13444 0.46687 0.34954 0.57612 0.19951 0.10133 0.48839 0.08842 0.6605-0.029507z" opacity=".5"/>
   <path d="m12.506 10.429v-4.0579h2.014l-0.02276 0.73081c-0.01252 0.40194-0.02276 2.228-0.02276 4.0579v3.3271h-1.9685z" opacity=".5"/>
   <path d="m12.516 5.4517c0.01101-0.10669 0.0608-0.27732 0.11063-0.37918 0.16528-0.33782 0.45355-0.49743 0.89843-0.49743 0.20601 0 0.28217 0.017402 0.45574 0.10414 0.29914 0.14948 0.49334 0.47601 0.49334 0.82952v0.13693h-1.9782z" opacity=".5"/>
  </g>
 </g>
</svg>
