<?xml version="1.0" encoding="UTF-8"?>
<svg width="21" height="21" version="1.1" viewBox="0 0 21 21" xmlns="http://www.w3.org/2000/svg">
    <rect width="21" height="21" fill="none"/>
    <rect x="1" y="1" width="19" height="19" rx="9.5" ry="9.5" fill="#86be28" stroke="#86be28" stroke-linejoin="round"
          stroke-width="2"/>
    <rect x="1" y="1" width="19" height="19" rx="9.5" ry="9.5" fill="#76a723"/>
    <g fill="#fff" stroke-width=".625">
        <path d="m4.8875 12.762c-0.05 1.5125 0.2 2.7125 0.41875 2.9312s1.425 0.475 2.9312 0.41875z"/>
        <path d="m11.175 5.05c-1.4562 0.2625-2.9938 0.8375-4.1375 1.9875s-1.725 2.6812-1.9875 4.1375l4.7688 4.7688c1.4625-0.25625 2.9938-0.8375 4.1375-1.9875s1.725-2.6812 1.9875-4.1375zm1.075 4.575-2.625 2.625c-0.24375 0.24375-0.63125 0.24375-0.875 0s-0.24375-0.63125 0-0.875l2.625-2.625c0.24375-0.24375 0.63125-0.24375 0.875 0s0.24375 0.63125 0 0.875z"/>
        <path d="m16.112 8.2375c0.05-1.5125-0.2-2.7125-0.41875-2.9312s-1.425-0.475-2.9312-0.41875z"/>
    </g>
</svg>