<?xml version="1.0" encoding="UTF-8"?>
<svg width="17" height="17" version="1.1" viewBox="0 0 17 17" xmlns="http://www.w3.org/2000/svg">
    <rect width="17" height="17" fill="none"/>
    <rect x="1" y="1" width="15" height="15" rx="7.5" ry="7.5" fill="#86be28" stroke="#86be28" stroke-linejoin="round"
          stroke-width="2"/>
    <rect x="1" y="1" width="15" height="15" rx="7.5" ry="7.5" fill="#76a723"/>
    <g fill="#fff" stroke-width=".45833">
        <path d="m4.3842 10.159c-0.036666 1.1092 0.14667 1.9892 0.30708 2.1496 0.16042 0.16042 1.045 0.34833 2.1496 0.30708z"/>
        <path d="m8.995 4.5033c-1.0679 0.1925-2.1954 0.61416-3.0341 1.4575s-1.265 1.9662-1.4575 3.0341l3.4971 3.4971c1.0725-0.18792 2.1954-0.61416 3.0341-1.4575s1.265-1.9662 1.4575-3.0341zm0.78833 3.355-1.925 1.925c-0.17875 0.17875-0.46291 0.17875-0.64166 0s-0.17875-0.46291 0-0.64166l1.925-1.925c0.17875-0.17875 0.46291-0.17875 0.64166 0s0.17875 0.46291 0 0.64166z"/>
        <path d="m12.616 6.8408c0.036667-1.1092-0.14666-1.9892-0.30708-2.1496-0.16042-0.16042-1.045-0.34833-2.1496-0.30708z"/>
    </g>
</svg>