<?xml version="1.0" encoding="UTF-8"?>
<svg width="21" height="21" version="1.1" viewBox="0 0 21 21" xmlns="http://www.w3.org/2000/svg">
    <rect width="21" height="21" fill="none"/>
    <rect x="1" y="1" width="19" height="19" rx="9.5" ry="9.5" fill="#577b19" stroke="#577b19" stroke-linejoin="round"
          stroke-width="2"/>
    <rect x="1" y="1" width="19" height="19" rx="9.5" ry="9.5" fill="#76a723"/>
    <g transform="matrix(.16569 0 0 .16569 2.2155 2.2146)" fill="#fff">
        <path d="m50 22.62a24.63 24.63 0 1 0 24.62 24.63 24.65 24.65 0 0 0-24.62-24.63zm0 44.26a19.63 19.63 0 1 1 19.62-19.63 19.65 19.65 0 0 1-19.62 19.63z"/>
        <path d="m50 33.09a14.16 14.16 0 1 0 14.16 14.16 14.17 14.17 0 0 0-14.16-14.16zm0 23.32a9.16 9.16 0 1 1 9.16-9.16 9.17 9.17 0 0 1-9.16 9.16z"/>
        <circle cx="50" cy="47.25" r="5.83"/>
        <path d="m67.42 77a34.48 34.48 0 0 0-15-64.17 2.27 2.27 0 0 0 0.08-0.59v-5a2.5 2.5 0 0 0-5 0v5a2.27 2.27 0 0 0 0.08 0.59 34.48 34.48 0 0 0-15 64.17l-14 14a2.51 2.51 0 0 0 1.77 4.27 2.47 2.47 0 0 0 1.76-0.73l15.23-15.21a34.32 34.32 0 0 0 25.32 0l15.27 15.19a2.49 2.49 0 0 0 3.53 0 2.5 2.5 0 0 0 0-3.53zm-46.92-29.75a29.5 29.5 0 1 1 29.5 29.5 29.53 29.53 0 0 1-29.5-29.5z"/>
    </g>
</svg>
