<?xml version="1.0" encoding="UTF-8"?>
<svg width="17" height="17" version="1.1" viewBox="0 0 17 17" xmlns="http://www.w3.org/2000/svg">
    <rect width="17" height="17" fill="none"/>
    <rect x="1" y="1" width="15" height="15" rx="7.5" ry="7.5" fill="#86be28" stroke="#86be28" stroke-linejoin="round"
          stroke-width="2"/>
    <rect x="1" y="1" width="15" height="15" rx="7.5" ry="7.5" fill="#76a723"/>
    <g transform="matrix(.94488 0 0 .94488 2.5 2.5)" fill="#fff">
        <g transform="translate(0 -284.3)" fill="#fff">
            <path d="m6.636 294.48a3.5332 3.5332 0 0 1-0.7259 0.5717 3.2526 3.2526 0 1 0 3.4517-4.9977v0.9592a2.3315 2.3315 0 1 1-2.7258 3.4668z"/>
            <path d="m9.0548 286.03h-0.9212v5.4731h0.9212z"/>
            <path d="m7.5292 291.14a2.3315 2.3315 0 0 1 0.2974-0.1275v-0.9592a3.2526 3.2526 0 0 0-0.641 0.2289 3.5332 3.5332 0 0 1 0.3436 0.8578z"/>
            <path d="m5.3683 293.63a2.0508 2.0508 0 0 0 0.6382-2.3861 3.2526 3.2526 0 0 0-0.6382 2.3861z"/>
            <path d="m4.8733 288.86v0.9592a2.3315 2.3315 0 1 1-1.5352 0v-0.9592a3.2526 3.2526 0 1 0 1.5352 0z"/>
            <path d="m4.5662 284.83h-0.9211v5.4731h0.9211z"/>
        </g>
    </g>
</svg>
