<?xml version="1.0" encoding="UTF-8"?>
<svg width="17" height="17" version="1.1" viewBox="0 0 17 17" xmlns="http://www.w3.org/2000/svg">
 <rect width="17" height="17" fill="none"/>
 <rect x="1" y="1" width="15" height="15" rx="7.5" ry="7.5" fill="#86be28" stroke="#86be28" stroke-linejoin="round" stroke-width="2"/>
 <rect x="1" y="1" width="15" height="15" rx="7.5" ry="7.5" fill="#76a723"/>
 <g transform="matrix(-.12222 0 0 -.12222 15.111 15.111)" fill="#fff">
  <path d="m63.478 6.845 22.477 55.424c4.1362 3.2625 7.1359 7.5708 7.878 12.48 0.7905 5.2291-1.2223 10.896-6.2837 15.42-4.5412 3.4744-9.6228 5.2288-13.943 4.7542-4.7281-0.6134-9.1879-3.5703-13.786-8.6014l-52.395-31.81c-1.0784-0.6614-1.6492-2.0558-1.3443-3.2841 1.5201-4.2659 4.9394-5.9866 8.8471-6.2244 0.2686-3.6999 1.7057-6.7504 4.0641-8.7266 2.4537-2.0558 5.5379-2.7954 8.6907-3.0651 0.9351-2.9099 2.1465-5.579 4.2829-7.5694 2.2229-2.0707 5.2445-3.2384 8.8158-3.5655 1.1161-2.8917 2.5727-5.432 4.7831-7.1314 2.2512-1.7311 5.0916-2.481 8.1593-2.7525 1.195-2.8523 2.816-5.4992 5.6271-6.9124 1.6063-0.6948 3.4429-0.075 4.1266 1.5639zm-3.7202 6.8187c-0.5687 0.9773-1.0536 1.8213-1.438 2.7525l8.7845 20.581 1.5631-1.3137zm-5.1269 4.3164c-2.4417 0.1337-4.1179 0.728-5.4083 1.7203-2.3377 2.2928-3.1724 4.0401-3.8452 6.7873l12.442 18.266 6.0648-5.067zm-13.13 10.009c-2.6581 0.1773-4.2246 0.9325-5.4395 2.0644-1.3666 1.2731-2.4222 3.3473-3.22 6.412l15.662 16.108 6.2211-5.2234zm-11.786 10.979c-2.9787 0.023-5.454 0.7152-6.8776 1.9079-1.4486 1.2138-2.328 2.9452-1.9069 6.756 5.8933 4.2662 12.373 8.4025 18.538 12.511l5.971-5.0045zm40.547 0.5942-1.5318 1.2825 8.6282 20.299c0.4092 0.9663-0.097 2.2179-1.0629 2.6273-0.9657 0.4095-2.2168-0.097-2.626-1.0634l-8.1593-19.173-5.4083 4.5353 12.067 17.703c0.5974 0.868 0.3516 2.2016-0.5159 2.7993-0.8675 0.5979-2.2004 0.3519-2.7979-0.516l-11.88-17.39-5.6896 4.7855 14.662 15.076c0.7436 0.7501 0.7296 2.1141-0.029 2.8487-0.7591 0.7347-2.122 0.7034-2.8467-0.065l-14.849-15.295-5.2832 4.4415 17.694 11.792c0.876 0.5813 1.1442 1.9076 0.563 2.7839-0.5811 0.8763-1.9068 1.1444-2.7825 0.5628l-18.695-12.449-1.3442 1.126 22.852 13.856 18.601-16.921zm-51.832 11.354c-1.5626 0.1211-3.2623 0.043-4.7517 0.375l21.102 12.793 1.5006-1.2511z" color="#76a723000" fill="#fff" overflow="visible" style="text-indent:0;text-transform:none"/>
 </g>
</svg>
