<?xml version="1.0" encoding="UTF-8"?>
<svg width="21" height="21" version="1.1" viewBox="0 0 21 21" xmlns="http://www.w3.org/2000/svg">
  
 <rect width="21" height="21" fill="none"/>
 <rect x="1" y="1" width="19" height="19" rx="9.5" ry="9.5" fill="#86be28" stroke="#86be28" stroke-linejoin="round" stroke-width="2"/>
 <rect x="1" y="1" width="19" height="19" rx="9.5" ry="9.5" fill="#76a723"/>
 <g transform="matrix(.17923 0 0 .17923 1.4866 1.4542)" fill="#fff">
  <path d="m72.666 41.348c0-3.425-2.779-6.201-6.205-6.201-3.43 0-6.205 2.776-6.205 6.201 0 3.426 2.775 6.206 6.205 6.206 3.426 0 6.205-2.78 6.205-6.206z"/>
  <path d="m35.707 38.163 6.442 7.792c1.768 2.13 4.488 3.24 7.239 2.944l9.673-1.042c1.781-0.19 3.574 0.198 5.113 1.118l19.512 11.635c2.08 1.24 2.76 3.928 1.52 6.007l-2.244 3.764-3.764-2.245-16.998-10.136c-1.536-0.916-3.333-1.312-5.108-1.118l-11.45 1.231c-2.755 0.295-5.476-0.814-7.244-2.945l-10.086-12.2c-1.646-1.991-2.266-4.636-1.675-7.154l4.193-17.795h9.002l-4.438 18.82c-0.105 0.468 8e-3 0.957 0.313 1.324z"/>
  <path d="m21.206 45.196 7.066 3.392c2.186 1.042 3.101 3.662 2.059 5.838-1.046 2.186-3.662 3.105-5.843 2.06l-8.007-3.839c-2.388-1.144-4.083-3.367-4.557-5.979l-3.48-19.28 8.624-1.557 3.294 18.258c0.085 0.482 0.401 0.896 0.844 1.107z"/>
  <path d="m89.951 50.502c0 2.696-2.182 4.882-4.877 4.882-2.696 0-4.881-2.186-4.881-4.882 0-2.686 2.185-4.872 4.881-4.872s4.877 2.186 4.877 4.872zm2.186 0c0-3.897-3.164-7.057-7.062-7.057-3.902 0-7.062 3.16-7.062 7.057 0 3.902 3.16 7.062 7.062 7.062 3.898 0 7.062-3.16 7.062-7.062z"/>
  <path d="m79.392 80.84c0-1.148-0.929-2.08-2.076-2.08-1.151 0-2.083 0.932-2.083 2.08s0.932 2.084 2.083 2.084c1.147 0 2.076-0.936 2.076-2.084z"/>
  <path d="m70.41 79.916c0-1.148-0.929-2.08-2.076-2.08-1.152 0-2.084 0.932-2.084 2.08 0 1.151 0.932 2.08 2.084 2.08 1.147 0 2.076-0.929 2.076-2.08z"/>
  <path d="m59.707 78.089c0-1.151-0.933-2.079-2.08-2.079-1.152 0-2.08 0.928-2.08 2.079 0 1.152 0.928 2.08 2.08 2.08 1.147 0 2.08-0.928 2.08-2.08z"/>
  <path d="m50.164 80.033c0-1.146-0.933-2.084-2.08-2.084s-2.084 0.938-2.084 2.084c0 1.148 0.937 2.081 2.084 2.081s2.08-0.932 2.08-2.081z"/>
  <path d="m42.638 75.229c0-1.15-0.932-2.079-2.08-2.079-1.152 0-2.08 0.929-2.08 2.079 0 1.148 0.928 2.08 2.08 2.08 1.148 0 2.08-0.932 2.08-2.08z"/>
  <path d="m34.938 77.701c0-1.152-0.937-2.08-2.084-2.08s-2.08 0.928-2.08 2.08c0 1.151 0.933 2.08 2.08 2.08s2.084-0.928 2.084-2.08z"/>
  <path d="m28.42 74.043c0-1.151-0.932-2.084-2.08-2.084s-2.08 0.933-2.08 2.084c0 1.148 0.932 2.08 2.08 2.08s2.08-0.932 2.08-2.08z"/>
  <path d="m22.32 77.132c0-1.147-0.933-2.084-2.08-2.084-1.152 0-2.08 0.937-2.08 2.084s0.928 2.075 2.08 2.075c1.148 0 2.08-0.928 2.08-2.075z"/>
  <path d="m14.756 77.903c0-1.151-0.933-2.084-2.08-2.084-1.151 0-2.083 0.933-2.083 2.084 0 1.147 0.932 2.076 2.083 2.076 1.147 0 2.08-0.928 2.08-2.076z"/>
 </g>
</svg>
