<?xml version="1.0" encoding="UTF-8"?>
<svg width="21" height="21" version="1.1" viewBox="0 0 21 21" xmlns="http://www.w3.org/2000/svg">
  
 <rect width="21" height="21" fill="none"/>
 <rect x="1" y="1" width="19" height="19" rx="9.5" ry="9.5" fill="#577b19" stroke="#577b19" stroke-linejoin="round" stroke-width="2"/>
 <rect x="1" y="1" width="19" height="19" rx="9.5" ry="9.5" fill="#76a723"/>
 <g transform="matrix(.16648 0 0 .16648 1.9315 2.221)" fill="#fff">
  <path d="m89.306 65.027c0 6.189-5.021 11.201-11.205 11.201s-11.205-5.012-11.205-11.201 5.021-11.201 11.205-11.201 11.205 5.012 11.205 11.201zm4.21 0c0-8.514-6.901-15.411-15.415-15.411-8.513 0-15.415 6.897-15.415 15.411s6.902 15.416 15.415 15.416 15.415-6.902 15.415-15.416z"/>
  <path d="m68.207 15.385c0-4.012-3.252-7.265-7.264-7.265s-7.266 3.253-7.266 7.265 3.254 7.265 7.266 7.265 7.264-3.253 7.264-7.265z"/>
  <path d="m36.04 75.924c0 6.189-5.016 11.201-11.201 11.201-6.188 0-11.205-5.012-11.205-11.201 0-6.188 5.017-11.2 11.205-11.2 6.184 0 11.201 5.012 11.201 11.2zm-22.005-10.998c-6.071 5.962-6.164 15.724-0.198 21.799 5.965 6.074 15.723 6.164 21.798 0.198 2.865-2.813 4.522-6.632 4.611-10.647l9.948-13.096c2.218-2.924 2.589-6.852 0.958-10.138l-5.223-10.53c-0.388-0.772-0.164-1.705 0.523-2.228l6.357-4.809c0.089-0.063 0.186-0.122 0.287-0.173 0.887-0.443 1.958-0.081 2.4 0.806l2.92 5.89c1.658 3.337 5.08 5.421 8.801 5.366l7.509-0.11 5.13-0.08-0.08-5.126c-0.037-2.831-2.367-5.092-5.201-5.05l-6.004 0.089c-0.691 8e-3 -1.324-0.375-1.633-0.996l-3.535-7.117c-2.375-4.78-8.172-6.733-12.952-4.362-0.54 0.27-1.05 0.586-1.531 0.949l-10.23 7.737c-3.709 2.801-4.898 7.847-2.831 12.006l5.45 10.973c0.304 0.607 0.232 1.338-0.177 1.878l-5.299 6.97c-5.961-6.076-15.719-6.164-21.798-0.199z"/>
 </g>
</svg>
