<svg width="17" height="17" version="1.1" viewBox="0 0 17 17" xmlns="http://www.w3.org/2000/svg"><rect width="17" height="17" fill="none"/><rect x="1" y="1" width="15" height="15" rx="7.5" ry="7.5" fill="#577b19" stroke="#577b19" stroke-linejoin="round" stroke-width="2"/><rect x="1" y="1" width="15" height="15" rx="7.5" ry="7.5" fill="#76a723"/><g transform="matrix(.12608 0 0 .12608 2.1967 2.186)" fill="#fff"><path d="m89.3 91.9c-2.4-4.4-7.1-13.3-8-15.3-0.6-1.3-1.8-7.3-2.6-12.2 2-10.8-1.6-23.6-4.1-25.8-0.1-0.1-1.5-1.4-3.3-1.4s-20.5 0.4-20.5 0.4c0.1 0.3 0.2 0.5 0.2 0.8l0.1 4.9c0 0.3 0 0.6-0.2 0.9l12.3-0.2 1 6.8c-1 1.4-1.9 2.5-2.5 3.1-0.4 0-1-0.1-1.6-0.3 0 0.2-0.1 0.5-0.1 0.7l-1.6 4.6c-0.1 0.3-0.3 0.6-0.5 0.8 1.4 0.4 2.8 0.7 4.1 0.7 0.5 0 1 0 1.5-0.1 0.6-0.1 1.3-0.5 2-1.1l0.6 3.8c-1.5 2.4-4.9 8.1-6.4 10.8-0.5 1-1.7 3.1 1.3 20.7 0.3 2.1 2.3 3.5 4.4 3.1 2.1-0.3 3.5-2.3 3.1-4.4-1.1-6.3-2-14.1-1.8-16.2 1.2-2.2 3.6-6.1 5.1-8.7 0.7 3.8 1.7 9.4 2.8 11.6 1.3 2.8 7.9 15.2 8.2 15.7 0.7 1.3 2 2 3.4 2 0.6 0 1.2-0.1 1.8-0.5 1.6-1.1 2.3-3.4 1.3-5.2z"/><circle transform="matrix(.999 -.044973 .044973 .999 -1.1697 3.0032)" cx="66.2" cy="27.5" r="7.7"/><path d="m45.3 44.2 3.5-0.1c0.4 0 0.7-0.4 0.7-0.8l-0.1-4.9c0-0.4-0.4-0.7-0.8-0.7l-3.8 0.1c-1-1.1-2.4-1.8-4.1-1.8-2.9 0.1-5.2 2.5-5.1 5.4s2.5 5.2 5.4 5.1c1.9 0 3.4-0.9 4.3-2.3z"/><path d="m58 52.7-3.6-1.3c-0.5-1.4-1.6-2.6-3.2-3.1-2.7-1-5.7 0.5-6.7 3.2s0.5 5.7 3.2 6.7c1.7 0.6 3.5 0.3 4.8-0.7l3.3 1.2c0.4 0.1 0.8-0.1 0.9-0.5l1.6-4.6c0.3-0.3 0.1-0.7-0.3-0.9z"/><path d="m26.7 18.8h-0.2l1.9-14.3c0.1-1-0.6-1.9-1.6-2s-1.9 0.6-2 1.6l-1.9 14.3h-0.2c-4.3-0.6-8.4 2.5-9 6.8l-3.4 24.7c-0.6 4.3 2.5 8.4 6.8 9l4 0.5c4.3 0.6 8.4-2.5 9-6.8l3.4-24.7c0.6-4.4-2.5-8.5-6.8-9.1z"/></g></svg>
