<svg width="21" height="21" version="1.1" viewBox="0 0 21 21" xmlns="http://www.w3.org/2000/svg"><rect width="21" height="21" fill="none"/><rect x="1" y="1" width="19" height="19" rx="9.5" ry="9.5" fill="#86be28" stroke="#86be28" stroke-linejoin="round" stroke-width="2"/><rect x="1" y="1" width="19" height="19" rx="9.5" ry="9.5" fill="#76a723"/><g transform="matrix(.14 0 0 .14 3.5 4.3598)" fill="#fff"><path d="m34.242 18.556c5.134 0 9.272-4.162 9.272-9.284 1e-3 -5.122-4.138-9.272-9.272-9.272-5.122 0-9.271 4.15-9.271 9.272 0 5.123 4.149 9.284 9.271 9.284z"/><path d="m0.023 69.268c2.17 0 4.257-0.498 6.13-1.34 1.92-0.89 4.09-1.411 6.343-1.411s4.423 0.521 6.332 1.411c1.885 0.842 3.984 1.328 6.177 1.328 2.182 0 4.28-0.486 6.154-1.328 1.909-0.89 4.079-1.411 6.343-1.411 2.253 0 4.411 0.521 6.344 1.411 1.861 0.842 3.972 1.328 6.153 1.328s4.292-0.486 6.154-1.328c1.932-0.89 4.09-1.411 6.354-1.411 2.253 0 4.411 0.521 6.332 1.411 1.885 0.842 3.983 1.328 6.165 1.328 2.193 0 4.28-0.486 6.166-1.328 1.908-0.89 4.078-1.411 6.331-1.411 1.933 0 3.806 0.367 5.502 1.031 2.751-3.012 4.458-7.019 4.458-11.406 0-9.343-7.564-16.907-16.896-16.907l-1.896 0.201c-2.075 8.431-10.506 8.786-10.506 8.786l-38.58-0.012-3.226-1.897 7.778-13.054 8.513 4.92c5.098 3.308 7.754-1.328 7.754-1.328l8.537-13.92c3.711-6.047-4.162-10.896-7.85-4.826l-5.976 9.758-14.205-7.861c-9.841-5.49-14.015 3.604-14.015 3.604l-11.154 19.114c-1.897 3.972-0.202 5.679-0.202 5.679l-5.514-0.012z"/><path d="m100 87.717c-2.182 0-4.28-0.486-6.142-1.328-1.933-0.89-4.091-1.411-6.355-1.411-2.253 0-4.423 0.521-6.331 1.411-1.886 0.842-3.973 1.328-6.166 1.328-2.182 0-4.28-0.486-6.165-1.328-1.921-0.89-4.079-1.411-6.332-1.411-2.265 0-4.423 0.521-6.354 1.411-1.862 0.842-3.973 1.328-6.154 1.328s-4.292-0.486-6.153-1.328c-1.933-0.89-4.091-1.411-6.344-1.411-2.265 0-4.435 0.521-6.343 1.411-1.874 0.842-3.972 1.328-6.154 1.328-2.193 0-4.292-0.486-6.177-1.328-1.909-0.89-4.079-1.411-6.332-1.411s-4.423 0.521-6.343 1.411c-1.875 0.841-3.973 1.328-6.155 1.328v-9.225c2.182 0 4.28-0.498 6.154-1.34 1.92-0.89 4.09-1.411 6.343-1.411s4.423 0.521 6.332 1.411c1.885 0.842 3.984 1.34 6.177 1.34 2.182 0 4.28-0.498 6.154-1.34 1.909-0.89 4.079-1.411 6.343-1.411 2.253 0 4.411 0.521 6.344 1.411 1.861 0.842 3.972 1.34 6.153 1.34s4.292-0.498 6.154-1.34c1.932-0.89 4.09-1.411 6.354-1.411 2.253 0 4.411 0.521 6.332 1.411 1.885 0.842 3.983 1.34 6.165 1.34 2.193 0 4.28-0.498 6.166-1.34 1.908-0.89 4.078-1.411 6.331-1.411 2.265 0 4.423 0.521 6.355 1.411 1.861 0.842 3.96 1.34 6.142 1.34v9.225z"/></g></svg>
