<svg width="17" height="17" version="1.1" viewBox="0 0 17 17" xmlns="http://www.w3.org/2000/svg"><rect width="17" height="17" fill="none"/><rect x="1" y="1" width="15" height="15" rx="7.5" ry="7.5" fill="#577b19" stroke="#577b19" stroke-linejoin="round" stroke-width="2"/><rect x="1" y="1" width="15" height="15" rx="7.5" ry="7.5" fill="#76a723"/><g transform="matrix(.13214 0 0 .13214 1.8932 1.8931)" fill="#fff"><path d="m58.782 47.539c18.37-9.116 25.497-40.341 25.497-42.946h-2.534c-0.941 6.516-8.83 32.569-22.963 40.128zm-12.335-20.354c3.689 0 6.683-2.992 6.683-6.684 0-3.689-2.993-6.682-6.683-6.682s-6.682 2.992-6.682 6.682c1e-3 3.691 2.992 6.684 6.682 6.684zm9.53 68.222v-30.09l-2.818 1.313v28.776h2.818zm0-43.572v2.807h-16.775l-13.167 30.171c-0.99 2.266 0.107 5.173 2.452 6.492 2.345 1.321 5.048 0.554 6.038-1.712l10.738-24.663c0.941 0.269 1.971 0.39 3.031 0.39 0.955 0 1.9-0.178 2.743-0.496l12.057-5.631 2.657 10.629c0.59 2.369 2.989 3.811 5.356 3.219 2.369-0.591 3.81-2.989 3.22-5.357l-4.16-16.677c-0.591-2.368-3.478-4.21-5.712-3.13l-8.479 3.946 7e-3 -15.584 15.025-24.052c1.115-1.764 0.591-4.098-1.174-5.213-1.762-1.116-4.097-0.592-5.079 1.122l-12.765 20.433-7.699 0.031c-0.491-6e-3 -0.992 0.084-1.474 0.28l-13.303 5.206-6.837-10.373c-1.13-1.754-3.468-2.261-5.223-1.132s-2.262 3.468-1.133 5.222l8.543 12.946c0.961 1.515 2.888 2.17 4.608 1.467l9.73-3.808-2e-3 13.466h16.777z"/></g></svg>
