<?xml version="1.0" encoding="UTF-8"?>
<svg width="21" height="21" version="1.1" viewBox="0 0 21 21" xmlns="http://www.w3.org/2000/svg">
 <rect width="21" height="21" fill="none"/>
 <rect x="1" y="1" width="19" height="19" rx="9.5" ry="9.5" fill="#577b19" stroke="#577b19" stroke-linejoin="round" stroke-width="2"/>
 <rect x="1" y="1" width="19" height="19" rx="9.5" ry="9.5" fill="#76a723"/>
 <g transform="matrix(.025926 0 0 .025926 2.6526 -1.172)" fill="#fff">
  <path d="m290.5 435.98c0-0.021-0.014-0.034-0.014-0.061v-9.57h-0.605c-4.972-39.751-40.342-70.666-83.106-70.666-45.852 0-83.201 35.533-83.718 79.393h-0.014v219.41h30.133v-218.51c0-28.337 24.052-51.382 53.599-51.382 29.535 0 53.572 23.052 53.572 51.382v218.51h30.133z" fill="#fff"/>
  <path d="m413.72 701.57 1.5-540.65-47.662 0.324 0.435 539.86z" fill="#fff"/>
  <path d="m414.19 695.2-39.979-0.289s-66.52-1.761-68.575 2.739c-1.128 10.67-2.58 39.314 4.334 41.604 17.82 0.748 114.27-0.45 131.62-0.479 5.824-1.19 41.501 1.805 40.731-3.331-0.426-9.095 0.013-8.333-0.015-18.393 0.049-0.663-0.048-15.583 0-16.273-0.64-6.845-68.112-5.578-68.112-5.578z" fill="#fff"/>
  <ellipse cx="208.19" cy="657.76" rx="30.493" ry="28.932"/>
 </g>
</svg>
