<?xml version="1.0" encoding="UTF-8"?>
<svg width="21" height="21" version="1.1" viewBox="0 0 21 21" xmlns="http://www.w3.org/2000/svg">
 <rect width="21" height="21" fill="none"/>
 <rect x="1" y="1" width="19" height="19" rx="9.5" ry="9.5" fill="#86be28" stroke="#86be28" stroke-linejoin="round" stroke-width="2"/>
 <rect x="1" y="1" width="19" height="19" rx="9.5" ry="9.5" fill="#76a723"/>
 <path d="m12.688 5.594c0.6875 0 1.25-0.5625 1.25-1.25s-0.5625-1.25-1.25-1.25-1.25 0.5625-1.25 1.25 0.5625 1.25 1.25 1.25zm-6.5625 4.0625c-1.75 0-3.125 1.375-3.125 3.125s1.375 3.125 3.125 3.125 3.125-1.375 3.125-3.125-1.375-3.125-3.125-3.125zm0 5.3125c-1.1875 0-2.1875-1-2.1875-2.1875s1-2.1875 2.1875-2.1875 2.1875 1 2.1875 2.1875-1 2.1875-2.1875 2.1875zm3.625-6.25 1.5-1.5 0.5 0.5c0.8125 0.8125 1.875 1.3125 3.1875 1.3125v-1.25c-0.9375 0-1.6875-0.375-2.25-0.9375l-1.1875-1.1875c-0.3125-0.25-0.625-0.375-1-0.375s-0.6875 0.125-0.875 0.375l-1.75 1.75c-0.25 0.25-0.375 0.5625-0.375 0.875 0 0.375 0.125 0.6875 0.375 0.875l2 1.75v3.125h1.25v-3.875zm5.125 0.9375c-1.75 0-3.125 1.375-3.125 3.125s1.375 3.125 3.125 3.125 3.125-1.375 3.125-3.125-1.375-3.125-3.125-3.125zm0 5.3125c-1.1875 0-2.1875-1-2.1875-2.1875s1-2.1875 2.1875-2.1875 2.1875 1 2.1875 2.1875-1 2.1875-2.1875 2.1875z" fill="#fff" stroke-width=".625"/>
</svg>
