<?xml version="1.0" encoding="UTF-8"?>
<svg width="17" height="17" version="1.1" viewBox="0 0 17 17" xmlns="http://www.w3.org/2000/svg">
 <rect width="17" height="17" fill="none"/>
 <rect x="1" y="1" width="15" height="15" rx="7.5" ry="7.5" fill="#577b19" stroke="#577b19" stroke-linejoin="round" stroke-width="2"/>
 <rect x="1" y="1" width="15" height="15" rx="7.5" ry="7.5" fill="#76a723"/>
 <path d="m10.25 4.875c0.55 0 1-0.45 1-1s-0.45-1-1-1c-0.55 0-1 0.45-1 1s0.45 1 1 1zm-5.25 3.25c-1.4 0-2.5 1.1-2.5 2.5 0 1.4 1.1 2.5 2.5 2.5s2.5-1.1 2.5-2.5c0-1.4-1.1-2.5-2.5-2.5zm0 4.25c-0.95 0-1.75-0.8-1.75-1.75 0-0.95 0.8-1.75 1.75-1.75s1.75 0.8 1.75 1.75c0 0.95-0.8 1.75-1.75 1.75zm2.9-5 1.2-1.2 0.4 0.4c0.65 0.65 1.5 1.05 2.55 1.05v-1c-0.75 0-1.35-0.3-1.8-0.75l-0.95-0.95c-0.25-0.2-0.5-0.3-0.8-0.3-0.3 0-0.55 0.1-0.7 0.3l-1.4 1.4c-0.2 0.2-0.3 0.45-0.3 0.7 0 0.3 0.1 0.55 0.3 0.7l1.6 1.4v2.5h1v-3.1zm4.1 0.75c-1.4 0-2.5 1.1-2.5 2.5 0 1.4 1.1 2.5 2.5 2.5s2.5-1.1 2.5-2.5c0-1.4-1.1-2.5-2.5-2.5zm0 4.25c-0.95 0-1.75-0.8-1.75-1.75 0-0.95 0.8-1.75 1.75-1.75s1.75 0.8 1.75 1.75c0 0.95-0.8 1.75-1.75 1.75z" fill="#fff" stroke-width=".5"/>
</svg>
