<?xml version="1.0" encoding="UTF-8"?>
<svg width="21" height="21" version="1.1" viewBox="0 0 21 21" xmlns="http://www.w3.org/2000/svg">
 <rect width="21" height="21" fill="none"/>
 <rect x="1" y="1" width="19" height="19" rx="9.5" ry="9.5" fill="#86be28" stroke="#86be28" stroke-linejoin="round" stroke-width="2"/>
 <rect x="1" y="1" width="19" height="19" rx="9.5" ry="9.5" fill="#76a723"/>
 <g transform="matrix(.18575 0 0 .18575 1.2281 1.2824)" fill="#fff">
  <path d="m69.57 56.05a6.12 6.12 0 0 0-0.7-0.61l-9.01 10.56a7.15 7.15 0 0 1 2.69 3.09l9.25-10.82c-0.71-0.7-1.46-1.44-2.23-2.22z"/>
  <path d="m53 65.5-8.5-14.17c-1.8 0-3.2 0.11-3.92 0.14h-0.45l-0.62 0.13 10.13 17a7.28 7.28 0 0 1 3.36-3.1z"/>
  <path d="m65.83 14.42a5.87 5.87 0 0 0-11.52-0.74c0.88 0 1.76-0.07 2.67-0.07a46.41 46.41 0 0 1 8.85 0.81z"/>
  <path d="m15.21 54.94a4.52 4.52 0 0 0 0.8-0.08l23.21-4.7c-1.49-6.78-14.64-7.72-14.77-7.73a0.6 0.6 0 0 1-0.23-0.06c-2.34 0.63-8.22 2.51-11.74 6.16a3.81 3.81 0 0 0 2.73 6.41z"/>
  <path d="m40.77 49.83a0.66 0.66 0 0 1 0 0.14c1.14-0.06 3.4-0.16 6.22-0.16 7.61 0 19.28 0.75 23.65 5.19 4.9 5 9.45 9.1 12.58 9.1a3.05 3.05 0 0 0 2.69-1.6c2.73-4.34 10.44-47.39-28.91-47.39-27.92 0-31.29 20.58-31.7 25.81 2.97 0.3 13.94 1.9 15.47 8.91z"/>
  <path d="m53.5 78.75v11.25h5v-11.25a7.08 7.08 0 0 1-2.52 0.46 7 7 0 0 1-2.48-0.46z"/>
  <circle cx="56.02" cy="72.03" r="5.68"/>
 </g>
</svg>
