<?xml version="1.0" encoding="UTF-8"?>
<svg width="21" height="21" version="1.1" viewBox="0 0 21 21" xmlns="http://www.w3.org/2000/svg">
 <rect width="21" height="21" fill="none"/>
 <rect x="1" y="1" width="19" height="19" rx="9.5" ry="9.5" fill="#577b19" stroke="#577b19" stroke-linejoin="round" stroke-width="2"/>
 <rect x="1" y="1" width="19" height="19" rx="9.5" ry="9.5" fill="#76a723"/>
 <g transform="matrix(.2915 0 0 .2915 4.5075 3.4962)" fill="#fff">
  <g data-name="Group">
   <path d="m17.6 21.85a2.89 2.89 0 1 0-3.93-1.06 2.88 2.88 0 0 0 3.93 1.06z" data-name="Path"/>
   <path d="m46.22 17.94-37.44-16.94a3.38 3.38 0 0 0-3.13 0 3.37 3.37 0 0 0-1.65 2.69l-4 40.92c-0.15 1.53 0.38 2.22 0.86 2.53a1.83 1.83 0 0 0 2 0 4.21 4.21 0 0 0 1-0.88l13.49-15.1-1.27-2.19-13.61 15.23 4-40.27a1 1 0 0 1 0.43-0.84 1 1 0 0 1 0.94 0.05l36.8 16.72-18.31 3.82a1.45 1.45 0 0 1-0.3 0.06l-1.69 0.33 1.25 2.17 20.15-4.18a4.15 4.15 0 0 0 1.26-0.44 1.81 1.81 0 0 0 1-1.68c0-0.82-0.65-1.49-1.78-2z" data-name="Path"/>
   <path d="m26.14 22.45a1.44 1.44 0 0 0 0.72-1.26v-5.32a1.45 1.45 0 0 0-2.89 0l0.03 4.13-3.32 0.71a1.57 1.57 0 0 0-0.52 0.25l-4.56 2.65a1.21 1.21 0 0 0-0.2 0.09 1.86 1.86 0 0 0-0.46 0.42l-2.09 2.34-3.57-2.1a1.4432 1.4432 0 0 0-1.46 2.49l4.58 2.69a1.47 1.47 0 0 0 1.45 0 1.36 1.36 0 0 0 0.38-0.3l2.16-2.4 3.67 6.35 0.24 0.42 5.4 9.39a1.5926 1.5926 0 0 0 2.76-1.59l-5.19-9 0.55-0.32 5.19 9a1.59 1.59 0 0 0 2.75-1.59l-5.4-9.36-0.24-0.42-3.71-6.42 3.35-0.68a1.57 1.57 0 0 0 0.38-0.17z" data-name="Path"/>
  </g>
 </g>
</svg>
