<svg width="17" height="17" version="1.1" viewBox="0 0 17 17" xmlns="http://www.w3.org/2000/svg"><rect width="17" height="17" fill="none"/><rect x="1" y="1" width="15" height="15" rx="7.5" ry="7.5" fill="#86be28" stroke="#86be28" stroke-linejoin="round" stroke-width="2"/><rect x="1" y="1" width="15" height="15" rx="7.5" ry="7.5" fill="#76a723"/><g transform="matrix(.12222 0 0 .12222 2.3889 1.3262)" fill="#fff"><path d="m95 83.473v2.001l-1.731 0.994c-5.968 3.444-12.65 5.377-19.471 5.839-0.981 0.064-1.962 0.172-2.941 0.172-3.879 0-7.733-0.503-11.462-1.479-0.071-0.019-0.14-0.046-0.211-0.065-1.741-0.464-3.453-1.034-5.128-1.702-0.281-0.112-0.55-0.251-0.829-0.369-3.991-1.687-7.719-3.991-11.114-6.797-1.547-1.283-3.006-2.667-4.369-4.148-0.51-0.554-1.02-1.108-1.505-1.691-1.556-1.873-3.005-3.841-4.247-5.955-0.058-0.098-0.131-0.182-0.188-0.281l-0.012-3e-3c-1.52-2.633-2.746-5.411-3.701-8.274 1.784-1.81 3.718-3.425 5.851-4.746 0.859 3.33 2.115 6.56 3.852 9.568 0.831 1.439 1.771 2.802 2.776 4.114 0.242 0.315 0.51 0.597 0.76 0.903 0.778 0.954 1.584 1.879 2.449 2.751 0.331 0.333 0.68 0.639 1.022 0.959 0.853 0.799 1.732 1.564 2.655 2.281 0.338 0.262 0.682 0.51 1.028 0.759 0.506 0.366 0.983 0.772 1.507 1.113 0.033-0.021-0.033 0.021 0 0 2.189 1.416 4.52 2.62 6.93 3.556-0.019 0.015 0.019-0.015 0 0 2.729 1.061 5.584 1.76 8.481 2.161 0.558 0.081 1.118 0.123 1.68 0.179 0.853 0.08 1.703 0.142 2.56 0.165 0.405 0.013 0.805 0.078 1.211 0.078 0.367 0 0.735-0.047 1.103-0.071 5.55-0.175 11.073-1.504 16.067-4.04-0.433-8.077-3.458-15.73-8.435-21.903 0.687-2.848 1.122-5.733 1.322-8.645 8.825 8.407 14.09 20.138 14.09 32.576zm-35.859-44.019c-4.255-0.862-8.639-1.105-12.969-0.753-2.671 0.229-5.293 0.705-7.846 1.394-0.183 0.049-0.36 0.121-0.543 0.172-5.037 1.429-9.787 3.704-14.028 6.755-0.077 0.055-0.153 0.112-0.229 0.167-2.144 1.563-4.182 3.289-6.037 5.224-7.876 8.275-12.489 19.371-12.489 31.06v2.001l1.731 0.994c10.63 6.141 23.592 7.421 35.244 4.052-2.438-1.627-4.758-3.421-6.897-5.443-7.804 1.186-15.992-0.016-23.1-3.632 0.467-8.666 3.939-16.816 9.581-23.197 0 0 0.261-0.29 0.391-0.432 1.318-1.445 2.727-2.74 4.266-3.976 4e-3 0.029-4e-3 -0.029 0 0 2.041-1.634 4.206-3.091 6.527-4.269-1e-3 -0.017 1e-3 0.017 0 0 2.474-1.258 5.103-2.175 7.791-2.841 1.864-0.48 3.745-0.862 5.681-1.057 4.676-0.436 9.438-0.035 13.97 1.193-0.035-2.491-0.393-4.961-1.044-7.412zm14.653 2.423c-0.031-0.247-0.045-0.497-0.081-0.743-0.322-2.209-0.792-4.407-1.444-6.576h0.038c-3.269-10.832-10.546-20.249-20.576-26.039l-1.731-0.997-1.731 0.997c-10.774 6.222-18.3 16.651-21.166 28.506 2.618-1.292 5.341-2.357 8.151-3.194 2.856-7.398 7.972-13.84 14.746-18.254 6.998 4.556 12.208 11.283 15.001 18.981h3e-3c6e-3 0.016 7e-3 0.034 0.013 0.05 0.832 2.304 1.473 4.686 1.851 7.133-0.022-9e-3 0.022 9e-3 0 0 0.398 2.577 0.528 5.197 0.392 7.778 0.041 0.021-0.041-0.021 0 0-0.098 1.837-0.376 3.653-0.739 5.453-0.02 0.097-0.047 0.192-0.068 0.289-0.459 2.188-1.097 4.334-1.934 6.415-4e-3 0.011-5e-3 0.022-0.01 0.033h-2e-3c-0.666 1.649-1.409 3.269-2.305 4.82-1.753 3.037-3.949 5.763-6.435 8.188 2.171 1.194 4.471 2.158 6.881 2.814 2.082-2.32 3.973-4.817 5.543-7.54 1.577-2.724 2.827-5.604 3.795-8.571 0.634-1.949 1.119-3.932 1.478-5.936 0.044-0.238 0.096-0.474 0.136-0.712 0.694-4.254 0.748-8.591 0.194-12.895z"/></g></svg>
