<?xml version="1.0" encoding="UTF-8"?>
<svg width="21" height="21" version="1.1" viewBox="0 0 21 21" xmlns="http://www.w3.org/2000/svg">
 <rect width="21" height="21" fill="none"/>
 <rect x="1" y="1" width="19" height="19" rx="9.5" ry="9.5" fill="#86be28" stroke="#86be28" stroke-linejoin="round" stroke-width="2"/>
 <rect x="1" y="1" width="19" height="19" rx="9.5" ry="9.5" fill="#76a723"/>
 <g transform="matrix(.13084 0 0 .13084 3.9819 4.0049)" fill="#fff">
  <path d="m57.678 91.987c0 2.219-1.799 4.021-4.02 4.021s-4.021-1.802-4.021-4.021v-20.903c0-2.221 1.8-4.019 4.021-4.019s4.02 1.798 4.02 4.019z"/>
  <path d="m56.355 63.279c-1.616 1.521-4.16 1.445-5.681-0.171-1.523-1.618-1.445-4.161 0.171-5.684l27.899-27.005c1.616-1.521 4.158-1.445 5.682 0.172s1.446 4.161-0.172 5.682z"/>
  <path d="m48.924 41.288c-1.614 1.523-4.159 1.443-5.682-0.172-1.522-1.618-1.445-4.16 0.172-5.682l34.85-33.955c1.613-1.521 4.16-1.446 5.681 0.171 1.522 1.617 1.444 4.161-0.171 5.683z"/>
  <path d="m4.102 42.376c-2.219-0.031-3.994-1.856-3.963-4.075 0.032-2.222 1.856-3.993 4.076-3.962l38.83 2e-3c2.219 0.03 3.994 1.856 3.963 4.076s-1.857 3.993-4.077 3.963z"/>
  <path d="m49.638 71.084 8.04 0.807 0.32-19.619 1.408-2.932c-2.652 0.4-2.533-1.367-2.533-1.367s-3.698-9.447-1.667-12.806l-13.366 7.213s-1.55 15.642 0.311 18.578c1.86 2.929 6.21 3.874 6.806 5.564 0.681 1.935 0.681 4.562 0.681 4.562z"/>
  <line x1="2" x2="98" y1="97.401" y2="97.401" stroke="#fff" stroke-linecap="round" stroke-miterlimit="10" stroke-width="3"/>
  <path d="m72.872 66.525c0 3.717-3.015 6.729-6.733 6.729s-6.732-3.012-6.732-6.729c0-3.721 3.014-6.736 6.732-6.736s6.733 3.016 6.733 6.736z"/>
 </g>
</svg>
