<?xml version="1.0" encoding="UTF-8" standalone="no"?>
<svg
   width="17"
   height="17"
   version="1.1"
   viewBox="0 0 17 17"
   id="svg12"
   sodipodi:docname="ice_rink_11.svg"
   inkscape:version="1.1 (c68e22c387, 2021-05-23)"
   xmlns:inkscape="http://www.inkscape.org/namespaces/inkscape"
   xmlns:sodipodi="http://sodipodi.sourceforge.net/DTD/sodipodi-0.dtd"
   xmlns="http://www.w3.org/2000/svg"
   xmlns:svg="http://www.w3.org/2000/svg">
  <defs
     id="defs16" />
  <sodipodi:namedview
     id="namedview14"
     pagecolor="#76a723fff"
     bordercolor="#111111"
     borderopacity="1"
     inkscape:pageshadow="0"
     inkscape:pageopacity="0"
     inkscape:pagecheckerboard="1"
     showgrid="false"
     inkscape:zoom="48.941176"
     inkscape:cx="7.7644231"
     inkscape:cy="8.5102163"
     inkscape:window-width="1920"
     inkscape:window-height="1017"
     inkscape:window-x="-8"
     inkscape:window-y="-8"
     inkscape:window-maximized="1"
     inkscape:current-layer="svg12" />
  <rect
     width="17"
     height="17"
     fill="none"
     id="rect2" />
  <rect
     x="1"
     y="1"
     width="15"
     height="15"
     rx="7.5"
     ry="7.5"
     fill="#577b19"
     stroke="#577b19"
     stroke-linejoin="round"
     stroke-width="2"
     id="rect4" />
  <rect
     x="1"
     y="1"
     width="15"
     height="15"
     rx="7.5"
     ry="7.5"
     fill="#76a723"
     id="rect6" />
  <g
     transform="matrix(0.6,0,0,0.6,1.3,1.3)"
     fill="#fff"
     id="g10">
    <path
       d="M 12,4 C 6.3,4 2,6.15 2,9 v 6 c 0,2.85 4.3,5 10,5 5.7,0 10,-2.15 10,-5 V 9 C 22,6.15 17.7,4 12,4 Z m 5.58,7.07 A 15.75,15.75 0 0 1 12,12 15.75,15.75 0 0 1 6.42,11.07 C 4.93,10.49 4,9.7 4,9 4,7.78 7.12,6 12,6 c 4.88,0 8,1.78 8,3 0,0.7 -0.93,1.49 -2.42,2.07 z"
       id="path8" />
  </g>
</svg>
