<?xml version="1.0" encoding="UTF-8"?>
<svg width="21" height="21" version="1.1" viewBox="0 0 21 21" xmlns="http://www.w3.org/2000/svg">
  
 <rect width="21" height="21" fill="none"/>
 <rect x="1" y="1" width="19" height="19" rx="9.5" ry="9.5" fill="#86be28" stroke="#86be28" stroke-linejoin="round" stroke-width="2"/>
 <rect x="1" y="1" width="19" height="19" rx="9.5" ry="9.5" fill="#76a723"/>
 <g transform="matrix(.17953 0 0 .17953 1.4841 1.5259)" fill="#fff">
  <path d="m52.943 31.383c0-3.367-2.733-6.101-6.1-6.101s-6.1 2.733-6.1 6.101c0 3.366 2.733 6.097 6.1 6.097 3.367-1e-3 6.1-2.731 6.1-6.097z"/>
  <path d="m39.6 70.044 1.81 15.541h8.673l-2.016-17.267c-0.22-1.912-1.123-3.684-2.531-4.999l-7.624-7.097c-1.742-1.624-4.468-1.519-6.087 0.225-1.62 1.732-1.519 4.458 0.223 6.083l7.083 6.594c0.263 0.24 0.427 0.565 0.469 0.92z"/>
  <path d="m64.681 29.257 5.835 8.998c1.291 1.992 0.721 4.658-1.274 5.949-1.995 1.295-4.661 0.726-5.953-1.271l-6.353-9.804c-1.347-2.076-1.672-4.637-0.891-6.978l3.961-11.897h9.079l-4.564 13.707c-0.144 0.432-0.085 0.907 0.16 1.296z"/>
  <path d="m82.053 32.745 9.944-3.666-4.59-7.488-9.792 3.616c-3.484 1.287-5.648 4.771-5.261 8.454l1.198 11.398c0.047 0.464-0.123 0.925-0.456 1.249l-5.72 5.473c-0.486 0.464-1.229 0.544-1.811 0.206l-23.214-13.811c-2.823-1.688-6.379-1.494-9.007 0.472l-10.083 7.544c-2.046 1.526-3.253 3.939-3.253 6.496v14.546c0 0.396-0.152 0.772-0.426 1.055l-11.138 11.411 6.168 6.021 11.708-12.007c1.477-1.515 2.303-3.544 2.303-5.662v-14.36c0-0.48 0.224-0.924 0.603-1.202l8.201-6.143c0.49-0.362 1.148-0.401 1.671-0.088l23.376 13.908c3.13 1.861 7.121 1.401 9.758-1.117l7.525-7.198c1.814-1.732 2.726-4.214 2.465-6.707l-1.144-10.834c-0.066-0.679 0.334-1.33 0.975-1.566z"/>
  <path d="m62.225 65.771c0-3.375-2.733-6.105-6.1-6.105-3.371 0-6.1 2.73-6.1 6.105 0 3.366 2.729 6.096 6.1 6.096 3.366-1e-3 6.1-2.73 6.1-6.096z"/>
 </g>
</svg>
