<?xml version="1.0" encoding="UTF-8"?>
<svg width="21" height="21" version="1.1" viewBox="0 0 21 21" xmlns="http://www.w3.org/2000/svg">
  
 <rect width="21" height="21" fill="none"/>
 <rect x="1" y="1" width="19" height="19" rx="9.5" ry="9.5" fill="#577b19" stroke="#577b19" stroke-linejoin="round" stroke-width="2"/>
 <rect x="1" y="1" width="19" height="19" rx="9.5" ry="9.5" fill="#76a723"/>
 <g transform="matrix(.058241 0 0 .058241 4.3354 3)" fill="#fff">
  <path d="m136.93 79.578-0.147 0.286-0.213 0.246c-15.566 18.109-44.767 52.377-51.892 61.75l13.42 14.088c18.266-10.8 19.113-10.956 19.798-11.084 0.524-0.098 1.182-0.222 1.928-0.222 1.888 0 3.581 0.794 5.177 2.429 2.14 2.192 3.988 4.086 3.396 6.899-0.202 0.939-0.394 1.831-15.212 17.704v3.788c1.412 2.98 1.434 5.437 0 7.054v62.671c0 6.83 5.537 12.363 12.363 12.363 6.828 0 12.365-5.533 12.365-12.363v-145.55c1.734 1.318 3.617 2.577 5.672 3.697 4.374 2.382 9.601 4.157 15.434 4.159h0.103c4.918 0 10.129-1.379 15.082-4.237l-6.772-14.619c-0.126 0.084-0.256 0.182-0.38 0.26-3.156 1.996-5.648 2.574-8.033 2.595-2.538 2e-3 -5.138-0.772-7.79-2.213-3.966-2.132-7.791-5.784-10.442-8.917-1.33-1.56-2.384-2.979-3.083-3.973-0.127-0.182-0.23-0.333-0.333-0.485 0.325 2.02-0.277 3.361-0.441 3.676z"/>
  <path d="m83.82 164.49v7.105c0.829-1.335 1.732-2.786 2.727-4.378z"/>
  <path d="m83.839 197.46c-7e-3 1e-3 -0.013 1e-3 -0.02 2e-3v47.726c0 6.83 5.537 12.363 12.363 12.363 6.828 0 12.365-5.533 12.365-12.363v-61.379c-1.808-0.362-3.674-1.391-5.182-2.429-17.639 15.724-18.557 15.898-19.526 16.08z"/>
  <circle cx="110.86" cy="42.867" r="22.5"/>
  <path d="m4.461 201.24c2.221 1.1 3.569 0.44 3.569 0.44s57.916-47.382 65.094-51.821l16.956 16.958c-4.361 6.967-12.168 19.526-12.373 20.502-0.289 1.356-0.576 2.71 1.302 4.635 1.879 1.925 2.951 3.025 4.313 2.771 1.063-0.2 14.187-11.842 19.895-16.941 3.415 2.813 6.636 4.119 7.813 2.971 1.176-1.148-0.052-4.398-2.78-7.882 5.235-5.581 17.194-18.417 17.42-19.476 0.287-1.355-0.785-2.454-2.664-4.379-1.878-1.924-3.239-1.67-4.603-1.415-0.979 0.183-13.726 7.681-20.797 11.871l-16.54-17.363c4.612-7.067 53.392-63.813 53.392-63.813s0.692-1.333-0.355-3.578c-1.045-2.246-2.932-4.18-4.314-4.421-1.382-0.242-2.668-0.386-4.127 0.464-0.842 0.491-24.805 16.501-44.94 29.963-1.212-1.187-2.279-2.118-3.231-2.852-1.327 1.552-2.703 3.409-4.088 5.628 0.35 0.428 0.723 0.872 1.148 1.351-1.074 0.719-2.118 1.417-3.146 2.104-5.038 9.415-9.892 24.023-12.436 46.652-0.572 5.065-4.841 8.885-9.928 8.885-0.371 0-0.749-0.021-1.128-0.065-5.482-0.62-9.439-5.578-8.821-11.058 0.665-5.913 1.505-11.521 2.511-16.832-1.712 2.43-3.582 5.083-5.564 7.898-5.02-4.688-7.144-4.714-8.438-3.452-1.378 1.344-0.972 4.021 4.159 9.521-13.949 19.801-30.536 43.367-31.048 44.197-0.887 1.438-0.773 2.728-0.566 4.115 0.209 1.388 2.096 3.322 4.315 4.422z"/>
  <path d="m42.306 131.08c2.176-10.422 5.036-19.614 8.57-27.544l-11.361-12.368c-0.313-0.359-0.63-0.711-0.956-1.045-6.639-6.802-15.685-8.741-20.205-4.33-4.52 4.412-2.803 13.502 3.836 20.305 0.326 0.334 0.67 0.66 1.023 0.979l19.878 19.177c-2.238 3.09-1.336 3.59-0.785 4.826zm-14.663-35.769c-3.291 3.212-6.194 4.183-6.194 4.183-2.912-2.984-2.917-7.704-0.01-10.54 2.906-2.837 7.624-2.718 10.537 0.266 0 0-1.045 2.881-4.333 6.091z"/>
  <path d="m41.08 151.59c-0.495 4.39 2.665 8.35 7.056 8.845 0.304 0.034 0.606 0.051 0.906 0.051 4.017 0 7.477-3.019 7.938-7.107 3.901-34.679 13.291-51.156 20.812-58.809 1.232-1.247 2.42-2.268 3.554-3.132 0.862-0.656 1.688-1.214 2.474-1.685v5.543c21.69-14.5 31.68-21.158 36.314-24.235h-28.586c-0.214 0-0.425 0.015-0.634 0.032-1.974 0.052-5.768 0.526-10.4 2.453-4.265 1.774-9.238 4.778-14.155 9.832-10.906 11.168-21.133 31.388-25.279 68.212z"/>
  <path d="m181.6 75.211-14.972 6.936 12.4 26.767 32.665-15.132-12.399-26.767-14.972 6.935-0.841-1.814-33.416-72.136-2.722 1.261 33.417 72.136zm0.074 20.321c-2.669 0-4.833-2.164-4.833-4.833s2.164-4.833 4.833-4.833c2.67 0 4.834 2.164 4.834 4.833s-2.164 4.833-4.834 4.833zm18.5-10.166c0 2.669-2.164 4.833-4.833 4.833-2.67 0-4.833-2.164-4.833-4.833s2.163-4.833 4.833-4.833c2.669 0 4.833 2.163 4.833 4.833z"/>
  <ellipse cx="181.67" cy="90.699" rx="2.166" ry="2.333"/>
  <ellipse cx="195.34" cy="85.366" rx="2.167" ry="2.333"/>
 </g>
</svg>
