<svg width="21" height="21" version="1.1" viewBox="0 0 21 21" xmlns="http://www.w3.org/2000/svg"><rect width="21" height="21" fill="none"/><rect x="1" y="1" width="19" height="19" rx="9.5" ry="9.5" fill="#577b19" stroke="#577b19" stroke-linejoin="round" stroke-width="2"/><rect x="1" y="1" width="19" height="19" rx="9.5" ry="9.5" fill="#76a723"/><path d="m12.915 6.6251c-0.19076 0.0052-0.36455 0.14011-0.42655 0.31905-0.0558 0.13266-0.03252 0.28619 0.03906 0.40807 0.07151 0.13641 0.22402 0.21386 0.37245 0.23172 0.22747 0.01848 0.45842-0.14485 0.50483-0.37081 0.05214-0.21536-0.06955-0.45229-0.26967-0.54355-0.06828-0.03252-0.14459-0.04764-0.22012-0.04446zm-3.485-2.7835c-0.3878 0.00467-0.77764 0.01932-1.1593 0.093342-0.95592 0.17022-1.8925 0.5071-2.6942 1.0623-0.7011 0.48064-1.2855 1.1317-1.6791 1.8857-0.27647 0.52289-0.45891 1.0922-0.56255 1.6737-0.062466 0.31461-0.08766 0.63533-0.089388 0.95576-0.00888 0.55523 0.01002 1.1129 0.10222 1.6614 0.092256 0.57069 0.2411 1.1305 0.40713 1.6836 0.01818 0.0534 0.03192 0.11415 0.064092 0.15886 0.28194 0.10374 0.56879 0.19368 0.85326 0.29021 2.6367 0.87482 5.2769 1.7396 7.9174 2.603 0.92646 0.30076 1.8515 0.60602 2.7813 0.89623 0.0996 0.0276 0.19762 0.06676 0.30012 0.08035 0.03462 0.0054 0.06301-0.0052 0.08466-0.03288 0.11828-0.1225 0.2153-0.26398 0.31432-0.40214 0.22777-0.33122 0.38196-0.70822 0.49148-1.0935 0.05094-0.19146 0.09302-0.38566 0.12318-0.58145 0.0089-0.05886 4.45e-4 -0.13501-0.0597-0.16263-0.0267-0.02676-0.06829-0.01746-0.10088-0.0098-0.07128 0.03612-0.12842 0.0954-0.193 0.14215-0.22358 0.17847-0.44671 0.35721-0.67 0.53608-0.0276-0.03138-0.05268-0.06488-0.07851-0.09769 0.31686-0.26341 0.63774-0.52015 0.96178-0.77233 0.04416-0.03612 0.09172-0.06862 0.13745-0.10074 0.0601-0.05502 0.0519-0.14638 0.0558-0.2213-0.0026-0.08552 0.0025-0.18179-0.05556-0.25154-0.0399-0.024-0.08675-0.03708-0.1317-0.01884-0.10112 0.04224-0.18198 0.12038-0.26935 0.18473-0.20639 0.16345-0.41062 0.33212-0.61666 0.49442-0.02844-0.03078-0.0567-0.06181-0.08286-0.09457 0.32398-0.27416 0.66202-0.53144 0.98197-0.81031 0.06139-0.05736 0.14356-0.12635 0.12551-0.22012-0.0246-0.12277-0.02496-0.25016-0.06468-0.36979-0.03396-0.0092-0.06794-0.02964-0.10181-0.03258-0.09637 0.0273-0.15735 0.11377-0.2281 0.17859-0.17348 0.18511-0.38485 0.33471-0.6206 0.42941-0.4551 0.18942-0.96689 0.19142-1.4443 0.09587-0.20227-0.04032-0.40092-0.09774-0.59504-0.16724-0.02472-0.0088-0.05604-0.0207-0.0851-0.03222-0.10586-0.04152-0.1993-0.08441-0.29965-0.13734-0.44055-0.23034-0.80854-0.59135-1.0566-1.0214-0.26592-0.45695-0.41136-0.9753-0.48064-1.4969-0.02946-0.30866-0.03426-0.61996-0.01566-0.92944 0.01812-0.23422 0.09005-0.46198 0.1854-0.67564 0.08624-0.1943 0.20887-0.36961 0.34607-0.53111 0.02352-0.03366 0.05886-0.064056 0.07508-0.099732-0.09279-0.65358-0.18421-1.3074-0.27998-1.9605 0.413-0.05448 0.82848-0.089004 1.2424-0.13454 0.3446-0.0372 0.68999-0.069192 1.0331-0.11805 0.02826-0.01308 0.07897-0.0043 0.08428-0.0423 0.01146-0.03588 0.03108-0.071178 0.01452-0.10872-0.03102-0.08289-0.10201-0.14304-0.15883-0.20869-0.47763-0.50409-1.0286-0.93848-1.6281-1.2887-0.79638-0.4656-1.6915-0.76135-2.609-0.85836-0.18967-0.02148-0.38094-0.02304-0.57161-0.02262zm2.6132 6.359c0-0.74203 0.31963-1.1281 0.44741-1.2528l5.3755-0.53546 0.13429-0.67078-2.7492-0.80473-0.11099-0.74717-0.44776 0.04626 0.0339-0.02466c-0.023968-0.032903-0.60327-0.80371-1.6804-1.505-0.99589-0.64851-2.6214-1.3515-4.7061-1.0199-1.9942 0.31723-3.5868 1.3066-4.4841 2.7869-1.0086 1.6639-1.1268 3.8626-0.34704 6.3744-0.11956-0.03222-0.24494 0.0339-0.28366 0.15279-0.04044 0.12299 0.0267 0.25556 0.15005 0.29565l12.507 4.0908c0.0243 0.0079 0.04896 0.01164 0.07331 0.01164 0.09866 0 0.19048-0.06304 0.22268-0.16204 0.04044-0.12299-0.0267-0.25591-0.15005-0.29599l-0.0291-0.0092c0.42652-0.48133 1.357-1.8681 0.78383-4.3573 0.0216-0.05754 0.04146-0.11614 0.05826-0.17609 0.03462-0.12504-0.0387-0.2542-0.16375-0.2888-0.12539-0.03462-0.2542 0.0387-0.28914 0.16375-0.11168 0.40459-0.38849 0.74272-0.75916 0.9284-0.51117 0.25591-1.196 0.22851-1.9802-0.07845-1.6745-0.6554-1.6064-2.8901-1.606-2.912zm0.8938-2.7156c-0.20966 0-0.37993-0.16992-0.37993-0.37993 0-0.20966 0.17026-0.37993 0.37993-0.37993 0.21 0 0.37993 0.17026 0.37993 0.37993 3.43e-4 0.21-0.16958 0.37993-0.37993 0.37993zm0.54025 6.0754c0.53135 0.20761 0.98081 0.284 1.3546 0.284 0.43611 0 0.7691-0.1038 1.0068-0.22268 0.2768-0.1384 0.51353-0.34121 0.69373-0.58753 0.02466 0.14354 0.04452 0.28229 0.05928 0.41692l-1.1562 0.93422 0.21069 0.26105 0.97636-0.78897c0.0058 0.13978 0.0065 0.27441 0.0021 0.40424l-0.0264-0.03288-1.1627 0.93868 0.21069 0.26105 0.94895-0.76601c-0.14562 1.2604-0.73692 1.9445-0.93904 2.1446l-11.763-3.8554c-0.82048-2.5029-0.73518-4.681 0.24871-6.3039 0.84549-1.3943 2.3546-2.3285 4.2497-2.6297 3.3063-0.52586 5.4477 1.6711 5.9507 2.2542l-2.4382 0.25214 0.29462 2.0534c-0.17026 0.15587-0.62384 0.66118-0.62521 1.618-0.0062 0.16375-0.05928 2.5957 1.9034 3.3645z" fill="#fff" stroke-width=".020588"/></svg>
