<?xml version="1.0" encoding="UTF-8"?>
<svg width="17" height="17" version="1.1" viewBox="0 0 17 17" xmlns="http://www.w3.org/2000/svg">
  
 <rect width="17" height="17" fill="none"/>
 <rect x="1" y="1" width="15" height="15" rx="7.5" ry="7.5" fill="#86be28" stroke="#86be28" stroke-linejoin="round" stroke-width="2"/>
 <rect x="1" y="1" width="15" height="15" rx="7.5" ry="7.5" fill="#76a723"/>
 <g transform="matrix(.12165 0 0 .12165 2.4367 2.4176)" fill="#fff">
  <path d="m54.289 47.857c-1.834 0-3.398 0.648-4.694 1.932-1.297 1.307-1.956 2.872-1.956 4.718 0 1.834 0.659 3.423 1.956 4.756 1.296 1.318 2.86 1.979 4.694 1.979 1.847 0 3.411-0.635 4.719-1.932 1.283-1.295 1.931-2.896 1.931-4.804 0-1.785-0.647-3.336-1.931-4.655-1.308-1.333-2.872-1.994-4.719-1.994z"/>
  <path d="m98.27 32.589c-4.522-9.423-13.716-22.613-33.885-27.76-54.994-14.07-74.1 45.287-58.753 54.274 9.536 5.587 15.182 0.372 21.332-7.481l9.978 11.478c-1.1 0.974-1.22 2.649-0.26 3.766l8.532 9.928c0.502 0.583 1.228 0.924 1.997 0.937 0.015 1e-3 0.03 1e-3 0.044 1e-3 0.754 0 1.474-0.316 1.983-0.873l4.854-5.293 4.622 10.558c1.149 2.2 2.873 3.287 5.184 3.287 0.537 0 1.099-0.072 1.709-0.22l11.063-3.782v12.207c0 2.468 1.184 3.704 3.583 3.704 2.37 0 3.567-1.188 3.567-3.582v-17.428c0-1.295-0.514-2.445-1.515-3.434-1.002-0.979-2.078-1.48-3.181-1.48-0.293 0-0.562 0.014-0.841 0.025l-10.207 3.244-3.396-7.786h6.82c1.487 0 2.691-1.203 2.691-2.691v-38.17c9.131 1.584 15.716 5.799 20.41 9.372 3.657 2.773 5.919 1.882 3.669-2.801zm-26.233 15.42c-0.173-0.036-0.352-0.055-0.537-0.055-1.486 0-2.691 1.205-2.691 2.693v10.851h-9.393c-1.999 0.077-4.123 0.932-5.624 2.432l-6.472 7.058-18.684-21.541c7.448-9.808 16.161-22.307 33.487-23.874 3.585-0.321 6.88-0.24 9.914 0.129z"/>
 </g>
</svg>
