<?xml version="1.0" encoding="UTF-8"?>
<svg width="21" height="21" version="1.1" viewBox="0 0 21 21" xmlns="http://www.w3.org/2000/svg">
 <rect width="21" height="21" fill="none"/>
 <rect x="1" y="1" width="19" height="19" rx="9.5" ry="9.5" fill="#86be28" stroke="#86be28" stroke-linejoin="round" stroke-width="2"/>
 <rect x="1" y="1" width="19" height="19" rx="9.5" ry="9.5" fill="#76a723"/>
 <g transform="matrix(.625 0 0 .625 3.2138 3.8622)" fill="none">
  <rect width="24" height="24"/>
  <rect width="24" height="24"/>
 </g>
 <g transform="translate(0 .1)" fill="#fff">
  <path d="m13.386 4.8979c-0.88892-0.07515-1.8523 0.17359-2.7422 0.69141 0.23218 0.37834 0.35575 0.80195 0.36914 1.2305 1.2375-0.83477 2.7226-0.93031 3.5332-0.125 0.95625 0.95625 0.65664 2.8824-0.66211 4.2012-1.3188 1.3188-3.2367 1.6184-4.1992 0.66211-0.54317-0.54317-0.66731-1.3997-0.44336-2.2793-0.23584 0.070847-0.47768 0.11719-0.7207 0.11719-0.18943 0-0.37818-0.027268-0.56445-0.070312-0.035376 0.19378-0.075954 0.39188-0.078125 0.56445-0.0125 0.9875 0.1625 2.4313-0.84375 3.4375l-2.2129 2.2051c-0.24375 0.24375-0.24375 0.63867 0 0.88867 0.24375 0.24375 0.63867 0.24375 0.88867 0l2.2051-2.2129c1.0062-1.0062 2.45-0.83125 3.4375-0.84375s2.4121-0.58789 3.4121-1.5879c1.8312-1.825 2.1324-4.5004 0.66992-5.9629-0.54844-0.54844-1.2678-0.84999-2.0488-0.91602zm-3.7578 1.4395c-0.052811 0.049082-0.11059 0.087151-0.16211 0.13867-0.47924 0.47924-0.85416 1.056-1.123 1.6348 0.060151 0.00889 0.11624 0.035156 0.17773 0.035156 0.33125 0 0.64961-0.13203 0.88086-0.36328 0.39125-0.39125 0.46332-0.97617 0.22656-1.4453z" stroke-width=".625"/>
  <path d="m8.5205 5.6459c0.33125 0 0.65 0.13125 0.88125 0.36875 0.4875 0.4875 0.4875 1.2812 0 1.7687-0.23125 0.23125-0.55 0.3625-0.88125 0.3625s-0.65-0.13125-0.88125-0.36875c-0.4875-0.4875-0.4875-1.2812 0-1.7688 0.23125-0.23125 0.55-0.3625 0.88125-0.3625m0-1.25c-0.6375 0-1.2812 0.24375-1.7687 0.73125-0.975 0.975-0.975 2.5562 0 3.5375 0.4875 0.4875 1.1312 0.73125 1.7687 0.73125s1.2812-0.24375 1.7688-0.73125c0.975-0.975 0.975-2.5562 0-3.5375-0.4875-0.4875-1.1313-0.73125-1.7688-0.73125z" stroke="#76a723" stroke-width=".4"/>
 </g>
</svg>
