<?xml version="1.0" encoding="UTF-8"?>
<svg width="17" height="17" version="1.1" viewBox="0 0 17 17" xmlns="http://www.w3.org/2000/svg">
 <rect width="17" height="17" fill="none"/>
 <rect x="1" y="1" width="15" height="15" rx="7.5" ry="7.5" fill="#577b19" stroke="#577b19" stroke-linejoin="round" stroke-width="2"/>
 <rect x="1" y="1" width="15" height="15" rx="7.5" ry="7.5" fill="#76a723"/>
 <path d="m5.1652 13.406c-0.44202-0.11172-0.81376-0.40195-1.0097-0.78831l-0.090272-0.178-0.15731-0.01464c-0.65635-0.06096-1.2512-0.62778-1.3857-1.3204-0.04488-0.23106-0.01784-1.0127 0.04592-1.3288 0.24667-1.222 0.97715-2.246 2.0292-2.8444 0.1418-0.080664 0.27101-0.14671 0.28712-0.14677 0.01608-7.2e-5 0.02928-0.01736 0.02928-0.0384 0-0.03424-0.37159-1.4914-0.38232-1.4992-0.0024-0.0016-0.04496-0.02216-0.09461-0.04528-0.13353-0.06232-0.30164-0.23834-0.37991-0.39785-0.0624-0.12717-0.06896-0.16306-0.06896-0.37502 0-0.20482 8e-3 -0.25117 0.06232-0.36741 0.087304-0.18623 0.23133-0.33335 0.41477-0.42365 0.1434-0.07056 0.17194-0.07616 0.38961-0.07616 0.21783 5.6e-5 0.24509 0.0056 0.37551 0.07368 0.15745 0.082464 0.32244 0.23622 0.38617 0.35987 0.0604 0.11714 0.11777 0.32243 0.11777 0.42123 0 0.13219-0.0652 0.3532-0.14001 0.47463l-0.06816 0.11066 0.14783 0.56907c0.08131 0.31298 0.16685 0.6434 0.1901 0.73428l0.04224 0.16522 0.11907-0.01704c0.23606-0.03376 1.7642-0.02272 2.0871 0.01504 1.1347 0.13273 2.1599 0.52796 3.1321 1.2074 0.44547 0.31133 0.49033 0.3289 1.2635 0.49466 0.45286 0.097088 0.58832 0.13579 0.76176 0.21767 0.53729 0.25364 0.94552 0.75124 1.103 1.3445 0.03632 0.13696 0.12699 1.3178 0.12732 1.6589 4.32e-4 0.45223-0.28319 0.84939-0.70932 0.99329-0.12006 0.04056-0.20149 0.0484-0.50051 0.0484h-0.35711l-0.08705 0.18165c-0.12466 0.26015-0.39687 0.53048-0.6645 0.6599-0.26414 0.12774-0.49016 0.17549-0.76073 0.16072-0.5377-0.02936-1.0326-0.35058-1.2651-0.82118l-0.08948-0.18109h-3.1288l-0.08992 0.17715c-0.17457 0.34395-0.50128 0.62557-0.8725 0.75212-0.22629 0.07712-0.59749 0.097-0.80984 0.04336zm0.56572-1.0489c0.26494-0.12354 0.33676-0.50906 0.13718-0.73636-0.20135-0.22934-0.53631-0.2283-0.73877 0.0024-0.23765 0.27067-0.0802 0.72213 0.27468 0.78759 0.10942 0.02016 0.20097 0.0056 0.3269-0.05352zm5.9469 0.02672c0.14822-0.0448 0.31296-0.27108 0.31383-0.43099 0.0016-0.27504-0.22178-0.50394-0.49157-0.50394-0.27023 0-0.49158 0.22724-0.49208 0.5052-2.16e-4 0.11453 0.1107 0.31029 0.21485 0.37921 0.14267 0.09442 0.26495 0.108 0.45497 0.05056zm-7.5148-1.1417c0.1838-0.35329 0.50063-0.62322 0.87468-0.7452 0.26583-0.08669 0.62615-0.0918 0.88398-0.01256 0.4226 0.1299 0.74901 0.40742 0.93795 0.79745l0.0696 0.1436h3.1388l0.09935-0.19337c0.0728-0.14174 0.14667-0.2403 0.27659-0.36916 0.3053-0.30281 0.63373-0.43537 1.0679-0.43104 0.21044 0.0024 0.29285 0.014 0.44839 0.06456 0.40685 0.13241 0.77273 0.46341 0.93104 0.84228l0.03624 0.0867h0.26935c0.14815 0 0.27512-0.0093 0.28216-0.02072 0.0244-0.03952-0.07984-1.3943-0.11547-1.5002-0.079517-0.23672-0.28501-0.47203-0.50922-0.5832-0.05904-0.02928-0.34728-0.10541-0.64052-0.16918-0.29323-0.06376-0.60278-0.1387-0.68788-0.16653-0.22414-0.07328-0.52793-0.23491-0.80416-0.42784-0.85228-0.59528-1.627-0.9121-2.5968-1.062-0.34621-0.05352-1.8324-0.0624-2.096-0.01256-1.0704 0.20246-1.9603 0.97645-2.3311 2.0275-0.12772 0.36203-0.17374 0.63848-0.17633 1.0592-0.0024 0.36789-8e-4 0.37763 0.06512 0.51239 0.04672 0.09514 0.099424 0.15998 0.17148 0.21095 0.099225 0.07016 0.22088 0.12656 0.2814 0.13039 0.01544 8e-4 0.07104-0.0807 0.12348-0.18152z" fill="#fff" stroke-width=".023439"/>
</svg>
