<?xml version="1.0" encoding="UTF-8"?>
<svg width="21" height="21" version="1.1" viewBox="0 0 21 21" xmlns="http://www.w3.org/2000/svg">
    <rect width="21" height="21" fill="none"/>
    <rect x="1" y="1" width="19" height="19" rx="9.5" ry="9.5" fill="#86be28" stroke="#86be28" stroke-linejoin="round"
          stroke-width="2"/>
    <rect x="1" y="1" width="19" height="19" rx="9.5" ry="9.5" fill="#76a723"/>
    <g transform="matrix(.625 0 0 .625 3 3)">
        <rect width="24" height="24" fill="none"/>
        <g fill="#fff" opacity=".98">
            <g transform="matrix(1.0435 0 0 1.0435 -1.0435 -1.0435)" fill="#fff">
                <g fill="#fff">
                    <path d="m8.5 14.5-4.5 4.5 1.5 1.5 3.5-3.5h2zm6.5-13.5c-1.1 0-2 0.9-2 2s0.9 2 2 2 2-0.9 2-2-0.9-2-2-2zm6 20.01-3 2.99-2.99-3.01v-1.49l-7.1-7.09c-0.31 0.05-0.61 0.07-0.91 0.07v-2.16c1.66 0.03 3.61-0.87 4.67-2.04l1.4-1.55c0.35-0.39 0.99-0.73 1.65-0.73h0.03c1.24 0.01 2.25 1.02 2.25 2.26v5.75c0 0.84-0.35 1.61-0.92 2.16l-3.58-3.58v-2.27c-0.63 0.52-1.43 1.02-2.29 1.39l6.29 6.29h1.5z"
                          fill="#fff"/>
                </g>
            </g>
        </g>
    </g>
</svg>
