<?xml version="1.0" encoding="UTF-8"?>
<svg width="17" height="17" version="1.1" viewBox="0 0 17 17" xmlns="http://www.w3.org/2000/svg">
 <rect width="17" height="17" fill="none"/>
 <rect x="1" y="1" width="15" height="15" rx="7.5" ry="7.5" fill="#86be28" stroke="#86be28" stroke-linejoin="round" stroke-width="2"/>
 <rect x="1" y="1" width="15" height="15" rx="7.5" ry="7.5" fill="#76a723"/>
 <g transform="matrix(.54167 0 0 .54167 2 .97031)">
  <rect width="24" height="24" fill="none"/>
  <path d="m11.142 13.186v-9.5582c0-0.49772-0.63992-0.70087-0.92433-0.29457l-6.643 9.5582c-0.23362 0.3352 0.010156 0.80244 0.41646 0.80244h6.643c0.28441 0 0.50787-0.22346 0.50787-0.50787zm10.147-0.02031c-0.27425-6.0031-5.1702-10.828-7.7095-11.935-0.37583-0.16252-0.78212 0.20315-0.68055 0.59929 0.30472 1.1478 0.77197 3.3316 0.77197 5.7694 0 2.4784-0.49772 4.4591-0.79228 5.4342-0.10158 0.32504 0.1422 0.66024 0.48756 0.66024h7.3946c0.29457 0 0.53834-0.24378 0.52819-0.52819zm-0.37583 2.0518h-17.511c-0.7415 0-1.2392 0.77197-0.93449 1.4424 0.43677 0.93449 1.0868 1.7369 1.8893 2.3464 0.38598-0.16252 0.75165-0.38598 1.0767-0.63992 0.35551-0.29457 0.8837-0.29457 1.2494 0 0.68055 0.53835 1.5135 0.91417 2.4276 0.91417 0.91417 0 1.7471-0.37582 2.4276-0.92433 0.35551-0.28441 0.8837-0.28441 1.2392 0 0.68055 0.5485 1.5135 0.92433 2.4276 0.92433s1.7471-0.37582 2.4276-0.92433c0.35551-0.29457 0.8837-0.28441 1.2494 0 0.32504 0.2641 0.68055 0.48756 1.0767 0.63992 0.80244-0.60945 1.4525-1.4119 1.8893-2.3464 0.30472-0.66024-0.19299-1.4322-0.93449-1.4322zm1.4017 7.1102c0-0.55866-0.45708-1.0157-1.0157-1.0157-0.8837 0-1.7572-0.24378-2.5698-0.71102-0.29457-0.16252-0.66024-0.17268-0.9548 0-1.615 0.91417-3.5246 0.91417-5.1397 0-0.29457-0.16252-0.66024-0.16252-0.9548 0-1.615 0.91417-3.5246 0.91417-5.1397 0-0.29457-0.16252-0.66024-0.16252-0.9548 0-0.8126 0.46724-1.6861 0.71102-2.5698 0.71102-0.55866-6e-6 -1.0157 0.45708-1.0157 1.0157 0 0.55866 0.45709 1.0157 1.0157 1.0157 1.1681 0 2.3362-0.31488 3.3824-0.9548 1.6861 1.1275 3.8395 1.0259 5.6679 0.1422 1.9401 1.0665 4.2357 1.0868 6.1859 0.05078 0.96496 0.50787 2.001 0.76181 3.0472 0.76181 0.55866 0 1.0157-0.45708 1.0157-1.0157z" fill="#fff" stroke-width="1.0158"/>
 </g>
</svg>
