<?xml version="1.0" encoding="UTF-8"?>
<svg width="17" height="17" version="1.1" viewBox="0 0 17 17" xmlns="http://www.w3.org/2000/svg">
 <rect width="17" height="17" fill="none"/>
 <rect x="1" y="1" width="15" height="15" rx="7.5" ry="7.5" fill="#86be28" stroke="#86be28" stroke-linejoin="round" stroke-width="2"/>
 <rect x="1" y="1" width="15" height="15" rx="7.5" ry="7.5" fill="#76a723"/>
 <g transform="matrix(.16616 0 0 .16616 .19184 .19184)" fill="#fff">
  <path d="m30.9 62h0.9c4 0 6.2-2.3 8-4.1 1.6-1.6 2.9-2.9 5.3-2.9s3.7 1.3 5.3 2.9c1.9 2 4.3 4.4 8.9 4.1 7.8-0.6 14-7.4 14-15.5v-7.8c0-3.9-3.1-7-7-7h-42.4c-3.9 0-7 3.1-7 7v7.8c0 8.1 6.2 14.9 14 15.5zm-10-23.3c0-1.7 1.3-3 3-3h42.4c1.7 0 3 1.3 3 3v7.8c0 6-4.5 11.1-10.3 11.5-2.7 0.2-4-1.1-5.7-2.9-1.8-1.8-4.1-4.1-8.2-4.1s-6.3 2.3-8.2 4.1c-1.8 1.8-3 3.1-5.7 2.9-5.8-0.4-10.3-5.5-10.3-11.5z"/>
  <path d="m60.1 66.7h-5.4c-1.3-4-5.1-7-9.5-7-5.5 0-10 4.5-10 10s4.5 10 10 10c4.5 0 8.2-2.9 9.5-7h5.4c12.7 0 23-10.3 23-23v-26.4c0-1.7-1.3-3-3-3s-3 1.3-3 3v26.3c0 9.5-7.7 17.1-17 17.1z"/>
 </g>
</svg>
