<?xml version="1.0" encoding="UTF-8"?>
<svg width="17" height="17" version="1.1" viewBox="0 0 17 17" xmlns="http://www.w3.org/2000/svg">
 <rect width="17" height="17" fill="none"/>
 <rect x="1" y="1" width="15" height="15" rx="7.5" ry="7.5" fill="#86be28" stroke="#86be28" stroke-linejoin="round" stroke-width="2"/>
 <rect x="1" y="1" width="15" height="15" rx="7.5" ry="7.5" fill="#76a723"/>
 <path d="m4.2588 4.7932-0.2115 0.22263c-0.14832 0.15613-0.31814 0.1675-0.53433 0.089056-0.10618-0.03856-0.22563-0.14976-0.32282-0.05568-0.092584 0.08964 0.03944 0.16202 0.13358 0.20037 0.38616 0.15727 0.60418 0.3842 0.51206 0.85714-0.092112 0.47294-0.4117 0.41947-0.69017 0.46754-0.20915 0.03608-0.40776 0.0352-0.51206 0.13358-0.20725 0.19554-0.01392 0.4135 0.13358 0.40074 0.67681-0.05856 1.2424 0.45928 0.93506 1.1354l-0.33395 0.7347 0.35622 0.02224-1.2245 2.8052 3.0501 0.40074 0.93506-3.3395c0.06384-0.22801 0.36458-0.36756 0.60111-0.37847l1.4471-0.0668c0.29994-0.01384 0.63872-0.28303 0.69017-0.57885l0.089056-0.51206c0.03696-0.21254 0.27408-0.42085 0.48979-0.42301l2.2263-0.02224 0.0668-0.11132 2.1596-0.02224c0.10309-8e-4 0.11397-0.17295 0.15584-0.26716l0.089056-0.20038v-1.2468l-0.20037-0.2449h-5.0093l-0.22263 0.2449h-1.2245l-0.15585-0.2449zm3.4564 2.2375h0.70686c0.80168 0 0.81668 1.2913 0 1.2913h-0.70686c-0.74473 0-0.85502-1.2913 0-1.2913zm0 0.03896c-0.81338-0.0024-0.67571 1.2291 0 1.2134-0.30347-0.41273-0.31813-0.82027 0-1.2134z" fill="#fff" fill-rule="evenodd"/>
</svg>
