<?xml version="1.0" encoding="UTF-8"?>
<svg width="21" height="21" version="1.1" viewBox="0 0 21 21" xmlns="http://www.w3.org/2000/svg">
 <rect width="21" height="21" fill="none"/>
 <rect x="1" y="1" width="19" height="19" rx="9.5" ry="9.5" fill="#577b19" stroke="#577b19" stroke-linejoin="round" stroke-width="2"/>
 <rect x="1" y="1" width="19" height="19" rx="9.5" ry="9.5" fill="#76a723"/>
 <path d="m5.1985 5.8665-0.26438 0.27829c-0.1854 0.19516-0.39767 0.20937-0.66791 0.11132-0.13273-0.0482-0.28204-0.1872-0.40352-0.0696-0.11573 0.11205 0.0493 0.20252 0.16697 0.25046 0.4827 0.19659 0.75522 0.48025 0.64008 1.0714-0.11514 0.59117-0.51463 0.52434-0.86271 0.58442-0.26144 0.0451-0.5097 0.044-0.64007 0.16697-0.25906 0.24442-0.0174 0.51687 0.16697 0.50093 0.84601-0.0732 1.553 0.5741 1.1688 1.4193l-0.41744 0.91837 0.44527 0.0278-1.5306 3.5065 3.8126 0.50093 1.1688-4.1744c0.0798-0.28501 0.45573-0.45945 0.75139-0.47309l1.8089-0.0835c0.37493-0.0173 0.7984-0.35379 0.86271-0.72356l0.11132-0.64007c0.0462-0.26567 0.3426-0.52606 0.61224-0.52876l2.7829-0.0278 0.0835-0.13915 2.6994-0.0278c0.12886-1e-3 0.14246-0.21619 0.1948-0.33395l0.11132-0.25047v-1.5584l-0.25046-0.30612h-6.2616l-0.27829 0.30612h-1.5306l-0.19481-0.30612zm4.3205 2.7968h0.88358c1.0021 0 1.0208 1.6141 0 1.6141h-0.88358c-0.93091 0-1.0688-1.6141 0-1.6141zm0 0.0487c-1.0167-3e-3 -0.84464 1.5364 0 1.5167-0.37934-0.51591-0.39766-1.0253 0-1.5167z" fill="#fff" fill-rule="evenodd"/>
</svg>
