<?xml version="1.0" encoding="UTF-8"?>
<svg width="21" height="21" version="1.1" viewBox="0 0 21 21" xmlns="http://www.w3.org/2000/svg">
 <rect width="21" height="21" fill="none"/>
 <rect x="1" y="1" width="19" height="19" rx="9.5" ry="9.5" fill="#577b19" stroke="#577b19" stroke-linejoin="round" stroke-width="2"/>
 <rect x="1" y="1" width="19" height="19" rx="9.5" ry="9.5" fill="#76a723"/>
 <g transform="matrix(.10824 0 0 .10824 3.5729 3.5726)" fill="#fff">
  <path d="m40.007 36.492q-1.5009 1.3821-2.9722 2.8532-3.3882 3.3883-6.4396 6.9548a120.22 120.22 0 0 0-26.488 54.126 7.584 7.584 0 0 0 3.2621 7.8976 40.955 40.955 0 0 1 6.7997 5.5031 40.772 40.772 0 0 1 5.4996 6.8019 7.5824 7.5824 0 0 0 7.9024 3.2668 120.35 120.35 0 0 0 54.125-26.515c2.3677-2.031 4.696-4.1808 6.945-6.4297 0.98077-0.98077 1.9318-1.9716 2.863-2.982a120.41 120.41 0 0 0 32.535-84.013 120.37 120.37 0 0 0-84.032 32.535zm42.195 48.02-0.50522 0.50522-9e-5 -38.717h-38.737l0.51514-0.51515a113.3 113.3 0 0 1 10.521-9.2929h37.508v37.489a113.35 113.35 0 0 1-9.3028 10.531z"/>
 </g>
</svg>
