<?xml version="1.0" encoding="UTF-8"?>
<svg width="17" height="17" version="1.1" viewBox="0 0 17 17" xmlns="http://www.w3.org/2000/svg">
 <rect width="17" height="17" fill="none"/>
 <rect x="1" y="1" width="15" height="15" rx="7.5" ry="7.5" fill="#577b19" stroke="#577b19" stroke-linejoin="round" stroke-width="2"/>
 <rect x="1" y="1" width="15" height="15" rx="7.5" ry="7.5" fill="#76a723"/>
 <g transform="matrix(.60123 0 0 .60123 2.0181 1.2975)" fill="#fff">
  <circle cx="6" cy="4" r="2"/>
  <circle cx="15" cy="4" r="2"/>
  <polygon points="8.7 13.2 10.7 8.2 11.6 7.2 14.7 8 15.6 9.1 13.3 15"/>
  <g fill="none" stroke="#fff" stroke-miterlimit="10" stroke-width="2">
   <path d="m5.1 4.5 2 2c0.5 0.5 1.2 0.8 1.8 0.9l2.3 0.1c0.3 0 0.7 0.1 1 0.2l2.6 1.1c1.4 0.6 2.1 2.2 1.6 3.6l-0.6 1.6"/>
   <line x1="13.2" x2="9.7" y1="12.5" y2="21.6" stroke-linejoin="round"/>
   <line x1="10.8" x2="8.2" y1="11" y2="16.7" stroke-linejoin="round"/>
  </g>
 </g>
</svg>
