<?xml version="1.0" encoding="UTF-8"?>
<svg width="21" height="21" version="1.1" viewBox="0 0 21 21" xmlns="http://www.w3.org/2000/svg">
 <rect width="21" height="21" fill="none"/>
 <rect x="1" y="1" width="19" height="19" rx="9.5" ry="9.5" fill="#86be28" stroke="#86be28" stroke-linejoin="round" stroke-width="2"/>
 <rect x="1" y="1" width="19" height="19" rx="9.5" ry="9.5" fill="#76a723"/>
 <g transform="matrix(.01059 0 0 .01059 2.9154 9.6236)" fill="#fff"></g>
 <g transform="translate(26.727 .0092133)" fill="#fff" stroke-width=".17722">
  <path d="m-14.499 6.6137c0-0.95467-0.77429-1.7286-1.7286-1.7286-0.95452 0-1.7287 0.7739-1.7287 1.7286 0 0.95448 0.77429 1.7282 1.7287 1.7282 0.95435 0 1.7286-0.77372 1.7286-1.7282z"/>
  <path d="m-15.808 14.385h-2.3215c0.15061-0.05757 0.30105-0.11296 0.45333-0.166h2.8983c0.15228 0.05321 0.30255 0.10827 0.45316 0.166h-0.92356c0.11881 0.07748 0.22005 0.1788 0.29804 0.2979 0.30808 0.47264 0.17437 1.1053-0.29804 1.4137h2.1757c0.4724 0 0.85595-0.38314 0.85595-0.85577 0-0.35496-0.21872-0.67288-0.55055-0.79942-0.55457-0.2116-1.1193-0.39519-1.6926-0.54955v-3.478c1.7486-0.07798 3.4851-0.33494 5.1821-0.76646 0.39074-0.099234 0.6272-0.49674 0.52763-0.88731-0.098732-0.39076-0.49634-0.627-0.88708-0.52758-1.8205 0.46272-3.6886 0.71259-5.5671 0.7436h-2.046c-1.8783-0.031125-3.7465-0.28088-5.5669-0.7436-0.39091-0.099568-0.78784 0.13655-0.88724 0.52758-0.1004 0.39058 0.13722 0.78808 0.52763 0.88731 1.6967 0.43169 3.4334 0.68848 5.1829 0.76646v3.478c-0.57314 0.15412-1.1386 0.33778-1.6931 0.54955-0.44145 0.16835-0.66284 0.66279-0.49466 1.1046 0.12718 0.33139 0.44479 0.55044 0.79956 0.55044h3.5755c0.47274 0 0.85629-0.38314 0.85629-0.8556 0-0.47264-0.38355-0.85577-0.85629-0.85577"/>
 </g>
</svg>
