<?xml version="1.0" encoding="UTF-8"?>
<svg width="17" height="17" version="1.1" viewBox="0 0 17 17" xmlns="http://www.w3.org/2000/svg">
 <rect width="17" height="17" fill="none"/>
 <rect x="1" y="1" width="15" height="15" rx="7.5" ry="7.5" fill="#bbb" stroke="#bbb" stroke-linejoin="round" stroke-width="2"/>
 <rect x="1" y="1" width="15" height="15" rx="7.5" ry="7.5" fill="#fff"/>
 <g transform="matrix(-.12467 0 0 .12467 14.8 2.2209)" fill="#5d60be">
  <path d="m23.635 15.039c3.364 2.203 6.198 5.201 9.308 7.799 2.278 1.9 3.755 4.597 6.293 6.224 2.242 1.44 4.85 0.888 7.272 1.213 4.521 0.603 9.1 1.161 13.645 1.085 4.366-0.075 8.677-0.056 12.961 0.773 5.302 1.028 10.902 1.778 14.216 6.681 1.973 2.916 2.702 6.549 2.729 10.094 0.039 5.51 0.885 10.658 4.781 14.877 0.296 0.326 0.602 0.681 0.976 0.898 2.591 1.489 3.107 3.669 2.746 6.532-0.487 3.84 0.395 7.753-0.297 11.623-0.124 0.687-0.403 0.982-1.052 0.989-0.867 0.014-1.735 0.025-2.604 7e-3 -0.914-0.017-2.437 0.056-2.229-0.938 0.184-0.849 0.244-2.562 1.973-2.683 0.665-0.046 1.161-0.602 1.19-1.305 0.185-3.973 0.185-7.911-3.084-10.907-0.275-0.253-0.645-0.407-0.97-0.607-0.158 0.303-0.378 0.592-0.464 0.914-0.69 2.548-1.056 5.241-2.13 7.607-0.849 1.861-2.969 0.711-4.544 0.737-0.507 9e-3 -1.019-0.31-0.809-0.872 0.428-1.131 1.256-1.703 2.541-1.903 2.331-0.361 1.723-2.476 1.93-3.929 0.474-3.304-1.867-5.3-3.846-7.401-0.382-0.407-0.645 0.062-0.839 0.411-1.657 2.962-2.683 6.343-5.586 8.493-0.395 0.295-0.763 0.93-1.253 0.546-0.52-0.404-3e-3 -0.935 0.329-1.221 2.62-2.249 3.699-5.432 5.139-8.4 0.848-1.756-0.772-2.463-1.684-3.091-3.998-2.759-5.895-6.625-6.595-11.268-0.204-1.331-0.783-1.769-2.342-1.345-5.79 1.586-11.096 4.334-16.558 6.682-2.959 1.27-5.964 1.92-9.081 2.469-1.979 0.346-1.854 2.503-2.13 3.876-1.052 5.202-1.667 10.477-1.483 15.809 0.043 1.157-3e-3 2.153-1.102 3.008-1.815 1.414-1.223 3.838-1.996 5.729-0.45 1.091-0.891 1.9-2.088 2.038-1.539 0.174-3.084 0.293-4.524-0.47-0.083-0.043-0.125-0.402-0.062-0.444 0.97-0.693 0.664-2.394 2.177-2.689 0.536-0.103 1.016-0.49 1.522-0.749-0.404-0.017-0.822 0.028-1.207-0.062-0.891-0.221-2.361-0.04-2.41-1.065-0.052-1.03 0.667-2.107 2.075-2.463 2.002-0.5 1.871-2.581 1.923-3.903 0.26-6.625-0.181-13.266-2.413-19.542-1.104-3.104-3.492-5.731-4.774-8.792-0.888-2.114-0.428-4.813-1.381-6.875-1.486-3.212-3.222-6.336-5.136-9.384-3.038-4.833-7.056-3.57-11.225-2.952-2.712 0.404-5.412 0.388-7.838-1.2-0.542-0.354-1.236-0.667-1.216-1.41 0.02-0.892 0.71-1.345 1.46-1.664 0.559-0.236 3.984-1.719 6.322-3.429s3.817-3.824 4.827-3.966c3e-3 -1e-3 5.997-1.902 8.617-0.185z" clip-rule="evenodd" fill-rule="evenodd"/>
 </g>
</svg>
