<?xml version="1.0" encoding="UTF-8"?>
<svg width="17" height="17" version="1.1" viewBox="0 0 17 17" xmlns="http://www.w3.org/2000/svg">
 <rect width="17" height="17" fill="none"/>
 <rect x="1" y="1" width="15" height="15" rx="7.5" ry="7.5" fill="#bbb" stroke="#bbb" stroke-linejoin="round" stroke-width="2"/>
 <rect x="1" y="1" width="15" height="15" rx="7.5" ry="7.5" fill="#fff"/>
 <g transform="matrix(.37499 0 0 .37499 2.3126 2.3124)" fill="#5d60be">
  <path d="m18.018 28.078c-0.356-0.236-0.805-0.204-1.131 0.035l-3.428-2.311c0.672-1.258 0.794-2.754 0.331-4.274-0.505-1.658-1.647-3.147-3.216-4.192-1.341-0.892-2.909-1.384-4.417-1.384-2.045 0-3.797 0.868-4.806 2.382-1.815 2.728-0.632 6.718 2.637 8.895 1.341 0.893 2.909 1.384 4.416 1.384 1.858 0 3.467-0.723 4.503-1.988l3.438 2.317c-0.075 0.381 0.078 0.787 0.422 1.016l2.492 1.658c0.455 0.305 1.068 0.181 1.371-0.274l0.154-0.231c0.303-0.455 0.18-1.068-0.275-1.372zm-10.17-0.499c-0.623-0.057-1.245-0.204-1.851-0.438l0.493-0.74 1.484 0.988zm1.154-0.397 0.88-1.32 1.397 0.93c-0.514 0.351-1.116 0.595-1.777 0.724zm-0.617-0.411-1.485-0.988 0.88-1.322 1.484 0.988zm-6.792-4.52c-0.134-0.65-0.142-1.302-0.015-1.92l1.382 0.921-0.881 1.322zm1.984-0.589 1.484 0.988-0.88 1.322-1.484-0.987zm3.114-4.678c0.624 0.054 1.247 0.199 1.855 0.432l-0.49 0.734-1.484-0.988zm-1.148 0.386-0.881 1.322-1.38-0.919c0.515-0.352 1.117-0.596 1.779-0.724zm0.618 0.41 1.485 0.988-0.881 1.323-1.485-0.987zm1.221 2.722 0.88-1.322 1.486 0.988-0.881 1.323zm1.074 1.607-0.881 1.322-1.485-0.988 0.881-1.323zm-2.103-1.399-0.88 1.322-1.484-0.988 0.881-1.322zm-0.675 2.352 1.485 0.988-0.88 1.322-1.485-0.988zm2.514 0.782 0.88-1.322 1.484 0.986-0.881 1.323zm1.292-1.942 0.881-1.322 1.484 0.987-0.881 1.322zm2.983 0.077 0.474 0.315c0.141 0.667 0.149 1.314 0.023 1.925l-1.378-0.917zm-0.069-1.235-0.137 0.205-1.484-0.987 0.492-0.738c0.447 0.465 0.839 0.97 1.129 1.52zm-1.677-2.038-0.562 0.844-1.485-0.987 0.566-0.851c0.268 0.136 0.533 0.279 0.786 0.447 0.249 0.166 0.471 0.358 0.695 0.547zm-8.033-0.435 1.563 1.04-0.88 1.323-1.564-1.042c0.1-0.244 0.218-0.484 0.368-0.709 0.149-0.225 0.325-0.424 0.513-0.612zm-0.535 5.53 0.132-0.197 1.484 0.987-0.498 0.749c-0.454-0.477-0.832-0.995-1.118-1.539zm1.665 2.054 0.568-0.854 1.485 0.988-0.567 0.852c-0.262-0.132-0.521-0.271-0.768-0.437-0.255-0.169-0.492-0.356-0.718-0.549zm8.055 0.439-1.579-1.052 0.88-1.322 1.573 1.047c-0.101 0.247-0.211 0.489-0.361 0.714-0.148 0.223-0.325 0.424-0.513 0.613z"/>
  <path d="m18.069 14.174c-0.749 1.438-0.995 3.024-0.789 4.547 1.55-0.362 3.751 0.183 5.833 1.58 2.081 1.397 3.42 3.229 3.671 4.799 1.487-0.387 2.864-1.215 3.909-2.453-1.678-1.4-3.806-2.982-6.113-4.531-2.316-1.556-4.571-2.918-6.511-3.942z"/>
  <path d="m32.432 16.688c-1.551 0.362-3.752-0.182-5.834-1.579-2.08-1.397-3.419-3.229-3.671-4.8-1.703 0.442-3.259 1.469-4.34 3.019 1.958 1.039 4.223 2.408 6.545 3.967 2.312 1.551 4.449 3.14 6.148 4.555 1.026-1.589 1.386-3.417 1.152-5.162z"/>
  <path d="m22.562 21.122c-1.834-1.232-3.837-1.749-5.089-1.437 0.461 1.726 1.52 3.298 3.119 4.372 1.599 1.073 3.456 1.456 5.228 1.229-0.186-1.275-1.424-2.933-3.258-4.164z"/>
  <path d="m27.15 14.286c1.834 1.231 3.837 1.748 5.088 1.438-0.462-1.726-1.519-3.299-3.117-4.372-1.602-1.073-3.457-1.456-5.229-1.23 0.186 1.275 1.423 2.934 3.258 4.164z"/>
  <path d="m4.188 12.705c0.135-1.005 0.016-2.108-0.405-3.184-0.417-1.064-1.076-1.957-1.863-2.61-1.077 1.498-1.53 2.939-1.191 3.807 0.34 0.868 1.65 1.618 3.459 1.987z"/>
  <path d="m18.127 7.253c1.078-1.498 1.531-2.938 1.191-3.806s-1.65-1.619-3.459-1.988c-0.135 1.006-0.016 2.108 0.405 3.184 0.418 1.066 1.078 1.958 1.863 2.61z"/>
  <path d="m4.704 9.162c0.486 1.242 0.622 2.523 0.458 3.697 1.984 0.231 4.395 0.028 6.769-0.899 2.376-0.93 4.286-2.418 5.587-3.936-0.923-0.76-1.693-1.79-2.175-3.021-0.486-1.243-0.622-2.524-0.458-3.698-1.984-0.23-4.395-0.028-6.769 0.9-2.376 0.929-4.285 2.417-5.587 3.935 0.924 0.759 1.693 1.79 2.175 3.022zm0.887-4.647c0.062-0.137 0.222-0.198 0.358-0.136 0.044 0.019 0.681 0.321 1.252 1.075 0.405-0.261 0.909-0.532 1.518-0.791-0.418-0.451-0.808-0.637-0.815-0.64-0.136-0.061-0.198-0.222-0.136-0.359 0.061-0.138 0.222-0.199 0.359-0.137 0.04 0.018 0.59 0.286 1.125 0.923 0.674-0.247 1.269-0.398 1.772-0.484-0.463-0.559-0.934-0.79-0.942-0.793-0.137-0.063-0.198-0.223-0.137-0.36 0.062-0.139 0.224-0.199 0.359-0.138 0.046 0.021 0.751 0.354 1.344 1.203 0.744-0.068 1.184 0 1.216 6e-3 0.147 0.027 0.245 0.169 0.219 0.315-0.027 0.148-0.166 0.246-0.315 0.22-6e-3 -2e-3 -0.301-0.044-0.809-0.017 0.196 0.392 0.359 0.858 0.442 1.419 0.022 0.148-0.08 0.287-0.229 0.31-0.013 2e-3 -0.027 3e-3 -0.041 3e-3 -0.132 0-0.248-0.098-0.269-0.232-0.088-0.596-0.278-1.062-0.498-1.442-0.487 0.068-1.092 0.208-1.785 0.451 0.285 0.453 0.533 1.021 0.644 1.763 0.022 0.147-0.081 0.287-0.229 0.309-0.012 1e-3 -0.025 2e-3 -0.038 2e-3 -0.132 0-0.249-0.098-0.269-0.232-0.105-0.706-0.351-1.239-0.625-1.648-0.639 0.263-1.155 0.541-1.565 0.807 0.244 0.43 0.453 0.954 0.551 1.613 0.022 0.147-0.08 0.287-0.229 0.31-0.014 1e-3 -0.027 3e-3 -0.041 3e-3 -0.132 0-0.248-0.098-0.268-0.233-0.084-0.564-0.258-1.014-0.461-1.384-0.577 0.431-0.842 0.761-0.847 0.767-0.054 0.07-0.135 0.107-0.217 0.107-0.058 0-0.115-0.018-0.164-0.055-0.119-0.091-0.144-0.26-0.053-0.38 0.021-0.027 0.327-0.41 0.983-0.898-0.476-0.619-0.99-0.87-1.025-0.887-0.136-0.062-0.197-0.224-0.135-0.36z"/>
 </g>
</svg>
