<?xml version="1.0" encoding="UTF-8"?>
<svg width="17" height="17" version="1.1" viewBox="0 0 17 17" xmlns="http://www.w3.org/2000/svg">
 <rect width="17" height="17" fill="none"/>
 <rect x="1" y="1" width="15" height="15" rx="7.5" ry="7.5" fill="#bbb" stroke="#bbb" stroke-linejoin="round" stroke-width="2"/>
 <rect x="1" y="1" width="15" height="15" rx="7.5" ry="7.5" fill="#fff"/>
 <g transform="matrix(.77921 0 0 .77921 .31843 .2404)" fill="#5d60be">
  <path d="m18 11.295c0-1.4934-0.65986-2.57-1.2155-3.2125-0.34729-0.39939-0.74668-0.62513-1.094-0.79878h-0.01736c-0.36466-0.17365-0.74668-0.22574-1.0766-0.24311-0.39939-0.034729-0.78141 0.069459-1.1113 0.19101h-0.01736c-0.43412 0.15628-0.98979 0.55567-1.2503 0.92033-0.13892 0.20838-0.26047 0.39939-0.36466 0.55567-0.17365 0.26047-0.2952 0.46885-0.45148 0.60776-0.2952 0.24311-0.81614 0.57304-1.1287 0.65986-0.15628 0.052095-0.22574 0.20838-0.17365 0.36466 0.03473 0.12155 0.15628 0.19101 0.27784 0.19101 0.03473 0 0.05209 0 0.08682-0.01736 0.24311-0.08682 0.55567-0.26047 0.85087-0.43412v2.9867c0 0.15628 0.12155 0.27784 0.27784 0.27784s0.27784-0.12155 0.27784-0.27784v-3.4382c0.15628-0.17365 0.2952-0.38202 0.45148-0.62513 0.10419-0.15628 0.22574-0.34729 0.34729-0.53831 0.12155-0.17365 0.36466-0.38202 0.60776-0.52094l-0.01736 6.0776c0 0.15628 0.12155 0.27784 0.27784 0.2952 0.15628 0 0.27784-0.12155 0.27784-0.27784l0.01736-6.3208c0.22574-0.069459 0.45148-0.10419 0.69459-0.086824 0.24311 0.017365 0.48621 0.052094 0.72932 0.13892v5.3831c0 0.15628 0.12155 0.27784 0.27784 0.27784 0.15628 0 0.27784-0.12155 0.27784-0.27784v-5.1226c0.17365 0.10419 0.34729 0.24311 0.48621 0.41675 0.48621 0.57304 1.0766 1.5281 1.0766 2.8478 0 0.81614-0.55567 1.9969-1.0592 2.5005-0.24311 0.26047-0.55567 0.46885-0.90296 0.62513-0.27784 0.12155-0.5904 0.22574-0.93769 0.2952-0.2952 0.05209-0.62513 0.08682-0.93769 0.08682-0.81614 0-1.3371-0.17365-1.858-0.45148-0.31256-0.15628-0.62513-0.36466-0.95506-0.5904-0.31257-0.22574-0.6425-0.48621-0.97243-0.78141-0.31256-0.27784-0.64249-0.5904-0.97242-0.93769-0.31256-0.32993-0.65986-0.69459-0.98979-1.0766-0.32993-0.38202-0.65986-0.78141-0.98979-1.1982-0.32993-0.41675-0.65986-0.86824-0.98979-1.3197-0.32993-0.46885-0.65986-0.93769-0.98979-1.4239-0.60776-0.92033-1.3024-2.2053-1.3197-2.2053-0.069459-0.13892-0.24311-0.19101-0.38202-0.12155-0.10419 0.052094-0.15628 0.22574-0.086824 0.36466 0.017365 0.017365 0.12155 0.22574 0.2952 0.53831v6.0256c0 0.15628 0.12155 0.27784 0.27784 0.27784s0.27784-0.12155 0.27784-0.27784v-5.0358c0.15628 0.26047 0.31256 0.50358 0.46885 0.74668 0.31256 0.46885 0.62513 0.92033 0.95506 1.3718v5.0358c0 0.15628 0.12155 0.27784 0.27784 0.27784 0.15628 0 0.27784-0.12155 0.27784-0.27784v-4.2717c0.15628 0.20838 0.32993 0.43412 0.48621 0.62513 0.31256 0.39939 0.62513 0.78141 0.93769 1.1461v3.7508c0 0.15628 0.12155 0.27784 0.27784 0.27784s0.27784-0.12155 0.27784-0.27784v-3.1083c0.17365 0.19101 0.34729 0.36466 0.50358 0.5383 0.31256 0.31256 0.60776 0.60776 0.92033 0.8856v2.7784c0 0.15628 0.12155 0.27784 0.27784 0.27784s0.27784-0.12155 0.27784-0.27784v-2.2921c0.19101 0.15628 0.36466 0.2952 0.53831 0.41675 0.2952 0.20838 0.5904 0.39939 0.86824 0.55567v2.1185c0 0.15628 0.12155 0.27784 0.27784 0.27784 0.15628 0 0.27784-0.12155 0.27784-0.27784v-1.8407c0.39939 0.17365 0.85087 0.2952 1.4239 0.31256v2.0317c0 0.15628 0.12155 0.27784 0.27784 0.27784 0.15628 0 0.27784-0.12155 0.27784-0.27784v-2.0317c0.26047-0.01736 0.52094-0.03473 0.76405-0.08682 0.22574-0.05209 0.45148-0.10419 0.65986-0.17365v1.7886c0 0.15628 0.12155 0.27784 0.27784 0.27784 0.15628 0 0.27784-0.12155 0.27784-0.27784v-2.0317c0.34729-0.17365 0.65986-0.39939 0.92033-0.65986 0.12155-0.12155 0.26047-0.2952 0.38202-0.48621v1.7712c0 0.15628 0.12155 0.27784 0.27784 0.27784 0.15628 0 0.39939-0.12155 0.39939-0.27784v-2.8304c0-0.01736 0-0.03473-0.01737-0.03473 0.17365-0.45148 0.2952-0.92033 0.2952-1.3197z" stroke="#5d60be" stroke-width=".4"/>
  <g stroke-width=".17365">
   <path d="m4.9417 6.2938c0.017365 0.034729 0.052094 0.052094 0.086824 0.086823l0.017365 0.017365c0.034729 0.017365 0.069459 0.034729 0.10419 0.034729h0.017365 0.052094 0.052094 0.034729c0.034729-0.017365 0.069459-0.017365 0.10419-0.052094l0.81614-0.55567c0.034729-0.017365 0.069459-0.052094 0.086824-0.086823 0.069459-0.10419 0.069459-0.26047 0-0.36466l-0.13892-0.19101c0-0.017365 0.017365-0.017365 0.017365-0.034729l0.26047-0.5904c0.069459-0.13892 0-0.31256-0.15628-0.38202-0.13892-0.069459-0.31256 0-0.38202 0.15628l-0.12155 0.2952-0.22574-0.31256 0.24311-0.57304c0.069459-0.13892 0-0.31256-0.15628-0.38202-0.13892-0.069459-0.31256 0-0.38202 0.15628l-0.12155 0.27784c-0.034729-0.017365-0.069459-0.034729-0.10419-0.034729h-0.017365-0.052094-0.052094-0.034729c-0.034729 0.017365-0.069459 0.017365-0.10419 0.052094l-0.78141 0.53831c-0.15628 0.10419-0.19101 0.31256-0.086824 0.46885z"/>
   <path d="m5.619 6.7974c-0.069459 0.052094-0.12155 0.13892-0.13892 0.22574-0.017365 0.086824 0 0.17365 0.069459 0.24311l1.0766 1.4586c0.017365 0.034729 0.052094 0.052094 0.086824 0.086823 0 0 0.017365 0 0.017365 0.017365 0.034729 0.017365 0.069459 0.034729 0.10419 0.034729h0.017365 0.034729 0.052094 0.034729c0.034729-0.017365 0.069459-0.034729 0.10419-0.052094l0.79878-0.5904c0.10419-0.086824 0.15628-0.22574 0.12155-0.34729-0.017365-0.034729-0.034729-0.086824-0.052094-0.12155l-0.10419-0.13892c0-0.017365 0.017365-0.017365 0.017365-0.034729l0.26047-0.5904c0.069459-0.13892 0-0.31256-0.15628-0.38202-0.13892-0.069459-0.31256 0-0.38202 0.15628l-0.13892 0.32993-0.22574-0.31256v-0.017365l0.26047-0.5904c0.069459-0.13892 0-0.31256-0.15628-0.38202-0.13892-0.069459-0.31256 0-0.38202 0.15628l-0.13892 0.31256c-0.017365-0.017365-0.034729-0.017365-0.052094-0.034729 0 0-0.017365 0-0.017365-0.017365-0.034729-0.017365-0.069459-0.034729-0.10419-0.034729h-0.017365-0.034729-0.052094-0.034729c-0.034729 0.017365-0.069459 0.034729-0.10419 0.052094z"/>
   <path d="m7.3554 9.159c-0.13892 0.12155-0.15628 0.34729-0.034729 0.48621l1.6323 1.9101c0.017365 0.03473 0.052094 0.05209 0.086824 0.05209h0.034729c0.017365 0 0.034729 0.01736 0.052094 0.01736s0.034729 0 0.069459-0.01736h0.034729c0.034729-0.01736 0.052094-0.03473 0.086823-0.05209 0.46885-0.55567 0.52094-1.3718 0.10419-1.9796l0.20838-0.48621c0.069459-0.13892 0-0.31256-0.15628-0.38202-0.13892-0.069459-0.31256 0-0.38202 0.15628l-0.10419 0.19101-0.24311-0.27784 0.22574-0.52094c0.069459-0.13892 0-0.31256-0.15628-0.38202-0.13892-0.069459-0.31256 0-0.38202 0.15628l-0.17365 0.41675h-0.034729-0.034729c-0.034729 0.017365-0.086824 0.034729-0.12155 0.069459z"/>
  </g>
 </g>
</svg>
