<?xml version="1.0" encoding="UTF-8"?>
<svg width="19" height="19" version="1.1" viewBox="0 0 19 19" xmlns="http://www.w3.org/2000/svg">
  <rect width="19" height="19" fill="none"/>
 <path d="m9.5 5.5c2.2092 0 4 1.7908 4 4 0 2.2092-1.7908 4-4 4-2.2092 0-4-1.7908-4-4 0-2.2092 1.7908-4 4-4zm0 0.88885c-1.7182 0-3.1111 1.3929-3.1111 3.1111s1.3929 3.1111 3.1111 3.1111 3.1111-1.3929 3.1111-3.1111-1.3929-3.1111-3.1111-3.1111z" stroke-width=".53333"/>
 <path d="m9.0074 12.56c-1.2958-0.22875-2.2952-1.2015-2.554-2.4859-0.062132-0.30831-0.056226-0.89358 0.012128-1.2018 0.26325-1.187 1.138-2.0896 2.3119-2.3853 0.31256-0.078754 0.86651-0.099084 1.2114-0.044459 0.43991 0.069674 0.92929 0.26923 1.2976 0.52914 0.25397 0.1792 0.60618 0.53851 0.7737 0.7893 0.36529 0.54686 0.53209 1.0977 0.53071 1.7526-0.0011 0.525-0.09668 0.91752-0.33978 1.3955-0.42246 0.83064-1.1976 1.4242-2.1267 1.6286-0.23532 0.05175-0.87771 0.06462-1.117 0.02238z" fill="#fff" fill-rule="evenodd" opacity=".98" stroke="#fff" stroke-width=".016089"/>
</svg>
