<?xml version="1.0" encoding="UTF-8" standalone="no"?>
<svg
   xmlns:dc="http://purl.org/dc/elements/1.1/"
   xmlns:cc="http://creativecommons.org/ns#"
   xmlns:rdf="http://www.w3.org/1999/02/22-rdf-syntax-ns#"
   xmlns:svg="http://www.w3.org/2000/svg"
   xmlns="http://www.w3.org/2000/svg"
   xmlns:sodipodi="http://sodipodi.sourceforge.net/DTD/sodipodi-0.dtd"
   xmlns:inkscape="http://www.inkscape.org/namespaces/inkscape"
   width="17"
   height="17"
   version="1.1"
   viewBox="0 0 17 17"
   id="svg10"
   sodipodi:docname="gate_11.svg"
   inkscape:version="1.0.2-2 (e86c870879, 2021-01-15)">
  <metadata
     id="metadata16">
    <rdf:RDF>
      <cc:Work
         rdf:about="">
        <dc:format>image/svg+xml</dc:format>
        <dc:type
           rdf:resource="http://purl.org/dc/dcmitype/StillImage" />
        <dc:title></dc:title>
      </cc:Work>
    </rdf:RDF>
  </metadata>
  <defs
     id="defs14" />
  <sodipodi:namedview
     pagecolor="#ffffff"
     bordercolor="#666666"
     borderopacity="1"
     objecttolerance="10"
     gridtolerance="10"
     guidetolerance="10"
     inkscape:pageopacity="0"
     inkscape:pageshadow="2"
     inkscape:window-width="1920"
     inkscape:window-height="1009"
     id="namedview12"
     showgrid="false"
     inkscape:zoom="49.529412"
     inkscape:cx="8.5"
     inkscape:cy="8.5"
     inkscape:window-x="-8"
     inkscape:window-y="-8"
     inkscape:window-maximized="1"
     inkscape:current-layer="svg10" />
  <rect
     width="17"
     height="17"
     fill="none"
     id="rect2" />
  <path
     d="M 12.666666,4.3333338 H 4.3333332 A 0.75757575,0.75757575 0 0 0 3.5757573,5.0909097 v 4.545454 a 0.75757575,0.75757575 0 0 0 0.7575759,0.7575753 h 0.7575757 v 1.893939 a 0.3787879,0.3787879 0 0 0 0.7575758,0 V 11.90909 h 5.3030303 v 0.378788 a 0.37878812,0.37878812 0 0 0 0.757576,0 v -1.893939 h 0.757575 A 0.75757575,0.75757575 0 0 0 13.424243,9.6363637 V 5.0909097 A 0.75757575,0.75757575 0 0 0 12.666666,4.3333338 Z m 0,0.7575759 V 6.6060612 L 11.151515,5.0909097 Z m -2.651515,0 2.651515,2.6515151 V 9.6363637 L 8.1212118,5.0909097 Z M 6.9848483,9.6363637 4.3333332,6.984849 V 5.0909097 l 4.5454545,4.545454 z m -2.6515151,0 V 8.1212126 L 5.8484847,9.6363637 Z M 11.151515,11.151515 H 5.8484847 V 10.393939 H 11.151515 Z M 10.994697,9.6363637 H 10.015151 L 5.4696968,5.0909097 h 1.5151515 l 4.5454547,4.545454 z"
     fill="#725a50"
     id="path8-1"
     style="stroke:#ffffff;stroke-width:0.151515;stroke-opacity:0.695971" />
</svg>
