<svg width="21" height="21" version="1.1" viewBox="0 0 21 21" xmlns="http://www.w3.org/2000/svg"><rect width="21" height="21" fill="none"/><path d="m15.917 5.0833h-10.833a0.98485 0.98485 0 0 0-0.98485 0.98485v5.9091a0.98485 0.98485 0 0 0 0.98485 0.98485h0.98485v2.4621a0.49242 0.49242 0 0 0 0.98485 0v-0.49242h6.8939v0.49242a0.49242 0.49242 0 0 0 0.98485 0v-2.4621h0.98485a0.98485 0.98485 0 0 0 0.98485-0.98485v-5.9091a0.98485 0.98485 0 0 0-0.98485-0.98485zm0 0.98485v1.9697l-1.9697-1.9697zm-3.447 0 3.447 3.447v2.4621l-5.9091-5.9091zm-3.9394 5.9091-3.447-3.447v-2.4621l5.9091 5.9091zm-3.447 0v-1.9697l1.9697 1.9697zm8.8636 1.9697h-6.8939v-0.98485h6.8939zm-0.20386-1.9697h-1.2734l-5.9091-5.9091h1.9697l5.9091 5.9091z" fill="#725a50" stroke="#fff" stroke-opacity=".69597" stroke-width=".19697"/></svg>
