<svg width="17" height="17" version="1.1" viewBox="0 0 17 17" xmlns="http://www.w3.org/2000/svg"><rect width="17" height="17" fill="none"/><g transform="matrix(.84615 0 0 .84615 -.38462 -.38462)" fill="#725a50" stroke="#725a50"><path d="m6.071 9.0786 9.7598-2.1758" stroke-linecap="round" stroke-width="1.4443"/><path d="m14.88 9.7609c-0.09833-5.29e-5 -0.19607 0.040416-0.26559 0.10994-0.06953 0.069528-0.10999 0.16727-0.10994 0.26559v4.504c-5.3e-5 0.09833 0.04041 0.19607 0.10994 0.26559 0.06953 0.06953 0.16727 0.10999 0.26559 0.10994h1.3693c0.09833 5.3e-5 0.19607-0.04042 0.26559-0.10994 0.06953-0.06953 0.10999-0.16727 0.10994-0.26559v-4.504c5.3e-5 -0.09833-0.04042-0.19607-0.10994-0.26559-0.06953-0.069528-0.16727-0.10999-0.26559-0.10994z" color="#000000" stroke-width=".75067" style="text-decoration-line:none;text-indent:0;text-transform:none"/><path d="m4.9359 5.984c-0.12252 4.5e-6 -0.24434 0.050378-0.33097 0.13701-0.086631 0.086632-0.137 0.20845-0.13701 0.33097v8.0959c4.6e-6 0.12252 0.050378 0.24434 0.13701 0.33097 0.086631 0.08663 0.20845 0.137 0.33097 0.13701h1.1844c0.12252-4e-6 0.24434-0.05038 0.33097-0.13701 0.086631-0.08663 0.13701-0.20845 0.13701-0.33097v-4.0798c-0.59202 0.18177-1.3021 0.020761-1.6846-0.48201-0.58001-0.6938-0.28406-1.9198 0.57115-2.2433 0.37107-0.085938 0.74227-0.17109 1.1134-0.25669v-1.0342c-4.5e-6 -0.12252-0.050378-0.24434-0.13701-0.33097-0.086632-0.086631-0.20845-0.13701-0.33097-0.13701z" color="#000000" stroke-width=".9359" style="text-decoration-line:none;text-indent:0;text-transform:none"/></g></svg>
