<svg viewBox="0 0 19 19" height="15" width="15" xmlns="http://www.w3.org/2000/svg" xmlns:svg="http://www.w3.org/2000/svg">
  <path style="fill:#725a50;stroke-width:0.021865" d="M 6.7881157,15.894151 V 13.99733 L 10.45601,10.329485 14.123902,6.6616398 h 1.896774 1.896772 v 1.0823223 1.0823217 h -1.448592 -1.448592 l -3.033753,3.0338112 -3.0337508,3.033811 v 1.448533 1.448533 H 7.870438 6.7881157 Z M 1.1687872,11.089321 V 10.006999 H 2.617379 4.065971 L 7.0997228,6.9731879 10.133475,3.9393775 V 2.4908425 1.0423112 h 1.082322 1.082322 V 2.93913 4.8359535 L 8.6302253,8.5037982 4.9623317,12.171643 H 3.0655594 1.1687872 Z"/>
  <path style="stroke:white;fill:none;stroke-width:0.4" d="M 6.7881157,15.894151 V 13.99733 L 10.45601,10.329485 14.123902,6.6616398 h 1.896774 1.896772 v 1.0823223 1.0823217 h -1.448592 -1.448592 l -3.033753,3.0338112 -3.0337508,3.033811 v 1.448533 1.448533 H 7.870438 6.7881157 Z M 1.1687872,11.089321 V 10.006999 H 2.617379 4.065971 L 7.0997228,6.9731879 10.133475,3.9393775 V 2.4908425 1.0423112 h 1.082322 1.082322 V 2.93913 4.8359535 L 8.6302253,8.5037982 4.9623317,12.171643 H 3.0655594 1.1687872 Z"/>
</svg>
