<svg width="33.002" height="18" version="1.0" viewBox="0 0 33.002 18" xmlns="http://www.w3.org/2000/svg"><g transform="matrix(.030003 0 0 .03 .00041935 1.44e-5)"><path d="m81.118 0.49869c34.618 10.565 71.366 16.25 109.44 16.25 38.076 0 324.79-5.6841 359.41-16.249 34.618 10.565 321.36 16.249 359.43 16.249 38.073 0 74.806-5.6839 109.42-16.25 50.481 63.802 80.625 144.44 80.625 232.11 0 181.12-378.6 332.2-549.48 366.89-170.89-34.687-549.47-185.77-549.47-366.89 0-87.676 30.138-168.31 80.619-232.11z" fill="#fff" stroke="#000" stroke-linecap="round" stroke-linejoin="round" stroke-width=".99834"/><g transform="matrix(1.0071,0,0,1.0103,-2.128,-3.6688)" fill="#003f87"><path d="m15 232.5c0-31.979 4.1694-62.984 11.995-92.501h1042.5c7.8242 29.517 11.98 60.522 11.98 92.501 0 173.11-370.38 317.67-533.21 352.18-162.83-34.505-533.22-179.07-533.22-352.18z" fill="#003f87"/></g><g transform="matrix(1.0125,0,0,1.0271,-3.7638,-3.1017)" fill="#af1e2d"><path d="m31.324 125c12.255-39.221 31.039-75.559 55.079-107.74 33.102 9.1328 67.968 14.013 103.97 14.013 38.061 0 321.75-5.4517 356.52-15.618 34.775 10.166 318.45 15.618 356.51 15.618 36.006 0 70.86-4.8799 103.96-14.013 24.039 32.181 42.818 68.519 55.073 107.74z" fill="#af1e2d"/></g><path d="m358.83 112.81v-62.395h8.7411v62.395zm50.701 0-19.25-41.814v41.814h-8.9284v-62.395h8.9284l17.11 37.437v-37.437h8.9284v62.395zm35.847-54.105v54.105h-9.0192v-54.105h-11.346v-8.29h31.712v8.29zm19.889 54.105v-62.395h29.294v8.7561h-20.366v15.736h12.927v8.5685h-12.927v20.582h22.784v8.7533zm67.899 0-8.2785-29.335h-8.5538v29.335h-8.9284v-62.395h18.6c2.418 6.3e-5 4.6344 0.40362 6.6495 1.2107 2.015 0.80718 3.7509 1.925 5.2077 3.3535 1.4568 1.4286 2.5726 3.1826 3.3474 5.2619 0.77472 2.0794 1.1621 4.3611 1.1622 6.8449-4e-5 3.7249-0.74407 6.8913-2.2321 9.4993-1.4881 2.608-3.7202 4.47-6.6963 5.5859l8.9284 30.639zm0.46542-45.724c-3e-5 -2.4213-0.74406-4.3458-2.2321-5.7735-1.4881-1.4276-3.4411-2.1414-5.859-2.1414h-9.2065v15.736h9.2065c2.6034 3.8e-5 4.6027-0.66735 5.9981-2.0022 1.3953-1.3347 2.093-3.2744 2.093-5.8189zm50.894 28.681c-3e-5 2.5464-0.44938 4.9214-1.348 7.1248-0.89875 2.2035-2.1385 4.1123-3.7192 5.7266-1.5808 1.6142-3.4099 2.9026-5.4873 3.8651-2.0774 0.96248-4.3252 1.4437-6.7431 1.4437-2.7283 0-5.177-0.52765-7.3462-1.583-2.1692-1.0553-3.9978-2.4829-5.4859-4.2829-1.4881-1.7999-2.6351-3.8798-3.4411-6.2396s-1.209-4.8119-1.209-7.3564h8.7411c-2e-5 1.3035 0.17027 2.5914 0.51084 3.8637 0.34054 1.2723 0.86746 2.4209 1.5808 3.4459 0.71328 1.025 1.6124 1.8478 2.6975 2.4682 1.085 0.62051 2.4023 0.93075 3.9519 0.93074 1.1787 1e-5 2.3106-0.24819 3.3957-0.74459 1.085-0.49638 2.015-1.1794 2.7898-2.0491 0.77475-0.86964 1.3944-1.8785 1.8589-3.0267 0.46446-1.1481 0.6967-2.3437 0.69673-3.5866-3e-5 -1.7999-0.37181-3.398-1.1153-4.7944-0.74359-1.3963-2.0453-2.8088-3.9051-4.2374-0.31031-0.3107-0.43424-0.48169-0.37178-0.51298 0.0624-0.03124-0.12347-0.20175-0.55767-0.51156-0.43424-0.30975-1.349-0.91509-2.7444-1.816-1.3954-0.90088-3.6738-2.437-6.8354-4.6083-2.541-1.7392-4.4472-3.7732-5.7186-6.1017s-1.9072-4.8891-1.9072-7.6818c0-2.2356 0.403-4.3311 1.209-6.2864 0.80597-1.9552 1.9374-3.6779 3.3942-5.1681 1.4568-1.4901 3.1464-2.6543 5.0687-3.4928 1.9223-0.83832 3.9987-1.2575 6.2294-1.2576 2.2325 6.3e-5 4.2943 0.40362 6.1854 1.2107 1.891 0.80718 3.5338 1.925 4.9282 3.3535 1.3944 1.4286 2.5102 3.1362 3.3474 5.1227 0.83716 1.9866 1.287 4.1593 1.3494 6.5181h-8.5566c-0.12301-2.1731-0.86658-3.9114-2.2307-5.215-1.3642-1.3035-3.0386-1.9552-5.0233-1.9553-2.0453 5.4e-5 -3.7807 0.68307-5.2063 2.0491-1.4256 1.3661-2.1384 3.0732-2.1384 5.1212-1e-5 1.5518 0.40299 2.8553 1.209 3.9106 0.80597 1.0554 2.3555 2.2348 4.6486 3.5383 6.0147 3.4767 10.401 7.0154 13.16 10.616 2.7585 3.6008 4.1378 7.6672 4.1378 12.199zm25.956-37.062v54.105h-9.0192v-54.105h-11.346v-8.29h31.712v8.29zm45.928 54.105-4.3705-17.043h-13.393l-4.0896 17.043h-9.022l15.53-62.395h8.7439l15.53 62.395zm-11.159-43.769-4.3705 17.973h8.9284zm44.242-10.336v54.105h-9.0192v-54.105h-11.346v-8.29h31.712v8.29zm19.889 54.105v-62.395h29.294v8.7561h-20.366v15.736h12.927v8.5685h-12.927v20.582h22.784v8.7533z" fill="#fff"/></g></svg>
