<?xml version="1.0" encoding="UTF-8"?>
<svg viewBox="0 0 21 16" width="21" height="16" version="1.1" xmlns="http://www.w3.org/2000/svg">
 <g transform="translate(-299 -901.86)">
  <path d="m302.71 902.35-2.9092 2.4242c0.48487 0.48485 1.9394 1.4546 0.96972 3.394-0.96972 1.9394-1.4546 4.8485 0.48486 6.7879 2.4243 2.4242 7.2729 0.48484 8.2426 2.4242 0.96972-1.9394 5.8183 0 8.2426-2.4242 1.9394-1.9394 1.4546-4.8485 0.48486-6.7879-0.96972-1.9394 0.48487-2.9091 0.96972-3.394l-2.9092-2.4242c-1.9394 0.9697-4.3637 1.9394-6.788 0-2.4243 1.9394-4.8486 0.9697-6.788 0z" color="#000000" fill="#fff" fill-rule="evenodd" stroke="#4d4d4d" stroke-linecap="round" stroke-linejoin="round" stroke-width=".96971"/>
  <rect x="299" y="901.36" width="21" height="17" color="#000000" opacity="0"/>
 </g>
</svg>
