<?xml version="1.0" encoding="UTF-8"?>
<svg viewBox="0 0 17 16" width="17" height="16" version="1.1" xmlns="http://www.w3.org/2000/svg">
 <g transform="translate(-301 -901.86)">
  <path d="m304.65 902.35-2.9091 2.4242c0.48485 0.48485 1.9394 1.4546 0.9697 3.394-0.9697 1.9394-1.4546 4.8485 0.48486 6.7879 2.4243 2.4242 5.3334 0.48484 6.3031 2.4242 0.96971-1.9394 3.8788 0 6.3031-2.4242 1.9394-1.9394 1.4546-4.8485 0.48485-6.7879-0.9697-1.9394 0.48486-2.9091 0.96971-3.394l-2.9091-2.4242c-1.9394 0.9697-2.4243 1.9394-4.8486 0-2.4243 1.9394-2.9091 0.9697-4.8485 0z" color="#000000" fill="#fff" fill-rule="evenodd" stroke="#4d4d4d" stroke-linecap="round" stroke-linejoin="round" stroke-width=".9697"/>
  <rect x="301" y="901.36" width="17" height="17" color="#000000" opacity="0"/>
 </g>
</svg>
