<?xml version="1.0" encoding="UTF-8"?>
<svg width="32" height="18" version="1.0" viewBox="0 0 31.947 17.97" xmlns="http://www.w3.org/2000/svg">
 <g transform="matrix(1.7778 0 0 1 1.9464e-6 -2.7264e-6)">
  <g transform="matrix(.0299 0 0 .029896 .014949 .017263)" fill="#fff" stroke="#000">
   <path d="m80.753 0c34.676 10.583 71.485 16.277 109.62 16.277 38.139 0 74.947-5.6934 109.62-16.276 34.676 10.583 71.484 16.276 109.62 16.276s74.948-5.6934 109.62-16.277c50.565 63.908 80.753 144.68 80.753 232.5 0 181.42-128.83 332.75-300 367.5-171.17-34.745-300-186.08-300-367.5 0-87.822 30.188-168.59 80.753-232.5z"/>
   <path d="m80.753 0c34.676 10.583 71.485 16.277 109.62 16.277 38.139 0 74.947-5.6934 109.62-16.276 34.676 10.583 71.484 16.276 109.62 16.276s74.948-5.6934 109.62-16.277c50.565 63.908 80.753 144.68 80.753 232.5 0 181.42-128.83 332.75-300 367.5-171.17-34.745-300-186.08-300-367.5 0-87.822 30.188-168.59 80.753-232.5z" stroke-linecap="round" stroke-linejoin="round"/>
  </g>
  <g transform="matrix(.030163 0 0 .030254 -.063736 -.10754)" fill="#003f87">
   <path d="m15 232.5c0-31.979 4.1694-62.984 11.995-92.501h546.01c7.8242 29.517 11.994 60.522 11.994 92.501 0 173.11-122.17 317.67-285 352.18-162.83-34.505-285-179.07-285-352.18z" fill="#003f87"/>
  </g>
  <g transform="matrix(.030326 0 0 .030759 -.11273 -.090554)" fill="#af1e2d">
   <path d="m31.324 125c12.255-39.221 31.039-75.559 55.079-107.74 33.102 9.1328 67.968 14.013 103.97 14.013 38.061 0 74.848-5.4517 109.62-15.618 34.775 10.166 71.562 15.618 109.62 15.618 36.006 0 70.873-4.8799 103.97-14.013 24.039 32.181 42.823 68.519 55.078 107.74z" fill="#af1e2d"/>
  </g>
 </g>
 <path d="m10.249 3.3752v-1.8685h0.2618v1.8685zm1.5185 0-0.57655-1.2521v1.2521h-0.2674v-1.8685h0.2674l0.51246 1.1211v-1.1211h0.26741v1.8685zm1.0736-1.6202v1.6202h-0.27012v-1.6202h-0.33982v-0.24825h0.94978v0.24825zm0.59567 1.6202v-1.8685h0.87736v0.26221h-0.60995v0.47123h0.38717v0.25659h-0.38717v0.61633h0.68237v0.26212zm2.0336 0-0.24794-0.87845h-0.25619v0.87845h-0.26741v-1.8685h0.55708c0.07242 1.9e-6 0.1388 0.012087 0.19915 0.036255 0.06035 0.024172 0.11234 0.057646 0.15597 0.10042 0.04363 0.042781 0.07705 0.095305 0.10026 0.15757 0.0232 0.06227 0.03481 0.13059 0.03481 0.20498-1e-6 0.11155-0.02228 0.20637-0.06685 0.28446-0.04457 0.078099-0.11142 0.13386-0.20055 0.16727l0.2674 0.91752zm0.01394-1.3693c-1e-6 -0.072508-0.02229-0.13014-0.06685-0.17289-0.04457-0.042749-0.10306-0.064125-0.17548-0.064126h-0.27574v0.47123h0.27574c0.07797 1.1e-6 0.13785-0.019984 0.17964-0.059956 0.04179-0.03997 0.06269-0.098054 0.06269-0.17425zm1.5243 0.85888c0 0.076254-0.01346 0.14737-0.04037 0.21336-0.02692 0.065985-0.06405 0.12315-0.11139 0.17149-0.04734 0.04834-0.10213 0.08692-0.16434 0.11574-0.06222 0.028822-0.12954 0.043233-0.20196 0.043233-0.08171 0-0.15505-0.015801-0.22002-0.047403-0.06497-0.031602-0.11974-0.074353-0.1643-0.12825-0.04457-0.0539-0.07892-0.11618-0.10306-0.18685-0.02414-0.070665-0.03621-0.1441-0.03621-0.22029h0.2618c-1e-6 0.039035 0.0051 0.077602 0.0153 0.1157 0.0102 0.038099 0.02598 0.072495 0.04734 0.10319 0.02136 0.030695 0.04829 0.055333 0.08079 0.073914 0.0325 0.018582 0.07195 0.027872 0.11836 0.027872 0.0353 3e-7 0.0692-0.00743 0.1017-0.022297 0.0325-0.014865 0.06035-0.035318 0.08355-0.061361 0.0232-0.026042 0.04176-0.056254 0.05567-0.090637 0.01391-0.034382 0.02087-0.070183 0.02087-0.1074-1e-6 -0.053899-0.01114-0.10176-0.0334-0.14357-0.02227-0.041814-0.06126-0.084111-0.11696-0.12689-0.0093-0.0093-0.01301-0.014424-0.01113-0.015361 0.0019-9.355e-4 -0.0037-0.00604-0.0167-0.015319-0.013-0.00928-0.0404-0.027403-0.08219-0.054382-0.04179-0.026978-0.11003-0.072977-0.20472-0.138-0.0761-0.052083-0.13319-0.11299-0.17127-0.18272-0.03808-0.069728-0.05712-0.14641-0.05712-0.23004 0-0.066948 0.01207-0.1297 0.03621-0.18825 0.02414-0.05855 0.05803-0.11014 0.10166-0.15476 0.04363-0.044621 0.09423-0.079486 0.15181-0.10459 0.05757-0.025104 0.11976-0.037657 0.18657-0.037659 0.06687 1.9e-6 0.12862 0.012087 0.18525 0.036255 0.05664 0.024172 0.10584 0.057646 0.1476 0.10042 0.04176 0.042781 0.07518 0.093915 0.10026 0.1534 0.02507 0.05949 0.03855 0.12455 0.04042 0.19519h-0.25627c-0.0037-0.065076-0.02595-0.11713-0.06681-0.15617-0.04086-0.039033-0.09101-0.05855-0.15045-0.058552-0.06126 1.7e-6 -0.11323 0.020455-0.15593 0.061361-0.0427 0.040909-0.06405 0.092028-0.06405 0.15336 0 0.046469 0.01207 0.085503 0.03621 0.1171 0.02414 0.031604 0.07055 0.066922 0.13923 0.10596 0.18014 0.10411 0.31152 0.21008 0.39414 0.31791 0.08262 0.10783 0.12393 0.2296 0.12393 0.36531zm0.7774-1.1099v1.6202h-0.27013v-1.6202h-0.33982v-0.24825h0.94978v0.24825zm1.3755 1.6202-0.1309-0.51037h-0.40111l-0.12248 0.51037h-0.27021l0.46511-1.8685h0.26188l0.46511 1.8685zm-0.33422-1.3107-0.1309 0.5382h0.26741zm1.325-0.30953v1.6202h-0.27012v-1.6202h-0.33982v-0.24825h0.94978v0.24825zm0.59567 1.6202v-1.8685h0.87736v0.26221h-0.60995v0.47123h0.38717v0.25659h-0.38717v0.61633h0.68237v0.26212z" fill="#fff" stroke-width=".029948"/>
</svg>
