<?xml version="1.0" encoding="UTF-8"?>
<svg width="21" height="21" version="1.1" viewBox="0 0 21 21" xmlns="http://www.w3.org/2000/svg">
 <rect width="21" height="21" fill="none"/>
 <rect x="1" y="1" width="19" height="19" rx="9.5" ry="9.5" fill="#bbb" stroke="#bbb" stroke-linejoin="round" stroke-width="2"/>
 <rect x="1" y="1" width="19" height="19" rx="9.5" ry="9.5" fill="#fff"/>
 <g transform="matrix(.4658 0 0 .4658 3.1699 3.5601)" fill="#5d60be">
  <path d="m19.221 30.87c0.15002 0.08997 0.32001 0.13 0.49005 0.13 0.34998 0 0.69-0.17999 0.87-0.51001l5.88-10.42c0-0.01001 0.0099-0.01001 0.0099-0.01001 0-0.01001 0-0.01001 0.01001-0.02002l3.03-5.37c0.26006-0.46997 0.10003-1.07-0.35994-1.35l-3.27-1.95c-0.47003-0.28003-1.07-0.14001-1.36 0.32001l-3.31 5.2h-0.01001v0.0099l-8 12.56c-0.29999 0.47003-0.16003 1.09 0.31 1.38 0.45996 0.30005 1.08 0.16003 1.38-0.29999l7.49-11.77 1.88 1.13-5.42 9.61c-0.27001 0.47998-0.10003 1.09 0.37995 1.36z"/>
  <g transform="matrix(.25168 0 0 .25168 -.17555 -3.2159)">
   <path d="m50 8c-23.196 0-42 18.804-42 42s18.804 42 42 42 42-18.804 42-42-18.804-42-42-42zm3 66c-14.912 0-27-12.088-27-27s12.088-27 27-27 27 12.088 27 27-12.088 27-27 27z"/>
   <path d="m57.878 29.674c-4.805-1.351-9.756 1.449-11.104 6.226-0.551 1.963-0.374 3.946 0.322 5.711-3.413 1.314-6.207 4.128-7.274 7.914-1.8 6.402 1.929 13.011 8.3 14.802 6.347 1.784 13.001-1.908 14.804-8.297 0.967-3.442 0.463-7.218-2.059-10.523 1.514-1.143 2.683-2.767 3.237-4.729v-1e-3c1.341-4.779-1.451-9.76-6.226-11.103zm-5.326 7.851c0.451-1.604 2.115-2.52 3.7-2.077 1.591 0.448 2.522 2.108 2.074 3.7-0.448 1.597-2.121 2.527-3.7 2.077-1.591-0.448-2.522-2.109-2.074-3.7zm4.596 16.875c-0.896 3.188-4.222 5.048-7.4 4.148-3.198-0.898-5.05-4.212-4.148-7.399 0.906-3.219 4.257-5.04 7.4-4.148 3.196 0.898 5.05 4.213 4.148 7.399z"/>
  </g>
 </g>
</svg>
