<?xml version="1.0" encoding="UTF-8"?>
<svg width="21" height="21" version="1.1" viewBox="0 0 21 21" xmlns="http://www.w3.org/2000/svg">
 <rect width="21" height="21" fill="none"/>
 <rect x="1" y="1" width="19" height="19" rx="9.5" ry="9.5" fill="#bbb" stroke="#bbb" stroke-linejoin="round" stroke-width="2"/>
 <rect x="1" y="1" width="19" height="19" rx="9.5" ry="9.5" fill="#fff"/>
 <g transform="matrix(.47881 0 0 .47881 2.5722 2.5953)" fill="#5d60be">
  <path d="m8.92 21.34 2.74 2.74-5.08 5.28a2.08 2.08 0 1 1-2.94-2.94zm1.45-1.34 2.68 2.68 13.32-13.89-2.16-2.16zm19.34-16-0.62-0.62a1 1 0 0 0-1.4 0l-2 2 2.1 2.1 2-2a1 1 0 0 0-0.08-1.57zm-21.21 4a2.5 2.5 0 1 0-2.5-2.5 2.5 2.5 0 0 0 2.5 2.5zm-3 5a2.5 2.5 0 1 0-2.5-2.5 2.5 2.5 0 0 0 2.5 2.5zm3.5-2.5a2.5 2.5 0 1 0 2.5-2.5 2.5 2.5 0 0 0-2.5 2.5z"/>
 </g>
</svg>
