<?xml version="1.0" encoding="UTF-8"?>
<svg width="21" height="21" version="1.1" viewBox="0 0 21 21" xmlns="http://www.w3.org/2000/svg">
 <rect width="21" height="21" fill="none"/>
 <rect x="1" y="1" width="19" height="19" rx="9.5" ry="9.5" fill="#bbb" stroke="#bbb" stroke-linejoin="round" stroke-width="2"/>
 <rect x="1" y="1" width="19" height="19" rx="9.5" ry="9.5" fill="#fff"/>
 <g transform="matrix(.16556 0 0 .16556 2.2219 2.2881)" fill="#5d60be">
  <rect x="4.7" y="54.3" width="90.6" height="3.3"/>
  <polyline points="47.1 45.9 46.2 54.4 57 54.4 56.1 45.9"/>
  <path d="m80.3 3.8h-60.6c-0.6 0-1.2 0.5-1.2 1.2v40.4c0 0.6 0.5 1.2 1.2 1.2h60.5c0.6 0 1.2-0.5 1.2-1.2v-40.4c0-0.7-0.5-1.2-1.1-1.2zm-1.4 34.4h-57.8v-31.7h57.8z"/>
  <path d="m81.4 5c0-0.6-0.5-1.2-1.2-1.2h-60.5c-0.6 0-1.2 0.5-1.2 1.2v33.5 0.3 2.2h62.9v-2.2-0.3zm-2.5 33.2h-57.8v-31.7h57.8z"/>
  <path d="m71.7 34.2c-0.8-2-4.8-3.7-10.5-4.6 1.4-2 2.1-4.4 2.1-7 0-6.9-5.6-12.5-12.5-12.5s-12.5 5.6-12.5 12.5c0 2.5 0.7 4.8 2 6.8-6.5 0.9-11.1 2.8-12 4.9-0.9 1.1-1.5 2.5-1.5 4v0.1 37.7c0 3.8 3.2 6.8 7.2 6.8h14.1v11.1h-17.2v1.4h38.2v-1.4h-17.3v-11.1h14.2c4 0 7.2-3 7.2-6.8v-37.7-0.1c0-1.6-0.6-3-1.5-4.1z"/>
  <rect x="4.7" y="54.5" width="81.1" height="2.9"/>
  <rect x="21.7" y="52" width="56.6" height="2.4"/>
 </g>
</svg>
