<?xml version="1.0" encoding="UTF-8"?>
<svg width="21" height="21" version="1.1" viewBox="0 0 21 21" xmlns="http://www.w3.org/2000/svg">
 <rect width="21" height="21" fill="none"/>
 <rect x="1" y="1" width="19" height="19" rx="9.5" ry="9.5" fill="#bbb" stroke="#bbb" stroke-linejoin="round" stroke-width="2"/>
 <rect x="1" y="1" width="19" height="19" rx="9.5" ry="9.5" fill="#fff"/>
 <g transform="matrix(.15 0 0 .15 3 2.9999)" fill="#5d60be">
  <path d="m78.848 50c1.228-0.284 2.549-0.471 3.87-0.471 5.289 0 10.104 2.548 13.128 6.893l4.154-6.422c-3.968-4.531-9.729-7.082-15.866-7.082-2.548 0-5.097 0.471-7.554 1.321-3.117-2.645-6.609-3.965-10.766-4.154 0 0-1.604 0-3.494 0.097-1.512 0.188-3.209 0.374-4.246 0.472-1.04 0-1.42-1.321-0.661-1.982 2.735-2.172 6.798-5.477 6.798-9.539 0-2.454-1.701-4.626-4.154-5.194l-13.597-3.117-19.926 14.448-8.404-4.247-1.982-5.764-1.982 5.574c-0.851 0.189-1.701 0.565-2.454 1.037l-10.86 9.444c-0.473 0.566-0.852 1.322-0.852 2.075 0 1.701 1.419 3.118 3.117 3.118 0.756 0 1.417-0.285 1.982-0.756l7.083-2.362c1.227 0.851 2.454 1.135 3.87 1.135h0.756c4.249 5.006 7.648 11.048 10.01 17.186l-12.182 8.026c-1.701 1.133-1.604 3.685 0.189 4.627 0.095 0 4.437 1.981 4.437 1.981l-7.27 7.271-3.966 2.833 6.138 2.456 10.764-10.766c2.267 0.379 4.533 0.758 6.896 1.229l4.815 2.453-1.229-5.665-5.666-2.833 5.666-5.666h4.062c8.024 0.098 14.729-2.17 21.149-6.987h4.531c2.832 3.022 6.326 5.479 10.199 7.085l4.909 17.656-0.754 3.492h6.42l-3.587-17.655c5.569 3.494 8.593 6.704 11.993 12.367l2.172 3.968 3.496-4.629c-7.367-8.78-7.557-9.157-11.9-19.733-5.288-2.361-8.875-7.366-9.252-13.22zm-32.295-7.554c-0.19 0.19-0.377 0.379-0.661 0.379l-8.592 1.604c-0.379 0.095 0 0.095-0.379 0.095-0.565 0-1.04-0.284-1.416-0.755l-5.287-5.667 12.748-5.759c2.549 1.133 5.38 1.698 8.214 1.793z"/>
  <path d="m40.415 23.09c2.361 0 4.437-1.417 5.384-3.494l-11.332-2.172c0.19 3.209 2.736 5.666 5.948 5.666z"/>
  <path d="m40.415 11.097c-2.549 0-4.72 1.511-5.571 3.87l-5.382-1.037-0.189 1.135 16.998 3.114c0.661-3.493-2.081-7.082-5.856-7.082z"/>
 </g>
</svg>
