<?xml version="1.0" encoding="UTF-8"?>
<svg width="21" height="21" version="1.1" viewBox="0 0 21 21" xmlns="http://www.w3.org/2000/svg">
 <rect width="21" height="21" fill="none"/>
 <rect x="1" y="1" width="19" height="19" rx="9.5" ry="9.5" fill="#bbb" stroke="#bbb" stroke-linejoin="round" stroke-width="2"/>
 <rect x="1" y="1" width="19" height="19" rx="9.5" ry="9.5" fill="#fff"/>
 <g transform="matrix(.31909 0 0 .31909 .35446 .26184)" fill="#5d60be">
  <g data-name="Go Kart-Kart-Racing-Vehicle-Car">
   <path d="m60 35v4.46l-4.68 3.13-0.16-0.26a6.915 6.915 0 0 0 0.84-3.33 6.82 6.82 0 0 0-1-3.59l0.41-0.41z"/>
   <path d="m42 39a7.022 7.022 0 0 0 0.83 3.33l-0.4 0.67h-18.95l-0.17-0.21a5.759 5.759 0 0 0 0.68-2.65l16.17-5.14h3.1a6.89 6.89 0 0 0-1.26 4z"/>
   <path d="m46 20.17a3.014 3.014 0 0 0-2 2.83v10h2z"/>
   <polygon points="48 25.78 48 32.22 52 31.22 52 26.78"/>
   <path d="m57 28h-3v2h3a0.928 0.928 0 0 0 0.69-0.29 0.949 0.949 0 0 0 0.31-0.71 1 1 0 0 0-1-1z"/>
   <path d="m23.4 28.25-5.4 5.75a6 6 0 0 0-6 6 5.91 5.91 0 0 0 0.7 2.81l-0.16 0.19h-6.13l-2.82-2.83 19.46-12.38z"/>
   <path d="m54 39a4.905 4.905 0 0 1-0.59 2.35 4.994 4.994 0 0 1-8.82 0 4.905 4.905 0 0 1-0.59-2.35 5 5 0 0 1 9-3 4.941 4.941 0 0 1 1 3zm-3 0a2 2 0 1 0-2 2 2.006 2.006 0 0 0 2-2z"/>
   <path d="m21.99 39.73a2.437 2.437 0 0 1 0.01 0.27 3.995 3.995 0 0 1-7.39 2.11 3.915 3.915 0 0 1-0.61-2.11 3.986 3.986 0 0 1 3.46-3.96 3.272 3.272 0 0 1 0.54-0.04 4 4 0 0 1 2.64 1 3.952 3.952 0 0 1 1.35 2.73zm-2.99 0.27a1 1 0 1 0-1 1 1 1 0 0 0 1-1z"/>
   <path d="m32 30.83 1.41-1.42-4.82-4.82-1.42 1.41 1.53 1.53-7.44 7.44a6.663 6.663 0 0 1 0.7 0.52 6.023 6.023 0 0 1 0.78 0.82l3.84-3.83 2.23 2.98 2.03-0.64-2.83-3.77 2.11-2.1z"/>
  </g>
 </g>
</svg>
