<?xml version="1.0" encoding="UTF-8"?>
<svg width="17" height="17" version="1.1" viewBox="0 0 17 17" xmlns="http://www.w3.org/2000/svg">
 <rect width="17" height="17" fill="none"/>
 <rect x="1" y="1" width="15" height="15" rx="7.5" ry="7.5" fill="#bbb" stroke="#bbb" stroke-linejoin="round" stroke-width="2"/>
 <rect x="1" y="1" width="15" height="15" rx="7.5" ry="7.5" fill="#fff"/>
 <g transform="matrix(.11903 0 0 .11903 2.5485 2.5478)" fill="#5d60be">
  <path d="m69.666 56.8-42.55 19.842c-0.669 0.312-1.409-0.27-1.263-0.994l3.341-16.528 20.806-9.7v-5.915l6-2.792v5.91l7.329-3.417c3.772-1.759 8.228-0.1 9.967 3.627 1.752 3.759 0.124 8.214-3.63 9.967z"/>
  <path d="m92 23v69h-84v-6c3.182 0 5.818-6 9-6s5.818 6 9 6 5.818-6 9-6 5.818 6 9 6c2.135 0 4.026-2.678 6-4.455v-8.953l6-2.798v10.206h30v-54h-12.607l-30.723 14.297c-3.829 1.786-8.254 0.038-9.964-3.627-1.752-3.759-0.129-8.216 3.627-9.967l13.667-6.362v-12.341h6v9.548l16.721-7.784c0.597-0.278 1.28 0.158 1.28 0.816v9.42h14.999c1.658 0 3 1.343 3 3z"/>
 </g>
</svg>
