<?xml version="1.0" encoding="UTF-8"?>
<svg id="Svg" width="256" height="256" version="1.1" xmlns="http://www.w3.org/2000/svg">
 <path d="m18.125 5.998c-1.7233 0.93986-3.1515 2.36-4.125 4.0625v0.28125l1.4062 1.2188c0.3514-0.72988 0.81225-1.4023 1.3438-2l2.9375 3.0625-4.4375 4.3125c-0.10879 0.10499-0.1001 0.26172 0 0.375 0.19263 0.21801 0.37574 0.43235 0.59375 0.625 0.11329 0.10011 0.30126 0.07752 0.40625-0.03125l4.2812-4.4375 4.2812 4.4375c0.105 0.1087 0.26175 0.13132 0.375 0.03125 0.21807-0.19268 0.4323-0.40692 0.625-0.625 0.10007-0.11325 0.1087-0.27 0-0.375l-4.4688-4.3125 2.7188-2.8125 0.6875 0.65625 2.25 0.78125-0.84375-2.1563-0.71875-0.71875 0.21875-0.1875-0.65625-0.65625-0.21875 0.1875-1.625-1.625-1.4062 1.375 1.625 1.625-2.8438 2.7188-3.0625-2.9375c0.59606-0.53044 1.2717-0.99305 2-1.3438l-1.3438-1.5312zm85 0c-1.7233 0.93986-3.1515 2.36-4.125 4.0625v0.28125l1.4062 1.2188c0.35139-0.72988 0.81225-1.4023 1.3438-2l2.9375 3.0625-4.4375 4.3125c-0.10879 0.10499-0.1001 0.26172 0 0.375 0.19263 0.21801 0.37574 0.43235 0.59375 0.625 0.11329 0.10011 0.30126 0.07752 0.40625-0.03125l4.2812-4.4375 4.2812 4.4375c0.105 0.1087 0.26175 0.13132 0.375 0.03125 0.21807-0.19268 0.4323-0.40692 0.625-0.625 0.10007-0.11325 0.1087-0.27 0-0.375l-4.4688-4.3125 2.7188-2.8125 0.6875 0.65625 2.25 0.78125-0.84375-2.1563-0.71875-0.71875 0.21875-0.1875-0.65625-0.65625-0.21875 0.1875-1.625-1.625-1.4062 1.375 1.625 1.625-2.8438 2.7188-3.0625-2.9375c0.59606-0.53044 1.2717-0.99305 2-1.3438l-1.3438-1.5312zm86 0c-1.7233 0.93986-3.1515 2.36-4.125 4.0625v0.28125l1.4062 1.2188c0.35139-0.72988 0.81225-1.4023 1.3438-2l2.9375 3.0625-4.4375 4.3125c-0.10879 0.10499-0.1001 0.26172 0 0.375 0.19263 0.21801 0.37574 0.43235 0.59375 0.625 0.11329 0.10011 0.30126 0.07752 0.40625-0.03125l4.2812-4.4375 4.2812 4.4375c0.105 0.1087 0.26175 0.13132 0.375 0.03125 0.21807-0.19268 0.4323-0.40692 0.625-0.625 0.10007-0.11325 0.1087-0.27 0-0.375l-4.4688-4.3125 2.7188-2.8125 0.6875 0.65625 2.25 0.78125-0.84375-2.1563-0.71875-0.71875 0.21875-0.1875-0.65625-0.65625-0.21875 0.1875-1.625-1.625-1.4062 1.375 1.625 1.625-2.8438 2.7188-3.0625-2.9375c0.59606-0.53044 1.2717-0.99305 2-1.3438l-1.3438-1.5312zm-128 26c-1.7233 0.93986-3.1515 2.36-4.125 4.0625v0.28125l1.4062 1.2188c0.3514-0.72988 0.81225-1.4023 1.3438-2l2.9375 3.0625-4.4375 4.3125c-0.10879 0.10499-0.1001 0.26172 0 0.375 0.19263 0.21801 0.37574 0.43235 0.59375 0.625 0.11329 0.10011 0.30126 0.07752 0.40625-0.03125l4.2812-4.4375 4.2812 4.4375c0.105 0.1087 0.26175 0.13132 0.375 0.03125 0.21807-0.19268 0.4323-0.40692 0.625-0.625 0.10007-0.11325 0.1087-0.27 0-0.375l-4.4688-4.3125 2.7188-2.8125 0.6875 0.65625 2.25 0.78125-0.84375-2.1562-0.71875-0.71875 0.21875-0.1875-0.65625-0.65625-0.21875 0.1875-1.625-1.625-1.4062 1.375 1.625 1.625-2.8438 2.7188-3.0625-2.9375c0.59606-0.53044 1.2717-0.99305 2-1.3438l-1.3438-1.5312zm85 0c-1.7233 0.93986-3.1515 2.36-4.125 4.0625v0.28125l1.4062 1.2188c0.35139-0.72988 0.81225-1.4023 1.3438-2l2.9375 3.0625-4.4375 4.3125c-0.10879 0.10499-0.1001 0.26172 0 0.375 0.19263 0.21801 0.37574 0.43235 0.59375 0.625 0.11329 0.10011 0.30126 0.07752 0.40625-0.03125l4.2812-4.4375 4.2812 4.4375c0.105 0.1087 0.26175 0.13132 0.375 0.03125 0.21807-0.19268 0.4323-0.40692 0.625-0.625 0.10007-0.11325 0.1087-0.27 0-0.375l-4.4688-4.3125 2.7188-2.8125 0.6875 0.65625 2.25 0.78125-0.84375-2.1562-0.71875-0.71875 0.21875-0.1875-0.65625-0.65625-0.21875 0.1875-1.625-1.625-1.4062 1.375 1.625 1.625-2.8438 2.7188-3.0625-2.9375c0.59606-0.53044 1.2717-0.99305 2-1.3438l-1.3438-1.5312zm85 0c-1.7233 0.93986-3.1515 2.36-4.125 4.0625v0.28125l1.4062 1.2188c0.35139-0.72988 0.81225-1.4023 1.3438-2l2.9375 3.0625-4.4375 4.3125c-0.10879 0.10499-0.1001 0.26172 0 0.375 0.19263 0.21801 0.37574 0.43235 0.59375 0.625 0.11329 0.10011 0.30126 0.07752 0.40625-0.03125l4.2812-4.4375 4.2812 4.4375c0.105 0.1087 0.26175 0.13132 0.375 0.03125 0.21807-0.19268 0.4323-0.40692 0.625-0.625 0.10007-0.11325 0.1087-0.27 0-0.375l-4.4688-4.3125 2.7188-2.8125 0.6875 0.65625 2.25 0.78125-0.84375-2.1562-0.71875-0.71875 0.21875-0.1875-0.65625-0.65625-0.21875 0.1875-1.625-1.625-1.4062 1.375 1.625 1.625-2.8438 2.7188-3.0625-2.9375c0.59606-0.53044 1.2717-0.99305 2-1.3438l-1.3438-1.5312zm-213 26c-1.7233 0.93986-3.1515 2.36-4.125 4.0625v0.28125l1.4062 1.2188c0.3514-0.72988 0.81225-1.4023 1.3438-2l2.9375 3.0625-4.4375 4.3125c-0.10879 0.10499-0.1001 0.26172 0 0.375 0.19263 0.21801 0.37574 0.43235 0.59375 0.625 0.11329 0.10011 0.30126 0.07752 0.40625-0.03125l4.2812-4.4375 4.2812 4.4375c0.105 0.1087 0.26175 0.13132 0.375 0.03125 0.21807-0.19268 0.4323-0.40692 0.625-0.625 0.10007-0.11325 0.1087-0.27 0-0.375l-4.4688-4.3125 2.7188-2.8125 0.6875 0.65625 2.25 0.78125-0.84375-2.1562-0.71875-0.71875 0.21875-0.1875-0.65625-0.65625-0.21875 0.1875-1.625-1.625-1.4062 1.375 1.625 1.625-2.8438 2.7188-3.0625-2.9375c0.59606-0.53044 1.2717-0.99305 2-1.3438l-1.3438-1.5312zm85 0c-1.7233 0.93986-3.1515 2.36-4.125 4.0625v0.28125l1.4062 1.2188c0.35139-0.72988 0.81225-1.4023 1.3438-2l2.9375 3.0625-4.4375 4.3125c-0.10879 0.10499-0.1001 0.26172 0 0.375 0.19263 0.21801 0.37574 0.43235 0.59375 0.625 0.11329 0.10011 0.30126 0.07752 0.40625-0.03125l4.2812-4.4375 4.2812 4.4375c0.105 0.1087 0.26175 0.13132 0.375 0.03125 0.21807-0.19268 0.4323-0.40692 0.625-0.625 0.10007-0.11325 0.1087-0.27 0-0.375l-4.4688-4.3125 2.7188-2.8125 0.6875 0.65625 2.25 0.78125-0.84375-2.1562-0.71875-0.71875 0.21875-0.1875-0.65625-0.65625-0.21875 0.1875-1.625-1.625-1.4062 1.375 1.625 1.625-2.8438 2.7188-3.0625-2.9375c0.59606-0.53044 1.2717-0.99305 2-1.3438l-1.3438-1.5312zm86 0c-1.7233 0.93986-3.1515 2.36-4.125 4.0625v0.28125l1.4062 1.2188c0.35139-0.72988 0.81225-1.4023 1.3438-2l2.9375 3.0625-4.4375 4.3125c-0.10879 0.10499-0.1001 0.26172 0 0.375 0.19263 0.21801 0.37574 0.43235 0.59375 0.625 0.11329 0.10011 0.30126 0.07752 0.40625-0.03125l4.2812-4.4375 4.2812 4.4375c0.105 0.1087 0.26175 0.13132 0.375 0.03125 0.21807-0.19268 0.4323-0.40692 0.625-0.625 0.10007-0.11325 0.1087-0.27 0-0.375l-4.4688-4.3125 2.7188-2.8125 0.6875 0.65625 2.25 0.78125-0.84375-2.1562-0.71875-0.71875 0.21875-0.1875-0.65625-0.65625-0.21875 0.1875-1.625-1.625-1.4062 1.375 1.625 1.625-2.8438 2.7188-3.0625-2.9375c0.59606-0.53044 1.2717-0.99305 2-1.3438l-1.3438-1.5312zm-128 25c-1.7233 0.93986-3.1515 2.36-4.125 4.0625v0.28125l1.4062 1.2188c0.3514-0.72988 0.81225-1.4023 1.3438-2l2.9375 3.0625-4.4375 4.3125c-0.10879 0.10499-0.1001 0.26172 0 0.375 0.19263 0.21801 0.37574 0.43235 0.59375 0.625 0.11329 0.10011 0.30126 0.07752 0.40625-0.03125l4.2812-4.4375 4.2812 4.4375c0.105 0.1087 0.26175 0.13132 0.375 0.03125 0.21807-0.19268 0.4323-0.40692 0.625-0.625 0.10007-0.11325 0.1087-0.27 0-0.375l-4.4688-4.3125 2.7188-2.8125 0.6875 0.65625 2.25 0.78125-0.84375-2.1562-0.71875-0.71875 0.21875-0.1875-0.65625-0.65625-0.21875 0.1875-1.625-1.625-1.4062 1.375 1.625 1.625-2.8438 2.7188-3.0625-2.9375c0.59606-0.53044 1.2717-0.99305 2-1.3438l-1.3438-1.5312zm85 0c-1.7233 0.93986-3.1515 2.36-4.125 4.0625v0.28125l1.4062 1.2188c0.35139-0.72988 0.81225-1.4023 1.3438-2l2.9375 3.0625-4.4375 4.3125c-0.10879 0.10499-0.1001 0.26172 0 0.375 0.19263 0.21801 0.37574 0.43235 0.59375 0.625 0.11329 0.10011 0.30126 0.07752 0.40625-0.03125l4.2812-4.4375 4.2812 4.4375c0.105 0.1087 0.26175 0.13132 0.375 0.03125 0.21807-0.19268 0.4323-0.40692 0.625-0.625 0.10007-0.11325 0.1087-0.27 0-0.375l-4.4688-4.3125 2.7188-2.8125 0.6875 0.65625 2.25 0.78125-0.84375-2.1562-0.71875-0.71875 0.21875-0.1875-0.65625-0.65625-0.21875 0.1875-1.625-1.625-1.4062 1.375 1.625 1.625-2.8438 2.7188-3.0625-2.9375c0.59606-0.53044 1.2717-0.99305 2-1.3438l-1.3438-1.5312zm85 0c-1.7233 0.93986-3.1515 2.36-4.125 4.0625v0.28125l1.4062 1.2188c0.35139-0.72988 0.81225-1.4023 1.3438-2l2.9375 3.0625-4.4375 4.3125c-0.10879 0.10499-0.1001 0.26172 0 0.375 0.19263 0.21801 0.37574 0.43235 0.59375 0.625 0.11329 0.10011 0.30126 0.07752 0.40625-0.03125l4.2812-4.4375 4.2812 4.4375c0.105 0.1087 0.26175 0.13132 0.375 0.03125 0.21807-0.19268 0.4323-0.40692 0.625-0.625 0.10007-0.11325 0.1087-0.27 0-0.375l-4.4688-4.3125 2.7188-2.8125 0.6875 0.65625 2.25 0.78125-0.84375-2.1562-0.71875-0.71875 0.21875-0.1875-0.65625-0.65625-0.21875 0.1875-1.625-1.625-1.4062 1.375 1.625 1.625-2.8438 2.7188-3.0625-2.9375c0.59606-0.53044 1.2717-0.99305 2-1.3438l-1.3438-1.5312zm-213 26c-1.7233 0.93987-3.1515 2.36-4.125 4.0625v0.28125l1.4062 1.2188c0.3514-0.72988 0.81225-1.4023 1.3438-2l2.9375 3.0625-4.4375 4.3125c-0.10879 0.10499-0.1001 0.26173 0 0.375 0.19263 0.21802 0.37574 0.43235 0.59375 0.625 0.11329 0.10011 0.30126 0.07745 0.40625-0.03125l4.2812-4.4375 4.2812 4.4375c0.105 0.1087 0.26175 0.13138 0.375 0.03125 0.21807-0.19268 0.4323-0.40691 0.625-0.625 0.10007-0.11324 0.1087-0.26999 0-0.375l-4.4688-4.3125 2.7188-2.8125 0.6875 0.65625 2.25 0.78125-0.84375-2.1562-0.71875-0.71875 0.21875-0.1875-0.65625-0.65625-0.21875 0.1875-1.625-1.625-1.4062 1.375 1.625 1.625-2.8438 2.7188-3.0625-2.9375c0.59606-0.53043 1.2717-0.99304 2-1.3438l-1.3438-1.5312zm85 0c-1.7233 0.93987-3.1515 2.36-4.125 4.0625v0.28125l1.4062 1.2188c0.35139-0.72988 0.81225-1.4023 1.3438-2l2.9375 3.0625-4.4375 4.3125c-0.10879 0.10499-0.1001 0.26173 0 0.375 0.19263 0.21802 0.37574 0.43235 0.59375 0.625 0.11329 0.10011 0.30126 0.07745 0.40625-0.03125l4.2812-4.4375 4.2812 4.4375c0.105 0.1087 0.26175 0.13138 0.375 0.03125 0.21807-0.19268 0.4323-0.40691 0.625-0.625 0.10007-0.11324 0.1087-0.26999 0-0.375l-4.4688-4.3125 2.7188-2.8125 0.6875 0.65625 2.25 0.78125-0.84375-2.1562-0.71875-0.71875 0.21875-0.1875-0.65625-0.65625-0.21875 0.1875-1.625-1.625-1.4062 1.375 1.625 1.625-2.8438 2.7188-3.0625-2.9375c0.59606-0.53043 1.2717-0.99304 2-1.3438l-1.3438-1.5312zm86 0c-1.7233 0.93987-3.1515 2.36-4.125 4.0625v0.28125l1.4062 1.2188c0.35139-0.72988 0.81225-1.4023 1.3438-2l2.9375 3.0625-4.4375 4.3125c-0.10879 0.10499-0.1001 0.26173 0 0.375 0.19263 0.21802 0.37574 0.43235 0.59375 0.625 0.11329 0.10011 0.30126 0.07745 0.40625-0.03125l4.2812-4.4375 4.2812 4.4375c0.105 0.1087 0.26175 0.13138 0.375 0.03125 0.21807-0.19268 0.4323-0.40691 0.625-0.625 0.10007-0.11324 0.1087-0.26999 0-0.375l-4.4688-4.3125 2.7188-2.8125 0.6875 0.65625 2.25 0.78125-0.84375-2.1562-0.71875-0.71875 0.21875-0.1875-0.65625-0.65625-0.21875 0.1875-1.625-1.625-1.4062 1.375 1.625 1.625-2.8438 2.7188-3.0625-2.9375c0.59606-0.53043 1.2717-0.99304 2-1.3438l-1.3438-1.5312zm-128 25c-1.7233 0.93987-3.1515 2.36-4.125 4.0625v0.28125l1.4062 1.2188c0.3514-0.72988 0.81225-1.4023 1.3438-2l2.9375 3.0625-4.4375 4.3125c-0.10879 0.10499-0.1001 0.26173 0 0.375 0.19263 0.21802 0.37574 0.43235 0.59375 0.625 0.11329 0.10011 0.30126 0.07745 0.40625-0.03125l4.2812-4.4375 4.2812 4.4375c0.105 0.1087 0.26175 0.13138 0.375 0.03125 0.21807-0.19268 0.4323-0.40691 0.625-0.625 0.10007-0.11325 0.1087-0.26999 0-0.375l-4.4688-4.3125 2.7188-2.8125 0.6875 0.65625 2.25 0.78125-0.84375-2.1562-0.71875-0.71875 0.21875-0.1875-0.65625-0.65625-0.21875 0.1875-1.625-1.625-1.4062 1.375 1.625 1.625-2.8438 2.7188-3.0625-2.9375c0.59606-0.53043 1.2717-0.99304 2-1.3438l-1.3438-1.5312zm85 0c-1.7233 0.93987-3.1515 2.36-4.125 4.0625v0.28125l1.4062 1.2188c0.35139-0.72988 0.81225-1.4023 1.3438-2l2.9375 3.0625-4.4375 4.3125c-0.10879 0.10499-0.1001 0.26173 0 0.375 0.19263 0.21802 0.37574 0.43235 0.59375 0.625 0.11329 0.10011 0.30126 0.07745 0.40625-0.03125l4.2812-4.4375 4.2812 4.4375c0.105 0.1087 0.26175 0.13138 0.375 0.03125 0.21807-0.19268 0.4323-0.40691 0.625-0.625 0.10007-0.11325 0.1087-0.26999 0-0.375l-4.4688-4.3125 2.7188-2.8125 0.6875 0.65625 2.25 0.78125-0.84375-2.1562-0.71875-0.71875 0.21875-0.1875-0.65625-0.65625-0.21875 0.1875-1.625-1.625-1.4062 1.375 1.625 1.625-2.8438 2.7188-3.0625-2.9375c0.59606-0.53043 1.2717-0.99304 2-1.3438l-1.3438-1.5312zm85 0c-1.7233 0.93987-3.1515 2.36-4.125 4.0625v0.28125l1.4062 1.2188c0.35139-0.72988 0.81225-1.4023 1.3438-2l2.9375 3.0625-4.4375 4.3125c-0.10879 0.10499-0.1001 0.26173 0 0.375 0.19263 0.21802 0.37574 0.43235 0.59375 0.625 0.11329 0.10011 0.30126 0.07745 0.40625-0.03125l4.2812-4.4375 4.2812 4.4375c0.105 0.1087 0.26175 0.13138 0.375 0.03125 0.21807-0.19268 0.4323-0.40691 0.625-0.625 0.10007-0.11325 0.1087-0.26999 0-0.375l-4.4688-4.3125 2.7188-2.8125 0.6875 0.65625 2.25 0.78125-0.84375-2.1562-0.71875-0.71875 0.21875-0.1875-0.65625-0.65625-0.21875 0.1875-1.625-1.625-1.4062 1.375 1.625 1.625-2.8438 2.7188-3.0625-2.9375c0.59606-0.53043 1.2717-0.99304 2-1.3438l-1.3438-1.5312zm-213 26c-1.7233 0.93987-3.1515 2.36-4.125 4.0625v0.28125l1.4062 1.2188c0.3514-0.72988 0.81225-1.4023 1.3438-2l2.9375 3.0625-4.4375 4.3125c-0.10879 0.10499-0.1001 0.26173 0 0.375 0.19263 0.21802 0.37574 0.43235 0.59375 0.625 0.11329 0.10011 0.30126 0.07745 0.40625-0.03125l4.2812-4.4375 4.2812 4.4375c0.105 0.1087 0.26175 0.13138 0.375 0.03125 0.21807-0.19268 0.4323-0.40691 0.625-0.625 0.10007-0.11325 0.1087-0.26999 0-0.375l-4.4688-4.3125 2.7188-2.8125 0.6875 0.65625 2.25 0.78125-0.84375-2.1562-0.71875-0.71875 0.21875-0.1875-0.65625-0.65625-0.21875 0.1875-1.625-1.625-1.4062 1.375 1.625 1.625-2.8438 2.7188-3.0625-2.9375c0.59606-0.53043 1.2717-0.99304 2-1.3438l-1.3438-1.5312zm85 0c-1.7233 0.93987-3.1515 2.36-4.125 4.0625v0.28125l1.4062 1.2188c0.35139-0.72988 0.81225-1.4023 1.3438-2l2.9375 3.0625-4.4375 4.3125c-0.10879 0.10499-0.1001 0.26173 0 0.375 0.19263 0.21802 0.37574 0.43235 0.59375 0.625 0.11329 0.10011 0.30126 0.07745 0.40625-0.03125l4.2812-4.4375 4.2812 4.4375c0.105 0.1087 0.26175 0.13138 0.375 0.03125 0.21807-0.19268 0.4323-0.40691 0.625-0.625 0.10007-0.11325 0.1087-0.26999 0-0.375l-4.4688-4.3125 2.7188-2.8125 0.6875 0.65625 2.25 0.78125-0.84375-2.1562-0.71875-0.71875 0.21875-0.1875-0.65625-0.65625-0.21875 0.1875-1.625-1.625-1.4062 1.375 1.625 1.625-2.8438 2.7188-3.0625-2.9375c0.59606-0.53043 1.2717-0.99304 2-1.3438l-1.3438-1.5312zm86 0c-1.7233 0.93987-3.1515 2.36-4.125 4.0625v0.28125l1.4062 1.2188c0.35139-0.72988 0.81225-1.4023 1.3438-2l2.9375 3.0625-4.4375 4.3125c-0.10879 0.10499-0.1001 0.26173 0 0.375 0.19263 0.21802 0.37574 0.43235 0.59375 0.625 0.11329 0.10011 0.30126 0.07745 0.40625-0.03125l4.2812-4.4375 4.2812 4.4375c0.105 0.1087 0.26175 0.13138 0.375 0.03125 0.21807-0.19268 0.4323-0.40691 0.625-0.625 0.10007-0.11325 0.1087-0.26999 0-0.375l-4.4688-4.3125 2.7188-2.8125 0.6875 0.65625 2.25 0.78125-0.84375-2.1562-0.71875-0.71875 0.21875-0.1875-0.65625-0.65625-0.21875 0.1875-1.625-1.625-1.4062 1.375 1.625 1.625-2.8438 2.7188-3.0625-2.9375c0.59606-0.53043 1.2717-0.99304 2-1.3438l-1.3438-1.5312zm-128 26c-1.7233 0.93987-3.1515 2.36-4.125 4.0625v0.28125l1.4062 1.2188c0.3514-0.72988 0.81225-1.4023 1.3438-2l2.9375 3.0625-4.4375 4.3125c-0.10879 0.10499-0.1001 0.26173 0 0.375 0.19263 0.21802 0.37574 0.43235 0.59375 0.625 0.11329 0.10011 0.30126 0.07745 0.40625-0.03125l4.2812-4.4375 4.2812 4.4375c0.105 0.1087 0.26175 0.13138 0.375 0.03125 0.21807-0.19268 0.4323-0.40691 0.625-0.625 0.10007-0.11325 0.1087-0.26999 0-0.375l-4.4688-4.3125 2.7188-2.8125 0.6875 0.65625 2.25 0.78125-0.84375-2.1562-0.71875-0.71875 0.21875-0.1875-0.65625-0.65625-0.21875 0.1875-1.625-1.625-1.4062 1.375 1.625 1.625-2.8438 2.7188-3.0625-2.9375c0.59606-0.53043 1.2717-0.99304 2-1.3438l-1.3438-1.5312zm85 0c-1.7233 0.93987-3.1515 2.36-4.125 4.0625v0.28125l1.4062 1.2188c0.35139-0.72988 0.81225-1.4023 1.3438-2l2.9375 3.0625-4.4375 4.3125c-0.10879 0.10499-0.1001 0.26173 0 0.375 0.19263 0.21802 0.37574 0.43235 0.59375 0.625 0.11329 0.10011 0.30126 0.07745 0.40625-0.03125l4.2812-4.4375 4.2812 4.4375c0.105 0.1087 0.26175 0.13138 0.375 0.03125 0.21807-0.19268 0.4323-0.40691 0.625-0.625 0.10007-0.11325 0.1087-0.26999 0-0.375l-4.4688-4.3125 2.7188-2.8125 0.6875 0.65625 2.25 0.78125-0.84375-2.1562-0.71875-0.71875 0.21875-0.1875-0.65625-0.65625-0.21875 0.1875-1.625-1.625-1.4062 1.375 1.625 1.625-2.8438 2.7188-3.0625-2.9375c0.59606-0.53043 1.2717-0.99304 2-1.3438l-1.3438-1.5312zm85 0c-1.7233 0.93987-3.1515 2.36-4.125 4.0625v0.28125l1.4062 1.2188c0.35139-0.72988 0.81225-1.4023 1.3438-2l2.9375 3.0625-4.4375 4.3125c-0.10879 0.10499-0.1001 0.26173 0 0.375 0.19263 0.21802 0.37574 0.43235 0.59375 0.625 0.11329 0.10011 0.30126 0.07745 0.40625-0.03125l4.2812-4.4375 4.2812 4.4375c0.105 0.1087 0.26175 0.13138 0.375 0.03125 0.21807-0.19268 0.4323-0.40691 0.625-0.625 0.10007-0.11325 0.1087-0.26999 0-0.375l-4.4688-4.3125 2.7188-2.8125 0.6875 0.65625 2.25 0.78125-0.84375-2.1562-0.71875-0.71875 0.21875-0.1875-0.65625-0.65625-0.21875 0.1875-1.625-1.625-1.4062 1.375 1.625 1.625-2.8438 2.7188-3.0625-2.9375c0.59606-0.53043 1.2717-0.99304 2-1.3438l-1.3438-1.5312zm-213 25c-1.7233 0.93987-3.1515 2.36-4.125 4.0625v0.28125l1.4062 1.2188c0.3514-0.72988 0.81225-1.4023 1.3438-2l2.9375 3.0625-4.4375 4.3125c-0.10879 0.10499-0.1001 0.26173 0 0.375 0.19263 0.21802 0.37574 0.43235 0.59375 0.625 0.11329 0.10011 0.30126 0.07745 0.40625-0.03125l4.2812-4.4375 4.2812 4.4375c0.105 0.1087 0.26175 0.13138 0.375 0.03125 0.21807-0.19268 0.4323-0.40691 0.625-0.625 0.10007-0.11325 0.1087-0.26999 0-0.375l-4.4688-4.3125 2.7188-2.8125 0.6875 0.65625 2.25 0.78125-0.84375-2.1562-0.71875-0.71875 0.21875-0.1875-0.65625-0.65625-0.21875 0.1875-1.625-1.625-1.4062 1.375 1.625 1.625-2.8438 2.7188-3.0625-2.9375c0.59606-0.53043 1.2717-0.99304 2-1.3438l-1.3438-1.5312zm85 0c-1.7233 0.93987-3.1515 2.36-4.125 4.0625v0.28125l1.4062 1.2188c0.35139-0.72988 0.81225-1.4023 1.3438-2l2.9375 3.0625-4.4375 4.3125c-0.10879 0.10499-0.1001 0.26173 0 0.375 0.19263 0.21802 0.37574 0.43235 0.59375 0.625 0.11329 0.10011 0.30126 0.07745 0.40625-0.03125l4.2812-4.4375 4.2812 4.4375c0.105 0.1087 0.26175 0.13138 0.375 0.03125 0.21807-0.19268 0.4323-0.40691 0.625-0.625 0.10007-0.11325 0.1087-0.26999 0-0.375l-4.4688-4.3125 2.7188-2.8125 0.6875 0.65625 2.25 0.78125-0.84375-2.1562-0.71875-0.71875 0.21875-0.1875-0.65625-0.65625-0.21875 0.1875-1.625-1.625-1.4062 1.375 1.625 1.625-2.8438 2.7188-3.0625-2.9375c0.59606-0.53043 1.2717-0.99304 2-1.3438l-1.3438-1.5312zm86 0c-1.7233 0.93987-3.1515 2.36-4.125 4.0625v0.28125l1.4062 1.2188c0.35139-0.72988 0.81225-1.4023 1.3438-2l2.9375 3.0625-4.4375 4.3125c-0.10879 0.10499-0.1001 0.26173 0 0.375 0.19263 0.21802 0.37574 0.43235 0.59375 0.625 0.11329 0.10011 0.30126 0.07745 0.40625-0.03125l4.2812-4.4375 4.2812 4.4375c0.105 0.1087 0.26175 0.13138 0.375 0.03125 0.21807-0.19268 0.4323-0.40691 0.625-0.625 0.10007-0.11325 0.1087-0.26999 0-0.375l-4.4688-4.3125 2.7188-2.8125 0.6875 0.65625 2.25 0.78125-0.84375-2.1562-0.71875-0.71875 0.21875-0.1875-0.65625-0.65625-0.21875 0.1875-1.625-1.625-1.4062 1.375 1.625 1.625-2.8438 2.7188-3.0625-2.9375c0.59606-0.53043 1.2717-0.99304 2-1.3438l-1.3438-1.5312zm-128 26c-1.7233 0.93987-3.1515 2.36-4.125 4.0625v0.28125l1.4062 1.2188c0.3514-0.72988 0.81225-1.4023 1.3438-2l2.9375 3.0625-4.4375 4.3125c-0.10879 0.10499-0.1001 0.26173 0 0.375 0.19263 0.21802 0.37574 0.43235 0.59375 0.625 0.11329 0.10011 0.30126 0.07745 0.40625-0.03125l4.2812-4.4375 4.2812 4.4375c0.105 0.1087 0.26175 0.13138 0.375 0.03125 0.21807-0.19268 0.4323-0.40691 0.625-0.625 0.10007-0.11325 0.1087-0.26999 0-0.375l-4.4688-4.3125 2.7188-2.8125 0.6875 0.65625 2.25 0.78125-0.84375-2.1562-0.71875-0.71875 0.21875-0.1875-0.65625-0.65625-0.21875 0.1875-1.625-1.625-1.4062 1.375 1.625 1.625-2.8438 2.7188-3.0625-2.9375c0.59606-0.53043 1.2717-0.99304 2-1.3438l-1.3438-1.5312zm85 0c-1.7233 0.93987-3.1515 2.36-4.125 4.0625v0.28125l1.4062 1.2188c0.35139-0.72988 0.81225-1.4023 1.3438-2l2.9375 3.0625-4.4375 4.3125c-0.10879 0.10499-0.1001 0.26173 0 0.375 0.19263 0.21802 0.37574 0.43235 0.59375 0.625 0.11329 0.10011 0.30126 0.07745 0.40625-0.03125l4.2812-4.4375 4.2812 4.4375c0.105 0.1087 0.26175 0.13138 0.375 0.03125 0.21807-0.19268 0.4323-0.40691 0.625-0.625 0.10007-0.11325 0.1087-0.26999 0-0.375l-4.4688-4.3125 2.7188-2.8125 0.6875 0.65625 2.25 0.78125-0.84375-2.1562-0.71875-0.71875 0.21875-0.1875-0.65625-0.65625-0.21875 0.1875-1.625-1.625-1.4062 1.375 1.625 1.625-2.8438 2.7188-3.0625-2.9375c0.59606-0.53043 1.2717-0.99304 2-1.3438l-1.3438-1.5312zm85 0c-1.7233 0.93987-3.1515 2.36-4.125 4.0625v0.28125l1.4062 1.2188c0.35139-0.72988 0.81225-1.4023 1.3438-2l2.9375 3.0625-4.4375 4.3125c-0.10879 0.10499-0.1001 0.26173 0 0.375 0.19263 0.21802 0.37574 0.43235 0.59375 0.625 0.11329 0.10011 0.30126 0.07745 0.40625-0.03125l4.2812-4.4375 4.2812 4.4375c0.105 0.1087 0.26175 0.13138 0.375 0.03125 0.21807-0.19268 0.4323-0.40691 0.625-0.625 0.10007-0.11325 0.1087-0.26999 0-0.375l-4.4688-4.3125 2.7188-2.8125 0.6875 0.65625 2.25 0.78125-0.84375-2.1562-0.71875-0.71875 0.21875-0.1875-0.65625-0.65625-0.21875 0.1875-1.625-1.625-1.4062 1.375 1.625 1.625-2.8438 2.7188-3.0625-2.9375c0.59606-0.53043 1.2717-0.99304 2-1.3438l-1.3438-1.5312z" fill="#e6e6e6"/>
 <rect width="256" height="256" rx="0" fill="none"/>
</svg>