<svg width="21" height="21" version="1.1" viewBox="0 0 21 21" xmlns="http://www.w3.org/2000/svg"><rect width="21" height="21" fill="none"/><rect x="1" y="1" width="19" height="19" rx="9.5" ry="9.5" fill="#cf3e2b" stroke="#cf3e2b" stroke-linejoin="round" stroke-width="2"/><rect x="1" y="1" width="19" height="19" rx="9.5" ry="9.5" fill="#ba3827"/><path transform="translate(3,3)" d="m7 1c-0.6 0-1.5 0.4-1.5 1v3.5h-3.5c-0.6 0-1 0.9-1 1.5v1c0 0.6 0.40463 1.5744 1 1.5h3.5v3.5c0 0.6 0.9 1 1.5 1h1c0.6 0 1.5744-0.40463 1.5-1v-3.5h3.5c0.6 0 1-0.9 1-1.5v-1c0-0.6-0.4-1.5-1-1.5h-3.5v-3.5c0-0.6-0.9-1-1.5-1z" fill="#ba3827" stroke="#fff"/></svg>
