<svg width="17" height="17" version="1.1" viewBox="0 0 17 17" xmlns="http://www.w3.org/2000/svg"><rect width="17" height="17" fill="none"/><rect x="1" y="1" width="15" height="15" rx="7.5" ry="7.5" fill="#cf3e2b" stroke="#cf3e2b" stroke-linejoin="round" stroke-width="2"/><rect x="1" y="1" width="15" height="15" rx="7.5" ry="7.5" fill="#ba3827"/><path d="m8.1071 3.3929c-0.47143 0-1.1786 0.31429-1.1786 0.78571v2.75h-2.75c-0.47143 0-0.78571 0.70714-0.78571 1.1786v0.78571c0 0.47143 0.31793 1.237 0.78571 1.1786h2.75v2.75c0 0.47143 0.70714 0.78571 1.1786 0.78571h0.78571c0.47143 0 1.237-0.31793 1.1786-0.78571v-2.75h2.75c0.47143 0 0.78571-0.70714 0.78571-1.1786v-0.78571c0-0.47143-0.31429-1.1786-0.78571-1.1786h-2.75v-2.75c0-0.47143-0.70714-0.78571-1.1786-0.78571z" fill="#ba3827" stroke="#fff" stroke-width=".78571"/></svg>
