<svg width="21" height="21" version="1.1" viewBox="0 0 21 21" xmlns="http://www.w3.org/2000/svg"><rect width="21" height="21" fill="none"/><rect x="1" y="1" width="19" height="19" rx="9.5" ry="9.5" fill="#bbb" stroke="#bbb" stroke-linejoin="round" stroke-width="2"/><rect x="1" y="1" width="19" height="19" rx="9.5" ry="9.5" fill="#fff"/><path d="m3 8.75v6.375c0 0.20719 0.16781 0.375 0.375 0.375h1.875v-7.5h-1.5c-0.41414 0-0.75 0.33586-0.75 0.75zm8.4375-1.125h-0.5625v-0.9375c0-0.10359-0.08391-0.1875-0.1875-0.1875h-0.375c-0.10359 0-0.1875 0.083906-0.1875 0.1875v1.5c0 0.10359 0.08391 0.1875 0.1875 0.1875h1.125c0.10359 0 0.1875-0.083906 0.1875-0.1875v-0.375c0-0.10359-0.08391-0.1875-0.1875-0.1875zm3.2285-1.4991-3.75-2.5001a0.75047 0.75047 0 0 0-0.83203 0l-3.75 2.5001a0.75005 0.75005 0 0 0-0.33398 0.62391v8.7502h3v-3.375c0-0.20719 0.16781-0.375 0.375-0.375h2.25c0.20719 0 0.375 0.16781 0.375 0.375v3.375h3v-8.7499c0-0.25078-0.12539-0.48516-0.33398-0.62414zm-4.166 3.3741c-1.0355 0-1.875-0.83953-1.875-1.875 0-1.0355 0.83953-1.875 1.875-1.875 1.0355 0 1.875 0.83953 1.875 1.875 0 1.0355-0.83953 1.875-1.875 1.875zm6.75-1.5h-1.5v7.5h1.875c0.20719 0 0.375-0.16781 0.375-0.375v-6.375c0-0.41414-0.33586-0.75-0.75-0.75z" fill="#725a50" stroke-width=".023438"/></svg>
