<svg width="17" height="17" version="1.1" viewBox="0 0 17 17" xmlns="http://www.w3.org/2000/svg"><rect width="17" height="17" fill="none"/><rect x="1" y="1" width="15" height="15" rx="7.5" ry="7.5" fill="#bbb" stroke="#bbb" stroke-linejoin="round" stroke-width="2"/><rect x="1" y="1" width="15" height="15" rx="7.5" ry="7.5" fill="#fff"/><g transform="matrix(.10064 0 0 .10064 3.7769 3.4362)" fill="#755e55"><path d="m13.132 76.351c-3.601 0-6.519-2.918-6.519-6.516 0-3.604 2.918-6.522 6.519-6.522 3.603 0 6.521 2.919 6.521 6.522 0 3.598-2.918 6.516-6.521 6.516"/><path d="m0 100v-12.777c0-4.605 3.784-8.351 8.398-8.351h9.003c4.613 0 8.731 3.745 8.731 8.351v12.777z"/><path d="m80.738 75.799c3.602 0 6.521-2.928 6.521-6.522 0-3.606-2.919-6.523-6.521-6.523-3.604 0-6.521 2.919-6.521 6.523 0 3.594 2.917 6.522 6.521 6.522"/><path d="m93.864 100v-12.777c0-4.605-3.785-8.351-8.402-8.351h-8.993c-4.62 0-8.733 3.745-8.733 8.351v12.777z"/><path d="m46.925 63.234c3.641 0 6.596 2.928 6.596 6.543 0 3.611-2.955 6.539-6.596 6.539-3.645 0-6.597-2.928-6.597-6.539 0-3.615 2.952-6.543 6.597-6.543"/><path d="m31.039 100 5.192-14.14c2.077-7.224 8.131-7.002 8.131-7.002h5.14s6.048-0.222 8.133 7.002l5.19 14.14z"/><polygon points="5.499 3.206 44.356 3.206 44.356 28.479 46.925 31.045 46.925 0.634 2.941 0.634 2.941 54.975 46.925 54.975 46.925 39.504 44.356 36.935 44.356 52.4 5.499 52.4"/><path d="m80.738 26.508c3.602 0 6.521-2.927 6.521-6.522 0-3.607-2.919-6.523-6.521-6.523-3.604 0-6.521 2.918-6.521 6.523 0 3.595 2.917 6.522 6.521 6.522"/><path d="m85.461 28.588h-8.993c-1.621 0-3.174 0.467-4.516 1.266-1.594 0.634-2.942 1.739-3.868 3.131l-5.405 8.154-8.198-3e-3 -11.582-11.581c-0.435-0.438-1.142-0.438-1.576 0-0.438 0.435-0.44 1.142-3e-3 1.579l11.019 11.02c-0.238 0.394-0.612 1.193-0.612 1.698 0 1.521 1.229 2.743 2.744 2.743h9.029c1.024 0 2.375-0.415 2.949-1.277 0.429-0.637 0.863-1.281 1.286-1.908v12.151h26.129v-18.622c0-4.606-3.785-8.351-8.403-8.351"/></g></svg>
