<?xml version="1.0" encoding="UTF-8" standalone="no"?>
<svg
   xmlns:dc="http://purl.org/dc/elements/1.1/"
   xmlns:cc="http://creativecommons.org/ns#"
   xmlns:rdf="http://www.w3.org/1999/02/22-rdf-syntax-ns#"
   xmlns:svg="http://www.w3.org/2000/svg"
   xmlns="http://www.w3.org/2000/svg"
   xmlns:sodipodi="http://sodipodi.sourceforge.net/DTD/sodipodi-0.dtd"
   xmlns:inkscape="http://www.inkscape.org/namespaces/inkscape"
   width="17"
   height="17"
   version="1.1"
   viewBox="0 0 17 17"
   id="svg14"
   sodipodi:docname="school_11.svg"
   inkscape:version="1.0.2-2 (e86c870879, 2021-01-15)">
  <metadata
     id="metadata20">
    <rdf:RDF>
      <cc:Work
         rdf:about="">
        <dc:format>image/svg+xml</dc:format>
        <dc:type
           rdf:resource="http://purl.org/dc/dcmitype/StillImage" />
        <dc:title></dc:title>
      </cc:Work>
    </rdf:RDF>
  </metadata>
  <defs
     id="defs18" />
  <sodipodi:namedview
     pagecolor="#ffffff"
     bordercolor="#666666"
     borderopacity="1"
     objecttolerance="10"
     gridtolerance="10"
     guidetolerance="10"
     inkscape:pageopacity="0"
     inkscape:pageshadow="2"
     inkscape:window-width="1920"
     inkscape:window-height="1009"
     id="namedview16"
     showgrid="false"
     inkscape:zoom="49.529412"
     inkscape:cx="8.5"
     inkscape:cy="8.5"
     inkscape:window-x="-8"
     inkscape:window-y="-8"
     inkscape:window-maximized="1"
     inkscape:current-layer="svg14" />
  <rect
     width="17"
     height="17"
     fill="none"
     id="rect2" />
  <rect
     x="1"
     y="1"
     width="15"
     height="15"
     rx="7.5"
     ry="7.5"
     fill="#bbb"
     stroke="#bbb"
     stroke-linejoin="round"
     stroke-width="2"
     id="rect4" />
  <rect
     x="1"
     y="1"
     width="15"
     height="15"
     rx="7.5"
     ry="7.5"
     fill="#fff"
     id="rect6" />
  <path
     fill="#725a50ff"
     d="m 2.4999998,7.2000015 v 5.1000005 c 0,0.16575 0.13425,0.3 0.3,0.3 h 1.5 V 6.6000015 h -1.2 c -0.3313125,0 -0.6,0.2686875 -0.6,0.6 z m 6.7499998,-0.9 H 8.7999997 v -0.75 c 0,-0.082875 -0.067125,-0.15 -0.15,-0.15 h -0.3 c -0.082875,0 -0.15,0.067125 -0.15,0.15 v 1.2 c 0,0.082875 0.067125,0.15 0.15,0.15 h 0.8999999 c 0.082875,0 0.15,-0.067125 0.15,-0.15 v -0.3 c 0,-0.082875 -0.067125,-0.15 -0.15,-0.15 z M 11.832813,5.1007516 8.8328121,3.1006891 a 0.60037499,0.60037499 0 0 0 -0.6656249,0 L 5.1671873,5.1007516 a 0.60003749,0.60003749 0 0 0 -0.2671875,0.499125 v 7.0001254 h 2.3999999 v -2.7 c 0,-0.1657502 0.13425,-0.3000002 0.3,-0.3000002 h 1.7999999 c 0.16575,0 0.3,0.13425 0.3,0.3000002 v 2.7 H 12.1 V 5.600064 C 12.1,5.3994391 11.999687,5.2119391 11.832813,5.1007516 Z M 8.4999997,7.8000015 c -0.8283751,0 -1.5,-0.671625 -1.5,-1.5 0,-0.8283749 0.6716249,-1.4999999 1.5,-1.4999999 0.828375,0 1.5000002,0.671625 1.5000002,1.4999999 0,0.828375 -0.6716252,1.5 -1.5000002,1.5 z m 5.4000003,-1.2 h -1.2 v 6.0000005 h 1.5 c 0.16575,0 0.3,-0.13425 0.3,-0.3 V 7.2000015 c 0,-0.3313125 -0.268688,-0.6 -0.6,-0.6 z"
     id="path2"
     style="fill:#725a50;fill-opacity:1;stroke-width:0.01875" />
</svg>
