<?xml version="1.0" encoding="UTF-8"?>
<svg width="21" height="21" version="1.1" viewBox="0 0 21 21" xmlns="http://www.w3.org/2000/svg">
 <rect width="21" height="21" fill="none"/>
 <rect x="1" y="1" width="19" height="19" rx="9.5" ry="9.5" fill="#bbb" stroke="#bbb" stroke-linejoin="round" stroke-width="2"/>
 <rect x="1" y="1" width="19" height="19" rx="9.5" ry="9.5" fill="#fff"/>
 <path d="m7.9612 3.302c-0.12623 0.042835-0.22315 0.13073-0.26372 0.24005l-0.023653 0.061945v13.792l0.023653 0.0631c0.032667 0.08679 0.11495 0.17356 0.20399 0.21526 0.059709 0.02705 0.085649 0.03266 0.16116 0.03266 0.07551 0 0.10143-0.0058 0.15778-0.03158 0.087905-0.0406 0.1544-0.10706 0.19385-0.19271l0.031585-0.06873 0.00361-0.77536 0.00361-0.77424h4.0898v0.74156c0 0.82271 0 0.82271 0.07326 0.93428 0.08677 0.13186 0.24906 0.19722 0.40121 0.16116 0.13073-0.03043 0.20737-0.09128 0.26597-0.21075l0.04284-0.08677v-13.808l-0.04284-0.086774c-0.05862-0.11946-0.13523-0.18032-0.26597-0.21075-0.15214-0.036056-0.31443 0.029278-0.40121 0.16116-0.07212 0.11045-0.07326 0.11946-0.07326 0.86102v0.6683h-4.0898l-0.00361-0.70211-0.00361-0.70099-0.031585-0.068723c-0.060855-0.13186-0.1882-0.21864-0.33358-0.2254-0.042835-0.00216-0.093545 0.00216-0.11946 0.010168zm4.5812 2.9493v0.8227h-4.091v-1.6454h4.091zm0 2.0849v0.8227h-4.091v-1.6454h4.091zm0 2.0849v0.8227h-4.091v-1.6454h4.091zm0 2.0962v0.8227h-4.091v-1.6454h4.091zm0 2.0849v0.8227h-4.091v-1.6454h4.091z" fill="#755e55" stroke="#755e55" stroke-width=".5769"/>
</svg>
