<?xml version="1.0" encoding="UTF-8"?>
<svg width="17" height="17" version="1.1" viewBox="0 0 17 17" xmlns="http://www.w3.org/2000/svg">
 <rect width="17" height="17" fill="none"/>
 <rect x="1" y="1" width="15" height="15" rx="7.5" ry="7.5" fill="#bbb" stroke="#bbb" stroke-linejoin="round" stroke-width="2"/>
 <rect x="1" y="1" width="15" height="15" rx="7.5" ry="7.5" fill="#fff"/>
 <path d="m6.469 2.7416c-0.10098 0.034268-0.17852 0.10459-0.21097 0.19204l-0.018922 0.049556v11.034l0.018922 0.05048c0.026134 0.06943 0.091964 0.13885 0.16319 0.1722 0.047767 0.02164 0.068519 0.02613 0.12893 0.02613 0.060408 0 0.081141-0.0046 0.12622-0.02527 0.070324-0.03248 0.12352-0.08565 0.15508-0.15417l0.025268-0.05498 0.00288-0.62029 0.00288-0.6194h3.2719v0.59324c0 0.65816 0 0.65816 0.05861 0.74742 0.06942 0.10549 0.19925 0.15778 0.32096 0.12893 0.10459-0.02434 0.16589-0.07303 0.21277-0.1686l0.03427-0.06942v-11.046l-0.03427-0.069419c-0.0469-0.095569-0.10819-0.14425-0.21277-0.1686-0.12171-0.028845-0.25154 0.023422-0.32096 0.12893-0.0577 0.088358-0.05861 0.09557-0.05861 0.68881v0.53464h-3.2719l-0.00288-0.56169-0.00288-0.56079-0.025268-0.054979c-0.0487-0.10549-0.15057-0.17491-0.26688-0.18032-0.034268-0.00173-0.074836 0.00173-0.09557 0.00813zm3.665 2.3595v0.65816h-3.2728v-1.3163h3.2728zm0 1.6679v0.65816h-3.2728v-1.3163h3.2728zm0 1.6679v0.65816h-3.2728v-1.3163h3.2728zm0 1.677v0.65816h-3.2728v-1.3163h3.2728zm0 1.6679v0.65816h-3.2728v-1.3163h3.2728z" fill="#755e55" stroke="#755e55" stroke-width=".46152"/>
</svg>
