<svg width="17" height="17" version="1.1" viewBox="0 0 17 17" xmlns="http://www.w3.org/2000/svg"><rect width="17" height="17" fill="none"/><rect x="1" y="1" width="15" height="15" rx="7.5" ry="7.5" fill="#bbb" stroke="#bbb" stroke-linejoin="round" stroke-width="2"/><rect x="1" y="1" width="15" height="15" rx="7.5" ry="7.5" fill="#fff"/><g transform="matrix(.11111 0 0 .11111 2.9509 2.9444)" fill="#5d60be"><path d="m68.55 62h-0.46c-0.02-0.036-0.04-0.071-0.06-0.107h-2.88c0.649 1.387 1.33 2.757 2.03 4.107h-34.248c0.7-1.35 1.378-2.72 2.03-4.107h-2.882c-0.02 0.036-0.04 0.071-0.06 0.107h-0.68c-6.738 13.36-18.42 27.79-22.963 33h-3.183c3.99-4.27 16.926-19.66 23.331-33h-3.589c-1.107 0-2.004-0.89-2.004-2v-6h54.036v6c0 1.11-0.888 2-2.003 2h-3.605c6.41 13.34 19.34 28.73 23.33 33h-3.18c-4.544-5.21-16.23-19.64-22.96-33m-40.224 12.12h43.458c1.069 1.737 2.146 3.41 3.209 5h-49.873c1.06-1.59 2.14-3.263 3.206-5m-10.368 14.88h64.192c2.18 2.79 3.95 4.86 4.94 6h-74.07c0.99-1.14 2.756-3.21 4.938-6m20.042-57c0-0.611 0.05-1.212 0.13-1.8l-13.715-13.718c-1.56-1.56-1.555-4.095 4e-3 -5.654 1.562-1.562 4.09-1.566 5.651-3e-3l12.09 12.089c1.362-1.175 2.99-2.049 4.78-2.52-2.9-1.204-4.94-4.06-4.94-7.394 0-4.418 3.582-8 8-8 4.42 0 8 3.582 8 8 0 3.334-2.04 6.19-4.94 7.394 1.791 0.47 3.42 1.345 4.779 2.52l12.089-12.089c1.562-1.563 4.092-1.559 5.652 3e-3 1.56 1.559 1.57 4.094 0.01 5.654l-13.724 13.718c0.088 0.588 0.134 1.189 0.134 1.8h-24m-11.413 2.962c0.228-1.084 1.311-1.962 2.423-1.962h41.984c1.106 0 2.186 0.878 2.416 1.962l3.59 17.038h-54l3.587-17.038" fill="#5d60be" fill-rule="evenodd"/></g></svg>
