<?xml version="1.0" encoding="UTF-8"?>
<svg width="17" height="17" version="1.1" viewBox="0 0 17 17" xmlns="http://www.w3.org/2000/svg">
 <rect width="17" height="17" fill="none"/>
 <rect x="1" y="1" width="15" height="15" rx="7.5" ry="7.5" fill="#bbb" stroke="#bbb" stroke-linejoin="round" stroke-width="2"/>
 <rect x="1" y="1" width="15" height="15" rx="7.5" ry="7.5" fill="#fff"/>
 <path id="Shape" d="m4.9052 13.281h7.1895v-2.8758h-7.1895zm-0.71895-3.1156c0-0.26463 0.25762-0.47916 0.57526-0.47916h7.4769c0.31771 0 0.57527 0.21465 0.57527 0.47916v3.3554c0 0.26464-0.25762 0.47917-0.57527 0.47917h-7.4769c-0.31771 0-0.57526-0.21465-0.57526-0.47917zm0.71895-5.2722h7.1895v-1.1743h-7.1895zm-0.71895-1.4141c0-0.26461 0.25762-0.47912 0.57526-0.47912h7.4769c0.31771 0 0.57527 0.2146 0.57527 0.47912v1.654c0 0.26461-0.25762 0.47912-0.57527 0.47912h-7.4769c-0.31771 0-0.57526-0.2146-0.57526-0.47912zm7.1895 2.3727h0.71895v3.5948h-0.71895zm-5.7516 0v3.5948h-0.71895v-3.5948zm2.8639 2.3413c0.63214 0 1.1464 0.50461 1.162 1.133 2.42e-4 0.0098 3.67e-4 0.12048 3.67e-4 0.12048h-2.3247l1.5e-5 -0.01122c5.1e-5 -0.02897 2.12e-4 -0.10468 4.62e-4 -0.11376 0.01789-0.6263 0.53125-1.1285 1.1619-1.1285zm-0.0059-1.9818c0.48146 0 0.87177 0.3903 0.87177 0.87176 0 0.48147-0.39031 0.87177-0.87177 0.87177-0.48147 0-0.87177-0.3903-0.87177-0.87177 0-0.48146 0.3903-0.87176 0.87177-0.87176z" fill="#755e55"/>
</svg>
