<?xml version="1.0" encoding="UTF-8"?>
<svg width="21" height="21" version="1.1" viewBox="0 0 21 21" xmlns="http://www.w3.org/2000/svg">
 <rect width="21" height="21" fill="none"/>
 <rect x="1" y="1" width="19" height="19" rx="9.5" ry="9.5" fill="#bbb" stroke="#bbb" stroke-linejoin="round" stroke-width="2"/>
 <rect x="1" y="1" width="19" height="19" rx="9.5" ry="9.5" fill="#fff"/>
 <path id="Shape" d="m5.9248 16.585h9.1503v-3.6601h-9.1503zm-0.91503-3.9653c0-0.3368 0.32788-0.60984 0.73215-0.60984h9.5161c0.40436 0 0.73216 0.2732 0.73216 0.60984v4.2705c0 0.33681-0.32788 0.60985-0.73216 0.60985h-9.5161c-0.40436 0-0.73215-0.2732-0.73215-0.60985zm0.91503-6.7101h9.1503v-1.4946h-9.1503zm-0.91503-1.7998c0-0.33677 0.32788-0.60978 0.73215-0.60978h9.5161c0.40436 0 0.73216 0.27313 0.73216 0.60978v2.105c0 0.33677-0.32788 0.60978-0.73216 0.60978h-9.5161c-0.40436 0-0.73215-0.27312-0.73215-0.60978zm9.1503 3.0198h0.91503v4.5752h-0.91503zm-7.3203 0v4.5752h-0.91503v-4.5752zm3.6449 2.9798c0.80454 0 1.4591 0.64224 1.4789 1.442 3.08e-4 0.01241 4.67e-4 0.15334 4.67e-4 0.15334h-2.9587l1.87e-5 -0.01428c6.53e-5 -0.03687 2.706e-4 -0.13323 5.88e-4 -0.14478 0.022773-0.7971 0.67613-1.4363 1.4788-1.4363zm-0.0075-2.5223c0.61277 0 1.1095 0.49675 1.1095 1.1095 0 0.61278-0.49676 1.1095-1.1095 1.1095-0.61278 0-1.1095-0.49675-1.1095-1.1095 0-0.61277 0.49675-1.1095 1.1095-1.1095z" fill="#755e55"/>
</svg>
